<svg width="92" height="92" viewBox="0 0 92 92" fill="none" xmlns="http://www.w3.org/2000/svg">
<path d="M39.8589 80.0017C33.7303 78.8887 28.0169 76.1385 23.324 72.0427C18.6312 67.9469 15.1337 62.6578 13.2021 56.736C11.2706 50.8142 10.9769 44.4802 12.3521 38.4051C13.7274 32.3299 16.7204 26.74 21.0141 22.2274C25.3078 17.7149 30.7422 14.4478 36.7415 12.7724C42.7408 11.0971 49.0816 11.0757 55.092 12.7107C61.1025 14.3457 66.5587 17.5762 70.8827 22.0597C75.2066 26.5433 78.2371 32.113 79.6532 38.1788M39.7726 62.9963C37.0859 61.9322 34.6958 60.2353 32.8053 58.0498C30.9147 55.8643 29.5796 53.2548 28.9133 50.443C28.2471 47.6311 28.2693 44.7 28.9782 41.8986C29.687 39.0972 31.0616 36.5082 32.9851 34.3517C34.9086 32.1952 37.3242 30.5348 40.0267 29.5115C42.7292 28.4883 45.6387 28.1325 48.5081 28.4742C51.3775 28.816 54.1221 29.8453 56.5086 31.4747C58.8951 33.1042 60.8531 35.2855 62.2162 37.8335" stroke="#484964" stroke-width="2" stroke-linecap="round" stroke-linejoin="round"/>
<path d="M79.1771 50.7798H51.9426V77.928M80.2993 79.007L54.9639 53.801" stroke="#484964" stroke-width="2" stroke-linecap="round" stroke-linejoin="round"/>
</svg>
