<svg width="92" height="92" viewBox="0 0 92 92" fill="none" xmlns="http://www.w3.org/2000/svg">
<path d="M7.66663 11.5H30.6666C34.7333 11.5 38.6334 13.1155 41.5089 15.991C44.3845 18.8666 46 22.7667 46 26.8333V80.5C46 77.45 44.7884 74.5249 42.6317 72.3683C40.475 70.2116 37.5499 69 34.5 69H7.66663V11.5Z" stroke="#484964" stroke-width="2" stroke-linecap="round" stroke-linejoin="round"/>
<path d="M84.3333 11.5H61.3333C57.2667 11.5 53.3666 13.1155 50.491 15.991C47.6155 18.8666 46 22.7667 46 26.8333V80.5C46 77.45 47.2116 74.5249 49.3683 72.3683C51.5249 70.2116 54.45 69 57.5 69H84.3333V11.5Z" stroke="#484964" stroke-width="2" stroke-linecap="round" stroke-linejoin="round"/>
</svg>
