<svg id="Layer_1" data-name="Layer 1" xmlns="http://www.w3.org/2000/svg" viewBox="0 0 600 600"><defs><style>.cls-1{fill:#0056d1;}</style></defs><path class="cls-1" d="M575,298.61c0,67.32-42.8,121.8-106.38,135.59-46.58,10.11-88.88-.28-126.31-30-13.63-10.83-25.42-23.49-36.34-37-.94-1.15-1.06-1.94-.12-3.19,13.39-17.82,25.31-36.65,37.72-55.15,1.25-1.86,1.85-1.85,3.14,0,8.73,12.41,18,24.41,28.83,35.08,19.07,18.68,41.59,27.86,68.49,26.19,33.07-2.06,60.69-29,63.28-62.07,1.56-19.84-2.77-38-15.51-53.56-13.41-16.38-31.12-24.53-52.09-24.92-24.88-.47-45.93,8.85-63.56,26.35-15.4,15.29-27.65,33-39.7,50.89-14,20.79-27.38,42-43.18,61.51-12.58,15.53-26.39,29.79-42.69,41.47-24.83,17.8-52.46,27.34-83,27.9-37.87.69-71.49-10.59-99.5-36.57-25-23.18-39-52.11-42.27-86-3.66-38,5.58-72.63,29.83-102.4,25.69-31.54,59.37-48.12,99.92-50.17,44.37-2.24,82.08,13.43,114,43.82,2.44,2.33,6.52,4.37,6.6,7.34.08,2.69-3.2,5.5-5.06,8.22-10.46,15.33-21,30.62-31.37,46-1.49,2.19-2.2,2.82-4.21.34a134.06,134.06,0,0,0-20.6-20.44,82.14,82.14,0,0,0-50.54-18.11c-24.57-.55-44.51,8.69-58.83,28.63-22.9,31.85-16.7,83.05,23.39,103.77,22.09,11.42,44.92,10.76,67.54,1.35,16.22-6.74,28.45-18.74,39.64-31.87,14.14-16.61,26-34.88,38-53,13.92-21.11,28.15-42,45.27-60.69,18.91-20.7,40.36-38.05,67.27-46.86,51.91-17,100.25-10.59,142.46,25.76,26.77,23.05,41.18,53.08,45.15,88.16C574.81,290.06,575,295.21,575,298.61Z"/></svg>