<svg id="Layer_1" data-name="Layer 1" xmlns="http://www.w3.org/2000/svg" viewBox="0 0 600 600"><path d="M105,270.79c-4.65-14.66-14-26.31-29.75-28.46C58.81,240.08,42,240.71,25,240.06V336.8c15.37,0,30.26.85,45-.21,16.82-1.22,28.54-10.44,34.55-26.58C109.41,296.94,109.12,283.74,105,270.79ZM87,302.13c-1.81,11-8.66,17.2-19.69,18.27-7.52.74-15.17.14-23.26.14V256.49c9.15.56,18.2,0,26.7,1.91,10.71,2.43,15.47,11.52,16.76,21.65A78.55,78.55,0,0,1,87,302.13Z"/><path d="M402.56,267.47c-5.56,0-10.85.19-16.1-.16-1.14-.07-2.51-1.91-3.16-3.24-5.16-10.69-24.93-13.87-33.23-5.25-5.14,5.34-3,13.66,4.62,16.5,5.32,2,11,2.94,16.5,4.52,6.39,1.85,12.92,3.41,19.05,5.93,21.14,8.71,17.64,37,3.08,46.41-15.38,9.95-42.34,9.43-56.87-1.72-7.13-5.47-10.13-13-10.68-22.56,5.6,0,10.89-.19,16.14.15,1.08.07,2.56,1.94,3,3.26,2.34,7.71,7.58,12,15.41,12.24a67.9,67.9,0,0,0,17.43-1.46c4.89-1.12,8-4.9,8.17-10.45s-2.86-9.16-7.65-10.84c-6.09-2.13-12.46-3.44-18.69-5.17-4.59-1.27-9.22-2.41-13.69-4-11.53-4.17-17.3-11.68-17.55-22.76-.27-11.88,5-20.78,15.78-25.54a51.2,51.2,0,0,1,40.65-.58C395.32,246.93,400.94,255.42,402.56,267.47Z"/><path d="M504,268.67H486.76c-.28,2.34-.5,4.24-.78,6.48-14.11-12.48-33.18-11.31-42.93,2.66-6.93,9.9-8.2,21.16-5,32.77,3.81,13.83,16.7,23.49,30.84,22,5.83-.63,11.36-4.07,17.17-6.27,0,2.48.89,6.16-.21,9.09-1.44,3.83-3.73,8.22-7,10.29-6.72,4.29-16.53,1.84-22.2-4.08a5.46,5.46,0,0,0-3.3-1.7c-4.9-.18-9.81-.08-15.27-.08,2.2,10.39,8.28,15.85,17,18.76a45.44,45.44,0,0,0,30.06.13c11.08-3.84,17.71-11.36,18.21-23,.65-15.05.46-30.12.57-45.18C504,283.27,504,276.07,504,268.67Zm-34.1,50.07c-10.22-.16-16-7.74-15.74-20.79.16-10.37,6.9-17.54,16.33-17.39,9.9.16,16.8,8,16.77,19.16C487.22,311.42,480.38,318.93,469.89,318.74Z"/><path d="M147.35,266.27c-20.44,0-36.61,15.56-36.63,35.24,0,21.88,15.35,37.83,36.49,37.81,20.71,0,36.06-15.64,36.12-36.81C183.4,281.88,167.89,266.26,147.35,266.27Zm16.43,45.8c-1.46,8.7-8.43,13.53-16.66,13.53-8.5,0-14.28-4.53-16.76-13.47-.84-3.09-1.12-6.34-1.71-9.91.74-3.45,1.21-7.26,2.41-10.82,2.66-7.89,8.36-11.77,16.34-11.67,7.68.12,14.33,4.37,15.91,12.17A56.53,56.53,0,0,1,163.78,312.07Z"/><path d="M574.82,336.81H557.48V311.15c0-5.33.13-10.68-.06-16-.29-8.14-4.06-12.78-10.5-13.28-8.56-.67-14.86,3.66-16,11.89-.77,5.61-.41,11.38-.45,17.08,0,8.53,0,17.06,0,25.92H512.81V268.56h17.32v9.13a29.65,29.65,0,0,0,2.43-2.29c6.93-8.56,16-10.89,26.13-7.9,9.48,2.79,15.5,9.76,15.93,19.51C575.34,303.48,574.82,320,574.82,336.81Z"/><path d="M319.91,336.79H303.14v-8.45a59.1,59.1,0,0,1-4.39,4.72c-7.94,6.58-16.87,7.46-26.32,4.14-8.73-3.06-13.35-9.95-13.68-18.63-.62-16.53-.18-33.09-.18-50h17.71c0,13.67.09,27.16,0,40.65-.08,9.91,3.48,14.71,11.46,14.95s14.21-5.39,14.51-14.29c.39-11.62.18-23.26.23-34.88,0-2.06,0-4.11,0-6.47h17.45Z"/><path d="M253.15,291.05H239c-5.5-4.2-9.08-8.72-13.57-10-8.74-2.47-16.52,2.64-18.45,11.66a55.28,55.28,0,0,0-.67,18.06c1,8.41,6.59,13.26,14.16,14.09,8.42.92,12.75-2,17-11.65h16.16c-1.41,15.59-13.19,25.5-30.08,26-14.64.44-28.11-8.15-33.46-21.35-5.87-14.5-2.16-33.6,8.34-42.86,10.89-9.61,27.41-11.46,40.61-4.54C247.18,274.79,251.16,281.93,253.15,291.05Z"/><path d="M429.28,268.62v68.2H412.1v-68.2Z"/><path d="M429.12,257.7h-17V241.27h17Z"/></svg>