<svg id="Layer_1" data-name="Layer 1" xmlns="http://www.w3.org/2000/svg" viewBox="0 0 600 600"><defs><style>.cls-1{fill:#067904;}</style></defs><path class="cls-1" d="M143,60c.38-.08,1-.06,1.1-.25,11.26-30.86,34.05-38.58,63.47-33.13q93.29,17.3,186.58,34.49c18.2,3.36,36.34,7.1,54.61,10,5.91.94,7.27,3.19,7.62,8.85,1.82,28.69,2.06,28.36-25.81,25.13C379.94,99.21,329.3,93.7,278.66,88.19c-8-.87-16.15-2-23.84,2-10.27,5.44-16.77,13.13-16.76,25.46q.09,183.08-.12,366.14c0,8.29,2.2,8.59,9.19,6,42.3-15.54,84.79-30.54,127.14-46,20.74-7.56,27.64-24.53,28.4-44.74.58-15.43.15-30.9.12-46.35q-.19-110-.54-220.07c0-6.29,1.16-8.92,8.12-8.29,12.67,1.16,25.41,1.83,38.13,2,8.28.12,6.44,5.56,6.68,10.31,2,39.74-2.29,79.49-.59,119.13,2.43,56.36-.27,112.67.85,169,.56,28.4-11.77,48.92-40.79,60.33-69.89,27.47-138.85,57.28-208.23,86.05-14.69,6.1-29.54,8.69-44.67,1-9.07-4.63-12.37-14.16-18.79-21Z"/></svg>