<svg id="Layer_1" data-name="Layer 1" xmlns="http://www.w3.org/2000/svg" viewBox="0 0 600 600"><defs><style>.cls-1{fill:#00ab47;}.cls-2{fill:#feb900;}.cls-3{fill:#2684fb;}.cls-4{fill:#0066d9;}.cls-5{fill:#e94335;}.cls-6{fill:#fefefe;}.cls-7{fill:#00832d;}.cls-8{fill:#379226;}</style></defs><path class="cls-1" d="M575,142.82V450.4c0,9-1.13,17.26-10.13,21.58-9.39,4.49-16.9-.2-24.21-6.2-25.34-20.45-51-40.91-79-63.24,0,25,.19,47.1,0,69.24,0,36.23-17.45,53.68-53.3,53.68q-116.53.27-232.88,0c-4.13,0-8.26-.57-12.58-.94-3.75-3.37-4.13-8.07-4.31-12.76-.19-37.53-.38-75.26.18-113a19.93,19.93,0,0,1,1.69-7.88v-.19a3.94,3.94,0,0,1,.76-1.13,4.71,4.71,0,0,1,2.06-2.25c.18-.19.56-.37.75-.56.19,0,.37-.2.56-.2a7.52,7.52,0,0,1-1.31,2.07c52.17,0,104.34-.19,156.51.19,9.57.19,11.82-2.82,11.63-11.82-.18-25,.38-49.92.75-75.07l.38-.37c5.07-3.57,9.38,2.63,12.76,5.25,20.83,15.39,40.91,31.34,61,47.48,13.51,10.89,27.59,21,40.91,32.09,2.63,2.06,5.26,5.44,8.45,4.13,4.5-1.5,3-6.38,3-9.95,0-29.27.18-58.73-.19-88.19.56-31.91-1.12-63.82.75-95.53a20.05,20.05,0,0,1,.19-3.37v-.38a8.58,8.58,0,0,1,3-4.31c26.65-20.84,53.3-41.48,79.76-62.31,6.94-5.45,13.89-10.32,23.08-5.45C573.87,125.74,575,134,575,142.82Z"/><path class="cls-2" d="M462.4,188.8c-.18.74-.37,1.68-.56,2.62a21.55,21.55,0,0,1-2.25,4.69c0,.19,0,.19-.19.37,0,.2-.19.2-.19.38-38.09,32.28-76.38,64.75-115.22,96.28-3.38,2.81-7.51,9-11.83,5.06L332,298c-.19-25-.57-50.29-.57-75.25.19-7.88-1.12-11.82-10.5-11.63-52.55.56-105.28.37-157.83.56a6.87,6.87,0,0,1,.94,1.5,4.46,4.46,0,0,1-.94-.56,4.54,4.54,0,0,1-1.5-1.69,1.91,1.91,0,0,1-.75-.94c0-.19-.19-.19-.19-.38-2.44-5.62-2.25-11.82-2.25-17.63V96.65c0-7.13.37-14.07,4.32-20.27,3.94-3.74,9-2.06,13.51-2.06H407.41c37,0,54.24,17.26,54.43,54.05C461.84,148.44,462.22,168.71,462.4,188.8Z"/><path class="cls-3" d="M164.58,386.58a7.52,7.52,0,0,1-1.31,2.07l-.56.94a6.23,6.23,0,0,1-2.26,1.13v.19c-5.25,2.62-11.07,2.06-16.88,2.06-31,.18-62.12,0-93.08.18-17.84,0-18.59.76-18.59,18-.18,19.14,0,38.47-.18,57.62-.19,6.37.75,13.32-4.69,18.57-2.82-4.32-1.88-9-1.88-13.7q0-125.25.38-250.71c0-3.94-1.51-8.45,1.87-11.82A34.17,34.17,0,0,1,45,206.81c33.78,0,67.56,0,101.34.18,4.88,0,10-.37,14.26,2.63a6.9,6.9,0,0,1,1.88,1.32l.56.75a6.87,6.87,0,0,1,.94,1.5,4.46,4.46,0,0,1-.94-.56c0,58.17.19,116.35.19,174.71.18-.19.56-.37.75-.56C164.21,386.78,164.39,386.58,164.58,386.58Z"/><path class="cls-4" d="M27.07,487.29q.21-43.35.41-86.69c0-6.25-.62-12.15,8.88-12,42.1.52,84.2.66,126.3.94l.3,135.1c-31.28,2.1-62.61,1.62-93.85.43C46.2,524.16,31.25,509.31,27.07,487.29Z"/><path class="cls-5" d="M162.44,210.86l-135,.17c21.44-24.84,45.84-46.79,69-70,21.79-21.86,44.18-43.12,66.3-64.65Q162.58,143.62,162.44,210.86Z"/><path class="cls-6" d="M164,213.19a4.46,4.46,0,0,1-.94-.56v-.94A6.87,6.87,0,0,1,164,213.19Z"/><path class="cls-6" d="M164.58,386.58a7.52,7.52,0,0,1-1.31,2.07v-1.31c.18-.19.56-.37.75-.56C164.21,386.78,164.39,386.58,164.58,386.58Z"/><path class="cls-6" d="M332.16,301.39a17.88,17.88,0,0,0-.18-3C333.67,299.32,333.67,300.45,332.16,301.39Z"/><path class="cls-7" d="M459.77,398.22c-3.75,1.7-6.94-2.62-9.57-4.69-33.21-25.71-66.06-51.79-99.08-77.69-6-4.69-12.39-9.38-18.58-14.26-.19,0-.19,0-.38-.19a17.88,17.88,0,0,0-.18-3l.18-.19c38.47-31.9,76.57-63.61,115-95.33,3.94-3.38,8.07-6.19,12.2-9.38a12.13,12.13,0,0,1,.19,2.62c3,19.52.37,39.41,1.31,58.93.75,13.51-1.69,27.21,1.32,40.54,0,30.4.18,61,0,91.39C462.22,390.72,464.65,396.16,459.77,398.22Z"/><path class="cls-8" d="M462.26,295.64c-4.56-4.13-2.57-9.58-2.61-14.43-.23-29.21-.19-58.42-.23-87.63l2.37-2.25Q462,243.5,462.26,295.64Z"/></svg>