<svg width="71" height="72" viewBox="0 0 71 72" fill="none" xmlns="http://www.w3.org/2000/svg">
<path d="M67.1425 49.3015C64.9684 54.443 61.5679 58.9736 57.2383 62.4973C52.9087 66.021 47.7818 68.4304 42.3059 69.515C36.83 70.5995 31.1717 70.3262 25.8259 68.7188C20.48 67.1114 15.6093 64.2189 11.6396 60.2942C7.66984 56.3696 4.72194 51.5322 3.05361 46.2051C1.38528 40.8779 1.04731 35.2232 2.06925 29.7352C3.0912 24.2473 5.44194 19.0933 8.91596 14.7237C12.39 10.3541 16.8815 6.90212 21.9978 4.66943" stroke="#484964" stroke-width="2" stroke-linecap="round" stroke-linejoin="round"/>
<path d="M69.8417 36.0079C69.8417 31.5201 68.9578 27.0761 67.2403 22.9299C65.5229 18.7836 63.0056 15.0162 59.8322 11.8428C56.6588 8.66943 52.8914 6.15215 48.7452 4.43472C44.5989 2.71728 40.155 1.83333 35.6671 1.83333V36.0079H69.8417Z" stroke="#484964" stroke-width="2" stroke-linecap="round" stroke-linejoin="round"/>
</svg>
