<svg id="Layer_1" data-name="Layer 1" xmlns="http://www.w3.org/2000/svg" viewBox="0 0 600 600"><defs><style>.cls-1{fill:#2164f1;}.cls-2{fill:#467ced;}</style></defs><path class="cls-1" d="M383.78,417.87V521.8a50.94,50.94,0,0,1-21.48,45.68,45.7,45.7,0,0,1-68.52-24,74.07,74.07,0,0,1-3.43-22.84V328.79c0-10.51,3.43-13.25,13-12.56a134.77,134.77,0,0,0,69.9-14.85c8.91-4.57,11.65-2.74,11.42,7.31v108Z"/><path class="cls-1" d="M403,198.59a68.53,68.53,0,0,1-67.32,69.71c-1.24,0-2.48,0-3.71,0A69.89,69.89,0,0,1,333.3,128.7,68.52,68.52,0,0,1,403,196.06C403,196.9,403,197.75,403,198.59Z"/><path class="cls-1" d="M332.84,25h60.07a140.48,140.48,0,0,1,83.37,47.05c5.48,6.4,14.85,15.76,9.14,22.84s-13.71-4.11-19.87-8C389.49,37.56,308.86,41.9,233,103.12a306.57,306.57,0,0,0-94.79,133.39c-6.85,17.59-12.56,35.4-19,53.22-7.54-2.05-3.42-7.08-3.2-11.42a258.25,258.25,0,0,1,21.25-79.26A287.58,287.58,0,0,1,284.64,39.16,182.7,182.7,0,0,1,332.84,25Z"/><path class="cls-2" d="M115.39,278.31c1.37,3.88,0,8.45,3.2,11.42,0,3.66,0,6.85-4.8,11.65A40.2,40.2,0,0,1,115.39,278.31Z"/></svg>