<svg id="Layer_1" data-name="Layer 1" xmlns="http://www.w3.org/2000/svg" viewBox="0 0 600 600"><defs><style>.cls-1{fill:#0a66c2;}</style></defs><path class="cls-1" d="M25.12,300V70.65A47.64,47.64,0,0,1,29.3,47.5,38.94,38.94,0,0,1,64.1,25.41H533.91a40.54,40.54,0,0,1,25.4,8,41,41,0,0,1,15.66,31V530.89a45,45,0,0,1-5.74,23.66,38.28,38.28,0,0,1-17.4,15.84,51.2,51.2,0,0,1-19.32,4.17H68.62a41.41,41.41,0,0,1-36.54-18.44,35.9,35.9,0,0,1-6.26-17.4V526ZM239.49,362.1V488.6a3.84,3.84,0,0,0,3.46,4.17,4.87,4.87,0,0,0,.54,0h67.34c8,0,8.36,0,8.36-8.7V420.74c0-26.45-.87-52.2,1.39-79.17a81.38,81.38,0,0,1,4.35-19.31,38.84,38.84,0,0,1,15.48-20.19,52.24,52.24,0,0,1,29.93-7.31A36.37,36.37,0,0,1,407.93,325a89.79,89.79,0,0,1,3.13,25.58V488.43a4,4,0,0,0,3.63,4.34,5,5,0,0,0,.55,0h68.55c7.83,0,8.18,0,8.36-8.18v-1.39c0-50.11,1.39-100.23-1.22-150.34a221,221,0,0,0-6.44-46.63,79.73,79.73,0,0,0-23.67-40.72,71.61,71.61,0,0,0-32.71-17.4A112.76,112.76,0,0,0,378.17,225a84.52,84.52,0,0,0-55.85,34.8c-1.39,1.91-2.26,5.39-5.05,4.35s-1.74-4.18-1.74-6.44V235.78c0-4.7-.87-5.4-5.39-5.75H250.28c-10.79,0-10.79,0-10.79,10.44-.17,41.07,0,81.26,0,121.46Zm-131.89,0V487.91c0,2.09.87,5,5,5.39a40.94,40.94,0,0,0,4.7,0H177.2c10.09,0,10.09,0,10.09-9.74V235.43a4,4,0,0,0-3.63-4.34,3.35,3.35,0,0,0-.55,0H118c-10.44,0-10.44,0-10.44,10.26Zm39.84-167.91A45.42,45.42,0,0,0,194.07,150c0-.64,0-1.29,0-1.93A46.46,46.46,0,0,0,147.27,102h0a47.49,47.49,0,0,0-45.59,45.76,46.64,46.64,0,0,0,45.76,45.94Z"/></svg>