<svg id="Layer_1" data-name="Layer 1" xmlns="http://www.w3.org/2000/svg" viewBox="0 0 600 600"><defs><style>.cls-1{fill:#4951b9;}.cls-2{fill:#7b82ea;}.cls-3{fill:#545cc0;}.cls-4{fill:#5059c8;}.cls-5{fill:#fefefe;}.cls-6{fill:#686fc8;}.cls-7{fill:#505699;}.cls-8{fill:#424aa7;}</style></defs><path class="cls-1" d="M177.75,445.1,44,444.77c-14.53,0-19.52-5-19.5-19.64.05-29,.2-58,.3-86.95,21.62-13.44,44-25.59,65.92-38.5,15.52-9.15,31.07-18.27,46.85-27,4.52-2.5,9.82-7,14.24.61,2.11,16.11.66,32.28.94,48.42.26,14.91,0,29.83.09,44.75.08,10.88,1,11.68,11.67,11.65s12.1-1.07,12.15-11.45c.15-31.08,0-62.16.06-93.23,0-22.48,0-22.44,23-22.51,7.45,0,14.92.41,22.32-.41,4.58-1,3.83-4.74,3.83-8,0-4.5.39-9-.62-13.49a10,10,0,0,1-.14-2.94c1-4.86,4.95-7,8.67-9.17,18.79-11,37.66-21.84,56.5-32.73,10.27-5.94,16.67-2.23,17.2,9.83.4,9.31.11,18.65.15,28,0,1.53,0,3.06.11,4.59.33,5.75-2.83,11.16-1.65,17,.63,2.36,3.81,2.29,4.44,4.66,1.51,3.88,1.28,7.95,1.28,12q.06,77.35,0,154.7c0,10.33-.58,20.61-8.85,28.44-4.76,2.35-9.69,4.15-15.1,4.18q-50.71.28-101.43,0a23.91,23.91,0,0,1-5.51-.82A14.6,14.6,0,0,1,177.75,445.1Z"/><path class="cls-2" d="M308.51,246.82c-1.46-.26-2.84-.62-3.26-2.33.61-.76,1.2-.78,1.76.06,5.9.15,11.81.43,17.71.44q109.21.09,218.44.15c3.66,0,7.48-.86,11,1.07-2.7,3.31-6.58,3.26-10.25,3.26-29.77,0-59.54.54-89.24-.24-.76.55-4.26-.6-1.93,2,7.76,8.6,8.5,19,8.51,29.67,0,40.69.31,81.37-.1,122.05-.27,26.37-4.77,51.94-18.33,75.17-23.56,43.53-60.83,68-109.15,73.65-60.13,7-106.43-17.63-139.34-67.9-2.71-4.16-7.9-9-1.62-14.58,4.83-1.72,9.85-1.2,14.8-1.22,22.07-.06,44.15.12,66.22-.07,26.39-.23,41.19-14.48,41.38-40.94.4-55.65.11-111.3.18-166.95C315.28,254.3,313.71,249.74,308.51,246.82Z"/><path class="cls-3" d="M149.53,270.84c-14.86,3.42-26.47,13.26-39.39,20.39C84.62,305.31,59.66,320.4,34.44,335c-2.95,1.71-5.95,3.47-9.6,3.17-.09-52.63-.27-105.26-.19-157.89,0-10.78,6-16,17.38-16q88.31-.09,176.61-.08c6.22,0,12.45-.26,18.67-.4,2.79-2.55,6.3-2.37,9.67-2.4,13-.13,26-.25,39.06,0,13.57.28,20.14,4.81,23.46,18,2.92,11.63,8.6,22.76,7.61,35.23-.7,8.75-3.43,10.44-12,7.59,0-10.28.22-20.56-.2-30.82-.31-7.5-5-10.12-11.24-6.52q-30.24,17.4-60.27,35.2c-3,1.8-7.05,3.19-7.12,7.88-4.23,3.65-9.41,2.71-14.28,2.73-31.42.12-62.84,0-94.25.1-10.15,0-11.37,1.5-11.73,10-.29,7.11,2.55,10.29,9.77,10.12,7.77-.18,15.55-.22,23.32.07C152.53,251.58,156.21,258.68,149.53,270.84Z"/><path class="cls-4" d="M452.85,247q44.63-.14,89.25-.3c4,0,8-.3,12-.46,15.55.14,20.22,4.39,20.26,19.78.14,52.56.23,105.13-.06,157.69-.14,25.71-16.11,46.53-40.6,54.41-2,.66-4.06,1.4-6.1,2.11-4.13,2.57-8.79,3.06-13.45,3.08-19,.09-37.94.28-56.9-.1-4.25-.09-8.83.4-12.12-3.37A3,3,0,0,1,448,476.7c9.54-.52,11.84-7.48,13.87-15a181.5,181.5,0,0,0,6.75-47c.18-38.27-.07-76.54.12-114.82.08-16.92-2.21-32.92-14.05-46.12C453,251.87,452,249.64,452.85,247Z"/><path class="cls-2" d="M305.15,222.27c7,.81,10-1.75,9.41-9.34-1.16-14.26-6-27.54-10.69-40.73-2.12-6-8.57-8.18-15.48-8.12-17,.16-34-.16-51.08-.29-13-46.32,16.61-94.56,63.78-103.94,46.48-9.25,91.67,23.38,97.81,70.62,9.45,59.27-38.28,98-89.92,96.31a8.07,8.07,0,0,1-3.58-.86C305.32,224.7,305.24,223.48,305.15,222.27Z"/><path class="cls-4" d="M426.84,167.76c.2-26.3,11.51-46.51,35.54-57.15,22.47-10,44.43-6.54,63.44,9.84,10.47,9,16.47,20.8,18.93,34.38,3.66,34-10.12,58.12-38.66,67.55a62,62,0,0,1-69.67-22.21C429.26,190.48,428,179.15,426.84,167.76Z"/><path class="cls-5" d="M149.53,270.84c1-17.17,1-17.17-15.5-17.16-8.39,0-16.78-.12-25.17,0-3.92.07-5.23-1.37-5.59-5.38-1.78-20.28-1.9-20.25,18.63-20.26L226.32,228l-.06-.14c1.73,8.68,2.21,17.35-.16,26-12.76,0-25.53.21-38.28-.28-6.19-.24-7.9,1.77-7.86,7.87.24,36.72-.09,73.46.23,110.18.07,7.2-1.7,9.53-9.22,9.39-21.11-.4-21.08,0-21.13-21.51Q149.72,315.19,149.53,270.84Z"/><path class="cls-6" d="M190.76,471.07c-2.49-3.48-4.69-7.09-5.08-11.49,3.59-3.36,8.13-2.63,12.39-2.65,21.12-.11,42.25-.19,63.37,0,15.09.13,29.14-2.24,39.92-14.09,5.82-8.11,7.57-17.21,7.53-27.09-.26-56.31-.28-112.62-.38-168.94,7-1.3,9.88.7,9.84,8.66-.33,57.91-.07,115.83-.24,173.75C318,454.53,301.16,470.9,275.76,471Q233.27,471,190.76,471.07Z"/><path class="cls-7" d="M301.36,442.84c-5.61,15.23-19.22,16.32-32,16.64-27.87.69-55.77.14-83.66.1l-5.76-14.8q45.24,0,90.48-.08C280.75,444.68,291.15,445.34,301.36,442.84Z"/><path class="cls-3" d="M226.1,253.88a121.59,121.59,0,0,0,.16-26C229.74,236.56,230,245.23,226.1,253.88Z"/><path class="cls-8" d="M445,478.81l-5.23-.32c13.53-24.47,18.54-50.92,18.5-78.6q-.09-61.5.05-123c0-11.68-2.19-22.23-15.08-29.93h9.6c7.85,10.67,17,20.58,17.89,35,.24,3.67.77,7.38.77,11.09,0,41.39.21,82.8-.07,124.19-.11,15.82-3.3,31.25-7,46.67C461.79,474.92,456.74,480.64,445,478.81Z"/></svg>