<svg id="Layer_1" data-name="Layer 1" xmlns="http://www.w3.org/2000/svg" viewBox="0 0 600 600"><defs><style>.cls-1{fill:#642890;}</style></defs><path class="cls-1" d="M43.71,27c2.51,2.21,5.16,4.28,7.52,6.64Q170.38,152.29,289.34,271.15c5.27,5.28,7.73,5.72,13.52.27,62.26-58.59,120.86-120.85,182.55-180,21.79-20.88,43-42.35,64.81-63.18,1.26-1.2,2.73-2.17,4.12-3.26,2.94,2.59,1.69,5.54,1.69,8.06q.11,266.41.24,532.81c0,7.33-1.94,9.13-9.15,9-32.16-.4-64.35-.56-96.5.08-8.73.18-9.82-2.72-9.79-10.32.26-83.87.16-167.74.16-251.61v-9.82c-7.83,3.81-10.81,11.25-16,16.46C386.4,358,347.8,396.29,309.57,434.92c-5.73,5.79-8.81,4.91-14-.32-44.86-45.11-90-90-135.47-135.36-2.15,3.4-1.23,6.75-1.23,9.82q-.11,128.12.13,256.23c0,7.57-1.63,9.76-9.5,9.65-35.25-.47-70.52-.2-105.78-.2Z"/></svg>