<svg id="Layer_1" data-name="Layer 1" xmlns="http://www.w3.org/2000/svg" viewBox="0 0 600 600"><defs><style>.cls-1{fill:#ff141d;}</style></defs><path class="cls-1" d="M196.49,473.29q46.14,0,92.27-.05,57.45,0,114.91.05c-1.12.8-2.4.47-3.61.47q-100,0-200,0C198.89,473.76,197.61,474.09,196.49,473.29Z"/><path class="cls-1" d="M396.88,188c-2.26,0-4.51.08-6.77.08H207.68c-1.47,0-2.93-.05-4.4-.08,1.09-.89,2.39-.51,3.59-.51q93.21,0,186.42,0C394.49,187.53,395.79,187.15,396.88,188Z"/><path class="cls-1" d="M203.28,411.59q21.5,0,43-.07H392.48c1.47,0,2.93,0,4.4.07-1.08.9-2.38.52-3.58.52q-93.23,0-186.44,0C205.66,412.11,204.36,412.49,203.28,411.59Z"/><path class="cls-1" d="M573.77,279.83a171.22,171.22,0,0,0-10.22-42.6,169.15,169.15,0,0,0-33.46-54.4,173.42,173.42,0,0,0-126.42-56.48,11.41,11.41,0,0,0-3-.15q-100.56,0-201.12,0a11.41,11.41,0,0,0-3,.15A174.74,174.74,0,0,0,169,128.72C129.35,135.79,95.74,154,68.92,184.07c-27.38,30.72-41.76,66.91-43.71,108a169,169,0,0,0,4.06,46.73c8.26,35.33,25.56,65.35,52.47,89.78a171.73,171.73,0,0,0,114.75,44.73,11.41,11.41,0,0,0,3,.15H400.64a11.41,11.41,0,0,0,3-.15c4.25-.3,8.51-.22,12.78-.55a171.23,171.23,0,0,0,40.07-8.18c33.82-11.16,61.8-30.84,83.19-59.29Q581.68,349.5,573.77,279.83Zm-77.55,70.23a116.38,116.38,0,0,1-20.31,28.18,112,112,0,0,1-28.64,21.13,108,108,0,0,1-37.61,11.47c-4.26.5-8.51.54-12.78.74a7.87,7.87,0,0,1-3.34.25q-93.46,0-186.92,0a7.87,7.87,0,0,1-3.34-.25,105,105,0,0,1-39.51-7.4,113.53,113.53,0,0,1-31.44-18.7,111.93,111.93,0,0,1-30.06-39,109.94,109.94,0,0,1-9.33-31.59c-.46-3.25-.37-6.49-.75-9.71a51.42,51.42,0,0,1,0-11.5c1.55-26.76,11.3-50.07,29.44-69.8q26.12-28.4,64.27-34.43A121.77,121.77,0,0,1,203.28,188a8.57,8.57,0,0,1,3.34-.23q93.47,0,186.92,0a8.57,8.57,0,0,1,3.34.23,115.16,115.16,0,0,1,39.55,7.5,111.56,111.56,0,0,1,35.14,21.64,110.22,110.22,0,0,1,26.88,37.11,97,97,0,0,1,8.09,28.16c.45,3.76,1.26,7.48,1.43,11.28v12.18A111,111,0,0,1,496.22,350.06Z"/><path class="cls-1" d="M508,305.91V293.73A57.66,57.66,0,0,1,508,305.91Z"/><path class="cls-1" d="M508,305.91V293.73A28.43,28.43,0,0,1,508,305.91Z"/><path class="cls-1" d="M92.19,293.73v11.5A24.69,24.69,0,0,1,92.19,293.73Z"/></svg>