<svg id="Layer_1" data-name="Layer 1" xmlns="http://www.w3.org/2000/svg" viewBox="0 0 600 600"><defs><style>.cls-1{fill:#0c90d8;}.cls-2{fill:#fcfcfc;}.cls-3{fill:none;}</style></defs><polygon class="cls-1" points="26.8 196.75 575.44 196.44 325.82 448.66 25.44 449.58 26.8 196.75"/><path class="cls-2" d="M410.07,285.42a83.64,83.64,0,0,0-4.22-13.66,54.69,54.69,0,0,0-10.07-12.89l-.45-.42c-.55-.35-1.12-.69-1.64-1.08a54.56,54.56,0,0,0-18.6-9.25c-.58-.86-1.62-.29-2.31-.76a117.81,117.81,0,0,0-26.41-3.48c-18-.16-36-.07-54-.06-3.31,0-3-.6-3,3.1,0,9.28,0,18.56,0,27.83-.74,1-.49,2.13-.49,3.21q0,20.12,0,40.22a10.63,10.63,0,0,1-.25,3.28,5.73,5.73,0,0,0-.08,1.7,107.28,107.28,0,0,1,.09,15.63c-.4,7.71-.25,15.41-.09,21.68-1.95-6.47-5.26-14-7.78-21.77-2-5.23-3.93-10.5-5.9-15.74-1.81-4.85-3.71-9.67-5.36-14.57-2.2-6-4.57-12-6.63-18.12-1.76-4.7-3.43-9.45-5.27-14.11a10.78,10.78,0,0,1-.57-1.56c-1.46-4.56-3.61-8.9-4.83-13.55-1.21-3.31-2.44-6.6-3.73-9.86-.45-1.13-.49-2.47-1.58-3.3a7.23,7.23,0,0,1-.51-1.19c-.49-2.34-1.87-2.92-4.24-2.89-11.84.14-23.69.06-35.53.06-5.31,0-5.31,0-7,4.92-.76.47-.88,1.31-1.15,2.06-1,2.81-2.06,5.65-3.26,8.41-1.82,5.15-4.07,10.14-5.77,15.33-1.1,5-3.3,9.55-5,14.31-.2.39-.53.68-.74,1.06-1.8,4.3-3.17,8.76-5,13.05-1.44,3.52-2.62,7.12-4.08,10.62-1.91,5-3.66,10.11-5.65,15.11-1.59,4.75-3.77,9.3-5,14.19-.75-5.23-3.16-10-6.2-14.59a41.05,41.05,0,0,0-5.67-6.41,69,69,0,0,0-12.44-8.69,145.2,145.2,0,0,0-28.23-10.64,71.75,71.75,0,0,1-20.15-8.87,13.13,13.13,0,0,1-4.06-4l-.54-.85c-1.72-3.49-1-6.35,2-8.79a17.41,17.41,0,0,1,8.46-3.63A67.86,67.86,0,0,1,124.35,278a97,97,0,0,1,18.26,6.69c2.08,1,2.54.85,3.78-1.14,1.58-2.57,3-5.26,4.69-7.76.89-1.35,1.55-2.86,2.37-4.24,2.54-4.32,4.3-9.07,7.4-13.07.35-.56.63-1.17.94-1.76,1.09-2.08,1-2.49-1.21-3.49-2-.88-3.85-1.86-5.87-2.57-2.75-1-5.33-2.51-8.37-2.53a5.94,5.94,0,0,0-2.8-1.2c-10.6-2.89-21.22-5.34-32.33-5.51-8.67-.13-17.22,0-25.73,1.81A71.88,71.88,0,0,0,60,254.47a52.59,52.59,0,0,0-11.55,13,57.52,57.52,0,0,0-5.1,13.1c-.11.72-.21,1.43-.32,2.15-.69,4.89-.27,9.78,0,14.67a40.13,40.13,0,0,0,6.39,16.77,69.94,69.94,0,0,0,7.42,7.78c2.8,2.39,6,4.17,8.93,6.4,3.78,2,7.62,3.79,11.53,5.51,6.08,2.66,12.49,4.39,18.63,6.87,6.92,1.72,13.68,3.85,19.61,8a7.38,7.38,0,0,1,3.35,4.45,6,6,0,0,1,.69,4c-1,6-4.77,9.25-10.42,10.58-7.52,1.77-15.09,1.36-22.65.23-9.62-1.44-18.29-5.48-26.65-10.25-1.23-.7-1.9-.88-2.66.72a82.37,82.37,0,0,1-5.28,10.17c-2.45,5.78-5.51,11.26-8.41,16.82-1.09,1.8-.62,2.74,1.35,3.72,4.78,2.38,9.61,4.62,14.57,6.61a1,1,0,0,0,.49.3c9.41,2.95,18.91,5.45,28.79,6.38a101.79,101.79,0,0,0,29.87-1.29c5.46-1.11,10.53-3.26,15.72-5.1,3.07-.75,5.52-2.63,8.06-4.38,1.24-.86,2.45-1.77,4.14-2.81-1,3.06-2.22,5.49-2.81,8.12a8.26,8.26,0,0,1-.2.86c-.93,2.75-.93,2.76,2,2.76,12.89,0,25.77-.09,38.66.06,3,0,5.19-.3,5.68-3.69,1.91-3.53,2.52-7.52,4-11.2.33-1.89,1.11-3.67,1.53-5.53s1.4-2.08,3-1.51a41.05,41.05,0,0,0,6.66,1.66,93.42,93.42,0,0,0,25.1,1.43,88.29,88.29,0,0,0,16.33-2.91c1.84-.51,2.77.08,3.33,1.78s1.15,3.35,1.59,5.06c1.39,3.58,2.1,7.39,3.95,10.79.57,3.92,3.18,4.15,6.52,4.13,22.15-.14,44.31-.07,66.47-.07,3.63,0,3.63,0,3.82-3.62V358a24.46,24.46,0,0,0-.1-3.32c-.33-2.12.69-2.67,2.6-2.63,3.46.08,6.93,0,10.4.06a112.16,112.16,0,0,0,20.7-1.45,70.22,70.22,0,0,0,24.23-9.12A52.93,52.93,0,0,0,403.68,327a58.73,58.73,0,0,0,6-15.42c.08-.34.17-.68.25-1a94.11,94.11,0,0,0,1-13.63C410.69,293.08,410.38,289.26,410.07,285.42Zm-246,57.84c.16-.05.08.06,0,0Zm72.83,1.18a47.66,47.66,0,0,1-28.68-.32c-1.28-.41-1.38-.94-1-2.06,1.74-5,3.4-10,5.09-15,.63-3.62,2-7,3.07-10.48.89-2.87,1.86-5.71,2.79-8.56l4.62-14.88.51,0q2.22,7.42,4.43,14.85c2.05,6.32,4.27,12.58,5.87,19q2.4,7.43,4.79,14.85C238.86,343.26,238.39,344,236.92,344.44Zm132.43-46.59c-.05,4-.8,7.76-3.33,11-6.58,7.27-15.16,8.76-24.37,8.45-2.73-.09-5.46-.18-8.18-.17-1.36,0-2-.27-1.92-1.84.16-2.13.08-4.27.1-6.4v-23c0-2.57,0-5.14-.08-7.71,0-.87.19-1.38,1.19-1.4,7.28-.19,14.56-.29,21.73,1.23A22.61,22.61,0,0,1,365,283.76a3.85,3.85,0,0,1,1.49,2.1A19,19,0,0,1,369.35,297.85Z"/><line class="cls-3" x1="369.35" y1="297.85" x2="331.65" y2="297.37"/></svg>