<svg id="Layer_1" data-name="Layer 1" xmlns="http://www.w3.org/2000/svg" viewBox="0 0 600 600"><defs><style>.cls-1{fill:#2eb57c;}.cls-2{fill:#36c4ef;}.cls-3{fill:#ebb12e;}.cls-4{fill:#df1e5a;}.cls-5{fill:#2eb57d;}</style></defs><path class="cls-1" d="M314.6,155.57c0-24.07-.1-48.14,0-72.22.17-32.84,26.21-58.26,59-57.8C404.56,26,429.78,51.3,430,83.09q.51,72.42,0,144.86c-.24,33.06-26.33,58-59.3,57.57-30.12-.38-55.83-25.94-56-56-.18-24.64,0-49.28,0-73.92Z"/><path class="cls-2" d="M155.2,285.52H83.75c-29.73,0-53.79-19.81-58.08-49.2-5.25-35.95,21.22-62.48,50-65.65a104.36,104.36,0,0,1,11.44-.59c46.65,0,93.29-.15,139.94.09,20,.11,36.28,8.32,47.79,24.83,24.52,35.19,3.54,83.41-38.9,89.86a57.7,57.7,0,0,1-8.88.66Z"/><path class="cls-3" d="M439.57,314.7c28.27,0,51.52,0,74.77,0,17.73,0,33.29,5.44,45.22,18.85,14.94,16.8,19.28,36.34,12,57.65-7.19,21-22.35,33.46-44.08,38a57.5,57.5,0,0,1-11.85.88q-71,0-142.06,0C338.44,430,312.84,403,314.67,368,316.1,340.8,340,316.58,367.2,315.2,393,313.9,418.79,315.09,439.57,314.7Z"/><path class="cls-4" d="M285.14,444.62c0,24.22.22,48.43-.06,72.64-.34,27.81-18.91,50.07-46.13,56-34.26,7.4-68.63-19.14-68.95-54.12-.46-49.69-.38-99.4,0-149.1.21-27.89,23.64-52.17,50.86-54.84,31.53-3.09,57.44,17.92,63.16,45.45a72.61,72.61,0,0,1,1.16,14.78q0,34.62,0,69.24Z"/><path class="cls-4" d="M141,348.92c-.45,9.19.69,20.38-.68,31.53-3.42,28-28.05,49.53-56.81,49.63s-53.78-21.17-57.37-49c-4.13-32,15.71-59.53,47.35-65.41a68,68,0,0,1,11.85-.89c17.15-.09,34.31,0,51.46-.11,3.3,0,4.37.82,4.28,4.23C140.79,328.25,141,337.6,141,348.92Z"/><path class="cls-3" d="M314.6,491.65c0-9.48.11-19-.07-28.45-.06-3.13.54-4.39,4.1-4.35,18.14.2,36.29,0,54.43.14,30.88.31,55.81,24.43,56.89,56.08s-22.86,55.18-49.88,58.71a57.59,57.59,0,0,1-65.45-56.65c-.06-8.49,0-17,0-25.48Z"/><path class="cls-2" d="M285.1,107.66c0,9.9-.09,19.81,0,29.71,0,2.73-.72,3.68-3.56,3.66-18.7-.12-37.41.2-56.1-.15-28.68-.53-53.81-24.84-55.59-52.54-2.24-34.7,23-58.65,49.25-62.12,35.38-4.67,65.47,21.16,65.92,56.82.1,8.21,0,16.41,0,24.62Z"/><path class="cls-5" d="M459,249.61c.57-9.65-1.09-21.44,1.1-33.09,5.05-26.84,29.4-46.6,57.09-46.39s51.58,20.44,56.21,47.43c6.17,36-20.62,67.91-57.12,68-17.85,0-35.71-.06-53.56.07-3,0-3.84-.81-3.78-3.78C459.09,271.77,459,261.72,459,249.61Z"/></svg>