<svg width="32" height="33" viewBox="0 0 32 33" fill="none" xmlns="http://www.w3.org/2000/svg">
<path d="M13.864 28.5659C11.7323 28.1788 9.745 27.2222 8.11271 25.7976C6.48042 24.3729 5.2639 22.5333 4.59205 20.4735C3.9202 18.4138 3.81804 16.2106 4.29639 14.0975C4.77475 11.9845 5.8158 10.0401 7.30925 8.47053C8.80271 6.90095 10.6929 5.76459 12.7796 5.18184C14.8664 4.5991 17.0719 4.59169 19.1625 5.16038C21.253 5.72908 23.1509 6.85271 24.6548 8.41221C26.1588 9.97172 27.2129 11.909 27.7055 14.0188M13.8339 22.651C12.8995 22.2809 12.0681 21.6907 11.4105 20.9305C10.753 20.1703 10.2886 19.2627 10.0568 18.2846C9.82506 17.3066 9.8328 16.2871 10.0794 15.3127C10.3259 14.3383 10.804 13.4378 11.4731 12.6877C12.1421 11.9376 12.9823 11.3601 13.9223 11.0041C14.8623 10.6482 15.8743 10.5245 16.8724 10.6433C17.8704 10.7622 18.8251 11.1202 19.6552 11.687C20.4853 12.2537 21.1663 13.0125 21.6404 13.8987" stroke="#242533" stroke-linecap="round" stroke-linejoin="round"/>
<path d="M27.5398 18.4019H18.0669V27.8447M27.9301 28.22L19.1178 19.4527" stroke="#242533" stroke-linecap="round" stroke-linejoin="round"/>
</svg>
