<svg id="Layer_1" data-name="Layer 1" xmlns="http://www.w3.org/2000/svg" viewBox="0 0 600 600"><defs><style>.cls-1{fill:#f12f46;}.cls-2{fill:#fefefe;}</style></defs><path class="cls-1" d="M300.46,25C453.21,25,575,147.61,575,301.25,575,452.81,450.1,577.68,294.85,575,146.75,572.35,24.75,451.43,25,299.68,25.25,147.19,147.56,25,300.46,25Z"/><path class="cls-2" d="M501.12,299.78c0,111.46-89.34,201.35-200,201.27C188.44,501,99.3,412.06,98.81,300.42S190.21,96.33,304.48,98.71C412.62,101,501.75,189.69,501.12,299.78Z"/><path class="cls-1" d="M232.33,175.33c31.09,0,57,25.46,56.8,55.79-.21,33.56-24.85,58-58.45,57.9-30.45-.06-55.3-26.19-55.23-58.09C175.51,200.26,201,175.31,232.33,175.33Z"/><path class="cls-1" d="M424.62,232.38c0,30.69-25.24,56.57-55.21,56.64-33.88.08-58.68-24.73-58.46-58.61.2-30.83,28.17-56.24,58.23-55.28A57.2,57.2,0,0,1,424.62,232.38Z"/><path class="cls-1" d="M232,424.5a56.28,56.28,0,0,1-56.59-56.62c0-31.2,25.24-57.14,55.52-57.06,33.59.09,58.09,24.6,58.16,58.19C289.19,399.28,263.24,424.5,232,424.5Z"/><path class="cls-1" d="M424.62,367.56c0,31.69-24.92,56.93-56.28,56.94s-57.32-25-57.4-55.18c-.1-33.88,24.69-58.64,58.58-58.5C399.47,310.94,424.6,336.81,424.62,367.56Z"/></svg>