<svg id="Layer_1" data-name="Layer 1" xmlns="http://www.w3.org/2000/svg" viewBox="0 0 600 600"><defs><style>.cls-1{fill:#be32f5;}</style></defs><path d="M233.79,352.84c0,29.23-.08,58.46,0,87.69.07,16.39,4.93,31.23,15.55,43.92A62.19,62.19,0,0,0,276.21,503a65.69,65.69,0,0,0,26.53,4.11c15.83-.89,29.91-6.29,41.67-17.14,12.42-11.46,18.78-25.88,20.74-42.48a78.69,78.69,0,0,0,.48-9.33V261.5c0-4.55-.41-4.14,4.26-4.14h65.3c3.93,0,3.63-.14,3.63,3.73q0,91.59-.09,183.17a166.44,166.44,0,0,1-2,23.76A139.92,139.92,0,0,1,430,495.22a107.92,107.92,0,0,1-22.18,37,126,126,0,0,1-34,25.74,142.55,142.55,0,0,1-47.86,15c-5.84.8-11.7,1.19-17.57,1.65a103.42,103.42,0,0,1-12.43.37c-11.67-.52-23.31-1.43-34.77-3.88a142.56,142.56,0,0,1-32-10.71,127.61,127.61,0,0,1-30.73-20.68,108.16,108.16,0,0,1-21.63-27.1,118.24,118.24,0,0,1-12.66-34.52,162.6,162.6,0,0,1-3.14-33q.1-91.71,0-183.43c0-4.6-.47-4.23,4.17-4.23h64.78c3.94,0,3.72-.2,3.72,3.64Z"/><path class="cls-1" d="M161.33,187.71a5.33,5.33,0,0,1-.21-2.48q0-38.11-.05-76.22a3.93,3.93,0,0,1,2.19-3.92q31.61-18.53,63.12-37.2l62.17-36.75c3.13-1.85,6.32-3.61,9.38-5.57a2.89,2.89,0,0,1,3.52.06q21.12,12.52,42.27,25l77.43,45.65c5.14,3,10.25,6.15,15.45,9.08a3.81,3.81,0,0,1,2.28,3.81c-.08,25.49-.05,51-.07,76.48,0,.81.45,1.93-.42,2.38s-1.55-.54-2.26-1q-32.56-19.19-65.1-38.43-31.65-18.69-63.32-37.36c-2-1.19-4.06-2.33-6-3.61a3.31,3.31,0,0,0-4,0c-10,6-20.09,12-30.15,17.91l-48.77,28.8L170.66,182.7c-2.46,1.45-4.91,2.91-7.38,4.35C162.7,187.38,162.18,187.93,161.33,187.71Z"/></svg>