<svg width="68" height="65" viewBox="0 0 68 65" fill="none" xmlns="http://www.w3.org/2000/svg">
<path d="M24.7887 21.4068L34.3334 2.09067L43.8781 21.4068C44.0965 21.8489 44.5183 22.1554 45.0062 22.2266L66.3501 25.3431L50.908 40.3678C50.5538 40.7125 50.3921 41.2095 50.4757 41.6967L54.12 62.9225L35.031 52.8944C34.5942 52.6649 34.0726 52.6649 33.6358 52.8944L14.5468 62.9225L18.1911 41.6967C18.2748 41.2095 18.113 40.7125 17.7588 40.3678L2.31676 25.3431L23.6607 22.2266C24.1486 22.1554 24.5703 21.8489 24.7887 21.4068ZM1.59043 24.6364C1.59062 24.6365 1.5908 24.6367 1.59098 24.6369L1.59043 24.6364L1.24176 24.9947L1.59043 24.6364Z" stroke="#484964" stroke-width="2" stroke-linecap="round" stroke-linejoin="round"/>
</svg>
