<svg id="Layer_1" data-name="Layer 1" xmlns="http://www.w3.org/2000/svg" viewBox="0 0 600 600"><defs><style>.cls-1{fill:#008afd;}.cls-2{fill:#fefefe;}</style></defs><path class="cls-1" d="M300,25.05c152.09-.47,277.76,124.71,275,280.17-2.67,149.41-126.09,272.2-279.8,269.7-149.63-2.44-273-126.11-270.1-280.44C27.85,145.63,149.82,24.75,300,25.05Z"/><path class="cls-2" d="M224,199.7c32.9,0,65.83-.57,98.72.24a59.35,59.35,0,0,1,43.39,19.59,36.39,36.39,0,0,1,9.59,25.23q.11,75.42.08,150.83c0,2-1,1.87-2.3,1.87q-96.09,0-192.18.05c-8,0-16,.06-23.82-2.07-19.64-5.35-30.76-18.34-34.32-38.13a80.79,80.79,0,0,1-1.12-14.48q0-70.24,0-140.5c0-2.1.45-2.69,2.63-2.68Q174.35,199.77,224,199.7Z"/><path class="cls-2" d="M474.56,199.82V397.65c-2.31-1.5-4.41-2.83-6.48-4.21q-39.69-26.29-79.38-52.59a2.85,2.85,0,0,1-1.45-2.72q.06-38.7,0-77.41a2.69,2.69,0,0,1,1.26-2.61q42.38-28.73,84.72-57.51C473.57,200.37,473.94,200.19,474.56,199.82Z"/></svg>