<svg width="16" height="11" viewBox="0 0 16 11" fill="none" xmlns="http://www.w3.org/2000/svg">
<path fill-rule="evenodd" clip-rule="evenodd" d="M10.8344 10.519L15.3824 5.97096C15.5776 5.7757 15.5776 5.45912 15.3824 5.26386L10.8524 0.733849C10.6571 0.538587 10.3405 0.538587 10.1452 0.733849C9.94998 0.929111 9.94998 1.24569 10.1452 1.44096L13.8248 5.12049C13.8061 5.11842 13.7871 5.11737 13.7679 5.11741L0.969649 5.14441C0.693507 5.14499 0.470122 5.36932 0.470704 5.64546C0.471287 5.9216 0.695617 6.14499 0.971758 6.14441L13.77 6.11741C13.7885 6.11737 13.8068 6.11633 13.8248 6.11433L10.1272 9.81186C9.93199 10.0071 9.93199 10.3237 10.1272 10.519C10.3225 10.7142 10.6391 10.7142 10.8344 10.519ZM14.2659 5.67321L14.3217 5.61741L14.2659 5.56161C14.2679 5.57959 14.2689 5.59785 14.269 5.61636C14.269 5.63558 14.268 5.65455 14.2659 5.67321Z" fill="#6371F0"/>
</svg>
