<svg width="16" height="11" viewBox="0 0 16 11" fill="none" xmlns="http://www.w3.org/2000/svg">
<path fill-rule="evenodd" clip-rule="evenodd" d="M5.16515 0.611901L0.61715 5.15991C0.421888 5.35517 0.421888 5.67175 0.61715 5.86701L5.14716 10.397C5.34242 10.5923 5.659 10.5923 5.85426 10.397C6.04953 10.2018 6.04953 9.88518 5.85426 9.68991L2.17473 6.01038C2.19339 6.01245 2.21236 6.0135 2.23158 6.01346L15.0289 5.98646C15.3051 5.98588 15.5285 5.76155 15.5279 5.48541C15.5273 5.20927 15.303 4.98588 15.0268 4.98646L2.22947 5.01346C2.21097 5.0135 2.19271 5.01454 2.17473 5.01654L5.87226 1.31901C6.06752 1.12375 6.06752 0.807163 5.87226 0.611901C5.677 0.416639 5.36042 0.416638 5.16515 0.611901ZM1.73361 5.45766L1.67781 5.51346L1.73361 5.56926C1.73161 5.55128 1.73057 5.53302 1.73053 5.51451C1.73049 5.49529 1.73153 5.47632 1.73361 5.45766Z" fill="#242533"/>
</svg>
