<svg width="37" height="25" viewBox="0 0 37 25" fill="none" xmlns="http://www.w3.org/2000/svg">
<path fill-rule="evenodd" clip-rule="evenodd" d="M24.8616 24.4254L36.3433 12.9437C36.5386 12.7484 36.5386 12.4318 36.3433 12.2366L24.907 0.800256C24.7118 0.604992 24.3952 0.604993 24.1999 0.800256C24.0047 0.995518 24.0047 1.3121 24.1999 1.50736L35.2827 12.5901L24.1545 23.7183C23.9592 23.9136 23.9592 24.2301 24.1545 24.4254C24.3498 24.6207 24.6663 24.6207 24.8616 24.4254ZM32.8111 13.0901C33.0873 13.0895 33.3107 12.8652 33.3101 12.5891C33.3095 12.3129 33.0852 12.0895 32.809 12.0901L0.498946 12.1583C0.222804 12.1589 -0.000580916 12.3832 1.13486e-06 12.6593C0.000583011 12.9355 0.224913 13.1588 0.501056 13.1583L32.8111 13.0901Z" fill="#242533"/>
</svg>
