<svg width="16" height="11" viewBox="0 0 16 11" fill="none" xmlns="http://www.w3.org/2000/svg">
<path fill-rule="evenodd" clip-rule="evenodd" d="M10.8344 10.3881L15.3824 5.8401C15.5776 5.64484 15.5776 5.32826 15.3824 5.133L10.8524 0.60299C10.6571 0.407727 10.3405 0.407727 10.1452 0.60299C9.94998 0.798252 9.94998 1.11483 10.1452 1.3101L13.8248 4.98963C13.8061 4.98756 13.7871 4.98651 13.7679 4.98655L0.969649 5.01355C0.693507 5.01413 0.470122 5.23846 0.470704 5.5146C0.471287 5.79074 0.695617 6.01413 0.971758 6.01355L13.77 5.98655C13.7885 5.98651 13.8068 5.98547 13.8248 5.98347L10.1272 9.681C9.93199 9.87626 9.93199 10.1928 10.1272 10.3881C10.3225 10.5834 10.6391 10.5834 10.8344 10.3881ZM14.2659 5.54235L14.3217 5.48655L14.2659 5.43075C14.2679 5.44873 14.2689 5.46699 14.269 5.4855C14.269 5.50472 14.268 5.52369 14.2659 5.54235Z" fill="#242533"/>
</svg>
