<svg width="213" height="143" viewBox="0 0 213 143" fill="none" xmlns="http://www.w3.org/2000/svg">
<path d="M59.013 14.9834L72.0665 11.7063L68.7849 24.7586C67.3317 30.5384 62.1346 34.5898 56.175 34.5888L49.1773 34.5876L49.1785 27.5899C49.1795 21.6302 53.2328 16.4346 59.013 14.9834Z" stroke="white" stroke-width="2"/>
<path d="M59.2976 46.8047L67.1154 48.9026L61.5716 54.8005C57.4898 59.1429 50.9781 60.1537 45.772 57.2531L43.062 55.7432L44.5719 53.0333C47.4725 47.8271 53.5417 45.2601 59.2976 46.8047Z" stroke="white" stroke-width="2"/>
<path d="M49.1726 72.1663L56.8071 69.477L55.5687 77.476C54.6568 83.3654 49.8572 87.8806 43.923 88.4314L40.8341 88.718L40.5474 85.6291C39.9967 79.695 43.5515 74.1463 49.1726 72.1663Z" stroke="white" stroke-width="2"/>
<path d="M52.8071 97.5196L58.7157 91.9873L60.7984 99.8091C62.3318 105.568 59.753 111.632 54.5412 114.523L51.8283 116.027L50.3237 113.314C47.4332 108.103 48.4568 101.593 52.8071 97.5196Z" stroke="white" stroke-width="2"/>
<path d="M32.6244 31.8012L24.45 25.254L22.5438 35.5522C21.4591 41.4123 24.498 47.2595 29.9171 49.7394L34.3089 51.7491L36.3186 47.3574C38.7985 41.9382 37.276 35.5268 32.6244 31.8012Z" stroke="white" stroke-width="2"/>
<path d="M20.0183 60.6547L9.93133 57.8367L12.2154 68.0578C13.5152 73.874 18.6033 78.0615 24.5608 78.2181L29.3889 78.345L29.5158 73.517C29.6725 67.5594 25.7581 62.2583 20.0183 60.6547Z" stroke="white" stroke-width="2"/>
<path d="M16.3835 91.5923L6.15903 93.8612L12.991 101.799C16.8786 106.316 23.3398 107.611 28.668 104.941L32.9859 102.778L30.8223 98.4598C28.1525 93.1316 22.2016 90.3012 16.3835 91.5923Z" stroke="white" stroke-width="2"/>
<path d="M22.9757 119.176L14.9178 125.866L24.622 129.805C30.144 132.047 36.483 130.247 40.0024 125.437L42.8546 121.539L38.957 118.687C34.1476 115.168 27.561 115.369 22.9757 119.176Z" stroke="white" stroke-width="2"/>
<path d="M74.1666 141.2C50.9762 129.278 13.3164 91.4219 48.2002 35.3724" stroke="white" stroke-width="2"/>
<path d="M153.097 14.9834L140.044 11.7063L143.325 24.7586C144.778 30.5384 149.975 34.5898 155.935 34.5888L162.933 34.5876L162.932 27.5899C162.931 21.6302 158.877 16.4346 153.097 14.9834Z" stroke="white" stroke-width="2"/>
<path d="M152.812 46.8047L144.995 48.9026L150.539 54.8005C154.62 59.1429 161.132 60.1537 166.338 57.2531L169.048 55.7432L167.538 53.0333C164.638 47.8271 158.568 45.2601 152.812 46.8047Z" stroke="white" stroke-width="2"/>
<path d="M162.938 72.1663L155.303 69.477L156.541 77.476C157.453 83.3654 162.253 87.8806 168.187 88.4314L171.276 88.718L171.563 85.6291C172.113 79.695 168.559 74.1463 162.938 72.1663Z" stroke="white" stroke-width="2"/>
<path d="M159.303 97.5196L153.394 91.9873L151.312 99.8091C149.778 105.568 152.357 111.632 157.569 114.523L160.282 116.027L161.786 113.314C164.677 108.103 163.653 101.593 159.303 97.5196Z" stroke="white" stroke-width="2"/>
<path d="M179.486 31.8012L187.66 25.254L189.566 35.5522C190.651 41.4123 187.612 47.2595 182.193 49.7394L177.801 51.7491L175.792 47.3574C173.312 41.9382 174.834 35.5268 179.486 31.8012Z" stroke="white" stroke-width="2"/>
<path d="M192.092 60.6547L202.179 57.8367L199.895 68.0578C198.595 73.874 193.507 78.0615 187.549 78.2181L182.721 78.345L182.594 73.517C182.438 67.5594 186.352 62.2583 192.092 60.6547Z" stroke="white" stroke-width="2"/>
<path d="M195.727 91.5923L205.951 93.8612L199.119 101.799C195.231 106.316 188.77 107.611 183.442 104.941L179.124 102.778L181.288 98.4597C183.958 93.1316 189.909 90.3012 195.727 91.5923Z" stroke="white" stroke-width="2"/>
<path d="M189.134 119.176L197.192 125.866L187.488 129.805C181.966 132.047 175.627 130.247 172.108 125.437L169.255 121.539L173.153 118.687C177.963 115.168 184.549 115.369 189.134 119.176Z" stroke="white" stroke-width="2"/>
<path d="M137.943 141.2C161.134 129.278 198.794 91.4219 163.91 35.3724" stroke="white" stroke-width="2"/>
<path d="M106.055 64.4435L110.332 72.7685L110.563 73.2179L111.062 73.2987L120.301 74.7937L113.705 81.434L113.349 81.7925L113.427 82.2918L114.86 91.5409L106.506 87.3197L106.055 87.0918L105.604 87.3197L97.2507 91.5409L98.6839 82.2918L98.7613 81.7925L98.4052 81.434L91.8093 74.7937L101.048 73.2987L101.547 73.2179L101.778 72.7685L106.055 64.4435Z" stroke="white" stroke-width="2"/>
</svg>
