<svg width="42" height="43" viewBox="0 0 42 43" fill="none" xmlns="http://www.w3.org/2000/svg">
<path fill-rule="evenodd" clip-rule="evenodd" d="M19.4726 7.5L35.1526 9.974L32.7506 25.194L27.9986 17.8L23.8466 24.26L16.9986 23.18L19.4726 7.5ZM16.0886 16.12C14.5954 15.4954 12.9478 15.3384 11.3635 15.6698C9.77913 16.0013 8.3326 16.8055 7.21492 17.9762C6.09725 19.147 5.361 20.6293 5.10342 22.2273C4.84584 23.8253 5.07905 25.4638 5.77224 26.9265C6.46543 28.3891 7.586 29.6071 8.98594 30.4196C10.3859 31.232 11.9993 31.6007 13.6132 31.4769C15.2271 31.3532 16.7655 30.7427 18.0251 29.7263C19.2848 28.7099 20.2066 27.3353 20.6686 25.784L14.7106 24.844L16.0886 16.118V16.12ZM18.9986 35.5L27.9986 21.5L36.9986 35.5H18.9986Z" fill="#242533"/>
</svg>
