<svg width="153" height="35" viewBox="0 0 153 35" fill="none" xmlns="http://www.w3.org/2000/svg">
<path d="M0.90332 12.9232L14.618 12.9259L22.9575 12.9274V4.66553L0.90332 12.9232Z" fill="#5B5DA6"/>
<path d="M22.9575 4.66563V33.834L33.3733 0.764404L22.9575 4.66563Z" fill="#5B5DA6"/>
<path d="M22.9576 12.9274L14.6182 12.926L22.9576 33.834V12.9274Z" fill="#5B5DA6"/>
<path d="M0.90332 12.9233L16.7566 18.2908L14.618 12.9261L0.90332 12.9233Z" fill="#5B5DA6"/>
<path d="M51.4254 26.1558C51.3044 26.2768 51.103 26.4276 50.8212 26.6088C50.539 26.7902 50.1717 26.9714 49.7186 27.1528C49.2655 27.3338 48.7114 27.4896 48.0572 27.621C47.4024 27.7516 46.6526 27.8172 45.8067 27.8172C44.1753 27.8172 42.7655 27.5553 41.5775 27.032C40.389 26.5087 39.4073 25.7781 38.6322 24.8419C37.8568 23.9054 37.288 22.798 36.9255 21.5189C36.563 20.2401 36.3818 18.8356 36.3818 17.3048C36.3818 15.7747 36.5781 14.3596 36.9709 13.0607C37.3635 11.7617 37.9526 10.6394 38.7379 9.69243C39.5234 8.74617 40.5051 8.00596 41.6833 7.47211C42.8614 6.93886 44.2458 6.67163 45.8369 6.67163C46.6223 6.67163 47.3322 6.74234 47.9666 6.88306C48.601 7.02408 49.1546 7.19037 49.6281 7.38151C50.101 7.57315 50.4938 7.77413 50.8062 7.98567C51.1182 8.1971 51.3548 8.37373 51.5162 8.51424C51.6974 8.67576 51.8532 8.8669 51.9844 9.08817C52.1152 9.31005 52.1807 9.55171 52.1807 9.81326C52.1807 10.2163 52.0296 10.6189 51.7276 11.0216C51.4256 11.4247 51.0932 11.7972 50.7306 12.1393C50.489 11.8976 50.2172 11.6513 49.9151 11.3993C49.613 11.1476 49.2756 10.9263 48.9031 10.7347C48.5303 10.5435 48.1073 10.3825 47.6343 10.2513C47.1609 10.1206 46.6324 10.0549 46.0485 10.0549C45.0214 10.0549 44.1605 10.2617 43.4657 10.6742C42.7709 11.0872 42.212 11.6257 41.7891 12.2904C41.3663 12.955 41.0642 13.7153 40.8829 14.5711C40.7017 15.4272 40.6111 16.2981 40.6111 17.1841C40.6111 18.1309 40.7017 19.0371 40.8829 19.9027C41.0641 20.7687 41.376 21.5342 41.8194 22.1985C42.262 22.863 42.8412 23.3969 43.5563 23.7994C44.2708 24.2026 45.162 24.4037 46.2297 24.4037C46.7932 24.4037 47.312 24.3334 47.7854 24.1924C48.2583 24.0516 48.6765 23.8802 49.039 23.6785C49.4015 23.4776 49.7187 23.2663 49.9905 23.0445C50.2624 22.8229 50.489 22.6319 50.6703 22.4704C50.7911 22.6116 50.9317 22.783 51.0931 22.9841C51.2554 23.1873 51.4066 23.399 51.5462 23.6185C51.6869 23.8402 51.8078 24.0616 51.9087 24.2828C52.0092 24.5048 52.0597 24.7058 52.0597 24.8868C52.0597 25.149 52.0092 25.3704 51.9087 25.5516C51.8077 25.7329 51.6466 25.9344 51.4254 26.1558ZM66.9928 23.839C66.9928 25.4397 67.2255 26.6047 67.6917 27.334C67.3271 27.4755 66.9877 27.577 66.6737 27.6378C66.3593 27.6986 66.0303 27.7289 65.686 27.7289C64.9567 27.7289 64.4044 27.587 64.0299 27.3035C63.6548 27.0201 63.4168 26.6149 63.3157 26.0878C62.8697 26.5543 62.2823 26.9492 61.553 27.2734C60.8237 27.597 59.9319 27.7595 58.8787 27.7595C58.3317 27.7595 57.7847 27.6836 57.2377 27.5327C56.6905 27.3805 56.194 27.1335 55.7484 26.7906C55.3026 26.447 54.938 25.9875 54.6545 25.4119C54.3705 24.8362 54.229 24.1346 54.229 23.3067C54.229 22.2767 54.4769 21.4383 54.9735 20.7923C55.4698 20.1458 56.0928 19.636 56.8426 19.2622C57.592 18.8889 58.4025 18.6319 59.2739 18.4901C60.1448 18.3486 60.9453 18.258 61.6746 18.2171C61.9179 18.1971 62.1557 18.1867 62.3888 18.1867H63.0422V17.6336C63.0422 16.8548 62.8342 16.3016 62.4192 15.974C62.0036 15.6463 61.3298 15.482 60.3982 15.482C59.5269 15.482 58.7519 15.624 58.0734 15.9074C57.3943 16.1914 56.7309 16.5152 56.0828 16.88C55.7989 16.5356 55.5708 16.1559 55.399 15.7403C55.2268 15.3254 55.1407 15.0162 55.1407 14.8134C55.1407 14.53 55.2974 14.2565 55.6118 13.9929C55.9257 13.7299 56.3564 13.4915 56.9034 13.2787C57.4505 13.066 58.0782 12.8941 58.7877 12.7621C59.4966 12.6305 60.2463 12.5646 61.0365 12.5646C62.1305 12.5646 63.0574 12.6762 63.8171 12.8989C64.5769 13.1221 65.1947 13.4663 65.671 13.9321C66.1468 14.3985 66.4863 14.9806 66.689 15.6796C66.8913 16.3786 66.9929 17.1944 66.9929 18.1259V23.839H66.9928ZM63.1028 20.3139H62.6775C62.5353 20.3139 62.3934 20.3244 62.252 20.3444C61.7452 20.3852 61.2437 20.4459 60.7477 20.5265C60.251 20.6078 59.8103 20.7496 59.4258 20.9521C59.0406 21.1548 58.7267 21.4184 58.4837 21.7422C58.2405 22.0665 58.1189 22.4821 58.1189 22.9883C58.1189 23.5557 58.2808 24.0365 58.6051 24.4317C58.9289 24.8269 59.476 25.0244 60.2462 25.0244C60.6308 25.0244 60.9957 24.9741 61.3403 24.8722C61.6845 24.7714 61.9884 24.6396 62.252 24.4775C62.515 24.3153 62.723 24.1382 62.875 23.9454C63.0269 23.7532 63.1029 23.576 63.1029 23.4138V20.3139H63.1028ZM74.5595 14.3271C74.8824 13.9425 75.3877 13.5522 76.0742 13.157C76.7608 12.7619 77.6293 12.5644 78.6796 12.5644C79.4272 12.5644 80.139 12.6911 80.8158 12.9442C81.4919 13.1978 82.093 13.6082 82.6181 14.1751C83.1433 14.7425 83.5623 15.4923 83.8756 16.4239C84.1886 17.3561 84.3453 18.501 84.3453 19.8579C84.3453 21.4382 84.1632 22.7403 83.7998 23.7631C83.436 24.7866 82.9668 25.597 82.3915 26.1945C81.8158 26.7921 81.1742 27.2126 80.4677 27.4556C79.7606 27.6986 79.0536 27.8204 78.347 27.8204C77.7612 27.8204 77.251 27.7544 76.8171 27.6229C76.3826 27.4909 76.0141 27.3445 75.7112 27.1821C75.4083 27.0202 75.1761 26.8584 75.0147 26.6959C74.8532 26.5339 74.752 26.4222 74.7118 26.3614V33.832H70.5786V12.9898C70.6803 12.9699 70.8028 12.9495 70.9461 12.9291C71.0688 12.9092 71.2116 12.8939 71.3749 12.8835C71.5382 12.8735 71.7322 12.8684 71.9566 12.8684C72.6299 12.8684 73.2016 12.98 73.6712 13.2026C74.1406 13.4258 74.437 13.8004 74.5595 14.3271ZM80.0298 19.9491C80.0298 19.3413 79.9794 18.7744 79.8787 18.2474C79.7781 17.7208 79.6119 17.2649 79.3802 16.8799C79.1485 16.4951 78.8359 16.1961 78.4433 15.9832C78.05 15.7706 77.572 15.6643 77.0082 15.6643C76.1622 15.6643 75.5729 15.8267 75.2403 16.1504C74.9081 16.4748 74.7419 16.8295 74.7419 17.2141V23.6569C74.9028 23.8192 75.1895 24.0114 75.6026 24.2343C76.0159 24.4574 76.4939 24.5684 77.0381 24.5684C78.0656 24.5684 78.8211 24.1636 79.3046 23.3529C79.7881 22.5427 80.0298 21.4079 80.0298 19.9491ZM87.5352 25.1764C87.3932 24.7714 87.302 24.3457 87.2617 23.8999C87.2209 23.4544 87.2009 23.0088 87.2009 22.5625V8.46169C87.3424 8.4418 87.4944 8.42141 87.6567 8.40092C87.7981 8.38103 87.9501 8.36592 88.1125 8.35537C88.2745 8.34542 88.4364 8.34025 88.5986 8.34025C88.9226 8.34025 89.247 8.37069 89.5713 8.43136C89.895 8.49223 90.1889 8.61377 90.4527 8.79598C90.7158 8.97829 90.9284 9.22676 91.0907 9.54055C91.2528 9.85486 91.3338 10.2652 91.3338 10.7713V12.9289H95.5886V15.9985H91.3338V22.4791C91.3338 23.8924 91.9112 24.5988 93.0662 24.5988C93.3497 24.5988 93.6179 24.5535 93.8715 24.462C94.1246 24.3709 94.3525 24.2698 94.5553 24.1583C94.7577 24.0469 94.9352 23.9304 95.0871 23.8088C95.2391 23.6871 95.3454 23.5961 95.4061 23.5354C95.7101 23.9814 95.9427 24.3674 96.1051 24.6932C96.2671 25.0193 96.3482 25.3254 96.3482 25.6114C96.3482 25.8775 96.2421 26.1385 96.0291 26.3939C95.8162 26.6494 95.5172 26.885 95.1325 27.0995C94.7476 27.3141 94.2818 27.4879 93.7346 27.6209C93.1877 27.7539 92.5897 27.8205 91.9417 27.8205C90.6851 27.8205 89.7078 27.5772 89.0089 27.0911C88.31 26.6047 87.8184 25.9664 87.5352 25.1764ZM106.056 24.7812C106.564 24.7812 107.012 24.7257 107.398 24.614C107.784 24.503 108.13 24.3662 108.435 24.204C108.74 24.0421 109.004 23.8648 109.228 23.6722C109.452 23.4799 109.655 23.3026 109.838 23.1402C110.082 23.444 110.336 23.8343 110.6 24.3101C110.864 24.7866 110.997 25.1764 110.997 25.4801C110.997 25.926 110.743 26.3312 110.237 26.6959C109.812 27.0202 109.208 27.2988 108.429 27.5314C107.649 27.7643 106.732 27.8809 105.679 27.8809C104.726 27.8809 103.789 27.7595 102.868 27.5163C101.946 27.2733 101.125 26.8477 100.406 26.2398C99.6865 25.6323 99.1039 24.8169 98.6583 23.7937C98.2126 22.7706 97.9898 21.4793 97.9898 19.9188C97.9898 18.6423 98.1875 17.5437 98.5822 16.6216C98.9775 15.6998 99.504 14.935 100.163 14.3272C100.821 13.7194 101.565 13.274 102.396 12.9899C103.227 12.7065 104.078 12.5645 104.949 12.5645C106.084 12.5645 107.046 12.7421 107.836 13.0963C108.627 13.451 109.269 13.9272 109.766 14.5247C110.262 15.1224 110.622 15.8062 110.845 16.576C111.067 17.3461 111.179 18.1563 111.179 19.0072V19.4325C111.179 19.5951 111.174 19.7668 111.164 19.9492C111.154 20.1317 111.144 20.3092 111.134 20.481C111.123 20.6536 111.108 20.7901 111.088 20.8914H102.123C102.204 22.0057 102.55 22.9325 103.16 23.6722C103.769 24.4119 104.735 24.7812 106.056 24.7812ZM107.441 18.612C107.441 17.6395 107.252 16.8494 106.876 16.2416C106.499 15.6339 105.821 15.3298 104.843 15.3298C104.007 15.3298 103.34 15.6187 102.841 16.1961C102.342 16.7735 102.092 17.5788 102.092 18.6119H107.441V18.612ZM118.372 14.4039C118.493 14.2231 118.655 14.0222 118.858 13.8008C119.06 13.5797 119.308 13.3787 119.602 13.1979C119.896 13.017 120.22 12.8659 120.575 12.7454C120.929 12.6248 121.309 12.5645 121.715 12.5645C121.958 12.5645 122.216 12.5849 122.489 12.6248C122.763 12.6651 123.016 12.7406 123.249 12.8508C123.482 12.9615 123.67 13.1119 123.811 13.3029C123.953 13.4938 124.024 13.7298 124.024 14.0109C124.024 14.453 123.912 14.9606 123.69 15.5338C123.467 16.1074 123.244 16.5965 123.021 17.0015C122.677 16.7179 122.332 16.5001 121.988 16.3481C121.643 16.1963 121.238 16.1202 120.772 16.1202C120.144 16.1202 119.618 16.3031 119.192 16.6686C118.766 17.0343 118.554 17.4711 118.554 17.9791V27.817H114.421V12.9898C114.522 12.9699 114.644 12.9495 114.785 12.9291C114.907 12.9092 115.049 12.8939 115.211 12.8835C115.373 12.8735 115.565 12.8684 115.788 12.8684C116.437 12.8684 116.999 12.9941 117.475 13.245C117.951 13.4955 118.25 13.8821 118.372 14.4039ZM130.122 14.4039C130.244 14.2231 130.406 14.0222 130.609 13.8008C130.811 13.5797 131.059 13.3787 131.353 13.1979C131.647 13.017 131.971 12.8659 132.326 12.7454C132.68 12.6248 133.06 12.5645 133.465 12.5645C133.708 12.5645 133.967 12.5849 134.24 12.6248C134.513 12.6651 134.767 12.7406 135 12.8508C135.233 12.9615 135.42 13.1119 135.562 13.3029C135.704 13.4938 135.775 13.7298 135.775 14.0109C135.775 14.453 135.663 14.9606 135.441 15.5338C135.217 16.1074 134.995 16.5965 134.772 17.0015C134.427 16.7179 134.083 16.5001 133.739 16.3481C133.394 16.1963 132.989 16.1202 132.523 16.1202C131.895 16.1202 131.368 16.3031 130.943 16.6686C130.517 17.0343 130.305 17.4711 130.305 17.9791V27.817H126.172V12.9898C126.273 12.9699 126.394 12.9495 126.536 12.9291C126.658 12.9092 126.8 12.8939 126.962 12.8835C127.124 12.8735 127.316 12.8684 127.539 12.8684C128.188 12.8684 128.75 12.9941 129.226 13.245C129.702 13.4955 130.001 13.8821 130.122 14.4039ZM149.846 23.839C149.846 25.4397 150.079 26.6047 150.545 27.334C150.18 27.4755 149.84 27.577 149.527 27.6378C149.212 27.6986 148.883 27.7289 148.539 27.7289C147.809 27.7289 147.257 27.587 146.883 27.3035C146.508 27.0201 146.27 26.6149 146.168 26.0878C145.723 26.5543 145.135 26.9492 144.406 27.2734C143.677 27.597 142.785 27.7595 141.732 27.7595C141.185 27.7595 140.638 27.6836 140.09 27.5327C139.543 27.3805 139.047 27.1335 138.601 26.7906C138.155 26.447 137.791 25.9875 137.507 25.4119C137.223 24.8362 137.082 24.1346 137.082 23.3067C137.082 22.2767 137.33 21.4383 137.827 20.7923C138.323 20.1458 138.946 19.636 139.696 19.2622C140.445 18.8889 141.255 18.6319 142.127 18.4901C142.997 18.3486 143.798 18.258 144.528 18.2171C144.771 18.1971 145.009 18.1867 145.242 18.1867H145.895V17.6336C145.895 16.8548 145.687 16.3016 145.272 15.974C144.856 15.6463 144.183 15.482 143.251 15.482C142.38 15.482 141.605 15.624 140.926 15.9074C140.247 16.1914 139.584 16.5152 138.936 16.88C138.652 16.5356 138.424 16.1559 138.252 15.7403C138.08 15.3254 137.994 15.0162 137.994 14.8134C137.994 14.53 138.15 14.2565 138.465 13.9929C138.779 13.7299 139.209 13.4915 139.756 13.2787C140.303 13.066 140.931 12.8941 141.64 12.7621C142.349 12.6305 143.099 12.5646 143.889 12.5646C144.983 12.5646 145.91 12.6762 146.67 12.8989C147.43 13.1221 148.047 13.4663 148.524 13.9321C149 14.3985 149.339 14.9806 149.542 15.6796C149.744 16.3786 149.846 17.1944 149.846 18.1259V23.839ZM145.956 20.3139H145.53C145.388 20.3139 145.246 20.3244 145.105 20.3444C144.598 20.3852 144.097 20.4459 143.601 20.5265C143.104 20.6078 142.663 20.7496 142.279 20.9521C141.894 21.1548 141.58 21.4184 141.337 21.7422C141.093 22.0665 140.972 22.4821 140.972 22.9883C140.972 23.5557 141.134 24.0365 141.458 24.4317C141.782 24.8269 142.329 25.0244 143.099 25.0244C143.484 25.0244 143.849 24.9741 144.193 24.8722C144.538 24.7714 144.841 24.6396 145.105 24.4775C145.368 24.3153 145.576 24.1382 145.728 23.9454C145.88 23.7532 145.956 23.576 145.956 23.4138V20.3139H145.956Z" fill="#5B5DA6"/>
</svg>
