<svg width="153" height="63" viewBox="0 0 153 63" fill="none" xmlns="http://www.w3.org/2000/svg">
<path d="M0.903564 27.2933L14.6183 27.2961L22.9577 27.2975V19.0356L0.903564 27.2933Z" fill="#FF9D28"/>
<path d="M22.9575 19.0357V48.2042L33.3733 15.1345L22.9575 19.0357Z" fill="#68C5ED"/>
<path d="M22.9576 27.2976L14.6182 27.2961L22.9576 48.2041V27.2976Z" fill="#044D80"/>
<path d="M0.903564 27.2933L16.7568 32.6608L14.6183 27.2961L0.903564 27.2933Z" fill="#E54747"/>
<path d="M51.4256 40.5259C51.3047 40.6469 51.1032 40.7977 50.8215 40.9789C50.5392 41.1603 50.1719 41.3415 49.7189 41.5229C49.2658 41.7039 48.7116 41.8598 48.0574 41.9911C47.4027 42.1217 46.6528 42.1874 45.807 42.1874C44.1756 42.1874 42.7658 41.9254 41.5778 41.4021C40.3892 40.8788 39.4075 40.1482 38.6324 39.212C37.857 38.2755 37.2883 37.1681 36.9258 35.889C36.5633 34.6102 36.3821 33.2057 36.3821 31.675C36.3821 30.1448 36.5784 28.7297 36.9711 27.4308C37.3638 26.1318 37.9528 25.0095 38.7382 24.0625C39.5236 23.1163 40.5054 22.3761 41.6836 21.8422C42.8617 21.309 44.246 21.0417 45.8371 21.0417C46.6226 21.0417 47.3324 21.1125 47.9668 21.2532C48.6012 21.3942 49.1549 21.5605 49.6284 21.7516C50.1012 21.9433 50.4941 22.1443 50.8064 22.3558C51.1184 22.5672 51.355 22.7438 51.5164 22.8844C51.6976 23.0459 51.8534 23.237 51.9846 23.4583C52.1154 23.6802 52.1809 23.9218 52.1809 24.1834C52.1809 24.5865 52.0299 24.989 51.7279 25.3917C51.4258 25.7948 51.0935 26.1673 50.7309 26.5094C50.4892 26.2678 50.2174 26.0214 49.9154 25.7694C49.6132 25.5177 49.2758 25.2964 48.9034 25.1048C48.5305 24.9136 48.1076 24.7526 47.6346 24.6215C47.1612 24.4907 46.6326 24.425 46.0487 24.425C45.0216 24.425 44.1608 24.6318 43.4659 25.0443C42.7712 25.4573 42.2123 25.9959 41.7894 26.6605C41.3665 27.3251 41.0644 28.0854 40.8831 28.9412C40.7019 29.7974 40.6113 30.6682 40.6113 31.5542C40.6113 32.501 40.7019 33.4072 40.8831 34.2728C41.0643 35.1388 41.3763 35.9043 41.8196 36.5686C42.2623 37.2331 42.8415 37.767 43.5565 38.1696C44.2711 38.5727 45.1622 38.7738 46.2299 38.7738C46.7934 38.7738 47.3123 38.7035 47.7856 38.5625C48.2585 38.4217 48.6767 38.2503 49.0392 38.0486C49.4017 37.8478 49.719 37.6364 49.9908 37.4146C50.2626 37.1931 50.4892 37.002 50.6705 36.8405C50.7913 36.9817 50.9319 37.1531 51.0934 37.3542C51.2556 37.5574 51.4069 37.7692 51.5465 37.9886C51.6872 38.2103 51.808 38.4317 51.9089 38.6529C52.0095 38.8749 52.0599 39.076 52.0599 39.2569C52.0599 39.5191 52.0095 39.7405 51.9089 39.9217C51.8079 40.103 51.6469 40.3046 51.4256 40.5259ZM66.9931 38.2091C66.9931 39.8098 67.2257 40.9748 67.692 41.7041C67.3274 41.8457 66.9879 41.9471 66.6739 42.0079C66.3596 42.0688 66.0306 42.099 65.6862 42.099C64.957 42.099 64.4047 41.9572 64.0301 41.6736C63.655 41.3902 63.417 40.985 63.316 40.458C62.87 40.9245 62.2825 41.3193 61.5533 41.6436C60.8239 41.9671 59.9322 42.1296 58.879 42.1296C58.3319 42.1296 57.785 42.0537 57.2379 41.9028C56.6908 41.7506 56.1943 41.5037 55.7487 41.1607C55.3028 40.8171 54.9383 40.3576 54.6547 39.782C54.3707 39.2063 54.2292 38.5047 54.2292 37.6768C54.2292 36.6468 54.4772 35.8084 54.9738 35.1625C55.4701 34.5159 56.093 34.0061 56.8429 33.6323C57.5922 33.259 58.4027 33.002 59.2741 32.8603C60.145 32.7187 60.9456 32.6281 61.6748 32.5872C61.9181 32.5673 62.1559 32.5568 62.3891 32.5568H63.0424V32.0037C63.0424 31.2249 62.8345 30.6717 62.4194 30.3441C62.0038 30.0164 61.3301 29.8521 60.3984 29.8521C59.5271 29.8521 58.7521 29.9941 58.0736 30.2775C57.3946 30.5615 56.7312 30.8853 56.0831 31.2501C55.7991 30.9057 55.571 30.526 55.3993 30.1104C55.227 29.6955 55.141 29.3864 55.141 29.1836C55.141 28.9001 55.2976 28.6266 55.612 28.363C55.9259 28.1 56.3566 27.8616 56.9036 27.6489C57.4508 27.4361 58.0785 27.2642 58.788 27.1323C59.4968 27.0007 60.2466 26.9347 61.0368 26.9347C62.1308 26.9347 63.0577 27.0463 63.8173 27.269C64.5771 27.4922 65.195 27.8364 65.6712 28.3022C66.147 28.7686 66.4865 29.3508 66.6892 30.0497C66.8915 30.7487 66.9932 31.5645 66.9932 32.496V38.2091H66.9931ZM63.103 34.684H62.6777C62.5356 34.684 62.3936 34.6946 62.2522 34.7145C61.7454 34.7553 61.244 34.816 60.7479 34.8966C60.2512 34.9779 59.8105 35.1197 59.426 35.3222C59.0409 35.525 58.727 35.7885 58.4839 36.1123C58.2407 36.4366 58.1192 36.8522 58.1192 37.3584C58.1192 37.9258 58.2811 38.4067 58.6053 38.8018C58.9292 39.197 59.4762 39.3945 60.2465 39.3945C60.6311 39.3945 60.9959 39.3442 61.3405 39.2423C61.6848 39.1415 61.9886 39.0097 62.2522 38.8476C62.5153 38.6855 62.7233 38.5083 62.8752 38.3156C63.0271 38.1233 63.1031 37.9462 63.1031 37.7839V34.684H63.103ZM74.5597 28.6972C74.8827 28.3126 75.3879 27.9223 76.0744 27.5271C76.7611 27.132 77.6295 26.9345 78.6799 26.9345C79.4274 26.9345 80.1392 27.0612 80.816 27.3144C81.4921 27.5679 82.0932 27.9783 82.6183 28.5452C83.1436 29.1126 83.5626 29.8624 83.8759 30.794C84.1889 31.7262 84.3455 32.8711 84.3455 34.2281C84.3455 35.8083 84.1635 37.1104 83.8001 38.1332C83.4363 39.1567 82.967 39.9671 82.3917 40.5646C81.816 41.1623 81.1744 41.5827 80.4679 41.8257C79.7609 42.0688 79.0539 42.1905 78.3472 42.1905C77.7614 42.1905 77.2512 42.1246 76.8174 41.993C76.3829 41.861 76.0144 41.7146 75.7114 41.5522C75.4085 41.3903 75.1764 41.2285 75.015 41.066C74.8534 40.9041 74.7523 40.7924 74.712 40.7315V48.2021H70.5789V27.3599C70.6805 27.34 70.8031 27.3196 70.9463 27.2992C71.069 27.2794 71.2118 27.264 71.3752 27.2536C71.5384 27.2436 71.7324 27.2385 71.9568 27.2385C72.6302 27.2385 73.2019 27.3501 73.6714 27.5728C74.1408 27.796 74.4373 28.1705 74.5597 28.6972ZM80.03 34.3192C80.03 33.7115 79.9796 33.1445 79.879 32.6175C79.7783 32.0909 79.6122 31.635 79.3804 31.25C79.1487 30.8653 78.8361 30.5662 78.4435 30.3533C78.0503 30.1407 77.5722 30.0345 77.0084 30.0345C76.1624 30.0345 75.5732 30.1968 75.2406 30.5205C74.9083 30.8449 74.7421 31.1997 74.7421 31.5843V38.027C74.903 38.1893 75.1898 38.3815 75.6029 38.6044C76.0161 38.8275 76.4942 38.9385 77.0384 38.9385C78.0659 38.9385 78.8213 38.5337 79.3048 37.7231C79.7884 36.9128 80.03 35.778 80.03 34.3192ZM87.5354 39.5465C87.3934 39.1415 87.3023 38.7158 87.2619 38.27C87.2211 37.8245 87.2011 37.3789 87.2011 36.9326V22.8318C87.3427 22.8119 87.4946 22.7915 87.657 22.771C87.7983 22.7512 87.9504 22.736 88.1127 22.7255C88.2747 22.7155 88.4366 22.7104 88.5989 22.7104C88.9228 22.7104 89.2473 22.7408 89.5715 22.8015C89.8953 22.8623 90.1892 22.9839 90.4529 23.1661C90.716 23.3484 90.9287 23.5969 91.091 23.9107C91.253 24.225 91.3341 24.6354 91.3341 25.1414V27.299H95.5889V30.3686H91.3341V36.8492C91.3341 38.2625 91.9115 38.9689 93.0664 38.9689C93.35 38.9689 93.6181 38.9236 93.8718 38.8322C94.1249 38.7411 94.3528 38.6399 94.5556 38.5284C94.758 38.417 94.9354 38.3005 95.0874 38.1789C95.2394 38.0573 95.3457 37.9662 95.4064 37.9055C95.7103 38.3515 95.9429 38.7375 96.1054 39.0633C96.2673 39.3894 96.3485 39.6955 96.3485 39.9815C96.3485 40.2476 96.2423 40.5086 96.0294 40.7641C95.8164 41.0195 95.5174 41.2551 95.1327 41.4697C94.7478 41.6842 94.282 41.858 93.7349 41.991C93.188 42.124 92.59 42.1906 91.9419 42.1906C90.6854 42.1906 89.7081 41.9473 89.0091 41.4612C88.3102 40.9748 87.8187 40.3365 87.5354 39.5465ZM106.057 39.1513C106.565 39.1513 107.012 39.0958 107.399 38.9841C107.785 38.8731 108.13 38.7363 108.435 38.5742C108.74 38.4122 109.005 38.2349 109.228 38.0423C109.452 37.85 109.655 37.6727 109.838 37.5103C110.082 37.8141 110.336 38.2045 110.601 38.6802C110.865 39.1567 110.997 39.5465 110.997 39.8503C110.997 40.2961 110.744 40.7014 110.237 41.066C109.812 41.3903 109.209 41.6689 108.429 41.9016C107.649 42.1344 106.732 42.2511 105.679 42.2511C104.726 42.2511 103.789 42.1296 102.868 41.8864C101.946 41.6435 101.125 41.2179 100.406 40.6099C99.6867 40.0024 99.1042 39.187 98.6586 38.1638C98.2129 37.1407 97.9901 35.8494 97.9901 34.2889C97.9901 33.0124 98.1877 31.9138 98.5825 30.9917C98.9777 30.07 99.5043 29.3051 100.163 28.6973C100.821 28.0895 101.566 27.6441 102.397 27.36C103.227 27.0767 104.078 26.9346 104.95 26.9346C106.084 26.9346 107.046 27.1123 107.836 27.4664C108.627 27.8211 109.27 28.2974 109.766 28.8948C110.262 29.4925 110.622 30.1763 110.845 30.9461C111.068 31.7163 111.179 32.5264 111.179 33.3773V33.8027C111.179 33.9652 111.174 34.137 111.164 34.3193C111.154 34.5018 111.144 34.6793 111.134 34.8511C111.123 35.0237 111.108 35.1602 111.088 35.2615H102.123C102.204 36.3759 102.55 37.3026 103.16 38.0423C103.769 38.782 104.735 39.1513 106.057 39.1513ZM107.441 32.9821C107.441 32.0097 107.253 31.2195 106.876 30.6117C106.499 30.004 105.821 29.7 104.843 29.7C104.008 29.7 103.34 29.9888 102.841 30.5662C102.342 31.1437 102.093 31.9489 102.093 32.982H107.441V32.9821ZM118.372 28.774C118.493 28.5932 118.655 28.3923 118.858 28.1709C119.06 27.9498 119.309 27.7488 119.603 27.568C119.896 27.3871 120.22 27.236 120.575 27.1155C120.929 26.9949 121.309 26.9346 121.715 26.9346C121.958 26.9346 122.216 26.955 122.49 26.9949C122.763 27.0353 123.016 27.1107 123.249 27.2209C123.482 27.3316 123.67 27.4821 123.812 27.673C123.953 27.8639 124.024 28.0999 124.024 28.3811C124.024 28.8231 123.913 29.3308 123.69 29.9039C123.467 30.4775 123.244 30.9666 123.022 31.3716C122.677 31.0881 122.332 30.8702 121.988 30.7183C121.644 30.5664 121.238 30.4903 120.773 30.4903C120.144 30.4903 119.618 30.6732 119.193 31.0387C118.767 31.4044 118.554 31.8413 118.554 32.3492V42.1872H114.421V27.3599C114.522 27.34 114.644 27.3196 114.786 27.2992C114.907 27.2794 115.049 27.264 115.211 27.2536C115.373 27.2436 115.566 27.2385 115.789 27.2385C116.437 27.2385 116.999 27.3642 117.475 27.6151C117.951 27.8657 118.25 28.2522 118.372 28.774ZM130.123 28.774C130.244 28.5932 130.406 28.3923 130.609 28.1709C130.811 27.9498 131.06 27.7488 131.353 27.568C131.647 27.3871 131.971 27.236 132.326 27.1155C132.68 26.9949 133.06 26.9346 133.466 26.9346C133.708 26.9346 133.967 26.955 134.24 26.9949C134.514 27.0353 134.767 27.1107 135 27.2209C135.233 27.3316 135.42 27.4821 135.563 27.673C135.704 27.8639 135.775 28.0999 135.775 28.3811C135.775 28.8231 135.663 29.3308 135.441 29.9039C135.218 30.4775 134.995 30.9666 134.772 31.3716C134.428 31.0881 134.083 30.8702 133.739 30.7183C133.394 30.5664 132.989 30.4903 132.523 30.4903C131.895 30.4903 131.369 30.6732 130.943 31.0387C130.518 31.4044 130.305 31.8413 130.305 32.3492V42.1872H126.172V27.3599C126.273 27.34 126.395 27.3196 126.537 27.2992C126.658 27.2794 126.8 27.264 126.962 27.2536C127.124 27.2436 127.316 27.2385 127.539 27.2385C128.188 27.2385 128.75 27.3642 129.226 27.6151C129.702 27.8657 130.001 28.2522 130.123 28.774ZM149.846 38.2091C149.846 39.8098 150.079 40.9748 150.545 41.7041C150.18 41.8457 149.841 41.9471 149.527 42.0079C149.213 42.0688 148.884 42.099 148.539 42.099C147.81 42.099 147.258 41.9572 146.883 41.6736C146.508 41.3902 146.27 40.985 146.169 40.458C145.723 40.9245 145.135 41.3193 144.406 41.6436C143.677 41.9671 142.785 42.1296 141.732 42.1296C141.185 42.1296 140.638 42.0537 140.091 41.9028C139.544 41.7506 139.047 41.5037 138.602 41.1607C138.156 40.8171 137.791 40.3576 137.508 39.782C137.224 39.2063 137.082 38.5047 137.082 37.6768C137.082 36.6468 137.33 35.8084 137.827 35.1625C138.323 34.5159 138.946 34.0061 139.696 33.6323C140.445 33.259 141.255 33.002 142.127 32.8603C142.998 32.7187 143.798 32.6281 144.528 32.5872C144.771 32.5673 145.009 32.5568 145.242 32.5568H145.895V32.0037C145.895 31.2249 145.687 30.6717 145.272 30.3441C144.857 30.0164 144.183 29.8521 143.251 29.8521C142.38 29.8521 141.605 29.9941 140.927 30.2775C140.248 30.5615 139.584 30.8853 138.936 31.2501C138.652 30.9057 138.424 30.526 138.252 30.1104C138.08 29.6955 137.994 29.3864 137.994 29.1836C137.994 28.9001 138.151 28.6266 138.465 28.363C138.779 28.1 139.21 27.8616 139.756 27.6489C140.304 27.4361 140.931 27.2642 141.641 27.1323C142.35 27.0007 143.099 26.9347 143.89 26.9347C144.984 26.9347 145.91 27.0463 146.67 27.269C147.43 27.4922 148.048 27.8364 148.524 28.3022C149 28.7686 149.339 29.3508 149.542 30.0497C149.744 30.7487 149.846 31.5645 149.846 32.496V38.2091ZM145.956 34.684H145.531C145.389 34.684 145.247 34.6946 145.105 34.7145C144.599 34.7553 144.097 34.816 143.601 34.8966C143.104 34.9779 142.664 35.1197 142.279 35.3222C141.894 35.525 141.58 35.7885 141.337 36.1123C141.094 36.4366 140.972 36.8522 140.972 37.3584C140.972 37.9258 141.134 38.4067 141.458 38.8018C141.782 39.197 142.329 39.3945 143.099 39.3945C143.484 39.3945 143.849 39.3442 144.193 39.2423C144.538 39.1415 144.842 39.0097 145.105 38.8476C145.368 38.6855 145.576 38.5083 145.728 38.3156C145.88 38.1233 145.956 37.9462 145.956 37.7839V34.684H145.956Z" fill="#044D80"/>
</svg>
