<svg width="157" height="33" viewBox="0 0 157 33" fill="none" xmlns="http://www.w3.org/2000/svg">
<path d="M17.0004 6.698H15.0005C13.8959 6.698 13.0005 7.59343 13.0005 8.698V23.5636C13.0005 24.6681 13.8959 25.5636 15.0005 25.5636H17.0004C18.105 25.5636 19.0004 24.6681 19.0004 23.5636V8.698C19.0004 7.59343 18.105 6.698 17.0004 6.698Z" fill="#242533"/>
<path d="M8.47526 6.698H7C5.89543 6.698 5 7.59343 5 8.698V16.2621C5 17.3666 5.89543 18.2621 7 18.2621H8.47526C9.57983 18.2621 10.4753 17.3666 10.4753 16.2621V8.698C10.4753 7.59343 9.57983 6.698 8.47526 6.698Z" fill="#242533"/>
<path d="M25 6.698H23.5542C22.4496 6.698 21.5542 7.59343 21.5542 8.698V19.2096C21.5542 20.3141 22.4496 21.2096 23.5542 21.2096H25C26.1046 21.2096 27 20.3141 27 19.2096V8.698C27 7.59343 26.1046 6.698 25 6.698Z" fill="#5B5DA6"/>
<path fill-rule="evenodd" clip-rule="evenodd" d="M140.201 15.9833C140.201 10.683 144.158 7.00952 149.246 7.00952C152.997 7.00952 155.156 9.10865 156.338 11.2603L153.254 12.8346C152.535 11.4177 150.993 10.3156 149.246 10.3156C146.162 10.3156 143.953 12.7296 143.953 15.9833C143.953 19.2369 146.214 21.6509 149.246 21.6509C150.993 21.6509 152.535 20.5489 153.254 19.132L156.338 20.6538C155.105 22.8054 152.997 24.9046 149.246 24.9046C144.158 24.957 140.201 21.3361 140.201 15.9833ZM62.96 7.11499H48.519V10.3162H62.96V7.11499ZM82.746 7.11499H79.2514L77.6582 10.3162L73.8039 17.978L70.0009 10.3162L68.4078 7.11499H64.8618L66.5063 10.3162L73.8039 25.01L81.1528 10.3162L82.746 7.11499ZM79.5596 21.8089L86.8572 7.11499L94.2062 21.8089L95.7993 25.01H92.3047L90.7115 21.8089L86.8572 14.1471L83.0542 21.8089L81.4611 25.01H77.9665L79.5596 21.8089ZM62.96 21.8087H48.519V25.0099H62.96V21.8087ZM48.519 14.461H62.96V17.6622H48.519V14.461ZM119.439 24.6421L116.098 18.5022H113.478V24.6421H109.88V7.32433H117.794C121.34 7.32433 123.499 9.68585 123.499 12.887C123.499 15.9307 121.597 17.61 119.799 18.0299L123.602 24.6421H119.439ZM119.799 12.887C119.799 11.4176 118.719 10.5255 117.28 10.5255H113.478V15.2485H117.28C118.719 15.2485 119.799 14.3564 119.799 12.887ZM126.223 7.32433V24.6421V24.6946H138.197V21.4409H129.82V17.5051H138.043V14.2514H129.82V10.578H138.197V7.32433H126.223ZM97.238 15.1961H105.101V18.2923H97.238V15.1961Z" fill="#242533"/>
</svg>
