<svg width="171" height="33" viewBox="0 0 171 33" fill="none" xmlns="http://www.w3.org/2000/svg">
<path d="M28 11.8647C28 11.0513 27.0806 10.5782 26.4187 11.051L20.4472 15.3163C19.8889 15.7152 19.8889 16.545 20.4472 16.9438L26.4187 21.2092C27.0806 21.682 28 21.2088 28 20.3955V11.8647Z" fill="#242533"/>
<path d="M15.9592 8.68066H5.83987C4.82374 8.68066 4 9.63369 4 10.8093V21.4526C4 22.6282 4.82374 23.5812 5.83987 23.5812H15.9592C16.9753 23.5812 17.799 22.6282 17.799 21.4526V10.8093C17.799 9.63369 16.9753 8.68066 15.9592 8.68066Z" fill="#242533"/>
<path fill-rule="evenodd" clip-rule="evenodd" d="M102.715 21.6582L104.487 19.1393C105.56 20.2588 107.24 21.2384 109.385 21.2384C111.204 21.2384 112.044 20.3987 112.044 19.5125C112.044 18.4163 110.589 18.0705 108.858 17.6593C106.317 17.0555 103.181 16.3104 103.181 12.8421C103.181 10.2766 105.42 8.13086 109.012 8.13086C111.484 8.13086 113.49 8.87719 115.029 10.2766L113.21 12.7022C111.951 11.536 110.318 11.0229 108.732 11.0229C107.333 11.0229 106.54 11.6293 106.54 12.5622C106.54 13.5396 107.925 13.8681 109.6 14.2654C112.162 14.8731 115.403 15.6418 115.403 19.1393C115.403 21.9381 113.397 24.0838 109.245 24.0838C106.307 24.0838 104.161 23.1042 102.715 21.6582ZM61.1541 8.22461H48V11.07H61.1541V8.22461ZM79.1121 8.22461H75.9401L74.4941 11.07L70.9957 17.8803L67.4972 11.07L66.0512 8.22461H62.8793L64.3253 11.07L70.9957 24.1309L77.666 11.07L79.1121 8.22461ZM76.2207 21.2855L82.891 8.22461L89.5148 21.2855L91.0074 24.1309H87.7889L86.3428 21.2855L82.891 14.4752L79.3926 21.2855L77.9466 24.1309H74.728L76.2207 21.2855ZM61.1541 21.2843H48V24.1297H61.1541V21.2843ZM48 14.7544H61.1541V17.5998H48V14.7544ZM118.341 19.1393L116.569 21.6582C118.015 23.1042 120.161 24.0838 123.099 24.0838C127.251 24.0838 129.257 21.9381 129.257 19.1393C129.257 15.6418 126.016 14.8731 123.454 14.2654C121.779 13.8681 120.394 13.5396 120.394 12.5622C120.394 11.6293 121.187 11.0229 122.586 11.0229C124.172 11.0229 125.805 11.536 127.064 12.7022L128.883 10.2766C127.344 8.87719 125.338 8.13086 122.866 8.13086C119.274 8.13086 117.035 10.2766 117.035 12.8421C117.035 16.3104 120.171 17.0555 122.712 17.6593C124.443 18.0705 125.898 18.4163 125.898 19.5125C125.898 20.3987 125.058 21.2384 123.239 21.2384C121.094 21.2384 119.414 20.2588 118.341 19.1393ZM131.496 23.8038V8.41069H142.411V11.3027H134.808V14.568H142.271V17.46H134.808V20.9584H142.411V23.8505H131.496V23.8038ZM145.723 19.1393L143.95 21.6582C145.349 23.1042 147.495 24.0838 150.48 24.0838C154.632 24.0838 156.638 21.9381 156.638 19.1393C156.638 15.6418 153.397 14.8731 150.835 14.2654C149.16 13.8681 147.775 13.5396 147.775 12.5622C147.775 11.6293 148.568 11.0229 149.967 11.0229C151.553 11.0229 153.186 11.536 154.445 12.7022L156.265 10.2766C154.725 8.87719 152.719 8.13086 150.247 8.13086C146.655 8.13086 144.416 10.2766 144.416 12.8421C144.416 16.3104 147.552 17.0555 150.093 17.6593C151.824 18.0705 153.279 18.4163 153.279 19.5125C153.279 20.3987 152.44 21.2384 150.62 21.2384C148.475 21.2384 146.795 20.2588 145.723 19.1393ZM157.804 21.6582L159.577 19.1393C160.649 20.2588 162.329 21.2384 164.474 21.2384C166.294 21.2384 167.133 20.3987 167.133 19.5125C167.133 18.4163 165.678 18.0705 163.947 17.6593C161.406 17.0555 158.271 16.3104 158.271 12.8421C158.271 10.2766 160.51 8.13086 164.101 8.13086C166.573 8.13086 168.579 8.87719 170.119 10.2766L168.299 12.7022C167.04 11.536 165.407 11.0229 163.821 11.0229C162.422 11.0229 161.629 11.6293 161.629 12.5622C161.629 13.5396 163.014 13.8681 164.689 14.2654C167.251 14.8731 170.492 15.6418 170.492 19.1393C170.492 21.9381 168.486 24.0838 164.334 24.0838C161.349 24.0838 159.25 23.1042 157.804 21.6582ZM92.2671 15.4064H99.4039V18.1585H92.2671V15.4064Z" fill="#242533"/>
</svg>
