<svg width="176" height="33" viewBox="0 0 176 33" fill="none" xmlns="http://www.w3.org/2000/svg">
<path opacity="0.4" d="M14.71 9.31132L23.2206 12.4157C23.7394 12.605 24.0066 13.179 23.8174 13.6978L22.0592 18.5178C21.8699 19.0366 21.2959 19.3038 20.7771 19.1145L12.0258 15.9224C11.507 15.7331 10.933 16.0003 10.7437 16.5192L8.9469 21.4451C8.75765 21.9639 9.02483 22.5379 9.54367 22.7272L18.9651 26.1638" stroke="#242533" stroke-width="1.4"/>
<rect x="13.3403" y="2.71448" width="8.10683" height="8.10683" transform="rotate(65.0403 13.3403 2.71448)" fill="#242533"/>
<rect x="19.2073" y="22.1177" width="8.10683" height="8.10683" transform="rotate(20.0403 19.2073 22.1177)" fill="#242533"/>
<path d="M62.7984 7.56531H48V10.7664H62.7984V7.56531Z" fill="#242533"/>
<path d="M83.001 7.56531H79.4326L77.8058 10.7664L73.8701 18.428L69.9343 10.7664L68.3075 7.56531H64.7391L66.3659 10.7664L73.8701 25.4598L81.3742 10.7664L83.001 7.56531Z" fill="#242533"/>
<path d="M87.2524 7.56531L79.7482 22.2588L78.069 25.4598H81.6899L83.3166 22.2588L87.2524 14.5972L91.1357 22.2588L92.7624 25.4598H96.3833L94.7041 22.2588L87.2524 7.56531Z" fill="#242533"/>
<path d="M62.7984 22.2574H48V25.4585H62.7984V22.2574Z" fill="#242533"/>
<path d="M62.7984 14.9114H48V18.1125H62.7984V14.9114Z" fill="#242533"/>
<path d="M105.829 15.6449H97.8004V18.741H105.829V15.6449Z" fill="#242533"/>
<path d="M111.125 25.6307V7.77942H117.958C119.248 7.77942 120.32 7.9828 121.175 8.38957C122.035 8.79052 122.677 9.33966 123.101 10.037C123.531 10.7343 123.746 11.5246 123.746 12.4078C123.746 13.1342 123.607 13.756 123.328 14.2732C123.049 14.7845 122.674 15.2 122.203 15.5196C121.733 15.8392 121.207 16.0687 120.626 16.2082V16.3825C121.259 16.4174 121.866 16.6121 122.447 16.9665C123.034 17.3152 123.514 17.8091 123.885 18.4483C124.257 19.0875 124.443 19.8604 124.443 20.7669C124.443 21.6908 124.22 22.5218 123.772 23.2598C123.325 23.992 122.651 24.5702 121.75 24.9944C120.849 25.4186 119.716 25.6307 118.351 25.6307H111.125ZM114.358 22.9286H117.836C119.01 22.9286 119.856 22.7048 120.373 22.2574C120.896 21.8041 121.157 21.2231 121.157 20.5141C121.157 19.9853 121.026 19.5088 120.765 19.0846C120.504 18.6546 120.132 18.3176 119.649 18.0735C119.167 17.8236 118.592 17.6987 117.923 17.6987H114.358V22.9286ZM114.358 15.3714H117.557C118.115 15.3714 118.618 15.2697 119.065 15.0664C119.513 14.8572 119.864 14.5637 120.12 14.186C120.381 13.8025 120.512 13.3492 120.512 12.8262C120.512 12.1347 120.268 11.5653 119.78 11.1178C119.298 10.6704 118.58 10.4466 117.627 10.4466H114.358V15.3714Z" fill="#242533"/>
<path d="M132.548 25.8922C131.241 25.8922 130.107 25.6045 129.149 25.0292C128.19 24.4539 127.446 23.6491 126.917 22.6148C126.394 21.5804 126.133 20.3717 126.133 18.9887C126.133 17.6057 126.394 16.3942 126.917 15.354C127.446 14.3138 128.19 13.5061 129.149 12.9308C130.107 12.3555 131.241 12.0679 132.548 12.0679C133.855 12.0679 134.989 12.3555 135.947 12.9308C136.906 13.5061 137.647 14.3138 138.17 15.354C138.699 16.3942 138.963 17.6057 138.963 18.9887C138.963 20.3717 138.699 21.5804 138.17 22.6148C137.647 23.6491 136.906 24.4539 135.947 25.0292C134.989 25.6045 133.855 25.8922 132.548 25.8922ZM132.565 23.3644C133.274 23.3644 133.867 23.1697 134.344 22.7804C134.82 22.3852 135.175 21.8564 135.407 21.194C135.645 20.5316 135.764 19.7936 135.764 18.98C135.764 18.1607 135.645 17.4198 135.407 16.7573C135.175 16.0891 134.82 15.5574 134.344 15.1622C133.867 14.7671 133.274 14.5695 132.565 14.5695C131.839 14.5695 131.235 14.7671 130.752 15.1622C130.276 15.5574 129.919 16.0891 129.68 16.7573C129.448 17.4198 129.332 18.1607 129.332 18.98C129.332 19.7936 129.448 20.5316 129.68 21.194C129.919 21.8564 130.276 22.3852 130.752 22.7804C131.235 23.1697 131.839 23.3644 132.565 23.3644Z" fill="#242533"/>
<path d="M145.085 25.9009C144.237 25.9009 143.472 25.7498 142.793 25.4476C142.119 25.1396 141.584 24.6864 141.189 24.0879C140.799 23.4893 140.605 22.7513 140.605 21.8739C140.605 21.1185 140.744 20.4938 141.023 19.9998C141.302 19.5059 141.683 19.1108 142.165 18.8144C142.647 18.5181 143.191 18.2943 143.795 18.1432C144.405 17.9864 145.036 17.873 145.686 17.8033C146.471 17.722 147.107 17.6493 147.595 17.5854C148.083 17.5157 148.438 17.4111 148.659 17.2716C148.885 17.1263 148.999 16.9026 148.999 16.6004V16.5481C148.999 15.8915 148.804 15.383 148.415 15.0228C148.025 14.6625 147.465 14.4824 146.732 14.4824C145.96 14.4824 145.346 14.6509 144.893 14.9879C144.446 15.3249 144.144 15.723 143.987 16.1821L141.041 15.7637C141.273 14.9501 141.657 14.2703 142.191 13.724C142.726 13.172 143.379 12.7594 144.152 12.4863C144.925 12.2074 145.779 12.0679 146.715 12.0679C147.36 12.0679 148.002 12.1434 148.641 12.2945C149.28 12.4456 149.864 12.6955 150.393 13.0441C150.922 13.387 151.346 13.8548 151.666 14.4475C151.991 15.0402 152.154 15.7811 152.154 16.6702V25.6307H149.121V23.7915H149.016C148.824 24.1634 148.554 24.5121 148.205 24.8375C147.863 25.1571 147.43 25.4157 146.907 25.6132C146.39 25.805 145.782 25.9009 145.085 25.9009ZM145.904 23.5823C146.538 23.5823 147.087 23.4574 147.552 23.2075C148.017 22.9518 148.374 22.6148 148.624 22.1964C148.88 21.778 149.007 21.3218 149.007 20.8279V19.2502C148.909 19.3316 148.74 19.4071 148.502 19.4769C148.269 19.5466 148.008 19.6076 147.717 19.6599C147.427 19.7122 147.139 19.7587 146.854 19.7994C146.57 19.84 146.323 19.8749 146.114 19.904C145.643 19.9679 145.222 20.0725 144.85 20.2178C144.478 20.363 144.184 20.5664 143.969 20.8279C143.754 21.0836 143.647 21.4148 143.647 21.8216C143.647 22.4027 143.859 22.8414 144.283 23.1378C144.707 23.4341 145.248 23.5823 145.904 23.5823Z" fill="#242533"/>
<path d="M154.918 25.6307V12.2422H157.977V14.4736H158.117C158.361 13.7008 158.779 13.1052 159.372 12.6868C159.97 12.2626 160.653 12.0505 161.42 12.0505C161.594 12.0505 161.789 12.0592 162.004 12.0766C162.225 12.0882 162.408 12.1086 162.553 12.1376V15.0402C162.42 14.9937 162.208 14.953 161.917 14.9182C161.632 14.8775 161.356 14.8572 161.089 14.8572C160.514 14.8572 159.996 14.9821 159.537 15.232C159.084 15.476 158.727 15.816 158.465 16.2518C158.204 16.6876 158.073 17.1903 158.073 17.7597V25.6307H154.918Z" fill="#242533"/>
<path d="M168.658 25.866C167.606 25.866 166.664 25.5958 165.833 25.0554C165.002 24.515 164.346 23.7305 163.864 22.7019C163.381 21.6734 163.14 20.424 163.14 18.9539C163.14 17.4663 163.384 16.2111 163.872 15.1884C164.366 14.1598 165.032 13.3841 165.868 12.8611C166.705 12.3323 167.638 12.0679 168.666 12.0679C169.451 12.0679 170.096 12.2016 170.601 12.4689C171.107 12.7303 171.508 13.047 171.804 13.4189C172.101 13.785 172.33 14.1308 172.493 14.4562H172.624V7.77942H175.788V25.6307H172.685V23.5213H172.493C172.33 23.8467 172.095 24.1924 171.787 24.5585C171.479 24.9188 171.072 25.2268 170.566 25.4825C170.061 25.7382 169.425 25.866 168.658 25.866ZM169.538 23.2772C170.206 23.2772 170.776 23.0971 171.246 22.7368C171.717 22.3707 172.074 21.8623 172.318 21.2114C172.563 20.5606 172.685 19.8023 172.685 18.9364C172.685 18.0706 172.563 17.3181 172.318 16.6789C172.08 16.0397 171.726 15.5428 171.255 15.1884C170.79 14.8339 170.218 14.6567 169.538 14.6567C168.835 14.6567 168.248 14.8397 167.777 15.2058C167.307 15.5719 166.952 16.0775 166.714 16.7225C166.476 17.3675 166.356 18.1055 166.356 18.9364C166.356 19.7732 166.476 20.5199 166.714 21.1766C166.958 21.8274 167.315 22.3417 167.786 22.7194C168.262 23.0913 168.846 23.2772 169.538 23.2772Z" fill="#242533"/>
</svg>
