<svg width="42" height="36" viewBox="0 0 42 36" fill="none" xmlns="http://www.w3.org/2000/svg">
<path d="M13.2637 31.5163V16.2094L1.48656 2.40188C0.932867 1.75273 1.39417 0.75293 2.24739 0.75293H32.0919C32.9453 0.75293 33.4065 1.75293 32.8526 2.40204L21.0707 16.2094V27.4973C21.0707 27.8255 20.9097 28.1328 20.6398 28.3196L14.8328 32.3386C14.1696 32.7976 13.2637 32.3229 13.2637 31.5163Z" fill="#242533" fill-opacity="0.16"/>
<path d="M28.7935 20.9266C28.2412 20.9266 27.7935 21.3743 27.7935 21.9266C27.7935 22.4789 28.2412 22.9266 28.7935 22.9266L28.7935 20.9266ZM40.7313 22.9266C41.2836 22.9266 41.7313 22.4789 41.7313 21.9266C41.7313 21.3743 41.2836 20.9266 40.7313 20.9266L40.7313 22.9266ZM28.7935 22.9266L40.7313 22.9266L40.7313 20.9266L28.7935 20.9266L28.7935 22.9266Z" fill="#242533"/>
<path d="M35.7622 15.9581C35.7622 15.4058 35.3145 14.9581 34.7622 14.9581C34.2099 14.9581 33.7622 15.4058 33.7622 15.9581H35.7622ZM33.7622 27.896C33.7622 28.4482 34.2099 28.896 34.7622 28.896C35.3145 28.896 35.7622 28.4482 35.7622 27.896H33.7622ZM33.7622 15.9581V27.896H35.7622V15.9581H33.7622Z" fill="#242533"/>
</svg>
