<svg width="48" height="49" viewBox="0 0 48 49" fill="none" xmlns="http://www.w3.org/2000/svg">
<path fill-rule="evenodd" clip-rule="evenodd" d="M22.2543 8.5L40.1743 11.3274L37.4291 28.7217L31.9983 20.2714L27.2531 27.6543L19.4268 26.42L22.2543 8.5ZM18.3868 18.3514C16.6803 17.6376 14.7973 17.4582 12.9867 17.837C11.176 18.2157 9.52283 19.1348 8.24549 20.4728C6.96814 21.8109 6.12671 23.5049 5.83234 25.3312C5.53796 27.1574 5.80448 29.03 6.5967 30.7017C7.38893 32.3733 8.66958 33.7653 10.2695 34.6938C11.8694 35.6223 13.7134 36.0437 15.5578 35.9022C17.4023 35.7607 19.1604 35.0631 20.6 33.9015C22.0397 32.7399 23.0931 31.1689 23.6211 29.396L16.812 28.3217L18.3868 18.3491V18.3514ZM21.7126 40.5L31.9983 24.5L42.284 40.5H21.7126Z" fill="#242533"/>
</svg>
