<svg width="154" height="29" viewBox="0 0 154 29" fill="none" xmlns="http://www.w3.org/2000/svg">
<path d="M38.6294 10.8522L28.2454 0.470172C28.0779 0.312743 27.8567 0.225098 27.6269 0.225098C27.3971 0.225098 27.1759 0.312743 27.0084 0.470172L24.9684 2.51017L33.3114 10.8532C33.3931 10.9341 33.4579 11.0305 33.5021 11.1366C33.5464 11.2428 33.5691 11.3567 33.5691 11.4717C33.5691 11.5867 33.5464 11.7005 33.5021 11.8067C33.4579 11.9129 33.3931 12.0092 33.3114 12.0902L24.7334 20.6682L26.7734 22.7082C26.9409 22.8656 27.1621 22.9532 27.3919 22.9532C27.6217 22.9532 27.8429 22.8656 28.0104 22.7082L38.6304 12.0902C38.7878 11.9227 38.8755 11.7015 38.8755 11.4717C38.8755 11.2418 38.7878 11.0206 38.6304 10.8532L38.6294 10.8522Z" fill="#5B5DA6"/>
<path d="M20.9402 1.22222L20.1852 0.468218C20.0178 0.31079 19.7966 0.223145 19.5667 0.223145C19.3369 0.223145 19.1157 0.31079 18.9482 0.468218L16.9082 2.50922L18.2622 3.86422L20.9212 6.52322L23.5762 3.86322L20.9392 1.22322L20.9402 1.22222ZM20.6862 16.6492L18.0322 19.3092L16.6772 20.6632L18.7172 22.7032C18.8848 22.8609 19.1062 22.9488 19.3362 22.9488C19.5663 22.9488 19.7877 22.8609 19.9552 22.7032L20.7052 21.9492L23.3632 19.2902L20.6862 16.6492Z" fill="#5B5DA6"/>
<path d="M25.252 10.8521C25.4094 11.0195 25.4971 11.2407 25.4971 11.4706C25.4971 11.7004 25.4094 11.9216 25.252 12.0891L20.687 16.6491L23.347 19.3091L30.57 12.0851C30.6517 12.0041 30.7165 11.9078 30.7607 11.8016C30.805 11.6954 30.8277 11.5816 30.8277 11.4666C30.8277 11.3516 30.805 11.2377 30.7607 11.1316C30.7165 11.0254 30.6517 10.9291 30.57 10.8481L23.6 3.88208L20.94 6.54108L25.252 10.8521Z" fill="#5B5DA6"/>
<path d="M8.31618 11.1002L15.5392 3.87719L12.8802 1.2172L12.1222 0.469195C11.9547 0.311767 11.7335 0.224121 11.5037 0.224121C11.2738 0.224121 11.0526 0.311767 10.8852 0.469195L0.257176 11.1002C0.17539 11.1811 0.110463 11.2774 0.0661512 11.3836C0.0218395 11.4898 -0.000976562 11.6037 -0.000976562 11.7187C-0.000976563 11.8337 0.0218395 11.9476 0.0661512 12.0538C0.110463 12.16 0.17539 12.2563 0.257176 12.3372L10.6412 22.7202C10.8086 22.8776 11.0298 22.9653 11.2597 22.9653C11.4895 22.9653 11.7107 22.8776 11.8782 22.7202L12.6412 21.9662L15.3012 19.3072L8.31618 12.3372C8.23463 12.2562 8.16992 12.1598 8.12576 12.0536C8.0816 11.9475 8.05886 11.8337 8.05886 11.7187C8.05886 11.6037 8.0816 11.4899 8.12576 11.3838C8.16992 11.2776 8.23463 11.1812 8.31618 11.1002Z" fill="#1F2A76" fill-opacity="0.4"/>
<path d="M16.3751 11.1001L19.5671 7.91315L16.9071 5.25415L15.5531 3.90015L8.33007 11.1231C8.24852 11.2042 8.18381 11.3006 8.13965 11.4067C8.09549 11.5128 8.07275 11.6267 8.07275 11.7416C8.07275 11.8566 8.09549 11.9704 8.13965 12.0766C8.18381 12.1827 8.24852 12.2791 8.33007 12.3601L15.2871 19.3081L16.6411 17.9541L19.3011 15.2941L16.3571 12.3561C16.1996 12.1887 16.112 11.9675 16.112 11.7376C16.112 11.5078 16.1996 11.2866 16.3571 11.1191" fill="#5B5DA6"/>
<path d="M16.3749 12.3381L19.3179 15.2761L22.5059 12.0891C22.5875 12.008 22.6522 11.9117 22.6964 11.8055C22.7405 11.6994 22.7633 11.5856 22.7633 11.4706C22.7633 11.3556 22.7405 11.2418 22.6964 11.1356C22.6522 11.0295 22.5875 10.9331 22.5059 10.8521L19.5659 7.91309L16.3749 11.1001C16.2172 11.2676 16.1294 11.489 16.1294 11.7191C16.1294 11.9492 16.2172 12.1706 16.3749 12.3381Z" fill="#5B5DA6"/>
<path d="M46.955 8.6491C46.985 7.4741 47.219 6.3131 47.646 5.2181C48.0462 4.20884 48.6626 3.29952 49.452 2.5541C50.2963 1.78412 51.2908 1.19715 52.373 0.830099C53.683 0.400099 55.058 0.193099 56.437 0.220099C57.972 0.170099 59.504 0.410099 60.952 0.924099C61.9901 1.30734 62.9472 1.88156 63.774 2.6171C64.4065 3.18071 64.9085 3.87553 65.245 4.6531C65.489 5.2201 65.65 5.8191 65.724 6.4331C65.7369 6.54604 65.7222 6.66043 65.6813 6.76648C65.6404 6.87254 65.5744 6.9671 65.489 7.0421C65.3211 7.19472 65.1019 7.2786 64.875 7.2771H62.338C62.1398 7.28622 61.9448 7.22533 61.787 7.1051C61.6647 7.00677 61.5645 6.88376 61.493 6.7441C61.3867 6.55822 61.2767 6.37451 61.163 6.1931C60.9306 5.85631 60.644 5.56031 60.315 5.3171C59.852 4.97302 59.3408 4.69908 58.798 4.5041C58.0425 4.24164 57.2454 4.11963 56.446 4.1441C55.077 4.07583 53.7331 4.52893 52.685 5.4121C52.2127 5.8439 51.8351 6.36904 51.5762 6.95429C51.3173 7.53953 51.1827 8.17215 51.181 8.8121C51.136 9.66301 51.115 10.515 51.118 11.3671C51.118 12.2741 51.118 13.1271 51.181 13.9221C51.24 15.6561 51.746 16.9151 52.685 17.6961C53.7559 18.5219 55.0864 18.9382 56.437 18.8701C57.1548 18.8756 57.8704 18.7906 58.567 18.6171C59.177 18.4681 59.748 18.1911 60.243 17.8051C60.728 17.4081 61.105 16.8951 61.34 16.3151C61.62 15.5951 61.753 14.8281 61.733 14.0571V13.7911H57.909C57.7975 13.7929 57.6868 13.7712 57.5842 13.7277C57.4815 13.6841 57.3892 13.6195 57.313 13.5381C57.2333 13.4618 57.1701 13.37 57.1272 13.2684C57.0844 13.1667 57.0629 13.0574 57.064 12.9471V10.7201C57.0663 10.4963 57.1559 10.2823 57.3138 10.1237C57.4717 9.96513 57.6852 9.87448 57.909 9.8711H65.132C65.3559 9.87448 65.5696 9.96528 65.7275 10.1241C65.8854 10.2829 65.9749 10.4972 65.977 10.7211V14.1651C65.99 15.346 65.7881 16.5195 65.381 17.6281C64.9898 18.6548 64.3725 19.5804 63.575 20.3361C62.721 21.1427 61.7052 21.7583 60.595 22.1421C57.892 22.9881 54.995 22.9881 52.292 22.1421C51.2136 21.7855 50.2248 21.2005 49.393 20.4271C48.6129 19.6633 48.0088 18.7384 47.623 17.7171C47.2036 16.6096 46.9747 15.439 46.946 14.2551C46.946 13.8581 46.91 13.4201 46.901 12.9411C46.892 12.4631 46.901 11.9661 46.901 11.4651V9.9931C46.901 9.5101 46.928 9.0901 46.946 8.6751L46.955 8.6491ZM75.63 9.6241C75.0994 9.60922 74.5711 9.69998 74.076 9.8911C73.676 10.0491 73.31 10.2811 72.997 10.5771C72.7137 10.8458 72.484 11.1658 72.32 11.5201C72.1752 11.8325 72.0765 12.1643 72.027 12.5051H79.106C79.0606 12.1698 78.9819 11.8398 78.871 11.5201C78.7537 11.1683 78.5608 10.8465 78.306 10.5771C78.016 10.2761 77.663 10.0421 77.273 9.8911C76.7478 9.69505 76.1892 9.60432 75.629 9.6241H75.63ZM67.954 14.3241C67.946 13.2001 68.126 12.0841 68.487 11.0191C68.8152 10.0238 69.3368 9.10316 70.022 8.3101C70.6962 7.54487 71.5238 6.9299 72.451 6.5051C73.4446 6.06096 74.5227 5.8375 75.611 5.8501C76.6979 5.83622 77.7753 6.05477 78.771 6.4911C79.7041 6.89754 80.5433 7.49229 81.236 8.2381C81.915 8.97374 82.4427 9.83577 82.789 10.7751C83.157 11.7521 83.344 12.7881 83.34 13.8321V15.2411C83.3364 15.465 83.2457 15.6788 83.0873 15.8371C82.9288 15.9954 82.7149 16.0858 82.491 16.0891H72.026C72.016 16.5301 72.116 16.9671 72.32 17.3581C72.52 17.7131 72.794 18.0211 73.124 18.2611C73.471 18.5181 73.863 18.7091 74.279 18.8251C74.7202 18.9479 75.176 19.0102 75.634 19.0101C76.184 19.0261 76.734 18.9571 77.264 18.8071C77.634 18.6951 77.984 18.5211 78.297 18.2921C78.473 18.1571 78.662 18.0411 78.862 17.9451C79.052 17.8741 79.255 17.8411 79.458 17.8501H81.963C82.193 17.8531 82.413 17.9441 82.577 18.1031C82.6603 18.1769 82.725 18.2694 82.7659 18.373C82.8067 18.4765 82.8225 18.5883 82.812 18.6991C82.7417 19.1085 82.5748 19.4952 82.325 19.8271C81.958 20.3571 81.499 20.8151 80.97 21.1821C80.2759 21.665 79.5157 22.0453 78.713 22.3111C77.7167 22.6356 76.6724 22.7878 75.625 22.7611C74.5414 22.7736 73.4665 22.5668 72.465 22.1531C71.5312 21.7667 70.695 21.1775 70.017 20.4281C69.3329 19.6446 68.8115 18.7329 68.483 17.7461C68.1154 16.6401 67.9352 15.4805 67.95 14.3151L67.954 14.3241ZM90.845 16.5811C90.815 17.1451 91 17.6981 91.364 18.1301C91.707 18.5181 92.348 18.7121 93.292 18.7121H95.202C95.4254 18.7147 95.639 18.8043 95.7974 18.9619C95.9557 19.1195 96.0463 19.3327 96.05 19.5561V21.6241C96.0466 21.8482 95.9561 22.0622 95.7976 22.2207C95.6391 22.3792 95.4251 22.4697 95.201 22.4731H92.881C90.915 22.4731 89.411 21.9971 88.366 21.0461C87.322 20.0961 86.795 18.6381 86.786 16.6761V9.9361H84.7C84.5893 9.93746 84.4795 9.91566 84.3777 9.87209C84.2759 9.82852 84.1844 9.76414 84.109 9.6831C84.0271 9.60811 83.9622 9.51651 83.9185 9.41442C83.8749 9.31233 83.8536 9.2021 83.856 9.0911V7.0201C83.8547 6.90941 83.8766 6.79968 83.9202 6.69792C83.9637 6.59616 84.028 6.5046 84.109 6.4291C84.1851 6.34892 84.2767 6.28512 84.3784 6.24162C84.48 6.19812 84.5894 6.17582 84.7 6.1761H86.772V1.0661C86.7753 0.843036 86.8654 0.630051 87.0232 0.472304C87.1809 0.314557 87.3939 0.224454 87.617 0.221099H90C90.2229 0.224447 90.4357 0.314412 90.5934 0.471945C90.7511 0.629478 90.8414 0.842211 90.845 1.0651V6.1751H94.908C95.1245 6.18772 95.3283 6.2819 95.4782 6.43868C95.6281 6.59546 95.7131 6.8032 95.716 7.0201V9.0921C95.7126 9.31499 95.6227 9.52783 95.4651 9.68555C95.3076 9.84327 95.0949 9.93349 94.872 9.9371H90.808L90.845 16.5821V16.5811ZM111.438 14.2921L107.988 5.3581L104.543 14.2921H111.438ZM109.713 0.532099C109.85 0.522186 109.988 0.540693 110.118 0.586463C110.247 0.632233 110.366 0.70428 110.467 0.798099C110.669 1.0321 110.822 1.3041 110.918 1.5981L118.594 21.4081C118.615 21.4781 118.625 21.5511 118.625 21.6241C118.622 21.8481 118.532 22.0621 118.373 22.2207C118.215 22.3792 118.001 22.4697 117.777 22.4731H115.519C115.362 22.4896 115.203 22.4745 115.052 22.4288C114.901 22.3832 114.761 22.3078 114.639 22.2071C114.491 22.0582 114.375 21.8815 114.296 21.6871L112.941 18.2111H103.04L101.685 21.6871C101.606 21.8815 101.49 22.0582 101.342 22.2071C101.221 22.308 101.08 22.3836 100.929 22.4292C100.778 22.4749 100.619 22.4898 100.462 22.4731H98.204C97.9808 22.4682 97.7682 22.377 97.6108 22.2187C97.4535 22.0604 97.3635 21.8473 97.36 21.6241C97.3583 21.5508 97.3691 21.4778 97.392 21.4081L105.067 1.5981C105.163 1.3041 105.317 1.0321 105.519 0.798099C105.619 0.703772 105.738 0.631397 105.868 0.585595C105.998 0.539794 106.136 0.521574 106.273 0.532099H109.713ZM132.03 15.2001C132.093 14.6178 132.093 14.0304 132.03 13.4481C131.908 12.0941 131.488 11.1101 130.779 10.5181C130.05 9.9129 129.126 9.59213 128.179 9.6151C127.235 9.58516 126.313 9.90695 125.592 10.5181C125.229 10.8504 124.936 11.2512 124.729 11.6975C124.522 12.1437 124.405 12.6266 124.386 13.1181C124.338 13.5135 124.317 13.9118 124.323 14.3101C124.317 14.7091 124.338 15.1071 124.386 15.5021C124.441 16.4821 124.873 17.4031 125.592 18.0721C126.303 18.7021 127.228 19.0381 128.179 19.0101C129.126 19.0331 130.05 18.7123 130.779 18.1071C131.488 17.5161 131.908 16.5371 132.03 15.1771V15.2001ZM129.127 22.7851C128.542 22.7911 127.959 22.7287 127.389 22.5991C126.923 22.4952 126.469 22.3441 126.034 22.1481C125.688 21.9738 125.362 21.7619 125.063 21.5161C124.829 21.3307 124.61 21.1267 124.409 20.9061V27.5791C124.405 27.8031 124.315 28.017 124.156 28.1754C123.998 28.3339 123.784 28.4245 123.56 28.4281H121.181C120.957 28.4252 120.742 28.3349 120.584 28.1763C120.425 28.0177 120.335 27.8034 120.332 27.5791V7.0201C120.337 6.79709 120.429 6.58478 120.587 6.4275C120.745 6.27023 120.958 6.18016 121.181 6.1761H123.56C123.783 6.17967 123.996 6.26958 124.155 6.42696C124.313 6.58433 124.404 6.79693 124.409 7.0201V7.7431C124.871 7.23156 125.429 6.81599 126.052 6.5201C126.487 6.32375 126.941 6.1723 127.407 6.0681C127.977 5.93877 128.56 5.87668 129.145 5.8831C130.124 5.86882 131.093 6.07706 131.98 6.4921C132.804 6.8821 133.54 7.4371 134.142 8.1221C134.748 8.81706 135.226 9.61321 135.556 10.4741C135.899 11.3601 136.095 12.2961 136.133 13.2461C136.156 13.5571 136.165 13.9231 136.165 14.3431C136.165 14.7631 136.165 15.1291 136.133 15.4401C136.094 16.3896 135.899 17.3261 135.556 18.2121C135.226 19.073 134.748 19.8691 134.142 20.5641C133.54 21.249 132.804 21.8036 131.98 22.1941C131.086 22.6056 130.111 22.8077 129.127 22.7851ZM149.746 15.2001C149.809 14.6178 149.809 14.0304 149.746 13.4481C149.62 12.0941 149.205 11.1101 148.491 10.5181C147.763 9.91145 146.839 9.59048 145.891 9.6151C144.947 9.58525 144.025 9.90704 143.304 10.5181C142.941 10.8504 142.648 11.2512 142.441 11.6975C142.234 12.1437 142.117 12.6266 142.098 13.1181C142.052 13.5138 142.031 13.9118 142.035 14.3101C142.031 14.7091 142.052 15.1071 142.098 15.5021C142.153 16.4821 142.585 17.4031 143.304 18.0721C144.015 18.7029 144.941 19.0384 145.891 19.0101C146.839 19.0346 147.763 18.7137 148.491 18.1071C149.205 17.5161 149.62 16.5371 149.746 15.1771V15.2001ZM146.83 22.7621C146.245 22.7683 145.662 22.7062 145.092 22.5771C144.626 22.4722 144.172 22.3208 143.737 22.1251C143.387 21.9579 143.057 21.752 142.753 21.5111C142.518 21.3255 142.297 21.1215 142.094 20.9011V27.5791C142.094 27.6904 142.072 27.8007 142.029 27.9031C141.985 28.0056 141.921 28.0981 141.841 28.1751C141.765 28.2552 141.673 28.319 141.572 28.3625C141.47 28.406 141.361 28.4283 141.25 28.4281H138.866C138.642 28.4245 138.429 28.3337 138.271 28.1751C138.114 28.0165 138.024 27.8027 138.022 27.5791V7.0201C138.025 6.79706 138.114 6.58389 138.272 6.42617C138.43 6.26845 138.643 6.1787 138.866 6.1761H141.25C141.472 6.18143 141.684 6.27206 141.841 6.4292C141.998 6.58634 142.089 6.79793 142.094 7.0201V7.7431C142.297 7.5231 142.518 7.3181 142.753 7.1331C143.057 6.8931 143.387 6.6861 143.737 6.5191C144.172 6.32374 144.626 6.17265 145.092 6.0681C145.662 5.93902 146.245 5.87694 146.83 5.8831C147.81 5.86886 148.781 6.07708 149.67 6.4921C150.493 6.88445 151.228 7.43885 151.832 8.1221C152.436 8.81732 152.913 9.61348 153.241 10.4741C153.585 11.3601 153.78 12.2961 153.819 13.2461C153.841 13.5571 153.85 13.9231 153.85 14.3431C153.85 14.7631 153.85 15.1291 153.819 15.4401C153.78 16.3896 153.585 17.3262 153.241 18.2121C152.913 19.0727 152.436 19.8688 151.832 20.5641C151.228 21.2473 150.493 21.8018 149.67 22.1941C148.782 22.6095 147.811 22.818 146.83 22.8041" fill="#5B5DA6"/>
</svg>
