<svg width="154" height="63" viewBox="0 0 154 63" fill="none" xmlns="http://www.w3.org/2000/svg">
<g clip-path="url(#clip0_982_75693)">
<path d="M38.629 30.222L28.245 19.84C28.0776 19.6826 27.8564 19.595 27.6265 19.595C27.3967 19.595 27.1755 19.6826 27.008 19.84L24.968 21.88L33.311 30.223C33.3927 30.304 33.4575 30.4004 33.5018 30.5065C33.546 30.6127 33.5688 30.7265 33.5688 30.8415C33.5688 30.9565 33.546 31.0704 33.5018 31.1766C33.4575 31.2827 33.3927 31.3791 33.311 31.46L24.733 40.038L26.773 42.078C26.9405 42.2355 27.1617 42.3231 27.3915 42.3231C27.6214 42.3231 27.8426 42.2355 28.01 42.078L38.63 31.46C38.7875 31.2926 38.8751 31.0714 38.8751 30.8415C38.8751 30.6117 38.7875 30.3905 38.63 30.223L38.629 30.222Z" fill="#009C9C"/>
<path d="M20.94 20.5921L20.185 19.8381C20.0175 19.6807 19.7963 19.593 19.5665 19.593C19.3367 19.593 19.1155 19.6807 18.948 19.8381L16.908 21.8791L18.262 23.2341L20.921 25.8931L23.576 23.2331L20.939 20.5931L20.94 20.5921ZM20.686 36.0191L18.032 38.6791L16.677 40.0331L18.717 42.0731C18.8845 42.2308 19.1059 42.3186 19.336 42.3186C19.5661 42.3186 19.7875 42.2308 19.955 42.0731L20.705 41.3191L23.363 38.6601L20.686 36.0191Z" fill="#40E3E3"/>
<path d="M25.252 30.2221C25.4094 30.3895 25.4971 30.6107 25.4971 30.8406C25.4971 31.0704 25.4094 31.2916 25.252 31.4591L20.687 36.0191L23.347 38.6791L30.57 31.4551C30.6517 31.3741 30.7165 31.2778 30.7607 31.1716C30.805 31.0654 30.8277 30.9516 30.8277 30.8366C30.8277 30.7216 30.805 30.6077 30.7607 30.5015C30.7165 30.3954 30.6517 30.299 30.57 30.2181L23.6 23.2521L20.94 25.9111L25.252 30.2221Z" fill="#1ABAB8"/>
<path d="M8.31605 30.4701L15.5391 23.2471L12.8801 20.5871L12.1221 19.8391C11.9546 19.6816 11.7334 19.594 11.5036 19.594C11.2737 19.594 11.0525 19.6816 10.8851 19.8391L0.257054 30.4701C0.175268 30.551 0.110341 30.6473 0.0660292 30.7535C0.0217175 30.8596 -0.00109863 30.9735 -0.00109863 31.0886C-0.00109863 31.2036 0.0217175 31.3175 0.0660292 31.4237C0.110341 31.5298 0.175268 31.6262 0.257054 31.7071L10.6411 42.0901C10.8085 42.2475 11.0297 42.3351 11.2596 42.3351C11.4894 42.3351 11.7106 42.2475 11.8781 42.0901L12.6411 41.3361L15.3011 38.6771L8.31605 31.7071C8.23451 31.626 8.1698 31.5297 8.12564 31.4235C8.08148 31.3174 8.05874 31.2035 8.05874 31.0886C8.05874 30.9736 8.08148 30.8598 8.12564 30.7536C8.1698 30.6475 8.23451 30.5511 8.31605 30.4701Z" fill="#87F0F0"/>
<path d="M16.3751 30.4701L19.5671 27.2831L16.9071 24.6241L15.5531 23.2701L8.33007 30.4931C8.24852 30.5742 8.18381 30.6705 8.13965 30.7767C8.09549 30.8828 8.07275 30.9967 8.07275 31.1116C8.07275 31.2266 8.09549 31.3404 8.13965 31.4466C8.18381 31.5527 8.24852 31.6491 8.33007 31.7301L15.2871 38.6781L16.6411 37.3241L19.3011 34.6641L16.3571 31.7261C16.1996 31.5587 16.112 31.3375 16.112 31.1076C16.112 30.8778 16.1996 30.6566 16.3571 30.4891" fill="#40E3E3"/>
<path d="M16.3751 31.7081L19.3181 34.6461L22.5061 31.4591C22.5876 31.378 22.6523 31.2817 22.6965 31.1755C22.7406 31.0694 22.7634 30.9555 22.7634 30.8406C22.7634 30.7256 22.7406 30.6118 22.6965 30.5056C22.6523 30.3995 22.5876 30.3031 22.5061 30.2221L19.5661 27.2831L16.3751 30.4701C16.2173 30.6376 16.1295 30.859 16.1295 31.0891C16.1295 31.3192 16.2173 31.5406 16.3751 31.7081Z" fill="#17CFCF"/>
<path d="M46.9551 28.0191C46.9851 26.8441 47.2191 25.6831 47.6461 24.5881C48.0463 23.5788 48.6627 22.6695 49.4521 21.9241C50.2964 21.1541 51.2909 20.5671 52.3731 20.2001C53.6831 19.7701 55.0581 19.5631 56.4371 19.5901C57.9721 19.5401 59.5041 19.7801 60.9521 20.2941C61.9902 20.6773 62.9473 21.2516 63.7741 21.9871C64.4067 22.5507 64.9087 23.2455 65.2451 24.0231C65.4891 24.5901 65.6501 25.1891 65.7241 25.8031C65.737 25.916 65.7224 26.0304 65.6814 26.1365C65.6405 26.2425 65.5745 26.3371 65.4891 26.4121C65.3212 26.5647 65.102 26.6486 64.8751 26.6471H62.3381C62.1399 26.6562 61.9449 26.5953 61.7871 26.4751C61.6648 26.3768 61.5646 26.2538 61.4931 26.1141C61.3868 25.9282 61.2768 25.7445 61.1631 25.5631C60.9307 25.2263 60.6442 24.9303 60.3151 24.6871C59.8521 24.343 59.341 24.0691 58.7981 23.8741C58.0426 23.6116 57.2455 23.4896 56.4461 23.5141C55.0772 23.4458 53.7332 23.8989 52.6851 24.7821C52.2128 25.2139 51.8352 25.739 51.5763 26.3243C51.3174 26.9095 51.1829 27.5421 51.1811 28.1821C51.1361 29.033 51.1151 29.885 51.1181 30.7371C51.1181 31.6441 51.1181 32.4971 51.1811 33.2921C51.2401 35.0261 51.7461 36.2851 52.6851 37.0661C53.756 37.8919 55.0865 38.3082 56.4371 38.2401C57.1549 38.2456 57.8705 38.1606 58.5671 37.9871C59.1771 37.8381 59.7481 37.5611 60.2431 37.1751C60.7281 36.7781 61.1051 36.2651 61.3401 35.6851C61.6201 34.9651 61.7531 34.1981 61.7331 33.4271V33.1611H57.9091C57.7976 33.1628 57.687 33.1412 57.5843 33.0977C57.4817 33.0541 57.3893 32.9895 57.3131 32.9081C57.2334 32.8318 57.1702 32.74 57.1274 32.6384C57.0845 32.5367 57.063 32.4274 57.0641 32.3171V30.0901C57.0664 29.8663 57.1561 29.6523 57.3139 29.4937C57.4718 29.3351 57.6853 29.2445 57.9091 29.2411H65.1321C65.356 29.2445 65.5697 29.3353 65.7276 29.4941C65.8855 29.6529 65.975 29.8672 65.9771 30.0911V33.5351C65.9901 34.716 65.7882 35.8895 65.3811 36.9981C64.9899 38.0248 64.3727 38.9504 63.5751 39.7061C62.7211 40.5127 61.7053 41.1283 60.5951 41.5121C57.8921 42.3581 54.9951 42.3581 52.2921 41.5121C51.2137 41.1554 50.2249 40.5705 49.3931 39.7971C48.613 39.0333 48.0089 38.1084 47.6231 37.0871C47.2037 35.9796 46.9748 34.809 46.9461 33.6251C46.9461 33.2281 46.9101 32.7901 46.9011 32.3111C46.8921 31.8331 46.9011 31.3361 46.9011 30.8351V29.3631C46.9011 28.8801 46.9281 28.4601 46.9461 28.0451L46.9551 28.0191ZM75.6301 28.9941C75.0995 28.9792 74.5713 29.07 74.0761 29.2611C73.6761 29.4191 73.3101 29.6511 72.9971 29.9471C72.7138 30.2158 72.4841 30.5358 72.3201 30.8901C72.1753 31.2025 72.0766 31.5343 72.0271 31.8751H79.1061C79.0608 31.5398 78.982 31.2098 78.8711 30.8901C78.7538 30.5383 78.561 30.2165 78.3061 29.9471C78.0161 29.6461 77.6631 29.4121 77.2731 29.2611C76.7479 29.065 76.1893 28.9743 75.6291 28.9941H75.6301ZM67.9541 33.6941C67.9461 32.5701 68.1261 31.4541 68.4871 30.3891C68.8153 29.3938 69.337 28.4732 70.0221 27.6801C70.6963 26.9149 71.5239 26.2999 72.4511 25.8751C73.4447 25.431 74.5228 25.2075 75.6111 25.2201C76.6981 25.2062 77.7755 25.4248 78.7711 25.8611C79.7043 26.2675 80.5434 26.8623 81.2361 27.6081C81.9151 28.3437 82.4428 29.2058 82.7891 30.1451C83.1571 31.1221 83.3441 32.1581 83.3401 33.2021V34.6111C83.3365 34.835 83.2458 35.0488 83.0874 35.2071C82.9289 35.3654 82.715 35.4557 82.4911 35.4591H72.0261C72.0161 35.9001 72.1161 36.3371 72.3201 36.7281C72.5201 37.0831 72.7941 37.3911 73.1241 37.6311C73.4711 37.8881 73.8631 38.0791 74.2791 38.1951C74.7203 38.3179 75.1761 38.3802 75.6341 38.3801C76.1841 38.3961 76.7341 38.3271 77.2641 38.1771C77.6341 38.0651 77.9841 37.8911 78.2971 37.6621C78.4731 37.5271 78.6621 37.4111 78.8621 37.3151C79.0521 37.2441 79.2551 37.2111 79.4581 37.2201H81.9631C82.1931 37.2231 82.4131 37.3141 82.5771 37.4731C82.6604 37.5469 82.7251 37.6394 82.766 37.7429C82.8068 37.8465 82.8226 37.9583 82.8121 38.0691C82.7418 38.4785 82.5749 38.8652 82.3251 39.1971C81.9581 39.7271 81.4991 40.1851 80.9701 40.5521C80.276 41.035 79.5158 41.4153 78.7131 41.6811C77.7168 42.0056 76.6725 42.1578 75.6251 42.1311C74.5415 42.1436 73.4666 41.9368 72.4651 41.5231C71.5313 41.1367 70.6951 40.5475 70.0171 39.7981C69.333 39.0146 68.8116 38.1029 68.4831 37.1161C68.1155 36.0101 67.9353 34.8505 67.9501 33.6851L67.9541 33.6941ZM90.8451 35.9511C90.8151 36.5151 91.0001 37.0681 91.3641 37.5001C91.7071 37.8881 92.3481 38.0821 93.2921 38.0821H95.2021C95.4255 38.0847 95.6391 38.1743 95.7975 38.3319C95.9558 38.4895 96.0465 38.7027 96.0501 38.9261V40.9941C96.0467 41.2182 95.9562 41.4322 95.7977 41.5907C95.6392 41.7492 95.4252 41.8397 95.2011 41.8431H92.8811C90.9151 41.8431 89.4111 41.3671 88.3661 40.4161C87.3221 39.4661 86.7951 38.0081 86.7861 36.0461V29.3061H84.7001C84.5894 29.3075 84.4796 29.2857 84.3778 29.2421C84.2761 29.1985 84.1845 29.1341 84.1091 29.0531C84.0272 28.9781 83.9623 28.8865 83.9187 28.7844C83.875 28.6823 83.8537 28.5721 83.8561 28.4611V26.3901C83.8549 26.2794 83.8767 26.1697 83.9203 26.0679C83.9638 25.9662 84.0281 25.8746 84.1091 25.7991C84.1852 25.7189 84.2769 25.6551 84.3785 25.6116C84.4801 25.5681 84.5896 25.5458 84.7001 25.5461H86.7721V20.4361C86.7755 20.213 86.8656 20 87.0233 19.8423C87.181 19.6846 87.394 19.5944 87.6171 19.5911H90.0001C90.223 19.5944 90.4358 19.6844 90.5935 19.8419C90.7513 19.9995 90.8415 20.2122 90.8451 20.4351V25.5451H94.9081C95.1246 25.5577 95.3284 25.6519 95.4783 25.8087C95.6282 25.9655 95.7132 26.1732 95.7161 26.3901V28.4621C95.7127 28.685 95.6228 28.8978 95.4653 29.0555C95.3077 29.2133 95.095 29.3035 94.8721 29.3071H90.8081L90.8451 35.9521V35.9511ZM111.438 33.6621L107.988 24.7281L104.543 33.6621H111.438ZM109.713 19.9021C109.85 19.8922 109.988 19.9107 110.118 19.9565C110.248 20.0022 110.366 20.0743 110.467 20.1681C110.669 20.4021 110.822 20.6741 110.918 20.9681L118.594 40.7781C118.615 40.8481 118.625 40.9211 118.625 40.9941C118.622 41.2181 118.532 41.4321 118.373 41.5907C118.215 41.7492 118.001 41.8397 117.777 41.8431H115.519C115.362 41.8596 115.203 41.8445 115.052 41.7988C114.901 41.7532 114.761 41.6778 114.639 41.5771C114.491 41.4282 114.375 41.2515 114.296 41.0571L112.941 37.5811H103.04L101.685 41.0571C101.606 41.2515 101.49 41.4282 101.342 41.5771C101.221 41.678 101.08 41.7535 100.929 41.7992C100.778 41.8449 100.619 41.8598 100.462 41.8431H98.2041C97.9809 41.8382 97.7683 41.747 97.611 41.5887C97.4536 41.4304 97.3637 41.2173 97.3601 40.9941C97.3584 40.9208 97.3692 40.8478 97.3921 40.7781L105.067 20.9681C105.163 20.6741 105.317 20.4021 105.519 20.1681C105.619 20.0738 105.738 20.0014 105.868 19.9556C105.998 19.9098 106.136 19.8916 106.273 19.9021H109.713ZM132.03 34.5701C132.093 33.9878 132.093 33.4004 132.03 32.8181C131.908 31.4641 131.488 30.4801 130.779 29.8881C130.05 29.2829 129.126 28.9621 128.179 28.9851C127.235 28.9552 126.313 29.2769 125.592 29.8881C125.229 30.2204 124.936 30.6212 124.729 31.0675C124.522 31.5137 124.405 31.9966 124.386 32.4881C124.338 32.8835 124.317 33.2818 124.323 33.6801C124.317 34.0791 124.338 34.4771 124.386 34.8721C124.441 35.8521 124.873 36.7731 125.592 37.4421C126.303 38.0721 127.228 38.4081 128.179 38.3801C129.126 38.4031 130.05 38.0823 130.779 37.4771C131.488 36.8861 131.908 35.9071 132.03 34.5471V34.5701ZM129.127 42.1551C128.542 42.1611 127.959 42.0987 127.389 41.9691C126.923 41.8652 126.469 41.7141 126.034 41.5181C125.688 41.3438 125.362 41.1319 125.063 40.8861C124.829 40.7007 124.61 40.4967 124.409 40.2761V46.9491C124.405 47.1731 124.315 47.387 124.156 47.5454C123.998 47.7039 123.784 47.7945 123.56 47.7981H121.181C120.957 47.7952 120.743 47.7049 120.584 47.5463C120.425 47.3877 120.335 47.1734 120.332 46.9491V26.3901C120.337 26.1671 120.429 25.9548 120.587 25.7975C120.745 25.6402 120.958 25.5502 121.181 25.5461H123.56C123.783 25.5497 123.996 25.6396 124.155 25.797C124.313 25.9543 124.404 26.1669 124.409 26.3901V27.1131C124.871 26.6016 125.429 26.186 126.052 25.8901C126.487 25.6937 126.941 25.5423 127.407 25.4381C127.977 25.3088 128.561 25.2467 129.145 25.2531C130.124 25.2388 131.093 25.4471 131.98 25.8621C132.804 26.2521 133.54 26.8071 134.142 27.4921C134.748 28.1871 135.226 28.9832 135.556 29.8441C135.899 30.7301 136.095 31.6661 136.133 32.6161C136.156 32.9271 136.165 33.2931 136.165 33.7131C136.165 34.1331 136.165 34.4991 136.133 34.8101C136.095 35.7595 135.9 36.6961 135.556 37.5821C135.226 38.443 134.748 39.2391 134.142 39.9341C133.54 40.619 132.804 41.1736 131.98 41.5641C131.086 41.9756 130.111 42.1777 129.127 42.1551ZM149.746 34.5701C149.809 33.9878 149.809 33.4004 149.746 32.8181C149.62 31.4641 149.205 30.4801 148.491 29.8881C147.763 29.2814 146.839 28.9605 145.891 28.9851C144.947 28.9552 144.025 29.277 143.304 29.8881C142.941 30.2204 142.648 30.6212 142.441 31.0675C142.234 31.5137 142.117 31.9966 142.098 32.4881C142.053 32.8838 142.032 33.2818 142.035 33.6801C142.031 34.0791 142.052 34.4771 142.098 34.8721C142.153 35.8521 142.585 36.7731 143.304 37.4421C144.015 38.0729 144.941 38.4084 145.891 38.3801C146.839 38.4046 147.763 38.0837 148.491 37.4771C149.205 36.8861 149.62 35.9071 149.746 34.5471V34.5701ZM146.83 42.1321C146.246 42.1383 145.662 42.0762 145.092 41.9471C144.626 41.8422 144.172 41.6908 143.737 41.4951C143.387 41.3279 143.057 41.122 142.753 40.8811C142.518 40.6955 142.297 40.4915 142.094 40.2711V46.9491C142.095 47.0604 142.072 47.1707 142.029 47.2731C141.985 47.3756 141.922 47.4681 141.841 47.5451C141.765 47.6252 141.673 47.689 141.572 47.7325C141.47 47.776 141.361 47.7983 141.25 47.7981H138.866C138.643 47.7945 138.429 47.7037 138.272 47.5451C138.114 47.3865 138.024 47.1727 138.022 46.9491V26.3901C138.025 26.1671 138.114 25.9539 138.272 25.7962C138.43 25.6384 138.643 25.5487 138.866 25.5461H141.25C141.472 25.5514 141.684 25.6421 141.841 25.7992C141.998 25.9563 142.089 26.1679 142.094 26.3901V27.1131C142.297 26.8931 142.518 26.6881 142.753 26.5031C143.057 26.2631 143.387 26.0561 143.737 25.8891C144.173 25.6937 144.626 25.5426 145.092 25.4381C145.662 25.309 146.246 25.2469 146.83 25.2531C147.811 25.2389 148.782 25.4471 149.67 25.8621C150.493 26.2544 151.228 26.8088 151.832 27.4921C152.436 28.1873 152.913 28.9835 153.241 29.8441C153.585 30.7301 153.78 31.6661 153.819 32.6161C153.841 32.9271 153.85 33.2931 153.85 33.7131C153.85 34.1331 153.85 34.4991 153.819 34.8101C153.78 35.7596 153.585 36.6962 153.241 37.5821C152.913 38.4427 152.436 39.2388 151.832 39.9341C151.228 40.6173 150.493 41.1717 149.67 41.5641C148.782 41.9795 147.811 42.188 146.83 42.1741" fill="#2A3037"/>
</g>
<defs>
<clipPath id="clip0_982_75693">
<rect width="154" height="32" fill="white" transform="translate(0 15.8701)"/>
</clipPath>
</defs>
</svg>
