<svg width="194" height="195" viewBox="0 0 194 195" fill="none" xmlns="http://www.w3.org/2000/svg">
<path d="M183.606 60.0733C185.06 58.6536 186.039 56.8236 186.411 54.8317C186.915 51.263 185.822 47.6386 186.663 44.0699C187.308 43.7353 187.42 44.2371 187.56 44.6275C188.43 47.1646 189.327 49.7296 190.14 52.2946C191.733 57.4785 192.499 62.8783 192.411 68.298C192.251 71.4515 191.82 74.5856 191.122 77.6658C190.673 83.7995 186.326 87.3683 182.26 91.1321C180.241 92.4146 178.306 93.9202 176.203 94.9796C167.626 98.7112 158.497 101.037 149.171 101.866C148.048 101.982 146.933 102.168 145.834 102.424C139.356 102.619 132.907 103.595 126.401 103.372C112.38 103.79 98.5553 102.535 84.6185 101.922C82.27 101.811 79.9527 101.341 77.7483 100.528C75.9536 100.305 74.1309 99.9702 72.3362 99.8587C61.2877 99.1338 50.2672 98.158 39.1907 98.3811C33.1367 98.3885 27.1011 99.0428 21.1878 100.333C18.9674 100.844 16.806 101.582 14.7382 102.535C11.5476 103.745 8.92136 106.087 7.36744 109.11C5.81353 112.133 5.44232 115.622 6.32561 118.901L6.74623 121.215C6.75586 121.326 6.75586 121.438 6.74623 121.55C6.74623 121.55 6.49386 121.55 6.46582 121.355C2.85257 113.979 0.818683 105.938 0.492893 97.7398C0.420463 95.4399 0.608595 93.1392 1.05373 90.8812C1.66828 88.0413 2.89376 85.3673 4.64602 83.0428C6.39828 80.7183 8.63578 78.7984 11.2049 77.4149C15.1042 75.2839 19.3295 73.8051 23.7116 73.0377C30.3355 71.8155 37.053 71.1625 43.7896 71.086C45.1356 71.086 46.5937 70.9466 47.8556 70.8909C51.4995 69.5599 55.4515 69.2986 59.2406 70.1381C66.0268 70.7794 72.869 70.3612 79.6271 71.2533C81.4404 71.2826 83.2307 71.6613 84.8989 72.3685C85.5529 72.5572 86.2178 72.7061 86.8899 72.8146L109.688 74.2923C110.37 74.3341 111.053 74.3341 111.735 74.2923C115.1 72.6195 118.689 73.4559 122.139 73.4838C132.733 73.8286 143.338 73.3345 153.854 72.0061C155.315 71.7075 156.828 71.7745 158.256 72.2013C161.411 71.8176 164.503 71.0305 167.454 69.8593C168.259 68.9206 169.353 68.2735 170.567 68.0192C174.734 66.6306 178.51 64.2802 181.587 61.1606C182.089 60.5463 182.815 60.1552 183.606 60.0733Z" fill="#074268"/>
<path d="M17.0951 140.396C16.6017 139.234 15.9197 138.16 15.0761 137.218C12.7269 133.73 10.9828 129.876 9.91637 125.815C9.5866 124.493 9.43572 123.133 9.4677 121.772C9.44704 120.179 9.81356 118.604 10.5361 117.182C11.2587 115.76 12.3159 114.532 13.6179 113.603C15.5456 112.182 17.7236 111.133 20.0395 110.508C24.3186 109.325 28.724 108.651 33.1631 108.501C36.472 108.501 39.781 108.334 43.0619 108.25C43.8021 107.695 44.716 107.418 45.6417 107.469C52.3998 107.804 59.242 107.469 65.8319 109.56C67.29 109.728 68.6361 109.979 70.2064 110.09L90.1442 111.819C91.1537 111.819 92.1912 111.819 93.2007 111.819C96.4172 111.017 99.7772 110.969 103.015 111.679C112.353 112.599 121.691 112.042 131.057 112.209C133.581 112.209 136.077 112.209 138.601 112.209C143.991 112.209 149.372 111.79 154.697 110.954C163.625 110.16 172.256 107.357 179.934 102.757C181.618 101.743 183.148 100.494 184.477 99.0494C187.507 96.0164 189.708 92.264 190.871 88.1481C191.291 86.9213 191.263 85.36 192.357 84.4957C193.45 83.6314 193.086 81.9307 193.394 79.9233C193.906 89.3185 192.883 98.7339 190.366 107.804C189.148 112.267 187.019 116.433 184.112 120.043C183.411 120.963 182.766 121.883 182.093 122.831C178.869 128.408 173.204 130.471 168.073 133.147C167.047 133.609 165.999 134.018 164.932 134.374C162.885 135.071 160.81 135.768 158.707 136.27C149.041 138.642 139.105 139.748 129.15 139.56C121.495 139.922 113.896 139.114 106.268 138.807C93.0044 137.747 79.8528 135.796 66.589 134.681C56.2703 132.921 45.8422 131.868 35.3784 131.53C31.5903 131.345 27.798 131.797 24.1616 132.868C20.0675 134.039 18.9739 136.019 19.703 140.257C19.8993 141.288 20.9649 142.627 19.058 143.268C19.058 142.877 19.058 142.627 18.5252 142.571C17.9192 141.939 17.4345 141.202 17.0951 140.396Z" fill="#0B3859"/>
<path d="M158.285 72.1453C152.846 73.3508 147.308 74.0601 141.74 74.2642C132.318 74.8776 122.868 74.766 113.446 74.4594C112.885 74.4594 112.324 74.4594 111.763 74.2363C110.091 72.6978 108.279 71.3165 106.351 70.11C94.4612 61.7458 82.5434 53.3817 70.6817 44.7945C65.4939 41.0864 60.4744 37.1831 55.3428 33.3914C54.8756 33.0942 54.495 32.6803 54.2391 32.191C53.9832 31.7018 53.861 31.1543 53.8846 30.6033C53.8846 25.9473 54.5296 21.3191 54.9502 16.6631C54.9502 15.0739 55.3428 14.8787 57.0533 14.5163C61.2876 13.5684 65.4659 12.7319 69.7563 11.7282C70.456 11.5293 71.1937 11.5014 71.9066 11.647C72.6194 11.7927 73.2863 12.1075 73.8504 12.5647C81.9545 18.4474 90.3671 23.912 98.7796 29.293C109.015 35.9006 119.334 42.3968 129.401 49.2833C138.333 55.1824 146.832 61.7042 154.835 68.7996C156.013 69.8591 157.135 71.0301 158.285 72.1453Z" fill="#FF741F"/>
<path d="M181.98 128.157C181.996 129.069 181.688 129.958 181.111 130.666C179.737 132.98 178.306 135.35 176.792 137.525C174.409 140.815 171.885 144.021 169.305 147.171C166.156 151.008 162.36 154.272 158.088 156.818C156.91 157.515 155.789 158.24 154.639 158.965C150.778 161.619 146.355 163.355 141.712 164.039C138.317 164.877 134.834 165.316 131.336 165.35C124.531 166.595 117.53 166.28 110.866 164.429L100.014 163.063C89.4698 161.781 79.0662 159.857 68.6627 157.766L38.7701 151.772C37.3221 151.452 35.8492 151.256 34.3675 151.186C32.3204 151.186 30.0491 150.21 28.4507 152.413C28.4507 152.413 27.8057 152.413 27.5814 152.218C26.2073 151.214 25.5343 149.43 24.0481 148.593C23.5137 148.002 23.0173 147.378 22.5619 146.725C21.8826 146.02 21.4117 145.142 21.2005 144.188C20.9894 143.234 21.0461 142.241 21.3646 141.317C21.683 140.393 22.2509 139.574 23.0061 138.95C23.7613 138.325 24.6747 137.919 25.6465 137.776C30.4365 136.56 35.4219 136.304 40.3124 137.023C53.2397 138.082 66.0548 139.811 78.87 141.679C90.3371 143.588 101.897 144.9 113.502 145.61C114.876 145.61 116.306 146.168 117.568 146.14C123.625 146.363 129.654 146.14 135.683 146.14C144.028 145.645 152.294 144.242 160.332 141.958C161.642 141.6 162.925 141.153 164.173 140.62C169.487 138.633 174.28 135.479 178.194 131.391C178.434 131.179 178.71 131.009 179.007 130.889H179.484C180.662 130.248 181.223 128.993 182.288 128.101L181.98 128.157Z" fill="#0C2E4F"/>
<path d="M183.607 60.0731C182.48 61.8955 180.932 63.4247 179.092 64.534C175.579 67.012 171.633 68.8178 167.455 69.8591C163.5 65.3135 159.176 61.0987 154.527 57.2571C146.464 50.4478 138.039 44.0726 129.29 38.159C119.167 31.2725 108.959 24.6091 99.2008 17.388C94.7702 14.0982 95.4432 15.5479 95.359 9.91608C95.359 7.8808 95.359 5.81764 95.359 3.78237C95.3469 3.44023 95.4594 3.10523 95.6757 2.8389C95.8921 2.57256 96.1978 2.39279 96.5368 2.33258L104.949 0.380949C105.405 0.343425 105.864 0.403655 106.295 0.557571C106.725 0.711487 107.118 0.955502 107.445 1.27313C111.343 3.83813 115.241 6.37526 119.139 8.96814C131.954 17.3323 144.713 26.0031 157.612 34.3673C167.401 40.8617 175.884 49.1164 182.625 58.7069C182.934 59.153 183.326 59.5991 183.607 60.0731Z" fill="#FF821C"/>
<path d="M147.181 165.628C146.508 166.799 145.274 167.161 144.208 167.746C137.958 171.29 131.314 174.097 124.411 176.111C119.252 177.591 113.908 178.332 108.539 178.313C98.1513 178.566 87.7603 177.978 77.4685 176.557C70.8023 175.607 64.2829 173.827 58.0635 171.259C50.4993 168.069 43.2596 164.167 36.4432 159.605C34.7351 158.464 33.1306 157.177 31.648 155.758C31.2835 155.368 30.6385 155.005 31.0031 154.364C31.3676 153.723 32.0126 154.001 32.5454 154.029C34.5987 154.167 36.6302 154.532 38.6024 155.117C48.5573 157.57 58.5122 160.079 68.467 162.505C79.5459 165.284 90.783 167.397 102.117 168.834C106.508 169.564 110.96 169.862 115.409 169.726C116.727 168.527 118.213 168.834 119.924 168.778C123.423 168.876 126.926 168.764 130.412 168.444C133.427 168.19 136.412 167.658 139.329 166.854C141.965 166.826 144.292 164.373 147.181 165.628Z" fill="#0B243C"/>
<path d="M139.216 113.128C137.393 113.128 135.57 113.407 133.607 113.435C125.195 113.435 116.782 113.435 108.37 113.045C104.5 112.85 100.658 112.627 96.7884 112.348C95.5546 112.348 94.3207 111.985 93.0869 111.818C92.3394 110.972 91.4469 110.264 90.451 109.727L79.6829 102.144C78.9538 101.614 78.2808 101 77.6078 100.415C80.1024 100.354 82.5977 100.503 85.0669 100.861C98.1064 101.558 111.146 102.422 124.326 102.283C124.999 102.283 125.672 102.283 126.373 102.45C130.67 104.821 134.646 107.725 138.206 111.093C138.527 111.327 138.786 111.633 138.962 111.988C139.138 112.342 139.225 112.733 139.216 113.128Z" fill="#FE6119"/>
<path d="M84.9282 72.3685C82.4418 72.5361 79.9453 72.4802 77.4691 72.2012C68.4209 71.5879 59.354 71.2068 50.2684 71.0581C49.4833 71.0581 48.6981 71.0582 47.8849 70.8909C47.8849 68.1028 47.8849 65.3148 47.8849 62.3873C47.8849 59.4599 48.1092 59.5993 50.8854 58.8186C53.6615 58.038 55.9609 57.4803 58.5128 56.9227C60.1246 56.2054 61.8794 55.8622 63.6444 55.919C65.3269 56.2815 66.4486 57.8707 67.7105 58.9023L82.8811 70.5563C83.5822 71.1697 84.2552 71.783 84.9282 72.3685Z" fill="#FE5F1C"/>
<path d="M186.748 44.0694C187.83 47.5904 187.741 51.3643 186.495 54.8313C181.92 45.0183 174.939 36.5052 166.193 30.0734C162.629 27.2062 158.882 24.5706 154.976 22.1832C152.85 20.653 151.308 18.4516 150.602 15.938C150.54 15.7796 150.535 15.6053 150.586 15.4434C150.637 15.2814 150.741 15.1413 150.882 15.0458C151.159 14.8492 151.449 14.6722 151.751 14.5161C154.387 13.1221 154.387 13.0942 157.023 14.5161C163.649 18.0621 169.777 22.4584 175.25 27.592C179.085 31.3206 182.285 35.6424 184.729 40.3892C185.486 41.6717 186.131 42.8706 186.748 44.0694Z" fill="#FE9013"/>
<path d="M65.8593 109.56C62.6829 109.542 59.5097 109.356 56.3532 109.003C51.9225 109.003 47.52 108.501 43.0893 108.25C42.9491 107.135 42.837 106.019 42.6967 104.904C42.4724 103.343 42.5565 103.036 43.8745 102.59C46.6787 101.586 49.6511 100.666 52.5395 99.802C52.9124 99.6741 53.3147 99.656 53.6977 99.7499C54.0808 99.8439 54.4284 100.046 54.6987 100.332C57.1103 102.395 59.5499 104.402 61.9615 106.41L65.8593 109.56Z" fill="#FD5020"/>
<path d="M178.755 131.53C178.281 132.429 177.599 133.203 176.765 133.789C173.252 137.147 169.039 139.698 164.426 141.261C163.909 139.99 163.701 138.615 163.818 137.25C163.935 135.884 164.374 134.564 165.099 133.398C167.034 132.506 168.997 131.642 170.904 130.61C174.324 128.913 177.486 126.745 180.298 124.17C180.859 123.64 181.504 123.166 182.092 122.664C181.825 124.534 181.237 126.345 180.354 128.017C179.847 128.879 179.496 129.823 179.316 130.805L178.755 131.53Z" fill="#FD670F"/>
<path d="M192.383 84.5238C191.927 90.3285 189.247 95.7377 184.896 99.635C182.74 97.1635 181.643 93.9511 181.84 90.6854C182.569 89.9883 183.27 89.2634 184.027 88.5943C186.793 86.071 188.958 82.9659 190.364 79.5053C190.617 78.8919 190.925 78.2785 191.206 77.6652C191.879 79.8949 192.274 82.1983 192.383 84.5238Z" fill="#FD7B0D"/>
<path d="M131 169.085C130.617 169.308 130.2 169.468 129.766 169.559C124.973 169.982 120.154 170.029 115.353 169.699C114.203 167.608 112.072 166.381 110.782 164.429C112.016 164.429 113.278 164.429 114.512 164.429C120.109 164.876 125.73 164.941 131.337 164.625C132.851 166.214 132.29 167.664 131 169.085Z" fill="#FD4419"/>
<path d="M147.18 165.629C146.281 165.634 145.396 165.854 144.6 166.27C142.933 166.962 141.178 167.422 139.385 167.636C139.425 166.776 139.652 165.935 140.048 165.171C140.445 164.406 141.003 163.735 141.684 163.203C146.056 162.092 150.354 160.714 154.555 159.077C153.966 160.359 152.732 161.028 151.751 161.865C150.77 162.701 149.704 163.621 148.666 164.513L148.498 164.792H148.302C148.302 165.434 147.404 165.21 147.152 165.657L147.18 165.629Z" fill="#F6551C"/>
<path d="M147.153 165.685C147.153 165.044 147.966 165.155 148.303 164.821C148.191 165.49 147.714 165.629 147.153 165.685Z" fill="#0B243C"/>
<path d="M148.498 164.656C148.529 164.649 148.557 164.636 148.582 164.618C148.607 164.601 148.629 164.578 148.645 164.551C148.66 164.525 148.671 164.496 148.675 164.465C148.679 164.435 148.677 164.404 148.668 164.374V164.543L148.498 164.656Z" fill="#0B243C"/>
<path d="M182.039 128.186L182.153 128.129L181.981 128.158L182.039 128.186Z" fill="#0C2E4F"/>
<path d="M180.943 102.953C179.838 104.083 178.512 104.975 177.045 105.573C170.363 108.903 163.118 110.973 155.677 111.679C152.072 108.827 149.013 105.351 146.648 101.419L154.359 100.22C159.99 99.4281 165.525 98.0641 170.876 96.1497C172.811 95.4527 174.69 94.6721 176.484 93.9193C177.942 94.9213 179.116 96.2775 179.897 97.8588C180.677 99.4401 181.037 101.194 180.943 102.953Z" fill="#FF6F16"/>
<path d="M78.6752 142.515C75.5345 139.922 71.9451 138.026 68.6362 135.656C67.7388 135.015 66.6172 134.653 66.0002 133.621C67.7018 133.435 69.4217 133.501 71.1039 133.816L97.5754 136.772C100.313 136.864 103.04 137.152 105.736 137.636C109.721 139.657 113.333 142.334 116.42 145.554C116.6 145.692 116.719 145.895 116.75 146.119C116.781 146.343 116.723 146.571 116.588 146.753C111.24 146.651 105.904 146.242 100.604 145.526C94.2665 144.801 87.957 143.881 81.6476 143.073C80.6323 143.055 79.6273 142.866 78.6752 142.515Z" fill="#FE4C1A"/>
<path d="M160.893 142.683C156.691 144.301 152.301 145.388 147.826 145.917C144.152 146.53 140.423 146.697 136.609 146.976C133.805 144.411 130.776 142.264 129.402 138.612C129.963 138.612 130.552 138.445 131.113 138.445C139.888 138.409 148.637 137.474 157.22 135.657L158.566 135.49C159.634 136.318 160.428 137.447 160.843 138.73C161.258 140.013 161.275 141.39 160.893 142.683Z" fill="#FE5819"/>
<path d="M178.755 131.531L179.372 130.89L178.755 131.531Z" fill="#FEFEFE"/>
</svg>
