<svg width="44" height="45" viewBox="0 0 44 45" fill="none" xmlns="http://www.w3.org/2000/svg">
<path d="M37.4901 37.991H30.9706V27.7809C30.9706 25.3462 30.9272 22.2121 27.5799 22.2121C24.1843 22.2121 23.6648 24.8647 23.6648 27.6037V37.9903H17.1454V16.9943H23.404V19.8636H23.4917C24.118 18.7927 25.0231 17.9117 26.1105 17.3144C27.1979 16.7172 28.427 16.426 29.6668 16.4721C36.2745 16.4721 37.4928 20.8185 37.4928 26.4729L37.4901 37.991ZM9.78933 14.1243C9.04106 14.1244 8.30955 13.9027 7.68731 13.4871C7.06508 13.0714 6.58006 12.4806 6.29359 11.7894C6.00712 11.0981 5.93206 10.3374 6.07791 9.60343C6.22375 8.86949 6.58395 8.19528 7.11296 7.66606C7.64197 7.13684 8.31603 6.77639 9.04989 6.63027C9.78375 6.48415 10.5445 6.55894 11.2358 6.84518C11.9272 7.13141 12.5181 7.61624 12.934 8.23835C13.3498 8.86045 13.5718 9.5919 13.5719 10.3402C13.572 10.837 13.4743 11.329 13.2842 11.7881C13.0942 12.2472 12.8156 12.6643 12.4643 13.0157C12.1131 13.3671 11.6961 13.6458 11.2371 13.836C10.7781 14.0263 10.2862 14.1242 9.78933 14.1243ZM13.049 37.991H6.52281V16.9943H13.049V37.991ZM40.7403 0.502997H3.24681C2.39582 0.493393 1.57581 0.822048 0.967001 1.41674C0.358192 2.01144 0.0103859 2.82352 0 3.67453V41.3248C0.0100305 42.1763 0.357624 42.9889 0.966413 43.5842C1.5752 44.1795 2.39539 44.5088 3.24681 44.4997H40.7403C41.5934 44.5104 42.4159 44.1821 43.0271 43.5868C43.6383 42.9915 43.9882 42.1779 44 41.3248V3.67182C43.9878 2.81911 43.6377 2.00611 43.0265 1.41143C42.4152 0.816751 41.593 0.489034 40.7403 0.50028V0.502997Z" fill="#7AAEDD"/>
</svg>
