<svg width="40" height="41" viewBox="0 0 40 41" fill="none" xmlns="http://www.w3.org/2000/svg">
<path d="M24.9998 13.8333H29.9998C31.0942 13.8333 32.1778 14.0273 33.1889 14.4042C34.1999 14.7811 35.1186 15.3336 35.8924 16.03C36.6662 16.7265 37.28 17.5532 37.6988 18.4632C38.1176 19.3731 38.3332 20.3484 38.3332 21.3333C38.3332 22.3182 38.1176 23.2935 37.6988 24.2034C37.28 25.1134 36.6662 25.9402 35.8924 26.6366C35.1186 27.3331 34.1999 27.8855 33.1889 28.2624C32.1778 28.6393 31.0942 28.8333 29.9998 28.8333H24.9998M14.9998 28.8333H9.99984C8.90549 28.8333 7.82185 28.6393 6.81081 28.2624C5.79976 27.8855 4.8811 27.3331 4.10728 26.6366C2.54448 25.2301 1.6665 23.3224 1.6665 21.3333C1.6665 19.3442 2.54448 17.4365 4.10728 16.03C5.67008 14.6235 7.7897 13.8333 9.99984 13.8333H14.9998" stroke="#242533" stroke-width="2" stroke-linecap="round" stroke-linejoin="round"/>
<path d="M14.9751 21.3208H25.0002" stroke="#242533" stroke-width="2" stroke-linecap="round" stroke-linejoin="round"/>
</svg>
