<svg width="40" height="41" viewBox="0 0 40 41" fill="none" xmlns="http://www.w3.org/2000/svg">
<path d="M22.9806 29.7078V13.8325C22.9806 11.9019 21.4155 10.3368 19.4849 10.3368C17.5543 10.3368 15.9893 11.9019 15.9893 13.8325V29.7078C15.9893 31.6384 17.5543 33.2035 19.4849 33.2035C21.4155 33.2035 22.9806 31.6384 22.9806 29.7078Z" fill="#242533"/>
<path d="M13.047 21.1634V13.5268C13.047 11.765 11.6188 10.3368 9.85698 10.3368C8.0952 10.3368 6.66699 11.765 6.66699 13.5268V21.1634C6.66699 22.9252 8.0952 24.3534 9.85698 24.3534C11.6188 24.3534 13.047 22.9252 13.047 21.1634Z" fill="#242533"/>
<path d="M32.3027 24.7532V13.5096C32.3027 11.7573 30.8822 10.3368 29.1299 10.3368C27.3776 10.3368 25.957 11.7573 25.957 13.5096V24.7532C25.957 26.5055 27.3776 27.926 29.1299 27.926C30.8822 27.926 32.3027 26.5055 32.3027 24.7532Z" fill="#242533"/>
</svg>
