<svg width="42" height="43" viewBox="0 0 42 43" fill="none" xmlns="http://www.w3.org/2000/svg">
<path fill-rule="evenodd" clip-rule="evenodd" d="M29.9869 12.6159L30.0316 33.7987C30.0328 34.351 29.586 34.7996 29.0337 34.8008C28.4814 34.802 28.0328 34.3552 28.0316 33.8029L27.9869 12.6108L21.7639 18.8337C21.3734 19.2243 20.7403 19.2243 20.3497 18.8337C19.9592 18.4432 19.9592 17.81 20.3497 17.4195L28.2772 9.49201C28.6678 9.10149 29.3009 9.10149 29.6915 9.49201L37.6505 17.451C38.041 17.8415 38.041 18.4747 37.6505 18.8652C37.2599 19.2558 36.6268 19.2558 36.2363 18.8652L29.9869 12.6159Z" fill="#484964"/>
<path fill-rule="evenodd" clip-rule="evenodd" d="M12.0131 31.384L11.9684 10.2012C11.9672 9.64894 12.414 9.20028 12.9663 9.19912C13.5186 9.19795 13.9672 9.64472 13.9684 10.197L14.0131 31.3891L20.2361 25.1662C20.6266 24.7757 21.2597 24.7757 21.6503 25.1662C22.0408 25.5567 22.0408 26.1899 21.6503 26.5804L13.7228 34.5079C13.3322 34.8984 12.6991 34.8984 12.3085 34.5079L4.34953 26.5489C3.95901 26.1584 3.95901 25.5252 4.34953 25.1347C4.74006 24.7442 5.37322 24.7442 5.76375 25.1347L12.0131 31.384Z" fill="#484964"/>
</svg>
