<svg width="277" height="346" viewBox="0 0 277 346" fill="none" xmlns="http://www.w3.org/2000/svg">
<path d="M138.948 345.63C138.948 345.63 277 276.604 277 173.065V52.2695L138.948 0.5L0.895996 52.2695V173.065C0.895996 276.604 138.948 345.63 138.948 345.63Z" fill="#9B9DDB"/>
<mask id="mask0_901_550551" style="mask-type:alpha" maskUnits="userSpaceOnUse" x="0" y="0" width="277" height="346">
<path d="M138.948 345.63C138.948 345.63 277 276.604 277 173.065V52.2695L138.948 0.5L0.895996 52.2695V173.065C0.895996 276.604 138.948 345.63 138.948 345.63Z" fill="#5B5DA6"/>
</mask>
<g mask="url(#mask0_901_550551)">
<path fill-rule="evenodd" clip-rule="evenodd" d="M-73.6028 415.034C-73.9911 415.034 -74.3444 414.81 -74.5088 414.458L-135.982 282.877C-136.341 282.108 -137.434 282.108 -137.793 282.877L-199.266 414.458C-199.431 414.81 -199.784 415.034 -200.172 415.034L-332.244 415.034C-332.97 415.034 -333.454 414.286 -333.156 413.624L-137.799 -20.2294C-137.445 -21.0152 -136.33 -21.0153 -135.976 -20.2294L59.3809 413.624C59.6789 414.286 59.1948 415.034 58.4691 415.034L-73.6028 415.034Z" fill="#051274"/>
</g>
<path d="M87.0834 272.767H88.3934L85.6334 265.677H84.2434L81.4834 272.767H82.7534L83.4134 270.987H86.4134L87.0834 272.767ZM84.9134 266.977L85.9934 269.877H83.8334L84.9134 266.977ZM93.8613 272.767V271.627H90.6113V265.677H89.4113V272.767H93.8613ZM96.1391 272.767V265.677H94.9191V272.767H96.1391ZM104.197 272.767V269.177H100.727V270.227H103.067C103.007 270.837 102.467 271.817 101.037 271.817C99.8168 271.817 98.6968 270.947 98.6968 269.217C98.6968 267.457 99.8968 266.637 101.047 266.637C102.177 266.637 102.877 267.317 103.117 268.117L104.247 267.687C103.867 266.517 102.767 265.527 101.047 265.527C99.2068 265.527 97.4772 266.887 97.4772 269.217C97.4772 271.557 99.1168 272.917 100.967 272.917C102.097 272.917 102.827 272.387 103.137 271.867L103.227 272.767H104.197ZM111.641 272.767V265.677H110.441V270.707L107.221 265.677H105.691V272.767H106.891V267.397L110.391 272.767H111.641ZM117.805 272.767V271.647H114.625V269.767H117.505V268.677H114.625V266.797H117.805V265.677H113.425V272.767H117.805ZM120.426 271.667V266.777H121.696C122.926 266.777 123.936 267.577 123.936 269.237C123.936 270.877 122.916 271.667 121.686 271.667H120.426ZM121.726 272.767C123.646 272.767 125.186 271.507 125.186 269.237C125.186 266.957 123.666 265.677 121.736 265.677H119.226V272.767H121.726Z" fill="white"/>
<path d="M83.522 254.767V242.639H71.97V246.927H78.786C78.498 248.207 76.93 250.639 73.186 250.639C69.506 250.639 66.37 248.175 66.37 243.439C66.37 238.383 69.986 236.335 73.058 236.335C76.834 236.335 78.338 238.895 78.69 240.303L83.554 238.607C82.562 235.439 79.554 231.599 73.058 231.599C66.658 231.599 61.25 236.303 61.25 243.439C61.25 250.607 66.434 255.247 72.738 255.247C75.97 255.247 78.114 253.903 79.106 252.463L79.426 254.767H83.522ZM91.908 249.999V236.847H94.852C98.34 236.847 101.188 238.895 101.188 243.439C101.188 247.983 98.34 249.999 94.852 249.999H91.908ZM95.044 254.767C101.892 254.767 106.468 250.447 106.468 243.439C106.468 236.431 101.892 232.079 95.076 232.079H86.852V254.767H95.044ZM114.48 242.255V236.463H117.424C119.344 236.463 120.656 237.551 120.656 239.375C120.656 241.135 119.344 242.255 117.424 242.255H114.48ZM117.936 246.607C122.544 246.607 125.712 243.631 125.712 239.343C125.712 235.119 122.544 232.079 117.936 232.079H109.392V254.767H114.448V246.607H117.936ZM138.969 254.767H144.537L139.929 245.583C142.713 244.591 144.409 242.255 144.409 239.183C144.409 235.151 141.529 232.079 137.049 232.079H128.057V254.767H133.113V246.319H134.905L138.969 254.767ZM133.113 241.967V236.463H136.089C138.169 236.463 139.289 237.519 139.289 239.215C139.289 240.815 138.169 241.967 136.089 241.967H133.113Z" fill="white"/>
<path d="M103.004 99.6128L104.753 105.149H110.415L105.835 108.57L107.584 114.106L103.004 110.682L98.424 114.106L100.174 108.57L95.5918 105.149H101.254L103.004 99.6128Z" fill="white"/>
<path d="M103.004 190.711L104.753 196.248H110.415L105.835 199.669L107.584 205.204L103.004 201.783L98.424 205.204L100.174 199.669L95.5918 196.248H101.254L103.004 190.711Z" fill="white"/>
<path d="M126.293 107.894L128.041 113.43H133.704L129.123 116.852L130.873 122.387L126.293 118.964L121.711 122.387L123.461 116.852L118.881 113.43H124.544L126.293 107.894Z" fill="white"/>
<path d="M145.352 123.595L147.1 129.13H152.763L148.182 132.552L149.932 138.088L145.352 134.667L140.771 138.088L142.521 132.552L137.94 129.13H143.601L145.352 123.595Z" fill="white"/>
<path d="M145.352 167.936L147.101 173.474H152.763L148.182 176.895L149.933 182.429L145.352 179.009L140.771 182.429L142.521 176.895L137.94 173.474H143.602L145.352 167.936Z" fill="white"/>
<path d="M60.6446 123.595L62.3935 129.13H68.0557L63.4751 132.552L65.224 138.088L60.6446 134.667L56.0632 138.088L57.8129 132.552L53.2324 129.13H58.8958L60.6446 123.595Z" fill="white"/>
<path d="M149.59 145.162L151.339 150.697H157.001L152.42 154.118L154.17 159.654L149.59 156.235L145.009 159.654L146.76 154.118L142.178 150.697H147.839L149.59 145.162Z" fill="white"/>
<path d="M56.4147 145.162L58.1635 150.697H63.8253L59.2441 154.118L60.995 159.654L56.4147 156.235L51.8332 159.654L53.5832 154.118L49.002 150.697H54.6647L56.4147 145.162Z" fill="white"/>
<path d="M60.6451 167.936L62.3938 173.474H68.0557L63.4757 176.895L65.2242 182.429L60.6451 179.009L56.0639 182.429L57.8136 176.895L53.2324 173.474H58.8954L60.6451 167.936Z" fill="white"/>
<path d="M130.531 186.57L132.28 192.105H137.942L133.36 195.528L135.111 201.063L130.531 197.642L125.949 201.063L127.7 195.528L123.119 192.105H128.782L130.531 186.57Z" fill="white"/>
<path d="M79.7028 107.894L81.4512 113.43H87.1143L82.5331 116.852L84.284 122.387L79.7028 118.964L75.1225 122.387L76.8722 116.852L72.291 113.43H77.9528L79.7028 107.894Z" fill="white"/>
<path d="M75.4717 186.57L77.2212 192.108H82.8838L78.303 195.527L80.0525 201.063L75.4717 197.644L70.8918 201.063L72.6413 195.527L68.0605 192.108H73.7219L75.4717 186.57Z" fill="white"/>
<path d="M88.002 149.089C88.002 147.984 88.8974 147.089 90.002 147.089H116.002C117.107 147.089 118.002 147.984 118.002 149.089V166.919C118.002 168.024 117.107 168.919 116.002 168.919H90.002C88.8974 168.919 88.002 168.024 88.002 166.919V149.089Z" fill="white"/>
<path d="M100.282 163.008L96.3352 159.38C95.8909 158.971 95.8909 158.312 96.3352 157.904C96.7758 157.499 97.4927 157.496 97.9367 157.898C97.9383 157.9 97.94 157.901 97.9417 157.903L101.225 160.913L109.061 153.71C109.501 153.305 110.217 153.303 110.66 153.704C110.663 153.707 110.666 153.709 110.669 153.712C111.114 154.124 111.113 154.786 110.666 155.196L102.168 163.008C101.651 163.483 100.81 163.486 100.29 163.014C100.287 163.012 100.285 163.01 100.282 163.008Z" fill="white"/>
<path d="M110.061 147.585V142.092C110.061 138.437 107.098 135.474 103.443 135.474C99.788 135.474 96.8252 138.437 96.8252 142.092V147.585" stroke="white" stroke-width="5.39683"/>
<path d="M193.534 188.139C194.64 188.139 195.299 187.437 195.495 186.704L194.823 186.484C194.676 186.973 194.261 187.437 193.534 187.437C192.796 187.437 192.099 186.899 192.099 185.886C192.099 184.835 192.814 184.316 193.528 184.316C194.255 184.316 194.658 184.737 194.786 185.263L195.477 185.031C195.281 184.273 194.628 183.626 193.528 183.626C192.405 183.626 191.348 184.475 191.348 185.886C191.348 187.296 192.368 188.139 193.534 188.139ZM196.686 185.879C196.686 184.835 197.406 184.316 198.133 184.316C198.866 184.316 199.587 184.835 199.587 185.879C199.587 186.924 198.866 187.443 198.133 187.443C197.406 187.443 196.686 186.924 196.686 185.879ZM195.935 185.879C195.935 187.302 196.997 188.139 198.133 188.139C199.269 188.139 200.338 187.302 200.338 185.879C200.338 184.463 199.269 183.626 198.133 183.626C196.997 183.626 195.935 184.463 195.935 185.879ZM205.911 188.047V183.718H204.916L203.529 187.022L202.125 183.718H201.148V188.047H201.862V184.872L203.2 188.047H203.835L205.184 184.86V188.047H205.911ZM207.731 185.708V184.365H208.494C208.958 184.365 209.239 184.628 209.239 185.043C209.239 185.452 208.958 185.708 208.494 185.708H207.731ZM208.604 186.356C209.435 186.356 209.984 185.8 209.984 185.037C209.984 184.279 209.435 183.718 208.604 183.718H206.998V188.047H207.731V186.356H208.604ZM213.414 188.047V187.351H211.429V183.718H210.696V188.047H213.414ZM214.805 188.047V183.718H214.06V188.047H214.805ZM218.846 188.047H219.646L217.961 183.718H217.112L215.426 188.047H216.202L216.605 186.96H218.437L218.846 188.047ZM217.521 184.511L218.181 186.283H216.862L217.521 184.511ZM223.902 188.047V183.718H223.169V186.789L221.203 183.718H220.268V188.047H221.001V184.768L223.138 188.047H223.902ZM228.1 184.408V183.718H224.552V184.408H225.956V188.047H226.689V184.408H228.1Z" fill="white"/>
<path d="M191.031 177.348C195.33 177.348 197.167 174.417 197.616 172.501L194.665 171.661C194.392 172.658 193.434 174.26 191.031 174.26C188.959 174.26 187.044 172.755 187.044 170.156C187.044 167.244 189.135 165.916 190.991 165.916C193.434 165.916 194.314 167.538 194.529 168.495L197.441 167.577C196.991 165.583 195.154 162.906 190.991 162.906C187.122 162.906 183.839 165.837 183.839 170.156C183.839 174.475 187.044 177.348 191.031 177.348ZM205.388 177.348C209.687 177.348 211.524 174.417 211.974 172.501L209.023 171.661C208.749 172.658 207.791 174.26 205.388 174.26C203.316 174.26 201.401 172.755 201.401 170.156C201.401 167.244 203.492 165.916 205.349 165.916C207.791 165.916 208.671 167.538 208.886 168.495L211.798 167.577C211.348 165.583 209.511 162.906 205.349 162.906C201.479 162.906 198.196 165.837 198.196 170.156C198.196 174.475 201.401 177.348 205.388 177.348ZM216.462 169.414V165.876H218.26C219.432 165.876 220.233 166.541 220.233 167.655C220.233 168.73 219.432 169.414 218.26 169.414H216.462ZM218.572 172.071C221.386 172.071 223.321 170.254 223.321 167.635C223.321 165.056 221.386 163.199 218.572 163.199H213.354V177.055H216.442V172.071H218.572ZM232.83 177.055H236.192L231.032 163.199H227.456L222.238 177.055H225.482L226.479 174.241H231.834L232.83 177.055ZM229.195 166.639L230.857 171.427H227.495L229.195 166.639Z" fill="white"/>
<path d="M206.513 97.3778V82.3013H188.217V86.6672L186.13 92.6503L188.217 94.7523V100.736L192.389 104.94V106.881L196.081 112.864V115.451L202.18 123.213V129.682H208.76L218.71 135.341V139.708L233.155 137.444V127.58L223.044 116.845H202.009V97.3778H206.513Z" fill="white"/>
<path d="M208.116 132.99V131.158H202.009V132.99H208.116Z" fill="white"/>
<path d="M208.727 137.876V135.433H210.559V137.876H208.727Z" fill="white"/>
<path d="M210.559 135.433V133.601H212.391V135.433H210.559Z" fill="white"/>
<path fill-rule="evenodd" clip-rule="evenodd" d="M206.283 100.419C205.609 100.419 205.062 100.966 205.062 101.64V112.581C205.062 113.256 205.609 113.803 206.283 113.803H222.162C222.837 113.803 223.383 113.256 223.383 112.581V101.64C223.383 100.966 222.837 100.419 222.162 100.419H206.283ZM210.151 107.732L212.561 109.957C212.562 109.958 212.563 109.958 212.564 109.959C212.565 109.96 212.565 109.96 212.566 109.961C212.884 110.25 213.398 110.248 213.713 109.957L218.903 105.167C219.176 104.916 219.177 104.51 218.905 104.258C218.903 104.256 218.901 104.254 218.899 104.253C218.629 104.007 218.192 104.008 217.923 104.256L213.137 108.672L211.132 106.827C211.132 106.827 211.132 106.826 211.131 106.826C211.13 106.826 211.13 106.825 211.129 106.824C210.858 106.578 210.42 106.579 210.151 106.828C209.88 107.078 209.88 107.482 210.151 107.732Z" fill="white"/>
<path d="M218.534 100.719V97.335C218.534 95.1035 216.724 93.2939 214.492 93.2939C212.26 93.2939 210.451 95.1035 210.451 97.335V100.719" stroke="white" stroke-width="5.39683"/>
</svg>
