<svg width="44" height="45" viewBox="0 0 44 45" fill="none" xmlns="http://www.w3.org/2000/svg">
<g clip-path="url(#clip0_809_103096)">
<path d="M9.51365 28.5229C9.51365 31.0521 7.46955 33.0962 4.94042 33.0962C2.41128 33.0962 0.367188 31.0521 0.367188 28.5229C0.367188 25.9938 2.41128 23.9497 4.94042 23.9497H9.51365V28.5229ZM11.8003 28.5229C11.8003 25.9938 13.8444 23.9497 16.3735 23.9497C18.9026 23.9497 20.9467 25.9938 20.9467 28.5229V39.956C20.9467 42.4851 18.9026 44.5292 16.3735 44.5292C13.8444 44.5292 11.8003 42.4851 11.8003 39.956V28.5229Z" fill="#E01E5A"/>
<path d="M16.374 10.1605C13.8448 10.1605 11.8007 8.1164 11.8007 5.58727C11.8007 3.05813 13.8448 1.01404 16.374 1.01404C18.9031 1.01404 20.9472 3.05813 20.9472 5.58727V10.1605H16.374ZM16.374 12.4818C18.9031 12.4818 20.9472 14.5259 20.9472 17.055C20.9472 19.5841 18.9031 21.6282 16.374 21.6282H4.90624C2.3771 21.6282 0.333008 19.5841 0.333008 17.055C0.333008 14.5259 2.3771 12.4818 4.90624 12.4818H16.374Z" fill="#36C5F0"/>
<path d="M34.7016 17.055C34.7016 14.5259 36.7457 12.4818 39.2749 12.4818C41.804 12.4818 43.8481 14.5259 43.8481 17.055C43.8481 19.5841 41.804 21.6282 39.2749 21.6282H34.7016V17.055ZM32.415 17.055C32.415 19.5841 30.3709 21.6282 27.8418 21.6282C25.3126 21.6282 23.2686 19.5841 23.2686 17.055V5.58727C23.2686 3.05813 25.3126 1.01404 27.8418 1.01404C30.3709 1.01404 32.415 3.05813 32.415 5.58727V17.055Z" fill="#2EB67D"/>
<path d="M27.8418 35.3825C30.3709 35.3825 32.415 37.4266 32.415 39.9558C32.415 42.4849 30.3709 44.529 27.8418 44.529C25.3126 44.529 23.2686 42.4849 23.2686 39.9558V35.3825H27.8418ZM27.8418 33.0959C25.3126 33.0959 23.2686 31.0518 23.2686 28.5227C23.2686 25.9936 25.3126 23.9495 27.8418 23.9495H39.3095C41.8386 23.9495 43.8827 25.9936 43.8827 28.5227C43.8827 31.0518 41.8386 33.0959 39.3095 33.0959H27.8418Z" fill="#ECB22E"/>
</g>
<defs>
<clipPath id="clip0_809_103096">
<rect y="0.5" width="44" height="44" rx="10" fill="white"/>
</clipPath>
</defs>
</svg>
