<svg width="44" height="44" viewBox="0 0 44 44" fill="none" xmlns="http://www.w3.org/2000/svg">
<path d="M22.0001 38.2021C13.0519 38.2021 5.79786 30.9481 5.79786 22.0001C5.79786 13.0519 13.0519 5.79804 22.0001 5.79804C30.9481 5.79804 38.202 13.0519 38.202 22.0001C38.202 30.9481 30.9481 38.2021 22.0001 38.2021ZM22.0001 0C9.8498 0 0 9.84997 0 22.0001C0 34.1504 9.8498 44 22.0001 44C34.1502 44 44 34.1504 44 22.0001C44 9.84997 34.1502 0 21.9999 0H22.0001Z" fill="#CF272D"/>
<path d="M22.9042 16.5211C22.9042 13.9949 24.9523 11.9468 27.4787 11.9468C30.0051 11.9468 32.053 13.9949 32.053 16.5211C32.053 19.0477 30.0051 21.0956 27.4787 21.0956C24.9523 21.0956 22.9042 19.0477 22.9042 16.5211ZM22.9042 27.4792C22.9042 24.9529 24.9523 22.9047 27.4787 22.9047C30.0051 22.9047 32.053 24.9529 32.053 27.4792C32.053 30.0056 30.0051 32.0536 27.4787 32.0536C24.9523 32.0536 22.9042 30.0056 22.9042 27.4792ZM11.9463 27.4792C11.9463 24.9529 13.9945 22.9047 16.5208 22.9047C19.0472 22.9047 21.0953 24.9529 21.0953 27.4792C21.0953 30.0056 19.0472 32.0536 16.5208 32.0536C13.9945 32.0536 11.9463 30.0056 11.9463 27.4792ZM11.9463 16.5213C11.9463 13.9949 13.9945 11.9469 16.5208 11.9469C19.0472 11.9469 21.0953 13.9949 21.0953 16.5213C21.0953 19.0479 19.0472 21.0958 16.5208 21.0958C13.9945 21.0958 11.9463 19.0479 11.9463 16.5213Z" fill="#CF272D"/>
</svg>
