<svg width="40" height="41" viewBox="0 0 40 41" fill="none" xmlns="http://www.w3.org/2000/svg">
<path d="M13.7132 17.7292C16.7451 17.7292 19.2029 15.2714 19.2029 12.2396C19.2029 9.20778 16.7451 6.75 13.7132 6.75C10.6814 6.75 8.22363 9.20778 8.22363 12.2396C8.22363 15.2714 10.6814 17.7292 13.7132 17.7292Z" fill="#242533"/>
<path d="M24.7007 33.7933C24.4732 31.1538 23.2188 28.7091 21.2074 26.985C19.1959 25.2608 16.5881 24.3951 13.9448 24.574C11.3016 24.3951 8.69378 25.2608 6.6823 26.985C4.67083 28.7091 3.41644 31.1538 3.18896 33.7933" fill="#242533"/>
<path d="M30.0113 23.0183C32.0448 23.0183 33.6934 21.3697 33.6934 19.3361C33.6934 17.3025 32.0448 15.654 30.0113 15.654C27.9777 15.654 26.3291 17.3025 26.3291 19.3361C26.3291 21.3697 27.9777 23.0183 30.0113 23.0183Z" fill="#242533"/>
<path d="M37.3806 33.7933C37.2281 32.0229 36.3867 30.3831 35.0375 29.2266C33.6883 28.0702 31.9391 27.4895 30.1662 27.6095C28.3932 27.4895 26.644 28.0702 25.2948 29.2266C23.9456 30.3831 23.1042 32.0229 22.9517 33.7933" fill="#242533"/>
</svg>
