<svg width="44" height="45" viewBox="0 0 44 45" fill="none" xmlns="http://www.w3.org/2000/svg">
<g clip-path="url(#clip0_809_103053)">
<path fill-rule="evenodd" clip-rule="evenodd" d="M44 22.5C44 34.6503 34.1503 44.5 22 44.5C9.84974 44.5 0 34.6503 0 22.5C0 10.3497 9.84974 0.5 22 0.5C34.1503 0.5 44 10.3497 44 22.5ZM7.88445 25.951V15.6123C7.88518 15.5111 7.9059 15.4109 7.94542 15.3177C7.98493 15.2244 8.04247 15.1399 8.11472 15.069C8.18698 14.998 8.27254 14.942 8.36648 14.9042C8.46043 14.8664 8.56092 14.8475 8.66218 14.8486H23.7278C24.8492 14.8441 25.9264 15.285 26.7228 16.0745C27.5192 16.8639 27.9696 17.9372 27.9751 19.0586V29.3973C27.9736 29.601 27.8914 29.7958 27.7464 29.939C27.6015 30.0822 27.4057 30.162 27.202 30.161H12.1317C11.0103 30.1655 9.9331 29.7245 9.13669 28.9351C8.34028 28.1457 7.88988 27.0724 7.88445 25.951ZM35.1563 15.1001L28.9344 19.6454V25.3736L35.1563 29.9086C35.6033 30.2448 36.1156 30.3566 36.1156 29.4345V15.5751C36.1156 14.7647 35.6965 14.652 35.1563 15.1001Z" fill="#4A8CFF"/>
</g>
<defs>
<clipPath id="clip0_809_103053">
<rect y="0.5" width="44" height="44" rx="10" fill="white"/>
</clipPath>
</defs>
</svg>
