<?xml version="1.0" encoding="UTF-8"?>
<svg xmlns="http://www.w3.org/2000/svg" xmlns:xlink="http://www.w3.org/1999/xlink" id="Layer_1" data-name="Layer 1" viewBox="0 0 684.61 71.46">
  <defs>
    <style>.cls-1{fill:none;}.cls-2{clip-path:url(#clip-path);}</style>
    <clipPath id="clip-path">
      <path class="cls-1" d="M388.07,137.69v11.86H355.31V137.69Zm13,41.84V107.7h28.34q12.24,0,19,6.39t6.75,17.08a23.17,23.17,0,0,1-3.28,12.59,20.14,20.14,0,0,1-9.42,7.86l15.26,27.91H441l-13.61-25.46H416.26v25.46Zm15.18-37.66h10.32q12.93,0,12.94-10.7,0-11.05-13-11H416.26Zm49.63,37.66V107.7h48.4v12.52H481.08v17.12H511.8v12.52H481.08V167h33.35v12.52Zm123.88-46.68H574.41a14.19,14.19,0,0,0-5-9.31,16,16,0,0,0-10.42-3.39,16.47,16.47,0,0,0-13.38,6.12q-5,6.14-5,17.35,0,11.5,5.06,17.48a17.89,17.89,0,0,0,23.52,2.81,14,14,0,0,0,5.3-8.93l15.36.07a28.36,28.36,0,0,1-4.7,12.42,29,29,0,0,1-10.58,9.43,32.93,32.93,0,0,1-15.9,3.62,33.79,33.79,0,0,1-17.17-4.35,30.73,30.73,0,0,1-11.92-12.59q-4.38-8.25-4.37-20t4.42-20a30.86,30.86,0,0,1,12-12.58,33.82,33.82,0,0,1,17.05-4.33,35.58,35.58,0,0,1,15,3.07,27.55,27.55,0,0,1,10.94,8.91A29.35,29.35,0,0,1,589.77,132.85Z"></path>
    </clipPath>
  </defs>
  <g class="cls-2">
    <rect x="340.27" y="62.08" width="306.82" height="158.21"></rect>
  </g>
  <path d="M372.9,30V41.45H341.19V30Z"></path>
  <path d="M423.21,21a8.59,8.59,0,0,0-3.51-6.39,13.92,13.92,0,0,0-8.37-2.27c-3.6,0-6.36.73-8.28,2.21a6.71,6.71,0,0,0-2.89,5.56,6.06,6.06,0,0,0,3.21,5.66,27.74,27.74,0,0,0,7.79,3l6.25,1.49a40.9,40.9,0,0,1,10.74,3.94,20.49,20.49,0,0,1,7.4,6.64,17.38,17.38,0,0,1,2.7,9.86,18.48,18.48,0,0,1-7.14,15.19q-7.12,5.66-19.85,5.65t-20.2-5.77q-7.53-5.77-7.8-17h14.22a9.88,9.88,0,0,0,4.13,7.86,16.15,16.15,0,0,0,9.48,2.63q5.61,0,9-2.38a7.36,7.36,0,0,0,3.38-6.18,6.15,6.15,0,0,0-3.09-5.43,30.63,30.63,0,0,0-8.73-3.26L404,40q-8.79-2.1-13.88-6.69t-5.06-12.25a18.22,18.22,0,0,1,3.38-11,22.37,22.37,0,0,1,9.38-7.37A33.47,33.47,0,0,1,411.43,0,32.18,32.18,0,0,1,425,2.65,21.31,21.31,0,0,1,434,10,19.5,19.5,0,0,1,437.3,21Z"></path>
  <path d="M485.81,21a8.59,8.59,0,0,0-3.51-6.39,13.92,13.92,0,0,0-8.37-2.27c-3.6,0-6.36.73-8.28,2.21a6.71,6.71,0,0,0-2.89,5.56A6,6,0,0,0,466,25.72a27.74,27.74,0,0,0,7.79,3L480,30.18a41,41,0,0,1,10.74,3.94,20.49,20.49,0,0,1,7.4,6.64,17.38,17.38,0,0,1,2.7,9.86,18.48,18.48,0,0,1-7.14,15.19q-7.12,5.66-19.85,5.65t-20.2-5.77q-7.53-5.77-7.81-17h14.23a9.9,9.9,0,0,0,4.12,7.86,16.18,16.18,0,0,0,9.49,2.63q5.61,0,8.95-2.38A7.33,7.33,0,0,0,486,50.58a6.12,6.12,0,0,0-3.08-5.43,30.63,30.63,0,0,0-8.73-3.26L466.63,40q-8.79-2.1-13.88-6.69t-5.06-12.25a18.15,18.15,0,0,1,3.38-11,22.37,22.37,0,0,1,9.38-7.37A33.47,33.47,0,0,1,474,0a32.18,32.18,0,0,1,13.53,2.65,21.31,21.31,0,0,1,9,7.37A19.5,19.5,0,0,1,499.9,21Z"></path>
  <path d="M510.69,70.48V1h46.85V13.07H525.39V29.64h29.74V41.76H525.39v16.6h32.29V70.48Z"></path>
  <path d="M607,21a8.57,8.57,0,0,0-3.52-6.39,13.86,13.86,0,0,0-8.36-2.27c-3.6,0-6.36.73-8.29,2.21a6.73,6.73,0,0,0-2.88,5.56,6,6,0,0,0,3.21,5.66,27.74,27.74,0,0,0,7.79,3l6.24,1.49a41.11,41.11,0,0,1,10.75,3.94,20.57,20.57,0,0,1,7.4,6.64,17.38,17.38,0,0,1,2.7,9.86,18.52,18.52,0,0,1-7.15,15.19q-7.11,5.66-19.84,5.65t-20.2-5.77q-7.53-5.77-7.81-17h14.23a9.9,9.9,0,0,0,4.12,7.86,16.18,16.18,0,0,0,9.49,2.63c3.73,0,6.72-.79,8.95-2.38a7.35,7.35,0,0,0,3.37-6.18,6.11,6.11,0,0,0-3.09-5.43,30.43,30.43,0,0,0-8.72-3.26L587.79,40Q579,37.89,573.9,33.3t-5-12.25a18.21,18.21,0,0,1,3.37-11,22.47,22.47,0,0,1,9.39-7.37A33.43,33.43,0,0,1,595.19,0a32.18,32.18,0,0,1,13.53,2.65,21.31,21.31,0,0,1,9,7.37A19.5,19.5,0,0,1,621.06,21Z"></path>
  <path d="M669.57,21a8.57,8.57,0,0,0-3.52-6.39,13.88,13.88,0,0,0-8.36-2.27c-3.6,0-6.36.73-8.29,2.21a6.73,6.73,0,0,0-2.88,5.56,6,6,0,0,0,3.21,5.66,27.74,27.74,0,0,0,7.79,3l6.24,1.49a41.11,41.11,0,0,1,10.75,3.94,20.57,20.57,0,0,1,7.4,6.64,17.38,17.38,0,0,1,2.7,9.86,18.46,18.46,0,0,1-7.15,15.19q-7.11,5.66-19.84,5.65t-20.2-5.77q-7.54-5.77-7.81-17h14.23A9.9,9.9,0,0,0,648,56.51a16.18,16.18,0,0,0,9.49,2.63c3.73,0,6.72-.79,8.95-2.38a7.35,7.35,0,0,0,3.37-6.18,6.11,6.11,0,0,0-3.09-5.43A30.43,30.43,0,0,0,658,41.89L650.39,40q-8.79-2.1-13.89-6.69t-5.06-12.25a18.29,18.29,0,0,1,3.38-11,22.47,22.47,0,0,1,9.39-7.37A33.43,33.43,0,0,1,657.79,0a32.18,32.18,0,0,1,13.53,2.65,21.31,21.31,0,0,1,9,7.37A19.5,19.5,0,0,1,683.66,21Z"></path>
  <path d="M208.45,56.14H154.84v11.6h53.61Z"></path>
  <path d="M208.45,3.85H154.84V15.44h53.61Z"></path>
  <path d="M281.63,3.85H268.7l-5.89,11.59L248.55,43.19,234.3,15.44,228.4,3.85H215.48l5.89,11.59,27.18,53.23,27.19-53.23Z"></path>
  <path d="M297,3.85,269.84,57.07l-6.08,11.6h13.12l5.89-11.6L297,29.31,311.1,57.07,317,68.67H330.1L324,57.07Z"></path>
  <path d="M208.45,30.45H154.84v11.6h53.61Z"></path>
  <path d="M103,15.87A3.49,3.49,0,0,0,97.51,13L69.69,32.9a3.49,3.49,0,0,0,0,5.68L97.51,58.45A3.49,3.49,0,0,0,103,55.61Z"></path>
  <path d="M51.34,3.76H7.9C3.54,3.76,0,7.85,0,12.89V58.58c0,5.05,3.53,9.14,7.89,9.14H51.34c4.36,0,7.9-4.09,7.9-9.14V12.89C59.24,7.85,55.7,3.76,51.34,3.76Z"></path>
</svg>
