<?xml version="1.0" encoding="UTF-8"?>
<svg xmlns="http://www.w3.org/2000/svg" xmlns:xlink="http://www.w3.org/1999/xlink" id="Layer_1" data-name="Layer 1" viewBox="0 0 589.76 76">
  <defs>
    <style>.cls-1{fill:none;}.cls-2{clip-path:url(#clip-path);}</style>
    <clipPath id="clip-path">
      <path class="cls-1" d="M388.06,32.1V44H355.3V32.1Zm13,41.84V2.11h28.34q12.24,0,19,6.39t6.76,17.08a23.28,23.28,0,0,1-3.28,12.59A20.16,20.16,0,0,1,442.46,46l15.26,27.92H441L427.34,48.48H416.26V73.94Zm15.19-37.67h10.31q12.94,0,12.94-10.69,0-11.05-13-11H416.26Zm49.63,37.67V2.11h48.4V14.63H481.07V31.75H511.8V44.27H481.07V61.42h33.36V73.94ZM589.76,27.26H574.4a14.13,14.13,0,0,0-5-9.31,16,16,0,0,0-10.42-3.39,16.46,16.46,0,0,0-13.38,6.12q-5,6.13-5,17.35,0,11.51,5.07,17.48a17.89,17.89,0,0,0,23.52,2.81,14,14,0,0,0,5.29-8.93l15.36.07a28.24,28.24,0,0,1-4.7,12.42,29.07,29.07,0,0,1-10.57,9.43,33,33,0,0,1-15.91,3.61,33.85,33.85,0,0,1-17.16-4.34A30.72,30.72,0,0,1,529.49,58q-4.37-8.23-4.37-19.95t4.42-20a31,31,0,0,1,12-12.58,33.69,33.69,0,0,1,17-4.33,35.47,35.47,0,0,1,15,3.07,27.53,27.53,0,0,1,10.94,8.91A29.34,29.34,0,0,1,589.76,27.26Z"></path>
    </clipPath>
  </defs>
  <path d="M54.09,64.05V11.41a11.59,11.59,0,0,0-23.18,0h0V64.05a11.59,11.59,0,0,0,23.18,0Z"></path>
  <path d="M21.15,35.72V10.4A10.58,10.58,0,1,0,0,9.75c0,.22,0,.43,0,.65V35.72a10.58,10.58,0,0,0,21.15.65C21.16,36.15,21.16,35.94,21.15,35.72Z"></path>
  <path d="M85,47.62V10.34A10.52,10.52,0,1,0,64,9a9.4,9.4,0,0,0,0,1.3V47.62a10.52,10.52,0,1,0,21,1.3A9.4,9.4,0,0,0,85,47.62Z"></path>
  <g class="cls-2">
    <rect x="340.27" y="-43.51" width="306.82" height="158.21"></rect>
  </g>
  <path d="M212.49,59.66H154.84V72.13h57.65Z"></path>
  <path d="M212.49,3.41H154.84V15.88h57.65Z"></path>
  <path d="M291.2,3.41H277.3L271,15.88,255.63,45.73,240.29,15.88,234,3.41H220.05l6.34,12.47,29.24,57.25,29.23-57.25Z"></path>
  <path d="M307.76,3.41,278.53,60.66,272,73.13h14.11l6.34-12.47L307.76,30.8,322.9,60.66l6.33,12.47h14.11L336.8,60.66Z"></path>
  <path d="M212.49,32H154.84V44.5h57.65Z"></path>
</svg>
