<?xml version="1.0" encoding="UTF-8"?>
<svg xmlns="http://www.w3.org/2000/svg" id="Layer_1" data-name="Layer 1" viewBox="0 0 688.78 66.54">
  <path d="M363,28.07v11H332.67v-11Z"></path>
  <path d="M375.09,66.85V.28h26.66q11,0,16.56,4.79a15.5,15.5,0,0,1,5.55,12.27,13.29,13.29,0,0,1-3.42,9.51,16.43,16.43,0,0,1-8.61,4.8v.65A15.07,15.07,0,0,1,419,34.44,15.35,15.35,0,0,1,424.38,40a16.53,16.53,0,0,1,2.08,8.48,17.32,17.32,0,0,1-2.62,9.46,17.68,17.68,0,0,1-7.72,6.56,29.63,29.63,0,0,1-12.58,2.38Zm14.08-38.71h10.44a11.27,11.27,0,0,0,7.18-2.26,7.46,7.46,0,0,0,2.86-6.2,7.35,7.35,0,0,0-2.55-5.82q-2.55-2.2-7.23-2.21h-10.7Zm0,27.21h11.48q5.91,0,8.59-2.28a7.49,7.49,0,0,0,2.68-6A8.68,8.68,0,0,0,409,40.29a11.59,11.59,0,0,0-8-2.63h-11.8Z"></path>
  <path d="M496.78,33.56q0,10.89-4.11,18.54A28.8,28.8,0,0,1,481.5,63.75a33.44,33.44,0,0,1-31.83,0,28.65,28.65,0,0,1-11.15-11.68q-4.09-7.66-4.1-18.49T438.52,15A28.63,28.63,0,0,1,449.67,3.38a33.51,33.51,0,0,1,31.83,0A28.8,28.8,0,0,1,492.67,15Q496.78,22.68,496.78,33.56Zm-14.27,0q0-10.59-4.62-16.17a16.34,16.34,0,0,0-24.58,0Q448.69,23,448.7,33.56t4.61,16.16a16.31,16.31,0,0,0,24.58,0Q482.5,44.13,482.51,33.56Z"></path>
  <path d="M515.53,66.85H500.45l23-66.57h18.14l22.95,66.57H549.44L544.5,51.67h-24Zm8.52-26.17H541l-8.19-25.19h-.52Z"></path>
  <path d="M572.52,66.85V.28h26.27q11.34,0,17.6,5.91T622.65,22a21.52,21.52,0,0,1-3,11.68A18.72,18.72,0,0,1,610.88,41L625,66.85H609.48l-12.61-23.6H586.6v23.6ZM586.6,31.94h9.56q12,0,12-9.92,0-10.23-12.06-10.24H586.6Z"></path>
  <path d="M656.2,66.85H632.6V.28h23.79a35.49,35.49,0,0,1,17.32,4,27,27,0,0,1,11.16,11.42q3.92,7.45,3.91,17.82t-3.92,17.88a27.19,27.19,0,0,1-11.22,11.48Q666.35,66.85,656.2,66.85Zm-9.52-12.06h8.93q9.4,0,14.26-5.07t4.86-16.22q0-11.08-4.86-16.13t-14.22-5h-9Z"></path>
  <path d="M209.14,53.78h-54.3V65.53h54.3Z"></path>
  <path d="M209.14.8h-54.3V12.55h54.3Z"></path>
  <path d="M283.28.8H270.19l-6,11.75L249.77,40.66,235.33,12.55,229.36.8H216.27l6,11.75,27.53,53.92,27.54-53.92Z"></path>
  <path d="M298.88.8,271.34,54.72l-6.16,11.75h13.29l6-11.75L298.88,26.6l14.25,28.12,6,11.75h13.29l-6.16-11.75Z"></path>
  <path d="M209.14,27.76h-54.3V39.5h54.3Z"></path>
  <path d="M39.67,28.62,49.25,18.1,34.79,2.22a5.63,5.63,0,0,0-8.47,0L2,28.92a7,7,0,0,0,0,9.29l24.32,26.7a5.63,5.63,0,0,0,8.47,0L49.52,48.73,39.67,37.91A7,7,0,0,1,39.67,28.62Z"></path>
  <path d="M96.77,28.62,72.45,1.92a5.62,5.62,0,0,0-8.46,0L49.25,18.1l9.86,10.82a7,7,0,0,1,0,9.29L49.52,48.73,64,64.61a5.61,5.61,0,0,0,8.46,0l24.32-26.7A7,7,0,0,0,96.77,28.62Z"></path>
</svg>
