<?xml version="1.0" encoding="UTF-8"?>
<svg xmlns="http://www.w3.org/2000/svg" width="29" height="28" viewBox="0 0 29 28" fill="none">
  <path d="M25.6757 10.5178L25.6261 11.0153L25.6757 10.5178ZM25.6757 17.4825L25.7254 17.9801L25.6757 17.4825ZM3.5 6.3335H25.8333V5.3335H3.5V6.3335ZM3.5 21.6668V6.3335H2.5V21.6668H3.5ZM25.8333 21.6668H3.5V22.6668H25.8333V21.6668ZM25.8333 18.0241V21.6668H26.8333V18.0241H25.8333ZM25.6261 16.985C25.5257 16.995 25.4238 17.0002 25.3205 17.0002V18.0002C25.457 18.0002 25.5921 17.9934 25.7254 17.9801L25.6261 16.985ZM25.3205 17.0002C23.6525 17.0002 22.3042 15.6548 22.3042 14.0002H21.3042C21.3042 16.2115 23.1046 18.0002 25.3205 18.0002V17.0002ZM22.3042 14.0002C22.3042 12.3455 23.6525 11.0002 25.3205 11.0002V10.0002C23.1046 10.0002 21.3042 11.7888 21.3042 14.0002H22.3042ZM25.3205 11.0002C25.4238 11.0002 25.5257 11.0053 25.6261 11.0153L25.7254 10.0203C25.5921 10.007 25.457 10.0002 25.3205 10.0002V11.0002ZM25.8333 6.3335V9.97623H26.8333V6.3335H25.8333ZM25.6261 11.0153C26.189 11.0715 26.8333 10.6679 26.8333 9.97623H25.8333C25.8333 9.97732 25.8335 9.97675 25.8331 9.97749C25.8322 9.97926 25.8283 9.98565 25.8181 9.99379C25.7951 10.0121 25.7597 10.0237 25.7254 10.0203L25.6261 11.0153ZM26.8333 18.0241C26.8333 17.3324 26.189 16.9288 25.6261 16.985L25.7254 17.9801C25.7597 17.9766 25.7951 17.9883 25.8181 18.0065C25.8283 18.0147 25.8322 18.0211 25.8331 18.0228C25.8335 18.0236 25.8333 18.023 25.8333 18.0241H26.8333ZM25.8333 22.6668C26.3856 22.6668 26.8333 22.2191 26.8333 21.6668H25.8333V21.6668V22.6668ZM2.5 21.6668C2.5 22.2191 2.94772 22.6668 3.5 22.6668V21.6668H3.5H2.5ZM25.8333 6.3335H25.8333H26.8333C26.8333 5.78121 26.3856 5.3335 25.8333 5.3335V6.3335ZM3.5 5.3335C2.94772 5.3335 2.5 5.78121 2.5 6.3335H3.5L3.5 6.3335V5.3335Z" fill="#242533"></path>
</svg>
