<?xml version="1.0" encoding="UTF-8"?>
<svg xmlns="http://www.w3.org/2000/svg" width="29" height="28" viewBox="0 0 29 28" fill="none">
  <path d="M22.0016 24.5636C22.2777 24.5636 22.5016 24.3397 22.5016 24.0636C22.5016 23.7875 22.2777 23.5636 22.0016 23.5636V24.5636ZM23.8349 14.1328C23.8349 14.4089 24.0588 14.6328 24.3349 14.6328C24.6111 14.6328 24.8349 14.4089 24.8349 14.1328H23.8349ZM13.1221 7.04958L13.5308 6.76145L13.1221 7.04958ZM4.61011 15.0127V6.41064H3.61011V15.0127H4.61011ZM6.11011 4.91064H10.2244V3.91064H6.11011V4.91064ZM11.4504 5.54626L12.7135 7.33771L13.5308 6.76145L12.2676 4.97001L11.4504 5.54626ZM14.7567 8.39707H22.3349V7.39707H14.7567V8.39707ZM22.0016 23.5636H13.7197V24.5636H22.0016V23.5636ZM3.61011 15.0127V22.0636H4.61011V15.0127H3.61011ZM6.11011 24.5636H13.7197V23.5636H6.11011V24.5636ZM23.8349 9.89707V14.1328H24.8349V9.89707H23.8349ZM22.3349 8.39707C23.1634 8.39707 23.8349 9.06864 23.8349 9.89707H24.8349C24.8349 8.51636 23.7156 7.39707 22.3349 7.39707V8.39707ZM12.7135 7.33771C13.1819 8.00196 13.9439 8.39707 14.7567 8.39707V7.39707C14.269 7.39707 13.8118 7.16 13.5308 6.76145L12.7135 7.33771ZM3.61011 22.0636C3.61011 23.4443 4.7294 24.5636 6.11011 24.5636V23.5636C5.28168 23.5636 4.61011 22.892 4.61011 22.0636H3.61011ZM10.2244 4.91064C10.7121 4.91064 11.1693 5.14771 11.4504 5.54626L12.2676 4.97001C11.7993 4.30575 11.0372 3.91064 10.2244 3.91064V4.91064ZM4.61011 6.41064C4.61011 5.58222 5.28168 4.91064 6.11011 4.91064V3.91064C4.7294 3.91064 3.61011 5.02993 3.61011 6.41064H4.61011Z" fill="#242533"></path>
  <path d="M8.1244 15.8554L5.77197 21.2664C5.19771 22.5873 6.16581 24.0638 7.60613 24.0638H22.5617C23.358 24.0638 24.0784 23.5914 24.3959 22.8612L26.7483 17.4502C27.3226 16.1294 26.3545 14.6528 24.9141 14.6528H9.95856C9.16229 14.6528 8.44188 15.1252 8.1244 15.8554Z" stroke="#242533" stroke-linecap="round" stroke-linejoin="round"></path>
</svg>
