<svg width="576" height="361" viewBox="0 0 576 361" fill="none" xmlns="http://www.w3.org/2000/svg">
<rect y="0.5" width="576" height="360" rx="6" fill="#F6F6F6"/>
<path d="M316.944 271C316.944 271 359.5 249.774 359.5 217.936V180.791L316.944 164.872L274.389 180.791V217.936C274.389 249.774 316.944 271 316.944 271Z" fill="#242533"/>
<path d="M274.398 146.038C306.362 146.038 332.278 133.491 332.278 118.019C332.278 102.547 306.371 90 274.398 90C242.426 90 216.5 102.547 216.5 118.019C216.5 133.491 242.426 146.038 274.398 146.038Z" stroke="#242533" stroke-linecap="round" stroke-linejoin="round"/>
<path d="M332.278 118.019V170.164M274.398 230.095C242.462 230.095 216.5 217.575 216.5 202.076V118.019M274.398 186.559C242.453 186.559 216.5 174.039 216.5 158.54" stroke="#242533" stroke-linecap="round" stroke-linejoin="round"/>
</svg>
