<svg width="108" height="14" viewBox="0 0 108 14" fill="none" xmlns="http://www.w3.org/2000/svg">
<path d="M16.0162 9.78009V0.0214844H13.5192V9.54612C13.5192 10.2438 13.6808 10.9031 13.9786 11.5029C14.3997 12.3793 15.1144 13.0982 15.995 13.5406C16.5948 13.8384 17.2541 14 17.9518 14H25.0389V11.5029L17.7136 11.4817C16.833 11.3583 16.1354 10.6607 16.0162 9.78009Z" fill="#242533"/>
<path d="M54.4002 0H51.6053L50.3291 2.49283L47.2748 8.48241L44.2204 2.49283L42.94 0H40.1451L41.4256 2.49283L47.2748 13.9743L53.124 2.49283L54.4002 0Z" fill="#242533"/>
<path d="M57.6972 0L51.8437 11.4772L50.5675 13.9743H53.3624L54.6386 11.4772L57.6972 5.48762L60.7515 11.4772L62.0277 13.9743H64.8226L63.5464 11.4772L57.6972 0Z" fill="#242533"/>
<path d="M62.0653 2.51431H67.7954V13.9958H70.2925V2.51431H76.0226V0.0214844H62.0653V2.51431Z" fill="#242533"/>
<path d="M89.5163 6.98502C89.5163 9.46083 87.4999 11.4772 85.0241 11.4772C82.5483 11.4772 80.5319 9.46083 80.5319 6.98502V0H78.0348V6.98927C78.0348 10.8434 81.17 13.9785 85.0241 13.9785C88.8782 13.9785 92.0133 10.8434 92.0133 6.98927V0H89.5163V6.98502Z" fill="#242533"/>
<path d="M107.226 3.8541V3.77327C107.226 1.69733 105.529 0 103.453 0H97.7824C95.7065 0 94.0304 1.69733 94.0304 3.77327V3.8541C94.0304 4.65384 94.2686 5.38978 94.6898 5.98959C94.8301 6.2108 94.9875 6.41073 95.1705 6.5894C95.8511 7.24876 96.7657 7.64864 97.7866 7.64864H102.819C103.878 7.64864 104.755 8.50794 104.755 9.56718C104.755 10.6264 103.878 11.4857 102.819 11.4857H98.446C97.3868 11.4857 96.5275 10.6264 96.5275 9.56718H94.0304C94.0304 12.0047 96.0085 13.9785 98.4418 13.9785H102.815C105.252 13.9785 107.226 12.0004 107.226 9.56718C107.226 8.50794 106.848 7.52953 106.227 6.77232C106.167 6.71276 106.129 6.65321 106.065 6.59365C105.265 5.71733 104.108 5.15581 102.811 5.15581H97.7781C97.0805 5.15581 96.5019 4.57727 96.5019 3.87962V3.79879C96.5019 3.10114 97.0805 2.5226 97.7781 2.5226H103.449C104.146 2.5226 104.725 3.10114 104.725 3.79879V3.87962L107.226 3.8541Z" fill="#242533"/>
<path d="M38.6264 11.478H27.0981V13.9751H38.6264V11.478Z" fill="#242533"/>
<path d="M38.6264 0H27.0981V2.49708H38.6264V0Z" fill="#242533"/>
<path d="M38.6264 5.73926H27.0981V8.23634H38.6264V5.73926Z" fill="#242533"/>
<path d="M11.5283 11.478H0V13.9751H11.5283V11.478Z" fill="#242533"/>
<path d="M11.5283 0H0V2.49708H11.5283V0Z" fill="#242533"/>
<path d="M11.5283 5.73926H0V8.23634H11.5283V5.73926Z" fill="#242533"/>
</svg>
