<?xml version="1.0" encoding="UTF-8"?>
<svg xmlns="http://www.w3.org/2000/svg" id="Layer_1" data-name="Layer 1" viewBox="0 0 48 49">
  <defs>
    <style>.cls-1{fill:#242533;}</style>
  </defs>
  <path class="cls-1" d="M3.15,40V32.32a3.3,3.3,0,0,1,1-2.37,3.22,3.22,0,0,1,2.39-1h6.64a3.14,3.14,0,0,1,1.5.37,3.61,3.61,0,0,1,1.17,1,9.93,9.93,0,0,0,12.73,3.14,10.47,10.47,0,0,0,3.65-3.14,3.39,3.39,0,0,1,1.08-1,3,3,0,0,1,1.5-.37h6.65a3.33,3.33,0,0,1,2.41,1,3.26,3.26,0,0,1,1,2.43V40H32.45V34.28a13.24,13.24,0,0,1-3.91,2.34,12.56,12.56,0,0,1-4.56.85,12.78,12.78,0,0,1-4.54-.82,12.55,12.55,0,0,1-3.89-2.37V40ZM24,31.43a6.68,6.68,0,0,1-3.05-.73,6,6,0,0,1-2.34-2.08,7.6,7.6,0,0,0-1.92-1.76,7.35,7.35,0,0,0-2.38-1,10.5,10.5,0,0,1,4.35-2A21.42,21.42,0,0,1,24,23.14a21.76,21.76,0,0,1,5.36.73,10.53,10.53,0,0,1,4.37,2,7.35,7.35,0,0,0-2.38,1,7,7,0,0,0-1.88,1.76,5.86,5.86,0,0,1-2.36,2.08A6.87,6.87,0,0,1,24,31.43ZM9,25.2a4.93,4.93,0,0,1-3.63-1.52A5,5,0,0,1,3.85,20a5,5,0,0,1,1.52-3.63A5,5,0,0,1,9,14.86a5,5,0,0,1,3.67,1.52A4.92,4.92,0,0,1,14.19,20a5,5,0,0,1-1.52,3.67A5,5,0,0,1,9,25.2Zm30,0a4.91,4.91,0,0,1-3.62-1.52A5,5,0,0,1,33.81,20,5.19,5.19,0,0,1,39,14.86a5,5,0,0,1,3.68,1.52A5,5,0,0,1,44.15,20,5.19,5.19,0,0,1,39,25.2ZM24,19.4a5,5,0,0,1-3.63-1.52,5,5,0,0,1-1.52-3.68A5.16,5.16,0,0,1,24,9.05a5,5,0,0,1,3.67,1.5,5,5,0,0,1,1.52,3.65A5.19,5.19,0,0,1,24,19.4Z"></path>
</svg>
