<?xml version="1.0" encoding="UTF-8"?>
<svg xmlns="http://www.w3.org/2000/svg" id="Layer_1" data-name="Layer 1" viewBox="0 0 48 49">
  <defs>
    <style>.cls-1{fill:#242533;}</style>
  </defs>
  <path class="cls-1" d="M24.46,25.24H11.38a3,3,0,0,0-3,3v2.57c.23,4.92,5.6,6.34,9.64,6.34a15.56,15.56,0,0,0,4.81-.72,9.65,9.65,0,0,1,1.59-11.16Zm.28-9.65a6.68,6.68,0,1,0-6.68,6.68A6.68,6.68,0,0,0,24.74,15.59Zm11.88,1.49a5.2,5.2,0,1,0-5.2,5.19A5.2,5.2,0,0,0,36.62,17.08Zm3,14.84a8.17,8.17,0,1,1-8.17-8.16A8.17,8.17,0,0,1,39.59,31.92ZM36.4,28.43a.74.74,0,0,0-1,0l-5.41,5.41L27.49,31.4a.74.74,0,1,0-1,1.05l3,3a.74.74,0,0,0,1.05,0l5.94-5.94A.74.74,0,0,0,36.4,28.43Z"></path>
</svg>
