<?xml version="1.0" encoding="UTF-8"?>
<svg xmlns="http://www.w3.org/2000/svg" id="Layer_1" data-name="Layer 1" viewBox="0 0 48 49">
  <defs>
    <style>.cls-1{fill:#242533;}</style>
  </defs>
  <path class="cls-1" d="M15.37,35.39a10.49,10.49,0,0,1-7.7-3.18A10.47,10.47,0,0,1,4.48,24.5a10.45,10.45,0,0,1,3.19-7.73,10.51,10.51,0,0,1,7.7-3.16H32.63A10.87,10.87,0,0,1,43.52,24.5,10.87,10.87,0,0,1,32.63,35.39Zm0-4.23a6.35,6.35,0,0,0,4.73-2A6.43,6.43,0,0,0,22,24.5a6.35,6.35,0,0,0-2-4.73,6.43,6.43,0,0,0-4.7-1.93,6.37,6.37,0,0,0-4.73,2,6.47,6.47,0,0,0-1.93,4.7,6.39,6.39,0,0,0,2,4.73A6.43,6.43,0,0,0,15.33,31.16Z"></path>
</svg>
