<?xml version="1.0" encoding="UTF-8"?>
<svg xmlns="http://www.w3.org/2000/svg" id="Layer_1" data-name="Layer 1" viewBox="0 0 48 49">
  <defs>
    <style>.cls-1{fill:#242533;}</style>
  </defs>
  <path class="cls-1" d="M33.93,43.81h-21s0,0,0,0a2.83,2.83,0,0,1-2.31-3.06V21.12a4.2,4.2,0,0,1,.07-.87A2.8,2.8,0,0,1,13.57,18H29.32c1.43,0,2.87,0,4.3,0a2.77,2.77,0,0,1,2.73,2.77q0,10.09,0,20.2a2.69,2.69,0,0,1-1.63,2.52A6,6,0,0,1,33.93,43.81ZM23.45,35.75H27a1.18,1.18,0,0,0,1.22-1A3.11,3.11,0,0,0,25.46,31a22.6,22.6,0,0,0-3.77,0,3.12,3.12,0,0,0-3.07,3.44A1.23,1.23,0,0,0,20,35.75Zm2.42-8.87a2.42,2.42,0,1,0-2.41,2.43A2.41,2.41,0,0,0,25.87,26.88Z"></path>
  <path class="cls-1" d="M10.62,7.55c0-.1.09-.2.12-.3a2.81,2.81,0,0,1,2.7-2h8.83A2.78,2.78,0,0,1,25.06,8c0,1.38,0,2.77,0,4.15a2.78,2.78,0,0,1-2.82,2.76H13.49a2.83,2.83,0,0,1-2.79-2.17c0-.08,0-.16-.08-.25Z"></path>
  <path class="cls-1" d="M31.8,5.19a4.06,4.06,0,0,1,3.7,5.62.42.42,0,0,0,.1.55c.47.43.92.9,1.37,1.35a1.22,1.22,0,1,1-1.7,1.72c-.46-.46-.93-.92-1.38-1.39a.39.39,0,0,0-.52-.1,4,4,0,1,1-2.5-7.61A7.46,7.46,0,0,1,31.8,5.19Zm-1.62,4a1.62,1.62,0,1,0,1.63-1.59A1.62,1.62,0,0,0,30.18,9.22Z"></path>
</svg>
