<?xml version="1.0" encoding="UTF-8"?>
<svg xmlns="http://www.w3.org/2000/svg" id="Layer_1" data-name="Layer 1" viewBox="0 0 96.75 102.71">
  <defs>
    <style>.cls-1{fill:#514f73;}.cls-2{fill:#423e5b;}.cls-3{fill:#3b3752;}.cls-4{fill:#c36dab;}.cls-5{fill:#3f3b59;}.cls-6{fill:#3f3956;}.cls-7{fill:#454161;}.cls-8{fill:#494567;}.cls-9{fill:#474365;}.cls-10{fill:#413e5e;}.cls-11{fill:#4a466a;}.cls-12{fill:#504b6f;}.cls-13{fill:#433e5c;}.cls-14{fill:#fff;}.cls-15{fill:#43405d;}.cls-16{fill:#423d5a;}.cls-17{fill:#4b496c;}.cls-18{fill:#3a3854;}.cls-19{fill:#494568;}.cls-20{fill:#454265;}.cls-21{fill:#f7fafd;}.cls-22{fill:#f7fafb;}.cls-23{fill:#e2e2e7;}.cls-24{fill:#545074;}.cls-25{fill:#e6e4e6;}.cls-26{fill:#e7e6e9;}.cls-27{fill:#ececee;}.cls-28{fill:#d4d3db;}.cls-29{fill:#e0e0e5;}.cls-30{fill:#e8e7ea;}.cls-31{fill:#e3e3e8;}.cls-32{fill:#dfdfe4;}.cls-33{fill:#dfdee4;}.cls-34{fill:#f2f2f4;}.cls-35{fill:#f4f4f8;}.cls-36{fill:#ebecec;}.cls-37{fill:#525074;}.cls-38{fill:#eeeef0;}.cls-39{fill:#dad9e1;}.cls-40{fill:#d2d1db;}.cls-41{fill:#d2d2db;}.cls-42{fill:#f1f2f3;}.cls-43{fill:#302e45;}.cls-44{fill:#3e3854;}.cls-45{fill:#4587c7;}.cls-46{fill:#45405e;}.cls-47{fill:#e6e6ea;}.cls-48{fill:#4b4665;}.cls-49{fill:#e7e6e8;}.cls-50{fill:#e3e3e7;}.cls-51{fill:#434061;}.cls-52{fill:#454162;}.cls-53{fill:#4f4b70;}.cls-54{fill:#4e4b6e;}.cls-55{fill:#504e72;}.cls-56{fill:#5e5c7e;}.cls-57{fill:#585679;}.cls-58{fill:#e7e7e9;}.cls-59{fill:#d3d3dc;}.cls-60{fill:#e9e9eb;}.cls-61{fill:#474262;}.cls-62{fill:#575579;}.cls-63{fill:#545276;}.cls-64{fill:#e7e9ed;}.cls-65{fill:#f3f3f5;}.cls-66{fill:#e7e9ef;}.cls-67{fill:#f4f7f9;}.cls-68{fill:#e6e9ec;}.cls-69{fill:#e5e9f0;}.cls-70{fill:#e5e4e7;}.cls-71{fill:#e4e5ea;}.cls-72{fill:#d1d1d9;}.cls-73{fill:#dedee3;}.cls-74{fill:#e5e5e8;}.cls-75{fill:#dcdde5;}.cls-76{fill:#eae7eb;}.cls-77{fill:#504e71;}.cls-78{fill:#fcfdff;}.cls-79{fill:#3d3a57;}.cls-80{fill:#4e4b6f;}</style>
  </defs>
  <path class="cls-1" d="M86.71,31.1v.08c-.28.22-.62.08-.93.11h-.65a1.25,1.25,0,0,0-1.28.53c-.15.22-.48.28-.49.63,0,.15-.18.22-.31.28a6.12,6.12,0,0,0-1.32,1c-1.12,1-2.21,2.07-3.34,3.1-.64.59-1.26,1.21-1.91,1.8-.2.18-.08.42-.23.59a2.19,2.19,0,0,0-1.31.41c-.13.11-.24,0-.34-.16v1.2c0-.12,0-.36.24-.26a5.12,5.12,0,0,1,.07,1.41c0,.5-.09.54-.58.31-.19-.47,0-1-.14-1.41-.19.1-.29.47-.65.43-.1-.15,0-.31,0-.46a1.33,1.33,0,0,0-1.23-1.42h0a1.38,1.38,0,0,0-1.62,1.09h0v.07a1.32,1.32,0,0,0,1,1.49l.37.1c.4.2.43.26.13.54-1,1-2.08,2-3.18,3-.23.21-.24.34,0,.52l.73.62a7.64,7.64,0,0,1,.87.73c.32.27.61.55.94.79a12.51,12.51,0,0,1,1,.93c.32.3.79.68,1.19,1l1.5,1.29a6,6,0,0,1,.55.45L79,54.53c.13.11.24.21.37.3.65.62,1.38,1.14,2.08,1.74s1.25,1,1.85,1.58A19.64,19.64,0,0,0,85,59.6c.12.1.4.24.07.44a7.46,7.46,0,0,1-1.82.19l-4.34.3-4.21.31c-.72,0-1.45.15-2.17.13-.28-.18-.09-.4,0-.57.6-1.61,1.21-3.21,1.79-4.83.06-.17.32-.39,0-.55a.74.74,0,0,0-.88.26c-.15.37-.27.77-.39,1.15l-.61,1.9c0,.14-.1.34-.28.34s-.23-.2-.28-.34c-.37-1-.73-1.91-1-2.86A.87.87,0,0,0,69.77,55h0c-.24.11-.08.28,0,.4.42,1,.81,2,1.23,2.93.18.4.35.78.5,1.17A1.1,1.1,0,0,1,71,61h0a1.2,1.2,0,0,1-.56.11c-.24,0-.28.12-.29.32s.1.48-.15.63c-.18-.09-.17-.27-.17-.42,0-.35-.16-.45-.47-.43s-.46,0-.69,0a.72.72,0,0,1-.5,0c-.16-.16,0-.3.06-.42a3.1,3.1,0,0,0,.3-1.4V55.51c0-.53-.27-.71-.78-.55-.21.06-.18.23-.21.38s0,.29-.14.34-.24-.08-.33-.16a2.26,2.26,0,0,0-2.84-.23,2.43,2.43,0,0,0-1,2.48,2.1,2.1,0,0,0,1.38,1.86,2.18,2.18,0,0,0,2.16-.24c.08,0,.15-.13.23-.18.26-.17.36-.13.4.18a1.53,1.53,0,0,1-1.25,1.74h0a2.53,2.53,0,0,1-1.84-.37c-.2-.14-.37-.26-.61,0a.38.38,0,0,0-.1.53h0l.1.1a.1.1,0,0,1,0,.14h0a4.8,4.8,0,0,1-1.25.14c-1,.06-1.93.16-2.9.19-.36,0-.49.14-.48.5a2.43,2.43,0,0,1,0,.85,1,1,0,0,1-.8.11c-.21,0-.28-.18-.3-.37s0-.44,0-.66c0-.46-.06-.5-.54-.51h-.21c-.25,0-.39.11-.39.36v.57c0,.33,0,.61-.45.65-.21,0-.23.2-.24.36s0,.38.25.41c.41,0,.44.34.44.67V67a1,1,0,0,0,.73,1.21.93.93,0,0,0,.44,0,2.78,2.78,0,0,0,.86-.11.9.9,0,0,1,.56-.06c.21.15.19.38.21.58.09,1.13.21,2.25.28,3.38a1.51,1.51,0,0,0,.07.37.39.39,0,0,1,0,.26,1.69,1.69,0,0,0,0,1.41,4.66,4.66,0,0,1,0,1.18,1.33,1.33,0,0,1-.17.43c-.24.43-.24.43.17.67.15.08.34.14.26.38a4.06,4.06,0,0,0,0,1.39c.19,2.23.37,4.47.57,6.7a2.28,2.28,0,0,1,0,1.16,14,14,0,0,1-2.79.68,1.42,1.42,0,0,1-.28-.58q-1.8-4.45-3.57-8.86c-.08-.21-.29-.43-.09-.69a.87.87,0,0,1,.55.09,2.35,2.35,0,0,0,2.22-.46c.35-.3.36-.29.59.12a.49.49,0,0,0,.21.26.69.69,0,0,0,.75.09.61.61,0,0,0,.1-.8,2.78,2.78,0,0,1-.2-1.37v-4c0-.18.08-.45-.18-.53a1.4,1.4,0,0,0-.86,0c-.15.08-.11.26-.11.41V71.9a2.67,2.67,0,0,1,0,.4c0,.21-.13.33-.35.13l-.09-.08a2.19,2.19,0,0,0-3.1.06h0a2.29,2.29,0,0,0-.45.69c-.07.14-.09.31-.24.41a.2.2,0,0,1-.23-.14,1,1,0,0,0-.55-.48c0-.21.28-.2.33-.41.09-.42,0-.63-.47-.77-.43-1-.84-2.08-1.27-3.11a.38.38,0,0,1,0-.41.65.65,0,0,1,.39,0,2.43,2.43,0,0,0,2.17-.48c.36-.3.37-.29.59.1A1.14,1.14,0,0,0,54,68a.85.85,0,0,0,1,.21.77.77,0,0,0,0-.89,1.53,1.53,0,0,1-.25-1V65.08a1.66,1.66,0,0,0-1.29-1.66,4.08,4.08,0,0,0-2.73.23c-.24.09-.35.24-.23.5s.29.24.5.13a2.81,2.81,0,0,1,1.61-.3,1,1,0,0,1,1,.94c0,.38-.1.51-.48.46a3.78,3.78,0,0,0-1.42-.06,2.07,2.07,0,0,0-1.59,1,.23.23,0,0,1-.17.13c-.29-.64-.53-1.29-.76-1.94a2,2,0,0,1,.25-.82c.1-.25.06-.38-.24-.38a.73.73,0,0,1-.5-.09,1.28,1.28,0,0,1-.21-.38c-.66-1.7-1.38-3.37-2.07-5.08-.09-.5,0-1-.1-1.52a1.37,1.37,0,0,0-1.14-1.33.24.24,0,0,1-.18-.13.64.64,0,0,0,0-.57,9,9,0,0,1-.39-1c-.11-.36-.29-.38-.59-.26s-.86.29-1.28.43c-.17,0-.34.14-.51,0s0-.27.13-.37a4.92,4.92,0,0,1,.66-.63.82.82,0,0,0,.34-1,.29.29,0,0,1,0-.13,8.31,8.31,0,0,1-.15-1c0-.18,0-.37-.09-.53v-.14c-.07-.42-.15-.84-.19-1.26s-.17-1-.26-1.62a6.74,6.74,0,0,0-.17-1,.88.88,0,0,0-.13-1.18c-.13-.72-.23-1.43-.37-2.07a2.17,2.17,0,0,1-.65.63c-.11.06-.23.15-.35,0a1.65,1.65,0,0,1,0-1.16c.18-.09.36,0,.55,0a1.47,1.47,0,0,0,1.73-1.15,1.44,1.44,0,0,0-.07-.82,1.34,1.34,0,0,0-1-.86c-.25-.07-.53,0-.76-.18s-.07-.37-.14-.54c-.16-.6-.13-1.23-.28-1.83q-.49-3.4-1-6.81a1.91,1.91,0,0,1-.1-.71,36.62,36.62,0,0,0,5.5-2.46l.46-.25c2.22,1.9,4.44,3.79,6.7,5.66l.25.23c.46.38.9.8,1.37,1.15s.76.67,1.15,1c.62.58,1.3,1.08,1.94,1.64l1.22,1c.3.23.56.5.87.71a11.46,11.46,0,0,1,1.13,1,2,2,0,0,0,.62.42c.39.69.68,1.44,1,2.13a.57.57,0,0,0,.13.27c.05.08.1.27.25.28s.21-.14.27-.26c.2-.38.4-.76.58-1.16s.27-.64.44-1c.06-.11.09-.21-.08-.27s-.09-.14,0-.24c.28-.32.7-.51.89-.93,0-.09.16,0,.22,0s.06.19.2.17-.12-.15-.16-.22c.1-.4.45-.59.73-.82a8.08,8.08,0,0,0,1.35-1.39,1,1,0,0,1,.25-.29,13.59,13.59,0,0,0,2.41-2.07A11.41,11.41,0,0,1,71,32.06c.3-.22.52-.45.84-.72a7.39,7.39,0,0,0-1.33,0h-1.8a.82.82,0,0,1-.59-.11.11.11,0,0,1,0-.15,1,1,0,0,1,.59-.1H86A.89.89,0,0,1,86.71,31.1Z"></path>
  <path class="cls-2" d="M49.16,64.53a5.87,5.87,0,0,1,.7,1.94.31.31,0,0,1,.09.26A1.49,1.49,0,0,0,50.58,68c.07.06.17.12.13.25.18.73.56,1.38.79,2.07.15.45.49.86.44,1.37a8.43,8.43,0,0,1-1.15.92c-.25.2-.26-.16-.27-.32a.44.44,0,0,0-.42-.46h0c-.58,0-.64,0-.64.63V76c0,.58,0,.61.57.61s.56,0,.57-.63,0-1.33,0-2A1.28,1.28,0,0,1,52,72.85h.09c.51-.11.56.32.72.63a.39.39,0,0,1,.07.36,2.5,2.5,0,0,0,1,2.35c.11.09.25.17.24.34.37,1.14.87,2.24,1.32,3.36l2.5,6.21a3.43,3.43,0,0,1,.11.46,16,16,0,0,1-2.57.51c-.39.06-.77.07-1.16.11a2.12,2.12,0,0,1-1-.1c-3.32-1.15-6.64-2.34-10-3.52-2.85-1-5.68-2.08-8.5-3-3.69-1.29-7.27-2.56-10.82-4-3.38-1.29-6.77-2.58-10.1-4A40.58,40.58,0,0,1,10,70.77a3.18,3.18,0,0,1-.81-.65,26.49,26.49,0,0,1-2.32-3.77c-.13-.26-.24-.52-.36-.78s0-.3.15-.38a2,2,0,0,1,.41-.14L23.4,59.61a2.55,2.55,0,0,1,.54-.15,1.72,1.72,0,0,1,.54.18,3.11,3.11,0,0,0,3.11-.33c.52-.37.52-.47,0-.78-.07-.08-.13-.19,0-.26A3.9,3.9,0,0,1,29,57.85a.12.12,0,0,1,.14.09,1.17,1.17,0,0,1,.2.34c.62,1.7,3.11,2.08,4.43,1A1,1,0,0,0,34,59a.2.2,0,0,0,0-.28l-.05,0c-.43-.11-.82-.32-1.26.07a1.48,1.48,0,0,1-1.64,0,1.3,1.3,0,0,1-.58-1.34,4.21,4.21,0,0,1,1.18-.54c.15-.07.33-.11.52-.19a6.16,6.16,0,0,0-.55-.33c-.15-.1-.35-.18-.27-.43a1.08,1.08,0,0,1,1.24.06c.22.11.4.27.63.36.12.36-.28.23-.38.4a19.93,19.93,0,0,0,1.88,1c.21.11.46.19.55.45a7.11,7.11,0,0,1,0,1.13c0,.25.12.35.36.38.71,0,.77,0,.78-.73V57.41a.72.72,0,0,1,.16-.49c.11-.08.16,0,.17.1a3,3,0,0,1,0,1.2,19.51,19.51,0,0,1,1.59-1.56c.13-.12.23-.31.46-.25a1.22,1.22,0,0,1,.21.83v2.07c0,.45.06.5.61.5s.52,0,.52-.48V56.8a3.41,3.41,0,0,0-.31-1.33c-.06-.21.11-.28.22-.4a8.12,8.12,0,0,0,1.32-1.3.54.54,0,0,1,.3-.19,1.08,1.08,0,0,1,.53-.11,14.55,14.55,0,0,0,1.94-.61c.25-.09.39-.1.48.2.17.48.37.95.57,1.41.12.26,0,.3-.21.32a.78.78,0,0,1-.49.16,3,3,0,0,0-1.41.57c-.31.24-.38.21-.49-.19S42.08,55,41.8,55s-.31.24-.31.47v3.88c0,.4.07.45.56.45s.56,0,.57-.45v-2A1.6,1.6,0,0,1,44,55.88a.89.89,0,0,1,1,.59,2.31,2.31,0,0,1,.13.86v2c0,.5,0,.54.56.54s.57,0,.57-.52v-1a.63.63,0,0,1,.13-.49,20,20,0,0,1,1,2.27c.41.95.8,1.92,1.18,2.89a1.13,1.13,0,0,1,0,.26,1.6,1.6,0,0,0-.38.67c-.31.9-.65,1.8-.94,2.72a1.19,1.19,0,0,1-.08.2.28.28,0,0,1-.26.27c-.15,0-.19-.16-.25-.27-.24-.67-.48-1.34-.7-2.07-.11-.34-.23-.7-.35-1a.94.94,0,0,0-1-.39c-.18.11,0,.26,0,.38.34.86.69,1.73,1,2.6.18.48.39.94.57,1.42a.55.55,0,0,0,.59.4c.9,0,.9,0,1.23-.8s.63-1.6,1-2.4C48.91,64.81,48.94,64.59,49.16,64.53Z"></path>
  <path class="cls-2" d="M58.83,63.22A2.12,2.12,0,0,1,58.77,62c.17-.53.69-.2,1-.24,1.24-.15,2.49-.24,3.74-.27a.37.37,0,0,1,.29,0,3.61,3.61,0,0,0,4-.29.32.32,0,0,1,.28-.09c.49,0,1-.11,1.45-.09s.41.09.4.39-.08.4.07.58a1.56,1.56,0,0,1,.68,0,1.8,1.8,0,0,0,1.58-.81c.08-.11.13-.26.29-.3a3.7,3.7,0,0,1,1.24-.15c1-.12,2.07-.13,3.11-.2l4.1-.36a8.54,8.54,0,0,0,1.34-.07l2.81-.2a.61.61,0,0,1,.61-.1c.16,0,.26.12.19.31a38.94,38.94,0,0,1-2.07,5.55,40.56,40.56,0,0,1-5.68,9A34.57,34.57,0,0,1,69,82.45a38.16,38.16,0,0,1-7.7,3.36,3.39,3.39,0,0,0-.55.13c-.13-1-.19-2.07-.27-3.11s-.23-2.35-.33-3.52C60.09,78.5,60,77.7,60,76.9c0-.15,0-.35.19-.38a1.83,1.83,0,0,1,.66,0,3.56,3.56,0,0,0,2.07-.1,1.34,1.34,0,0,0,.9-1,1,1,0,0,0-.5-1,5.2,5.2,0,0,0-1.43-.51,5.83,5.83,0,0,1-.71-.22.56.56,0,0,1-.43-.62.6.6,0,0,1,.54-.54,2.1,2.1,0,0,1,1.51.27.38.38,0,0,0,.54,0h0v-.08a.31.31,0,0,0,0-.44.41.41,0,0,0-.11-.07,3,3,0,0,0-3.29.2c-.08.07-.14.18-.28.15a.57.57,0,0,1-.17-.46c-.1-1.21-.18-2.43-.27-3.65a2.25,2.25,0,0,0-.08-.24,3.72,3.72,0,0,0-.14-1,21.42,21.42,0,0,1-.24-2.77A2.3,2.3,0,0,0,58.83,63.22Z"></path>
  <path class="cls-1" d="M29.05,58a2.84,2.84,0,0,0-1.5.43v.08a3.52,3.52,0,0,0-.78.24c-.45.06-.85.28-1.28.37a1.33,1.33,0,0,1-1.15-.87c-.18-.36-.07-.53.33-.54H28c.45,0,.5-.06.49-.52A2.39,2.39,0,0,0,26.68,55a2.87,2.87,0,0,0-2.86.59A2.42,2.42,0,0,0,23.7,59l.12.11c.11.12.27.19.27.39L11.76,63.62,6.89,65.2c-.16.06-.4.06-.36.34A31,31,0,0,1,4,58.41a35.75,35.75,0,0,1-.67-9.57,39.48,39.48,0,0,1,1.44-8.49,10.9,10.9,0,0,1,1.92-4,9.74,9.74,0,0,1,5.18-3.41c.06.27-.18.35-.3.47-.74.71-1.48,1.4-2.23,2.08-1.14,1-2.22,2.16-3.41,3.16-.31.25-.32.4,0,.8.26.24.44.55.69.79s.38.29.54.45a10,10,0,0,0,.94.78c.3.29.67.48,1,.77a4.46,4.46,0,0,0,.63.44c1,.77,2.14,1.52,3.24,2.23a1.2,1.2,0,0,0,.51.24,12.89,12.89,0,0,0,1.26,1.3,7.35,7.35,0,0,0,2.89,1.44A.94.94,0,0,1,18,48a3.52,3.52,0,0,0,1,.65c1.81,1.12,3.65,2.22,5.49,3.28l1.24.75.25.14a3,3,0,0,1,.46.26l.29.18c.25.16.53.26.76.43a.45.45,0,0,0,.63-.1h0l3-2.84,3-2.78c.74-.68,1.47-1.36,2.19-2.07a1.73,1.73,0,0,1,.35-.31.28.28,0,0,1,.18,0,.92.92,0,0,1,.23.09c.22.12.18.28,0,.43l-1.8,1.77-.46.4c-1.12,1.15-2.34,2.21-3.51,3.31-.78.77-1.61,1.5-2.4,2.26-.4.4-.39.43.11.69a8.26,8.26,0,0,1,.92.51c.08.07.18.11.21.22a.37.37,0,0,1-.16.3,2.48,2.48,0,0,0-.75,2.14.24.24,0,0,1-.18.29Z"></path>
  <path class="cls-1" d="M9.21,70.12a30.94,30.94,0,0,0,5.7,2.77c2.76,1.13,5.52,2.21,8.29,3.28,2.14.83,4.3,1.63,6.47,2.42l10.17,3.72c2.32.84,4.65,1.65,7,2.47l6.72,2.38a5.4,5.4,0,0,0,.69.08,38.29,38.29,0,0,1-4,.33,54,54,0,0,1-14.68-1.2,49.31,49.31,0,0,1-14.86-5.72,37.5,37.5,0,0,1-6.69-5A31.67,31.67,0,0,1,9.21,70.12Z"></path>
  <path class="cls-3" d="M52.72,32.32l-4.14-3.53-2.49-2.07a.49.49,0,0,1-.23-.36,50.46,50.46,0,0,0,8.3-6.31,24.4,24.4,0,0,1,9.65-5.55,15.9,15.9,0,0,1,7.06-.43c.33.06.62.29,1,.26.13.21,0,.33-.16.43-1,1-2.07,2-3.11,2.91-.55.5-1.09,1-1.61,1.53-1.21,1.11-2.41,2.21-3.59,3.33-1.81,1.72-3.64,3.42-5.47,5.13-1.32,1.24-2.66,2.46-4,3.72-.29.28-.63.52-.92.81A.27.27,0,0,1,52.72,32.32Z"></path>
  <path class="cls-4" d="M86.71,31.1H68.1c-.23-.29-.11-.64-.13-1V23.29c0-1,.08-1.1,1.19-1H82a3.05,3.05,0,0,1,.6.06.74.74,0,0,0,.61.16H93.83c.46,0,.55.12.54.55v7.66c0,.36-.09.47-.46.47C91.47,31.09,89.07,31.1,86.71,31.1Z"></path>
  <path class="cls-3" d="M39.86,29.07c.19.17.1.43.2.63a3.4,3.4,0,0,1-1,1,17.07,17.07,0,0,0-1.71,1.6l-3.56,3.33c-1.11,1-2.17,2.08-3.32,3.11a1,1,0,0,0-.35.49c-.2.2-.42.39-.64.57a1.09,1.09,0,0,0-.52.37,16.63,16.63,0,0,1-1.34,1.18c-.11.08-.22.26-.39.09a4.69,4.69,0,0,1-.07-1.12,6.7,6.7,0,0,0-1-3.4,2.91,2.91,0,0,0-3.88-1.37,3,3,0,0,0-.88.65,9.73,9.73,0,0,1-2.07,1.53,7.6,7.6,0,0,1-2.65.66c-.82.08-1.65,0-2.47.13-.27-.08-.18-.21,0-.34.41-.36.78-.78,1.18-1.15,1.34-1.21,2.63-2.44,3.95-3.67.54-.51,1-1,1.64-1.55,1.55-.09,3.11-.15,4.62-.27,1.75-.13,3.5-.3,5.25-.45a2.12,2.12,0,0,0,.44-.05H32l2.2-.49.44-.08h.14a5.71,5.71,0,0,0,.82-.18l2.07-.52a.35.35,0,0,0,.26-.07.65.65,0,0,1,.36-.1.4.4,0,0,0,.26-.08Z"></path>
  <path class="cls-5" d="M69.14,22.35h-.08c-.92,0-.92,0-1,1-.25-.4-.51-.16-.7,0-.58.59-1.18,1.16-1.79,1.72-1.23,1.12-2.42,2.3-3.67,3.39-.61.53-1.17,1.12-1.76,1.68-1.12,1-2.23,2.13-3.38,3.11-.36.31-.67.68-1,1-.15.12-.28.27-.5.13a4.3,4.3,0,0,1-1.13-1c0-.42.39-.59.66-.81a17.76,17.76,0,0,0,1.75-1.64l3.53-3.29,5.34-5,4.14-3.84c1.3-1.21,2.59-2.41,3.88-3.63a1.45,1.45,0,0,1,.36-.25,4.35,4.35,0,0,1,1.52.76,1.66,1.66,0,0,0,.31.12c.17.17.17.3,0,.48-1.37,1.31-2.77,2.6-4.14,3.9C70.66,20.93,69.89,21.62,69.14,22.35Z"></path>
  <path class="cls-6" d="M73.77,15c-.86.91-1.76,1.79-2.7,2.61-.5.44-1,.92-1.46,1.38-1.26,1-2.42,2.22-3.61,3.34s-2.71,2.53-4.06,3.81S59.26,28.6,58,29.84s-2.4,2.22-3.57,3.26c-.11.1-.2.23-.31.35a9.49,9.49,0,0,1-1.4-1.13c.35-.3.68-.62,1-.95,1.18-1.12,2.35-2.25,3.54-3.36l4.14-3.93,3.94-3.68,4.3-3.88c.61-.62,1.25-1.21,1.91-1.77a.46.46,0,0,0,.26-.38,5.57,5.57,0,0,1,1.48.48Z"></path>
  <path class="cls-7" d="M73.85,50.12a10.64,10.64,0,0,1-1.22-1,.34.34,0,0,1,.16-.32,3,3,0,0,0,1-1c.08-.18.21,0,.31-.13.37-.34.69-.74,1-1a12.39,12.39,0,0,1,1.37-1.34,5.77,5.77,0,0,0,.68-.63c.55-.62,1.33-1,1.88-1.58s1-.93,1.48-1.5a2,2,0,0,1,.56-.57c.28-.21.55-.43.8-.66a5,5,0,0,0,.48-.44c.81-.82,1.7-1.55,2.53-2.35a23.08,23.08,0,0,0,1.88-1.82c.19-.23.52-.32.64-.64,0-.11.18,0,.25.06a28.52,28.52,0,0,1,.69,5.12.2.2,0,0,1,0,.21.11.11,0,0,1-.13,0,2.28,2.28,0,0,1-.1-.86c-.09-.87-.2-1.74-.3-2.56a5,5,0,0,1-.72.8L87,38a.33.33,0,0,0-.1.31c0,.1,0,.22-.12.21-.49,0-.56.37-.72.67s-.27.24-.46.13h-.08a1.62,1.62,0,0,0-.39.67c0,.21-.15.44-.45.27h0a.31.31,0,0,1-.23.38h-.08A.36.36,0,0,0,84,41h0a1.25,1.25,0,0,1-.57.69.17.17,0,0,1-.23,0h0v.08a.36.36,0,0,1-.1.28c-.25.27-.39.66-.84.67-.12,0-.06.16-.12.19s-.24.68-.68.28c-.08-.06-.27.16-.35.27-.19.33-.64.47-.64.93,0,.06,0,.13-.1.13-.56.11-.67.64-1,1a1.36,1.36,0,0,1-.69.43c-.08,0,0,.07,0,.09,0,.36-.21.51-.57.51a.44.44,0,0,0-.47.4c0,.12,0,.21-.14.25a1,1,0,0,0-.79.78c-.07.26-.31.12-.43.29a2.23,2.23,0,0,1-.63.76c-.31.17-.27.51-.61.26,0,.13-.14.23-.13.36s0,.4-.34.32S74.13,50.12,73.85,50.12Z"></path>
  <path class="cls-8" d="M71.58,48.21a4.25,4.25,0,0,1-1-.79c-.13-.22,0-.32.17-.44l3.77-3.53c.6-.61,1.22-1.19,1.88-1.74.14-.09.27-.26.45-.06s0,.12.09.15.11-.07.11-.13a3.07,3.07,0,0,1,.07-.6,20.9,20.9,0,0,1,1.65-1.61c.59-.51,1.15-1,1.72-1.59,1.18-1.12,2.39-2.22,3.56-3.35.81-.78,1.66-1.53,2.48-2.31.09-.09.18-.2.33-.15a9.59,9.59,0,0,1,.46,1.75.44.44,0,0,0-.45.17c-2,1.87-4,3.7-5.92,5.57L77.08,43.2l-2.82,2.66c-.77.71-1.57,1.4-2.31,2.14C71.87,48.1,71.78,48.26,71.58,48.21Z"></path>
  <path class="cls-9" d="M71.58,48.21l2.15-2,3.11-2.87,2.29-2.2,3.11-2.87c.79-.73,1.53-1.5,2.33-2.22s1.71-1.54,2.53-2.36c.22-.23.18.13.29.12a6.37,6.37,0,0,1,.26,1.3c-.34-.13-.31.25-.45.38-.73.62-1.41,1.32-2.13,2-.55.49-1,1-1.62,1.51s-.86.93-1.34,1.3a5.92,5.92,0,0,1-.82.68,1,1,0,0,0-.58.77l-.11-.27a.78.78,0,0,1-.19.41A22.75,22.75,0,0,1,78.2,44a22.39,22.39,0,0,0-2.53,2.24,1.28,1.28,0,0,0-.37.46c-.08.18,0-.12-.09-.07s-.07.19-.14.26c-.35.38-.71.75-1.09,1.11-.07.06,0-.15-.09-.17A3.09,3.09,0,0,1,72.8,49a.79.79,0,0,0-.19.22A6.83,6.83,0,0,1,71.58,48.21Z"></path>
  <path class="cls-10" d="M69.14,22.35a2.39,2.39,0,0,1,.89-1c.59-.48,1.1-1,1.66-1.53C73,18.66,74.26,17.4,75.6,16.2c.16-.14,0-.25,0-.37a14.32,14.32,0,0,1,3,2.07c-.08.42-.46.58-.71.84s-.22.12-.3.33-.07.19-.19.23a.83.83,0,0,0-.54.55c-.08.22-.29.17-.42.28a15.39,15.39,0,0,1-1.19,1c-.17.14-.4.21-.26.5v.11c-.43,0-.35.46-.63.56Z"></path>
  <path class="cls-5" d="M9,42.27c-.3-.29-.74-.41-1-.79,0-.26.19-.38.33-.51l4.35-4.08c1-1,2.15-2,3.2-3,.59-.57,1.19-1.14,1.83-1.67a1.3,1.3,0,0,1,.5-.21,9.32,9.32,0,0,1,1.67-.12c.12.18,0,.26-.13.36-1.68,1.59-3.38,3.17-5.08,4.76-1.34,1.27-2.69,2.56-4.07,3.8A13,13,0,0,1,9,42.27Z"></path>
  <path class="cls-7" d="M18.22,32a17.86,17.86,0,0,0-1.5,1.26c-.67.6-1.29,1.24-2,1.84s-1,1-1.63,1.51c-.81.78-1.62,1.57-2.48,2.31-.48.41-.9.9-1.36,1.32A8.14,8.14,0,0,0,8,41.48a3.15,3.15,0,0,1-1-.78c-.12-.22.06-.32.17-.45a27.08,27.08,0,0,1,2-1.84c.7-.6,1.17-1.17,1.82-1.7,1.18-1.12,2.4-2.2,3.56-3.35.28-.29.63-.51.9-.81a1.94,1.94,0,0,1,.85-.39A13.81,13.81,0,0,1,18.22,32Z"></path>
  <path class="cls-11" d="M87,32.06c-.49.37-.89.83-1.35,1.23-1.21,1.1-2.37,2.27-3.57,3.38C80.7,38,79.3,39.22,77.93,40.53a5.38,5.38,0,0,1-.64.52c-.23-.36-.1-.8-.2-1.19.19-.52.69-.76,1-1.16.58-.72,1.36-1.24,2-1.91a8,8,0,0,1,1.47-1.32A3.05,3.05,0,0,0,82,35c1-1,2.07-1.88,3.1-2.87a1.2,1.2,0,0,1,.39-.2c.16-.1.19-.29.31-.42s-.24-.17-.14-.35h1A3,3,0,0,1,87,32.06Z"></path>
  <path class="cls-8" d="M86.09,60.11c-.17-.42-.53-.12-.79-.21a15.44,15.44,0,0,0-1.36-1.19c-.21-.19-.42-.38-.65-.55a4.28,4.28,0,0,1,1-1.12c.08,0-.09-.3.17-.2l.06.07c0-.38.28-.49.51-.61a3.66,3.66,0,0,0,.81-.66c.41-.42.83-.85,1.27-1.25a.54.54,0,0,0,.19-.28,20.5,20.5,0,0,0,.5-3.4c.14-1,.27-2.14.36-3.23v-.91a4.71,4.71,0,0,1,0-.92,1.14,1.14,0,0,0,0-.45c0-1,.06-2.07,0-3.16a.9.9,0,0,1,.06-.46h.12a25.31,25.31,0,0,1,.08,3.26A56.66,56.66,0,0,1,86.72,58C86.53,58.7,86.3,59.4,86.09,60.11Z"></path>
  <path class="cls-6" d="M9,42.27a25.49,25.49,0,0,1,2.59-2.5c.53-.5,1-1,1.61-1.52,1.24-1.11,2.41-2.29,3.64-3.43,1-.92,2-1.82,3-2.72a.3.3,0,0,0,.11-.23A4.13,4.13,0,0,1,21,31.8,3.79,3.79,0,0,1,19.91,33c-.62.52-1.17,1.12-1.77,1.66-1.25,1.11-2.43,2.28-3.62,3.44-.11.09-.38.07-.29.33s-.11.18-.2.19a1.73,1.73,0,0,0-1.18,1.11c-.08.16-.1.35-.26.45s-.12-.11-.27,0a28.19,28.19,0,0,1-2.73,2.51Z"></path>
  <path class="cls-8" d="M6.53,40.26c-.31-.19-.45-.54-.7-.78A.33.33,0,0,1,6,39.25c.71-.55,1.27-1.27,2-1.83.51-.4.94-.89,1.42-1.33.78-.74,1.58-1.45,2.34-2.22A8.72,8.72,0,0,0,13,32.64a10.3,10.3,0,0,1,2-.32c.11.22-.08.28-.19.37-1.37,1.23-2.7,2.53-4,3.78s-2.6,2.41-3.89,3.64A.57.57,0,0,1,6.53,40.26Z"></path>
  <path class="cls-9" d="M74.3,22.35c0-.23.23-.4.26-.67s.22-.09.3.11a.23.23,0,0,0,0-.31h0c-.13-.08-.08-.21,0-.23.44-.07.62-.46.91-.65s.57-.45.88-.63a3.11,3.11,0,0,0,.89-.95c.07-.11.25-.25.27-.45s0,.15.11.16c.17-.34.51-.51.74-.8a2.89,2.89,0,0,1,.78.7c.41.62.38.61-.22,1.12s-1.09,1-1.64,1.53a5.19,5.19,0,0,1-1.29,1.09Z"></path>
  <path class="cls-8" d="M76.21,22.35c.44-.49,1-.91,1.42-1.37s.87-.81,1.31-1.21a.62.62,0,0,1,.18-.14c.45-.24.47-.36.23-.84a.38.38,0,0,1,0-.15,10.84,10.84,0,0,1,1.74,1.84.33.33,0,0,1,0,.45V21a19.57,19.57,0,0,1-1.61,1.41Z"></path>
  <path class="cls-9" d="M6.53,40.26a25.13,25.13,0,0,1,2.41-2.32l1.53-1.43c.7-.58,1.32-1.25,2-1.87s1.53-1.42,2.3-2.07c.07-.07.14-.11.14-.21a7.33,7.33,0,0,1,1.4-.16v.12c-.81.06-1.21.73-1.72,1.2-1.25,1.11-2.42,2.29-3.65,3.43L7.32,40.32c-.13.12-.28.21-.29.42C6.87,40.55,6.64,40.48,6.53,40.26Z"></path>
  <path class="cls-12" d="M12.89,32.64c0,.1.07.18,0,.27-1.21,1.12-2.37,2.26-3.57,3.36-.81.75-1.63,1.49-2.42,2.25a10.49,10.49,0,0,0-1,1c-.43-.46-.42-.71.11-1a1.24,1.24,0,0,0,.23-.17A32.55,32.55,0,0,1,8.59,36c1-1,2.07-2,3.11-2.88a.94.94,0,0,0,.12-.18A4.85,4.85,0,0,1,12.89,32.64Z"></path>
  <path class="cls-12" d="M79.45,22.35A7.89,7.89,0,0,1,80.87,21a.65.65,0,0,0,.23-.55,13.18,13.18,0,0,1,1.42,1.83c-.07.1-.17.09-.27.09Z"></path>
  <path class="cls-9" d="M88.46,41.56h-.11a1.19,1.19,0,0,1,0-1.13v-.21A6.67,6.67,0,0,1,88.46,41.56Z"></path>
  <path class="cls-6" d="M35.52,30.3a1.25,1.25,0,0,1-.82.17A2.11,2.11,0,0,1,35.52,30.3Z"></path>
  <path class="cls-6" d="M37.87,29.71c0,.07,0,.21-.18.2s0-.09-.08-.13S37.79,29.71,37.87,29.71Z"></path>
  <path class="cls-6" d="M31.33,31c-.15,0-.27.23-.44.06A1.09,1.09,0,0,1,31.33,31Z"></path>
  <path class="cls-6" d="M34.56,30.5c-.15.05-.26.21-.44.08A.62.62,0,0,1,34.56,30.5Z"></path>
  <path class="cls-6" d="M31.94,30.94a.49.49,0,0,1-.44,0A.66.66,0,0,1,31.94,30.94Z"></path>
  <path class="cls-6" d="M38.49,29.53c-.08,0-.1.32-.27.07A.32.32,0,0,1,38.49,29.53Z"></path>
  <path class="cls-6" d="M27.3,41.57A16.82,16.82,0,0,0,29,40c.12-.13.24-.29.46-.26s0,.23,0,.35a1.41,1.41,0,0,0,.89,1.78,1.14,1.14,0,0,0,.32.07,1.84,1.84,0,0,0,1.43-.2c.15-.09.41-.19.29-.41a.54.54,0,0,0-.61-.22c-.09,0-.17.1-.27.14a.75.75,0,0,1-1-.22.81.81,0,0,1,.18-1.13.78.78,0,0,1,.82-.08c.19.09.37.22.61.13s.37-.33.09-.53a1.88,1.88,0,0,0-1.54-.3c-.19,0-.38.19-.58.08-.1-.32.19-.41.35-.52.64-.49,1.16-1.1,1.75-1.63,1.24-1.1,2.4-2.28,3.61-3.41C37.21,32.32,38.63,31,40,29.71c.12.69.24,1.38.35,2.07.17,1,.32,2.07.48,3.16.08.55.15,1.11.23,1.67a.84.84,0,0,1-.25.34c-.67.49-1.16,1.17-1.83,1.67a1.36,1.36,0,0,0-.42.53.35.35,0,0,1-.48.13h0a.52.52,0,0,0-.29-.09c-.51,0-.58,0-.59.53a1.72,1.72,0,0,1,0,.64c-.09.19-.23.39-.42.37s-.15-.33-.25-.49a1.88,1.88,0,0,0-2.44-1,2.3,2.3,0,0,0-.43.25,1.37,1.37,0,0,0-.22,1.94h0a1.47,1.47,0,0,0,.32.29,3.6,3.6,0,0,0,1.25.36c.17.17,0,.3,0,.42a2.06,2.06,0,0,1-.56.54c-.42.19-.58.71-1.09.76-.12.38-.71.35-.71.84-.13.27,0,.6-.2.86a.48.48,0,0,1-.56.18.57.57,0,0,1-.29-.57c0,.15.07.31.07.47a.49.49,0,0,1-.33.38,3,3,0,0,0-.94.75c-.67.63-1.22,1.37-1.92,2s-1.31,1.23-2,1.84L25,51.9c-.12.12-.23.25-.42.15a25.29,25.29,0,0,1-2.26-1.29c-1.35-.78-2.69-1.61-4-2.43-.08,0-.25,0-.18-.22.26-.16.51,0,.76,0a8.52,8.52,0,0,0,4.1-.34c.33-.12.63-.3,1-.41a5.71,5.71,0,0,0,1.54-1.27,8.08,8.08,0,0,0,1.78-4.23C27.13,41.74,27.11,41.59,27.3,41.57Z"></path>
  <path class="cls-13" d="M88.34,40.44v1.13A21.83,21.83,0,0,1,88.4,45v.2a1,1,0,0,1-.08.44c.12.29-.1.58,0,.87a3.54,3.54,0,0,1-.74.85c-.88.79-1.73,1.62-2.61,2.42-1.75,1.6-3.45,3.24-5.18,4.85-.1.09-.19.24-.37.17A9.33,9.33,0,0,1,78,53.72c-.75-.59-1.45-1.24-2.18-1.85,1.51-1.36,3-2.79,4.47-4.14.49-.45,1-.91,1.45-1.38,1.13-1,2.29-2.13,3.42-3.21.9-.86,1.84-1.7,2.74-2.56.08-.09.16-.2.33-.15Z"></path>
  <path class="cls-10" d="M55.25,34.41c.43,0,.62-.37.86-.61.61-.61,1.24-1.21,1.89-1.78,1-.91,2.07-1.86,3-2.82.77-.74,1.61-1.41,2.34-2.19.39-.43.86-.81,1.29-1.21q1.29-1.12,2.46-2.37a3.65,3.65,0,0,1,.83-.58c.13.14,0,.35.14.47v3.11c-.23-.25-.41-.08-.58.09-.81.83-1.68,1.59-2.53,2.39s-1.87,1.72-2.79,2.59c-.7.67-1.42,1.33-2.13,2l-2.55,2.38c-.08.08-.18.2-.33.15A15.48,15.48,0,0,1,55.25,34.41Z"></path>
  <path class="cls-10" d="M85.56,39.12c.3-.42.15.23.35.12a3.22,3.22,0,0,1,.45-.81c.11-.13.11-.27.31-.09s.2,0,.15-.17a.21.21,0,0,1,.06-.3H87c.28-.38.67-.66,1-1.1l.34,2.75c-.91.71-1.72,1.55-2.58,2.34l-4.84,4.51-3.1,3c-.67.64-1.37,1.24-2,1.9a1.1,1.1,0,0,1-.35.26,13.37,13.37,0,0,1-1.5-1.32c.22-.07.24-.34.55-.4s.28.18.45.05c-.19-.29.13-.51.12-.9.18.44.37.34.51.1s.56-.21.37-.61c0,0,.07-.09.1-.09.37,0,.32-.22.3-.45.14,0,.18.21.31.14s.1-.22.06-.35-.06-.16,0-.12c.37.18.21-.27.4-.35s.11-.39.42-.15c.09.09.15-.09.08-.21s-.08-.22.11-.22.17-.11.19-.23.08-.21.21-.09.09.3.28.14.3-.23.25-.46-.09-.23,0-.33,0,.2.08.22.07-.14.11-.18a.54.54,0,0,1,.29-.15c.17,0,.29-.06.2-.26s0-.11.09-.09.18,0,.18-.09c0-.46.29-.58.67-.61a.22.22,0,0,0,.1-.09c-.08-.48.39-.66.59-1s.39-.31.58-.5c.11.11-.09.41.12.32a.6.6,0,0,0,.41-.74h0c.46.34.55-.13.78-.27s.24-.56.28-.92c.19.15,0,.33.15.38s.19-.14.31-.2c.33-.16.27-.59.51-.82,0,0,0-.14.09-.11.5.19.43-.11.36-.42a.12.12,0,0,1,.08-.11c.09,0,0,.31.18.27a.31.31,0,0,0,.26-.31,1.06,1.06,0,0,1,.47-.77c.08.08,0,.16,0,.24C85.6,39.31,85.63,39.2,85.56,39.12Z"></path>
  <path class="cls-7" d="M79.45,54.85c.47-.36.86-.81,1.31-1.21.83-.72,1.59-1.53,2.39-2.27C84.57,50,86,48.73,87.44,47.42c.31-.28.61-.58.91-.87a29.31,29.31,0,0,1-.43,4.19A2.37,2.37,0,0,0,86.53,52c0,.09,0,.22-.23.14a.34.34,0,0,0-.29.21c-.21.53-.74.77-1,1.32a1.67,1.67,0,0,1-1.15,1,.38.38,0,0,0-.28.29c-.13.51-.6.71-1,1a2.75,2.75,0,0,0-.57.56.4.4,0,0,1-.54.2h0l-.08,0A19.51,19.51,0,0,1,79.45,54.85Z"></path>
  <path class="cls-14" d="M68.08,61.12a3.82,3.82,0,0,1-4.53.35c-.12-.18-.49-.28-.4-.5s.38-.39.58-.57.2,0,.28.1a2.31,2.31,0,0,0,1.44.56c1.29,0,1.87-.57,1.72-1.92a2.27,2.27,0,0,1-2.16.77A2.22,2.22,0,0,1,63.54,59a2.78,2.78,0,0,1,.27-3.62,2.45,2.45,0,0,1,3.46.17v.05s.06,0,.07-.08-.11-.58.08-.64a2.8,2.8,0,0,1,1,0c.17,0,.13.15.13.27v4.61A2.31,2.31,0,0,1,68.08,61.12Z"></path>
  <path class="cls-14" d="M54,76.59a2.77,2.77,0,0,1-1.22-3.1,5.59,5.59,0,0,1,.4-.86,2.31,2.31,0,0,1,3.2-.64h0a2.18,2.18,0,0,1,.4.34l.2.19V70c0-.28.08-.34.34-.34,1,0,1,0,1,1v3.63c0,.45-.19,1,.27,1.36.21.2,0,1-.19,1a.93.93,0,0,1-1.21-.48h0v-.1a.81.81,0,0,1,0-.22A2.55,2.55,0,0,1,54,76.59Z"></path>
  <path class="cls-7" d="M57.18,36.07c.42-.31.76-.71,1.16-1,.71-.64,1.42-1.3,2.07-2,.29-.26.6-.54.88-.82.94-.95,1.91-1.86,2.89-2.75l1.4-1.29c.75-.73,1.52-1.42,2.29-2.07.15.11,0,.31.17.39v1.91c-.19,0-.18-.14-.22-.26s-.12.07-.14.12c-.18.64-.69.91-1.23,1.2a1.29,1.29,0,0,0-.63.63c-.19.46-.67.66-1,1,0,0-.16,0-.19.09-.36.51-1,.77-1.32,1.28-.19.29-.51.39-.76.59s-.58.37-.6.78c0,.08,0,.2-.14.18s0-.14-.07-.17a.89.89,0,0,1-.39.62c-.3,0-.42.25-.59.43a7.22,7.22,0,0,1-.77.56,6.76,6.76,0,0,0-.57.62c-.12.13-.2.3-.42.34s-.16.19-.19.31-.14.45-.44.44Z"></path>
  <path class="cls-12" d="M64.77,38.08h-.08c-.2.46-.65.68-1,1h0a.13.13,0,0,1,0,.12l-.83.73c-.51.48-.41.52-1.13.17a1.8,1.8,0,0,1-.5-1,8.65,8.65,0,0,0,.89-.71l3.55-3.33c.67-.62,1.38-1.2,2-1.87.07-.08.13-.23.28-.15s0,.14,0,.16c-.06-.24.06-.35.3-.53a4,4,0,0,0,.83-.87,1.18,1.18,0,0,1,1.15-.55.53.53,0,0,0,.37-.06h.84c.12,0,.33-.06.35.06s0,.45-.19.48-.24.28-.4.36-.12.38-.19,0h0c.14.31-.26.18-.34.4a2.55,2.55,0,0,1-.8.8,9,9,0,0,0-1,1,6.83,6.83,0,0,1-1.3,1.16c-.7.42-1,1.15-1.64,1.6a14.81,14.81,0,0,0-1.1,1S64.85,38.1,64.77,38.08Z"></path>
  <path class="cls-9" d="M58.4,37.11c.38-.13.25-.58.43-.77s.45-.22.62-.52.3-.52.57-.58c.52-.13.71-.66,1.17-.86v-.2c.15,0,.05.2.19.24-.1-.39.51-.47.32-.93.18.14.07.3.16.4a.17.17,0,0,0,0-.1A.72.72,0,0,1,62.4,33a.5.5,0,0,0,.35-.3c0-.08.08-.47.35-.15h.06c.1-.37.47-.53.64-.84.07-.13.19-.19.25-.17s.13.06.2-.08a1.48,1.48,0,0,1,.48-.45,3.17,3.17,0,0,0,1.12-1,1,1,0,0,1,.87-.64c.18,0,.32-.31.52-.43s.39-.25.32-.56.3-.17.34-.43c.08.2,0,.41.19.54v1.75c0,.16-.11-.25-.16,0a.37.37,0,0,1-.22.25c-.56.1-.8.56-1.12,1-.08.11-.27,0-.36.09s-.46.24-.44.55v.08c-.47,0-.33.58-.66.74a7.64,7.64,0,0,1-.92.54,1.25,1.25,0,0,0-.62.64c-.14.24-.18.59-.58.56-.06,0-.08.06-.1.12a1.6,1.6,0,0,1-1,1c-.16,0-.18.13-.24.24-.24.41-.45.84-1,.92-.18,0-.18.12-.19.23a.41.41,0,0,1-.34.41c-.32,0-.5.26-.77.36A3.8,3.8,0,0,1,58.4,37.11Z"></path>
  <path class="cls-9" d="M81.45,56.59c.31,0,.55,0,.67-.41,0-.15.38-.22.46-.38.2-.39.85-.32.86-.91,0-.11.23-.54.6-.47h.16c.24-.44.84-.58.92-1.14,0-.16.1-.35.28-.35s0-.4.24-.18c.1-.2.16-.49.38-.57.54-.18.55-.86,1.11-1,.16,0,.31-.36.57-.43a.25.25,0,0,1,.22,0,4.31,4.31,0,0,1-.12,1.43c-.08.66-.22,1.3-.32,2,0,.14-.1.19-.18.27L85.71,56a2.58,2.58,0,0,1-.79.52.69.69,0,0,0-.32.75l-.13-.34a5.89,5.89,0,0,1-1.18,1.26C82.69,57.62,82,57.15,81.45,56.59Z"></path>
  <path class="cls-15" d="M42.46,45.67c.27.3.19.69.26,1a1,1,0,0,0-.39.25c-.8.79-1.65,1.53-2.46,2.29l-3.29,3.11a1,1,0,0,0-.33.42c.51-.07.53.26.52.63V55c0,.16,0,.35-.18.44-.18-.13-.15-.32-.16-.48V53.64c0-.21.06-.47-.27-.55a.8.8,0,0,0-.9.29,1.23,1.23,0,0,1-.4.6q-.72.62-1.38,1.29a11,11,0,0,1-1.38-.42c-.12-.24.09-.35.2-.47.58-.59,1.2-1.14,1.81-1.69s1.26-1.17,1.88-1.76c1.14-1.16,2.33-2.3,3.53-3.4.64-.62,1.28-1.25,2-1.84C41.79,45.43,42.11,45.68,42.46,45.67Z"></path>
  <path class="cls-14" d="M59.88,60c-2.47,0-3.8-2.07-2.79-3.86a3,3,0,0,1,4-1A2.58,2.58,0,0,1,59.88,60Z"></path>
  <path class="cls-14" d="M50.1,60a2.76,2.76,0,0,1-2.54-1.38,2.53,2.53,0,0,1,1-3.44h0a3.12,3.12,0,0,1,3.67.49,2.47,2.47,0,0,1,.45,2.77A2.64,2.64,0,0,1,50.1,60Z"></path>
  <path class="cls-14" d="M50.75,68.2a1.64,1.64,0,0,1-.86-1.73A2.08,2.08,0,0,1,52,65.16a3,3,0,0,1,1.12.1c.36.12.43,0,.39-.33a.93.93,0,0,0-.89-.85,2.64,2.64,0,0,0-1.71.39c-.2.12-.35.16-.41-.11s-.51-.45,0-.7a4,4,0,0,1,3.1-.34A1.79,1.79,0,0,1,55,65.08v1c0,.32-.2.89.31,1.21.14.1,0,1-.1,1a1,1,0,0,1-1.32-.44,2,2,0,0,1-.08-.33A2.66,2.66,0,0,1,50.75,68.2Z"></path>
  <path class="cls-14" d="M46.44,57.81v1.78c0,.25-.09.31-.32.32-1,0-1,0-1-1V57.08c0-.77-.31-1.17-.87-1.17a1.47,1.47,0,0,0-1.39,1.27v2.36c0,.31-.09.37-.39.37-1,0-1,0-1-1v-3.7c0-.31.1-.39.4-.39.79,0,.79,0,.93.82a2.82,2.82,0,0,1,2.24-.9,1.63,1.63,0,0,1,1.47,1.78h0A6.84,6.84,0,0,0,46.44,57.81Z"></path>
  <path class="cls-14" d="M72.55,60.86A2,2,0,0,1,70,62v-.35c0-.65,0-.65.62-.68a1,1,0,0,0,.75-1.2s0-.05,0-.07v-.08c-.62-1.46-1.23-2.92-1.86-4.36-.14-.31-.14-.41.25-.41,1,0,1,0,1.36.93l1.09,2.93a6.41,6.41,0,0,0,.47-1.29c.26-.74.51-1.49.74-2.23a.38.38,0,0,1,.43-.34h0c1,0,1,0,.63.92Z"></path>
  <path class="cls-12" d="M85.65,31.18c.06.1.19.06.27.11s.19,0,0,.21c-.64.8-1.53,1.31-2.22,2.07a23.08,23.08,0,0,1-1.88,1.82,11.79,11.79,0,0,1-1.49,1.34c-.4.24-.64.77-1,1a24.43,24.43,0,0,0-2.07,2,6.61,6.61,0,0,1-.86-.64c-.24-.13-.25-.25,0-.44,1-.94,2-1.9,3-2.86.57-.55,1.13-1.14,1.73-1.65a5.91,5.91,0,0,1,2.08-1.56c.06,0,.14-.11.14-.16,0-.5.48-.59.68-.91a.8.8,0,0,1,.75-.35Z"></path>
  <path class="cls-16" d="M75.34,51.44A10.25,10.25,0,0,1,76.77,50c.57-.49,1.09-1,1.66-1.54,1.24-1.1,2.41-2.29,3.64-3.42l4.14-3.84a17.86,17.86,0,0,1,1.7-1.55c.11-.08.21-.19.37-.16v1c-.53.41-1,.91-1.47,1.35-1.23,1.12-2.4,2.3-3.64,3.43L79.11,49c-.87.82-1.77,1.63-2.63,2.47a1.31,1.31,0,0,1-.61.39Z"></path>
  <path class="cls-8" d="M59.27,37.82c.16-.4.54-.42.86-.53a.17.17,0,0,0,.17-.19v0c0-.31,0-.53.39-.33.14.07.22-.21.32-.31s.53-.28.42-.66c0-.12.13-.27.25-.25.52,0,.71-.43,1-.66.09-.07.09-.16,0-.26s.08-.25.13-.22c.41.27.45-.15.52-.32a2.33,2.33,0,0,1,1.21-1c.37-.19.71-.38.77-.86,0-.14.17-.3.31,0,0-.52.35-.91.76-.85.1,0,.13,0,.07-.1s0-.05,0-.08c.42,0,.32-.68.74-.68a.72.72,0,0,0,.67-.39c.18-.31.1.15.2.06v1c.08.78-.54,1-1,1.44-.29.25-.83.25-.87.82,0,.18-.32.34-.5.51a5,5,0,0,1-.69.6c-.77.45-1.16,1.28-1.89,1.77-.42.3-.72.75-1.15,1a2.45,2.45,0,0,0-.87.88c-.4,0-.37.48-.69.53A6.34,6.34,0,0,1,59.27,37.82Z"></path>
  <path class="cls-14" d="M59.72,72.45c.93-1.24,3-.94,3.85-.3.15.11.16.2,0,.34a1.66,1.66,0,0,0-.22.32c-.12.22-.25.25-.48.1a2.25,2.25,0,0,0-1.49-.38.54.54,0,0,0-.6.46c-.05.34.21.49.48.57.54.17,1.1.29,1.62.47.73.24,1,.62,1,1.19a1.45,1.45,0,0,1-1,1.42,4,4,0,0,1-2.26,0h-.46c-.83-.45-.83-.45-.36-1.29.19-.14.33,0,.46.09a2.83,2.83,0,0,0,1.55.4c.26,0,.57,0,.62-.34s-.25-.4-.49-.47c-.51-.17-1-.27-1.54-.47-.23-.1-.51-.15-.6-.44A1.38,1.38,0,0,1,59.72,72.45Z"></path>
  <path class="cls-14" d="M59.18,67.17a2.1,2.1,0,0,0,.15.61.23.23,0,0,1-.09.31h0a4.71,4.71,0,0,1-1.49.25,1.17,1.17,0,0,1-1.24-1.1h0V64.61c0-.28-.07-.4-.36-.36s-.35-.26-.35-.5-.12-.58.34-.51.4-.12.37-.4v-.18c0-1.11,0-1.11,1.11-1,.21,0,.29.08.28.28s0,.64,0,1,.09.42.39.38h.61a1.12,1.12,0,0,1,.08,1c-.16.17-.37.14-.57.14a.32.32,0,0,0-.34.3V66.6c0,.38.23.46.56.45S59,66.87,59.18,67.17Z"></path>
  <path class="cls-14" d="M49.16,64.53c-.45,1.15-.92,2.29-1.37,3.44a.42.42,0,0,1-.47.32c-1.16,0-1.16,0-1.58-1l-1.39-3.52a1.76,1.76,0,0,0-.15-.44c1.37-.16,1.37-.16,1.8,1.11.29.87.59,1.73.89,2.6l.1.11.32-.85c.31-.9.63-1.8.93-2.72.06-.2.15-.34.38-.32s.78-.15.92.12-.18.6-.29.9A1.2,1.2,0,0,0,49.16,64.53Z"></path>
  <path class="cls-17" d="M60.41,38.77c.21-.07.13-.29.21-.43s.11-.24.17-.21c.39.21.33-.19.44-.32s.12-.33.36-.26h.11c.25-.5.77-.72,1.12-1.12s.81-.68,1.16-1.1a4.46,4.46,0,0,0,.58-.72s.07-.13.12-.13.34.09.3-.19c.36.1.35-.43.7-.44a1,1,0,0,0,.49-.57c0-.3.08-.56.47-.46h.12c.1-.58.76-.51,1-.9.09-.12.29-.18.15-.39s.15-.25.16-.39H70.6a.85.85,0,0,1-.56.13.72.72,0,0,0-.72.35c-.25.44-.79.63-.93,1.14,0,0-.09.08-.11.07-.38-.18-.27.13-.29.3v.28c-.17-.1,0-.25-.12-.35h0C67,34,66,34.89,65,35.8a11.8,11.8,0,0,0-1,1L61.75,39a.44.44,0,0,1-.39.15.19.19,0,0,1-.26,0A.62.62,0,0,1,60.41,38.77Z"></path>
  <path class="cls-5" d="M36.66,53.88v-.44c0-.59,0-.59-.72-.64A13.25,13.25,0,0,1,37,51.74c.65-.5,1.18-1.12,1.8-1.66,1.2-1,2.35-2.21,3.51-3.31.11-.12.2-.21.33,0l.26,1.65a4,4,0,0,0-.78.63c-1.58,1.54-3.23,3-4.82,4.53C37.17,53.71,37,54,36.66,53.88Z"></path>
  <path class="cls-14" d="M53.77,56V53.21c0-.24.06-.31.31-.32,1,0,1,0,1,1V58c0,.66.2.85.85.7.21,0,.27,0,.31.2.17.77.18.77-.59.9a3.5,3.5,0,0,1-.65.07,1.18,1.18,0,0,1-1.31-1,1.41,1.41,0,0,1,0-.29C53.77,57.77,53.77,56.92,53.77,56Z"></path>
  <path class="cls-11" d="M76.92,41.65c-.35-.06-.51.25-.71.41-.72.65-1.39,1.34-2.07,2l-3.25,3c-.1.09-.23.18-.22.35l-.88-.71a2.7,2.7,0,0,1,.91-1.1A14.38,14.38,0,0,0,72,44.31c.24-.3.64-.43.9-.73.46-.54,1-.93,1.48-1.48.16-.06.48.32.45-.18a6.3,6.3,0,0,1,1.27-1.36c.17-.14.32-.29.5-.42s.32-.18.41.07A2.71,2.71,0,0,1,76.92,41.65Z"></path>
  <path class="cls-18" d="M36.66,53.88a1.61,1.61,0,0,0,.63-.43c1.21-1.13,2.41-2.3,3.63-3.42l1.54-1.4c.14-.12.27-.32.51-.23l.15,1.27c-1,1-2.07,1.94-3.1,2.93A17.08,17.08,0,0,0,37.61,55c-.23.22-.52.36-.74.59s-.17.18-.26.1a.2.2,0,0,1-.06-.27l.06-.06A6.67,6.67,0,0,0,36.66,53.88Z"></path>
  <path class="cls-14" d="M41.42,39c1,0,1.63.33,1.83,1a1.51,1.51,0,0,1-.44,1.67A1.63,1.63,0,0,1,41,41.9c-.23.06-.09.24-.11.35-.07.31.08.63-.1.92h0c-.95.22-1.18,0-1.19-.92V40a2.9,2.9,0,0,1,.07-.93c.12-.18.29-.16.46-.17A9.34,9.34,0,0,0,41.42,39Z"></path>
  <path class="cls-12" d="M74.38,42.1a2,2,0,0,1-1,1c-.17.08-.28.36-.46.52-.7.6-1.33,1.27-2.07,1.88-.42.37-.78.79-1.17,1.16l-.88-.75c-.24-.21-.1-.41.07-.5.49-.27.77-.77,1.2-1A19.92,19.92,0,0,0,71.57,43a4.44,4.44,0,0,0,.7-.67c.2-.2-.17-.12-.15-.24s0-.1.08-.11a2,2,0,0,0,1.31-.87h.07l.71-.62A7.08,7.08,0,0,1,74.38,42.1Z"></path>
  <path class="cls-14" d="M52.1,72.9a1.65,1.65,0,0,0-.86.27,1,1,0,0,0-.54.92v2.35c0,.25-.07.31-.32.32-1,0-1,0-1-1v-3.7c0-.29.09-.4.37-.35s.68-.14.87.08.06.54.08.9a2.69,2.69,0,0,1,1.3-1c.19,0,.52-.15.58.08a2.41,2.41,0,0,1,0,1A2.67,2.67,0,0,1,52.1,72.9Z"></path>
  <path class="cls-14" d="M45.57,42.09a1.61,1.61,0,0,1-1.81-1.4,1.51,1.51,0,0,1,0-.52,1.34,1.34,0,0,1,.46-.77,2.16,2.16,0,0,1,2.66,0A1.48,1.48,0,0,1,47,41.49h0l-.14.13A2,2,0,0,1,45.57,42.09Z"></path>
  <path class="cls-14" d="M59,40.79h-.8c-.09,0-.22-.06-.26.08s.09.18.17.24a1,1,0,0,0,1,0c.42-.23.55.18.69.36s-.17.33-.31.39a2.26,2.26,0,0,1-2.07-.1,1.45,1.45,0,0,1-.53-2h0a1.54,1.54,0,0,1,.42-.46,2.08,2.08,0,0,1,2.32,0,1.37,1.37,0,0,1,.54.83c.15.56.07.65-.49.65Z"></path>
  <path class="cls-14" d="M53.45,41v.31c0,.8-.09.93-.84.7a1.38,1.38,0,0,0-.85.07,1.16,1.16,0,0,1-1.48-.73v0h0a.78.78,0,0,1,.59-.93A3.65,3.65,0,0,1,52,40.25c.1,0,.27.07.3-.09s-.09-.24-.22-.29a1.24,1.24,0,0,0-1,0c-.49.23-.46-.24-.58-.45s.16-.26.28-.3A3.06,3.06,0,0,1,52.31,39a1.21,1.21,0,0,1,1.14,1.26V41Z"></path>
  <path class="cls-14" d="M55,38.35c.43-.1.62,0,.55.47,0,.27.1.33.33.3s.44,0,.44.39-.13.45-.46.41-.34.06-.31.31a2.35,2.35,0,0,1,0,.53c0,.18.09.54.48.48s.34.33.42.52-.17.24-.31.27a1.25,1.25,0,0,1-1.64-.65,1.2,1.2,0,0,1-.09-.7v-.52c0-.18,0-.24-.12-.24-.6,0-.24-.44-.32-.68,0-.05,0-.12.1-.11.39.06.36-.2.34-.45C54.36,38.12,54.8,38.43,55,38.35Z"></path>
  <path class="cls-16" d="M39.73,39.07V40a3.11,3.11,0,0,1-1.21,1.28c-.16.12-.26,0-.29-.16a2.66,2.66,0,0,1,0-.69.69.69,0,0,1,.6-.59.33.33,0,0,0,.35-.31v0c0-.25,0-.41-.32-.36a.28.28,0,0,1-.25,0,.44.44,0,0,1,.19-.36c.81-.66,1.49-1.48,2.33-2.07a13.62,13.62,0,0,1,.29,1.79.62.62,0,0,1-.66.57A1.57,1.57,0,0,0,39.73,39.07Z"></path>
  <path class="cls-14" d="M47.84,40.5V39.28c0-.18,0-.3.23-.25s.67-.24.85.22h.16a1.35,1.35,0,0,1,.26-.15c.2-.06.48-.23.61-.06a1.22,1.22,0,0,1,0,.8c-.06.27-.2.08-.3.09a.66.66,0,0,0-.72.59h0v.15a8.34,8.34,0,0,0,0,1c0,.32-.1.38-.39.38-.75,0-.75,0-.75-.76Z"></path>
  <path class="cls-19" d="M40.94,43.14a4.34,4.34,0,0,0,1-.91,18.4,18.4,0,0,1,.38,2.34c-.26.06-.51.28-.77,0a2.25,2.25,0,0,1-.1,1.15c-.28-.08-.17-.32-.21-.51a2.66,2.66,0,0,0,0-.69c-.24.21-.43.43-.64.61s-.21.27-.39.07a.69.69,0,0,1,0-.49c0-.08.18-.14,0-.24a.29.29,0,0,1,.07-.33s.12,0,.12-.1c-.26,0-.3-.14-.15-.33a1.9,1.9,0,0,1,.66-.6Z"></path>
  <path class="cls-2" d="M59.8,74.05a5.47,5.47,0,0,0,1.8.69l.66.2a.44.44,0,0,1,.34.48.48.48,0,0,1-.42.44,2.41,2.41,0,0,1-1.52-.17c-.29-.12-.57-.28-.86-.41Z"></path>
  <path class="cls-5" d="M37.53,54.94a3.31,3.31,0,0,1,.9-1c.75-.72,1.52-1.42,2.29-2.12l2.13-2a.37.37,0,0,1,.27-.13v.08a.53.53,0,0,1-.17.62c-.72.74-1.5,1.41-2.25,2.07l-2.07,2a.56.56,0,0,0-.17.26.19.19,0,0,1-.14.16A1.08,1.08,0,0,1,37.53,54.94Z"></path>
  <path class="cls-12" d="M76.9,40.09a6.19,6.19,0,0,0-1.17,1l-.9.87v-1.6c-.17-.26,0-.46.14-.66a1.4,1.4,0,0,1,1.6-.26C76.78,39.55,77.06,39.71,76.9,40.09Z"></path>
  <path class="cls-15" d="M38.4,54.66c.09-.38.44-.59.7-.8.63-.5,1.13-1.11,1.74-1.62s1.37-1.29,2.08-1.93a.59.59,0,0,0,.22-.54c.16.16,0,.35.09.53a.53.53,0,0,1-.17.62c-.83.84-1.7,1.62-2.57,2.41-.4.38-.78.77-1.17,1.17C39,54.62,38.74,54.85,38.4,54.66Z"></path>
  <path class="cls-20" d="M39.28,54.4c.8-.93,1.76-1.7,2.64-2.55L43.1,50.7c.13-.11.11-.26.11-.4a4.87,4.87,0,0,1,.17,1c-.81.88-1.73,1.63-2.57,2.47a.92.92,0,0,0-.22.26A2,2,0,0,1,39.28,54.4Z"></path>
  <path class="cls-21" d="M73.59,41.13a1.7,1.7,0,0,1-1.39,1,1.59,1.59,0,0,1-1.57-1,1.46,1.46,0,0,1,.47-1.61,1.74,1.74,0,0,1,1.9-.21,1.44,1.44,0,0,1,.66,1.54A2.86,2.86,0,0,1,73.59,41.13Z"></path>
  <path class="cls-21" d="M76.9,40.09c-.17-.58-.48-.77-1.15-.71a1,1,0,0,0-.94.94,6.46,6.46,0,0,0,0,1.39c0,.11.07.29-.15.3s-.13-.18-.13-.29V39.41c0-.1-.09-.29.14-.28s.1.17.13.26v.29a1.71,1.71,0,0,1,1.56-.57,1.39,1.39,0,0,1,.86.64,7,7,0,0,1,.1,1.29v.61c0,.2.12.37-.16.36s-.19-.2-.17-.36A10.21,10.21,0,0,0,76.9,40.09Z"></path>
  <path class="cls-22" d="M67.21,39.11a2.46,2.46,0,0,1,1,.18.13.13,0,0,1,.13.13.19.19,0,0,1,0,.07c0,.11-.12.09-.21,0a1.81,1.81,0,0,0-1-.16.54.54,0,0,0-.59.46v0c0,.33.22.44.49.5l1,.24a.64.64,0,0,1,.54.65.7.7,0,0,1-.52.69,2.2,2.2,0,0,1-1.69-.11c-.11-.05-.29-.08-.19-.26s.21,0,.3,0a2.05,2.05,0,0,0,1.36.14.49.49,0,0,0,.43-.47c0-.28-.18-.38-.4-.44l-.89-.2c-.56-.14-.78-.38-.75-.8a.85.85,0,0,1,.9-.75Z"></path>
  <path class="cls-21" d="M61,39.12h.26l.5,1a9.31,9.31,0,0,1,.78,1.42c0,.06.08,0,0,0h0a10.84,10.84,0,0,1,1.15-2.28v-.08H64l-1.3,2.7c-.12.26-.33.32-.48,0C61.77,41,61.36,40.06,61,39.12Z"></path>
  <path class="cls-19" d="M40.59,54c0-.25.27-.29.4-.42.68-.69,1.4-1.36,2.07-2.07.09-.08.17-.17.3-.17v.1a.64.64,0,0,1-.2.73c-.48.52-1,.94-1.55,1.44l-.19.24A.73.73,0,0,1,40.59,54Z"></path>
  <path class="cls-14" d="M69.76,40.56v1.21c0,.12,0,.26-.15.24s-.14-.12-.14-.21V39.36c0-.11,0-.25.17-.23s.12.13.12.22C69.77,39.75,69.76,40.16,69.76,40.56Z"></path>
  <path class="cls-14" d="M65.13,40.56v1.13c0,.12.1.33-.15.32s-.14-.19-.14-.3V39.45c0-.12-.08-.33.16-.32s.13.2.13.3C65.14,39.81,65.13,40.19,65.13,40.56Z"></path>
  <path class="cls-23" d="M41.49,45.75a6.35,6.35,0,0,1,0-1.63c.2.13.07.36.17.53a1,1,0,0,1,.67-.08c.47.35.5.66.09,1.1a.74.74,0,0,1-.65,0c-.13-.09-.17,0-.22.08S41.51,45.78,41.49,45.75Z"></path>
  <path class="cls-12" d="M41.63,53.61c0-.3.29-.43.49-.59.37-.28.66-.64,1-.94a.66.66,0,0,0,.25-.64.75.75,0,0,1-.26,1h0a5.87,5.87,0,0,0-.93,1A.84.84,0,0,1,41.63,53.61Z"></path>
  <path class="cls-24" d="M49.71,44.71v-.1h.4c.46.31.48.52.12.9a.46.46,0,0,1-.66,0h0a.44.44,0,0,1-.08-.11.46.46,0,0,1,.18-.62Z"></path>
  <path class="cls-25" d="M49.71,44.71c-.16.2-.31.43-.12.69a.45.45,0,0,0,.62.11h0a.13.13,0,0,1,.11.11c-.29.35-.66-.08-1,.11a.09.09,0,0,1,0-.07V44.05C49.62,44.22,49.25,44.66,49.71,44.71Z"></path>
  <path class="cls-26" d="M58.28,45.52c.19,0,.36.07.52.08s.23-.08.23-.18-.11-.16-.22-.18h0c-.21-.06-.57,0-.49-.39s.42-.31.71-.27c0,.21-.17.12-.27.14s-.26,0-.26.16.15.16.25.19.58,0,.5.39-.43.32-.73.26C58.43,45.69,58.32,45.69,58.28,45.52Z"></path>
  <path class="cls-27" d="M47,44.6a.41.41,0,0,1,.34.46v.09c-.31.13-.64,0-1,.09.16.43.49.36.84.27-.18.23-.29.27-.52.21a.55.55,0,0,1-.49-.48.52.52,0,0,1,.33-.63h.21c-.23.38,0,.29.24.29,0-.13-.12-.17-.11-.28S46.91,44.57,47,44.6Z"></path>
  <path class="cls-26" d="M43.11,45.32c.23.35.55.3,1,.08a.71.71,0,0,1-1,.18c-.33-.24-.24-.54,0-.87h.14c.15.31.36.21.58.08.05,0,.09-.07.15,0s.19.2.09.35a3.22,3.22,0,0,1-.76,0S43.09,45.14,43.11,45.32Z"></path>
  <path class="cls-26" d="M46,45.62c-.44.18-.6.09-.65-.27s.15-.5-.14-.67l.23-.42c.14.17.1.45.41.39-.46.06-.29.38-.3.59S45.57,45.52,46,45.62Z"></path>
  <path class="cls-28" d="M54.45,44.7a.54.54,0,0,1,.78,0h0c.3.29.18.68.13,1.1-.24-.18-.17-.38-.17-.55,0-.51-.11-.59-.64-.44C54.52,44.77,54.45,44.76,54.45,44.7Z"></path>
  <path class="cls-29" d="M45,44.7c-.41,0-.24.29-.28.48s.12.43.46.42c-.42.21-.59.13-.65-.23s.19-.53-.17-.67c.08-.13.13-.31.24-.37s.1.13.14.2S45,44.49,45,44.7Z"></path>
  <path class="cls-30" d="M56.58,44.61a.43.43,0,0,1,.32.32c.06.16,0,.27-.19.27H55.9c0,.09,0,.17-.11.17a.37.37,0,0,1,0-.5h0c.1,0,.17,0,.26,0s.54.25.4-.26a.09.09,0,0,1,.13,0Z"></path>
  <path class="cls-7" d="M39.73,39.07c.15-.23.39-.13.58-.11a1,1,0,0,0,1-.53c.16.15,0,.35.1.54a1,1,0,0,1-.94.07A1.54,1.54,0,0,0,39.73,39.07Z"></path>
  <path class="cls-31" d="M51.78,45.59a.52.52,0,0,1-.73,0h0c-.3-.3-.14-.69-.15-1.13.24.2.17.39.17.55,0,.52.12.61.63.46C51.72,45.52,51.78,45.52,51.78,45.59Z"></path>
  <path class="cls-32" d="M53,45.14a.25.25,0,0,1,.28.19.09.09,0,0,1,0,.07.32.32,0,0,1-.25.3.72.72,0,0,1-.75-.18c.17-.14.29,0,.42,0s.33.06.36-.13-.15-.18-.26-.22S52.94,45.13,53,45.14Z"></path>
  <path class="cls-33" d="M53,45.14l-.2.08c-.24,0-.53-.07-.48-.37s.33-.34.62-.25a.49.49,0,0,1,.24,0c-.09.13-.23,0-.33.06s-.3,0-.31.15.14.18.27.2Z"></path>
  <path class="cls-34" d="M51.78,45.59l-.1-.07c.27-.26.06-.63.26-1a2.7,2.7,0,0,1,0,1.2C51.94,45.84,51.85,45.59,51.78,45.59Z"></path>
  <path class="cls-21" d="M54.45,44.7l.11.09c-.25.26-.09.61-.24.91a2,2,0,0,1,0-1.09C54.32,44.49,54.38,44.68,54.45,44.7Z"></path>
  <path class="cls-14" d="M53.68,44.58a2,2,0,0,1,0,1.13A2.17,2.17,0,0,1,53.68,44.58Z"></path>
  <path class="cls-35" d="M48,44.8c-.22.26,0,.61-.16.9h-.13v-1c0-.37.19.07.27,0a.11.11,0,0,1,0,.13Z"></path>
  <path class="cls-26" d="M55.79,45.41l.11-.17c.19.47.55.34,1,.23a.62.62,0,0,1-.85.18A.6.6,0,0,1,55.79,45.41Z"></path>
  <path class="cls-21" d="M69.6,38c.13,0,.22,0,.24.19a.2.2,0,0,1-.14.25h-.08a.22.22,0,0,1-.23-.21h0a.22.22,0,0,1,.18-.23Z"></path>
  <path class="cls-21" d="M64.77,38.08l.09-.1c.18,0,.37,0,.35.25s-.08.18-.19.19S64.75,38.27,64.77,38.08Z"></path>
  <path class="cls-36" d="M50.3,45.6l-.11-.11c.3-.34.17-.59-.17-.79,0-.16.08-.13.18-.08a.38.38,0,0,1,.26.25.83.83,0,0,1,0,.54A.26.26,0,0,1,50.3,45.6Z"></path>
  <path class="cls-23" d="M58,45.58a.68.68,0,0,1-.92,0c.28-.06.57.14.82-.09C58,45.52,58,45.52,58,45.58Z"></path>
  <path class="cls-26" d="M55.92,45.06l-.16-.17a.54.54,0,0,1,.69-.32h.1l-.1.1C56.33,44.86,56.08,44.87,55.92,45.06Z"></path>
  <path class="cls-37" d="M40.82,43.13c.11-.41,0-.83.08-1.24H41a3.84,3.84,0,0,0-.07,1.22h0a.07.07,0,0,1-.1,0h0Z"></path>
  <path class="cls-38" d="M57.52,44.7a.15.15,0,0,0-.17.15v0c0,.13.16.15.26.19s-.1.1-.18.07c-.38-.12-.4-.3-.09-.53C57.44,44.58,57.52,44.54,57.52,44.7Z"></path>
  <path class="cls-39" d="M57.52,44.7l-.18-.08a.52.52,0,0,1,.7.12Z"></path>
  <path class="cls-23" d="M43.21,44.8l-.1-.09c.19-.16.39-.27.61-.08a.07.07,0,0,1,0,.1h0A.61.61,0,0,1,43.21,44.8Z"></path>
  <path class="cls-40" d="M43.11,45.32c-.11-.2,0-.17.16-.18h.81c-.18.14-.39,0-.58.06S43.2,45.15,43.11,45.32Z"></path>
  <path class="cls-41" d="M46.35,45.24c.31-.21.65-.06,1-.09C47,45.31,46.67,45.14,46.35,45.24Z"></path>
  <path class="cls-25" d="M50.2,44.62l-.2.08a.36.36,0,0,1-.34-.09A.47.47,0,0,1,50.2,44.62Z"></path>
  <path class="cls-42" d="M48,44.8v-.14a.31.31,0,0,1,.35-.08C48.28,44.77,48.1,44.71,48,44.8Z"></path>
  <path class="cls-38" d="M58,45.58v-.06c0-.16-.13-.19-.24-.24s0-.14.11-.1A.27.27,0,0,1,58,45.58Z"></path>
  <path class="cls-41" d="M46.7,44.7l-.19-.09a.42.42,0,0,1,.48,0l-.12.11a.11.11,0,0,1-.16,0h0Z"></path>
  <path class="cls-40" d="M43.73,44.7v-.07a.18.18,0,0,1,.24.11v0h0l-.08.09C43.77,44.89,43.68,44.85,43.73,44.7Z"></path>
  <path class="cls-25" d="M50.46,45.41v-.54A.45.45,0,0,1,50.46,45.41Z"></path>
  <path class="cls-41" d="M45,44.7l-.26-.21C44.77,44.59,45,44.41,45,44.7Z"></path>
  <path class="cls-23" d="M57.82,45.13l-.11.09a.29.29,0,0,1-.28-.07l.18-.07A.19.19,0,0,1,57.82,45.13Z"></path>
  <path class="cls-14" d="M38.61,74.6c-.27.63-.54,1.24-.78,1.86-.09.22-.2.32-.44.29a2.72,2.72,0,0,0-.57,0,.32.32,0,0,1-.37-.23c-.67-1.53-1.36-3.1-2.07-4.61v-.2h1c.25,0,.28.16.35.32L37.1,75.2c0,.08.07.15.14.31.22-.54.4-1,.6-1.48a.43.43,0,0,0-.07-.41c-.23-.54-.46-1-.7-1.59-.11-.23-.08-.3.19-.32.79,0,.79,0,1,.71l.31.82a6,6,0,0,0,.36-1c.1-.47.34-.59.8-.56s.54,0,.32.5a4.25,4.25,0,0,1-.21.49A2.21,2.21,0,0,0,40,75.43l1.15-2.69.06-.16c.39-1,.39-1,1.41-.88.23,0,.25.08.16.25l-2.07,4.61a.3.3,0,0,1-.3.19c-.9.06-.9.07-1.24-.74l-.56-1.32Z"></path>
  <path class="cls-14" d="M34.62,76.72h-.08c-1.35.07-1.37.07-1.84-1.17-.14-.38-.32-.55-.74-.52s-1.16,0-1.74,0a.32.32,0,0,0-.38.23v0h0c-.15.39-.33.78-.46,1.17a.33.33,0,0,1-.38.26H27.81l.66-1.64q1-2.41,2-4.83a.48.48,0,0,1,.53-.36c.88,0,.88,0,1.23.84Z"></path>
  <path class="cls-14" d="M37.53,54.94l.87-.19a1.22,1.22,0,0,1,1.41.52,2.46,2.46,0,0,1,.4,1.44v2.87c0,.25-.06.32-.31.33-1,0-1,0-1-1V57.1a1.15,1.15,0,0,0-.16-.7c-.74-.53-1.15-.49-1.76.21-.08.08-.14.18-.26.22s-.07.34-.07.5v2.26c0,.24,0,.32-.31.32-1.09,0-1.09,0-1.09-1v-.69a.82.82,0,0,1-.13-.57V55.83a7.93,7.93,0,0,1,.12-2.38c-.07-.5.17-.58.61-.56.79,0,.79,0,.79.78v2A2.86,2.86,0,0,1,37.53,54.94Z"></path>
  <path class="cls-14" d="M26.79,58.69a.6.6,0,0,1,.79-.2h0c.17.11.53,0,.55.24s-.24.41-.44.57a3.29,3.29,0,0,1-3.72.23,2.61,2.61,0,0,1-.78-3.44,3,3,0,0,1,3.39-1.24,2.53,2.53,0,0,1,2,2.54c0,.3-.08.4-.38.39H24.68c-.3,0-.37.08-.25.34a1.32,1.32,0,0,0,1.14.88A5.6,5.6,0,0,0,26.79,58.69Z"></path>
  <path class="cls-14" d="M41.42,68.37c-1.67,0-2.8-.82-3-2.07a2.54,2.54,0,0,1,1.84-3.09h.07a3,3,0,0,1,3.1.88,2.6,2.6,0,0,1-.27,3.67h0A2.56,2.56,0,0,1,41.42,68.37Z"></path>
  <path class="cls-14" d="M46.91,76a2.52,2.52,0,0,1-2.56.77,1.55,1.55,0,0,1-1.23-1.38,1.51,1.51,0,0,1,1-1.51,3.32,3.32,0,0,1,2.22-.13c.38.1.39,0,.36-.32a.92.92,0,0,0-.88-.86,2.45,2.45,0,0,0-1.71.38c-.24.13-.33.12-.45-.13-.29-.58-.31-.58.28-.82a4,4,0,0,1,2.77-.21,1.78,1.78,0,0,1,1.38,1.79v1c0,.33-.18.81.3,1.09.13.08,0,1-.1,1a1,1,0,0,1-1.3-.38C47,76.19,46.93,76.1,46.91,76Z"></path>
  <path class="cls-14" d="M33.79,64.05a2.64,2.64,0,0,1,2.32-.87,1.37,1.37,0,0,1,1.33,1.28,33.46,33.46,0,0,1,.07,3.61c0,.15,0,.22-.2.21h0c-1.11.06-1.11.06-1.11-1V65.46c0-.76-.31-1.14-.85-1.15A1.46,1.46,0,0,0,34,65.55V68c0,.26-.06.35-.34.35-1,0-1,0-1-1V63.64c0-.3.08-.4.39-.39C33.67,63.24,33.67,63.22,33.79,64.05Z"></path>
  <path class="cls-14" d="M27.6,64a2.7,2.7,0,0,1,2.33-.84,1.34,1.34,0,0,1,1.29,1.2,28.58,28.58,0,0,1,.09,3.7c0,.16-.08.21-.21.2H31c-1,0-1,0-1-1V65.41c0-.61-.31-1.13-.86-1.13a1.47,1.47,0,0,0-1.39,1.21v2.4c0,.32-.09.38-.38.38-1,0-1,0-1-1v-3.7c0-.28,0-.41.35-.38a5.61,5.61,0,0,1,.82,0C27.66,63.25,27.44,63.76,27.6,64Z"></path>
  <path class="cls-14" d="M32,54.75a4.24,4.24,0,0,1,1.48.45,1,1,0,0,1,.8.9,1.68,1.68,0,0,1-1,.3.5.5,0,0,1-.49-.15A1.29,1.29,0,0,0,31.36,56a2.55,2.55,0,0,0-.88,1.39,1.33,1.33,0,0,0,.82,1.4,1.3,1.3,0,0,0,1.56-.31c.08-.08.15-.16.29-.11l1.19.35A2.73,2.73,0,0,1,31.52,60,2.59,2.59,0,0,1,30,55.29a1.94,1.94,0,0,1,1-.55C31.38,54.73,31.7,54.51,32,54.75Z"></path>
  <path class="cls-14" d="M23.46,64.85v-3c0-.25.06-.34.33-.35,1.09,0,1.09,0,1.09,1v5.4c0,.27-.06.37-.35.37-1,0-1,0-1-1Z"></path>
  <path class="cls-43" d="M33.25,56.4l1-.35a1.29,1.29,0,0,1,.89-.25v2.35a23,23,0,0,1-2.58-1.4C32.78,56.52,33.14,56.6,33.25,56.4Z"></path>
  <path class="cls-3" d="M36.65,56.83a1.39,1.39,0,0,1,1.12-.89.72.72,0,0,1,.9.45h0a19.12,19.12,0,0,1-2.07,1.85Z"></path>
  <path class="cls-44" d="M39.81,55.27a2,2,0,0,0-1.41-.52v-.09a3.07,3.07,0,0,0,.88-.26,5.09,5.09,0,0,0,1.31-.4l.83-.15c.11.13-.05.18-.1.23A7.92,7.92,0,0,1,39.81,55.27Z"></path>
  <path class="cls-1" d="M30.46,57.37A1.34,1.34,0,0,1,31.34,56c.22.37.7.39,1,.77Z"></path>
  <path class="cls-14" d="M62.65,68.38c-2.37,0-3.67-1.89-2.85-3.7a3,3,0,0,1,4-1.22A2.53,2.53,0,0,1,65,66.84h0v.08A2.58,2.58,0,0,1,62.65,68.38Z"></path>
  <path class="cls-14" d="M67.5,64.17a2.28,2.28,0,0,1,1.58-1c.23,0,.35,0,.33.29a3.39,3.39,0,0,1,0,.78c-.07.2-.47.13-.7.19a1.23,1.23,0,0,0-1.11,1.33.09.09,0,0,0,0,.07V68c0,.22-.06.28-.29.29-1.11,0-1.11,0-1.11-1V63.58c0-.33.09-.4.39-.39C67.4,63.24,67.4,63.22,67.5,64.17Z"></path>
  <path class="cls-1" d="M59.18,67.17c-.13-.19-.27-.09-.43,0-.68.18-.9,0-.9-.7V64.64c0-.27.07-.37.34-.34a4.57,4.57,0,0,0,.74,0A25.07,25.07,0,0,0,59.18,67.17Z"></path>
  <path class="cls-45" d="M23.89,47.44a8.6,8.6,0,0,1-5.92.67c-.55-.21-1.13-.31-1.67-.56a7.12,7.12,0,0,1-3-2.4.7.7,0,0,1-.36-.36,5.45,5.45,0,0,1-.67-1.87,7.91,7.91,0,0,1,0-2.38.49.49,0,0,1,.2-.37l.24-.56a1.89,1.89,0,0,1,1.44-1.18c1.11-.17,2.25-.07,3.37-.26a6,6,0,0,0,3.17-1.52,5.81,5.81,0,0,1,1.92-1.33,2.68,2.68,0,0,1,3.1.8A6.53,6.53,0,0,1,27.3,41v.61c-.09.43-.15.88-.25,1.3a7.44,7.44,0,0,1-1.65,3.32c-.18-.18-.13-.42-.13-.62v-4.8a1.4,1.4,0,0,0,0-.5c-.59.81-1.37,1.4-1.29,2.56.1,1.33,0,2.67,0,4A1.84,1.84,0,0,1,23.89,47.44Z"></path>
  <path class="cls-14" d="M20.57,53.08h2.71c.25,0,.31.08.32.33,0,.83,0,.83-.81.83h-1c-.33,0-.5.07-.49.47v4.75c0,.38-.09.47-.46.46-1,0-1,0-1-1V54.63c0-.3-.09-.4-.4-.39H17.73c-.21,0-.27-.06-.28-.26,0-.9-.06-.9.83-.9Z"></path>
  <path class="cls-8" d="M29.76,55.19l-.88-.53c-.17-.12-.07-.21,0-.3.89-.9,1.83-1.75,2.76-2.6.5-.46,1-.92,1.49-1.4,1.16-1.13,2.36-2.22,3.54-3.32a16,16,0,0,1,1.78-1.61c.15,0,.25.11.39.17a.45.45,0,0,0,.36,0,.58.58,0,0,0,.19-.19c.24-.29,0-.56,0-.84a.73.73,0,0,1,.38-.43c.12-.08.26-.14.35,0-.07.5.08,1,0,1.51a31.73,31.73,0,0,0-3.68,3.27c-1.27,1.14-2.5,2.34-3.76,3.51l-2.6,2.45A1,1,0,0,1,29.76,55.19Z"></path>
  <path class="cls-8" d="M39.72,41.48v.78c-.09.44-.49.57-.75.84a11.57,11.57,0,0,1-1.41,1.39.82.82,0,0,1-.37.19,2.7,2.7,0,0,0-.41.06.38.38,0,0,0-.26.36.61.61,0,0,1-.07.35,7.46,7.46,0,0,1-1.39,1.36,1.82,1.82,0,0,0-.34.34c-1.13,1.14-2.34,2.21-3.51,3.3-.79.75-1.57,1.52-2.38,2.25-.37.34-.78.65-1.13,1a.28.28,0,0,1-.3.11,4.64,4.64,0,0,1-.79-.43,43.32,43.32,0,0,1,3.21-3c.51-.44,1-.93,1.49-1.39,1-.89,1.91-1.82,2.9-2.7.15-.14.34-.27.33-.53a.42.42,0,0,1,.29-.19c.2-.06.13-.22.14-.36a1.12,1.12,0,0,1,.1-.65c.35,0,.12.37.23.54.2-.12,0-.52.34-.54.15.23,0,.49.06.71a.71.71,0,0,1,.09-.45c.09-.13.27-.16.35-.32a13.51,13.51,0,0,1,1.34-1.28c.53-.53,1.09-1,1.62-1.55C39.26,41.51,39.43,41.23,39.72,41.48Z"></path>
  <path class="cls-5" d="M24.43,52.05a.42.42,0,0,0,.27-.14l2.88-2.71c.54-.5,1-1,1.6-1.52.33-.3.54-.73.95-1,.12-.06.34-.19.21-.43,0-.07,0-.11.08-.12a2.51,2.51,0,0,0,1.09-.58c.26,0,.52.16.79,0a.34.34,0,0,0,.2,0c.06-.12,0-.26.1-.38s.19-.3.4-.25.09.34.13.5v.13a1.57,1.57,0,0,1-.78,1,19.65,19.65,0,0,0-1.72,1.6l-3.58,3.36a8.12,8.12,0,0,1-1.4,1.22A11.17,11.17,0,0,1,24.43,52.05Z"></path>
  <path class="cls-9" d="M29.76,55.19a23.32,23.32,0,0,1,1.88-1.84l2.6-2.42,3-2.75,1.15-1.12c.38-.38,1-.86,1.4-1.33.15-.16.2.05.3,0s0-.32.17-.41l1-1,.07.81c-.59.62-1.23,1.19-1.86,1.76s-1.13,1-1.69,1.58l-3.56,3.34c-1,.91-1.94,1.79-2.88,2.72-.12.12-.28.16-.36.29l-1,.45Z"></path>
  <path class="cls-12" d="M38.49,45.52c-.57.46-1,1-1.59,1.5-.76.63-1.43,1.35-2.15,2.07-1.41,1.33-2.82,2.69-4.27,4-.54.48-1,1-1.58,1.47-.08.07,0,.13,0,.19h-.12c-.54-.31-.53-.3-.12-.74.69-.74,1.44-1.38,2.16-2.08L35,48.07c.68-.63,1.32-1.28,2.07-1.86.12-.1.29-.2.07-.37,0-.08.14-.09.22-.13l.1-.05.21-.17a6.93,6.93,0,0,0,.58-.5c.2-.17.26-.23.37,0S38.61,45.31,38.49,45.52Z"></path>
  <path class="cls-3" d="M12.55,40.17a6.21,6.21,0,0,0,.79,5c-.08.1-.15,0-.22,0-1.19-.81-2.4-1.57-3.53-2.44.61-.71,1.34-1.27,2-1.92.21-.22.45-.4.66-.62S12.42,40,12.55,40.17Z"></path>
  <path class="cls-7" d="M26.36,53.18a1.56,1.56,0,0,1-.45-.26.5.5,0,0,1,.2-.29c1-.93,2.07-2,3.1-2.89.47-.42.89-.87,1.36-1.3.94-.88,1.93-1.71,2.8-2.68.09-.11-.13-.17-.07-.29a.91.91,0,0,1,.65-.42,3.52,3.52,0,0,0,.37.69.3.3,0,0,1-.12.26c-1.48,1.34-2.9,2.71-4.35,4.06-.69.63-1.39,1.24-2.08,1.92-.37.38-.81.68-1.18,1.08A.25.25,0,0,1,26.36,53.18Z"></path>
  <path class="cls-12" d="M27.4,53.81a14.61,14.61,0,0,0,1.1-1c.74-.77,1.52-1.47,2.3-2.2,1.27-1.19,2.56-2.37,3.83-3.57l1.76-1.64c.19,0,.27.08.27.26-.57.7-1.29,1.22-1.92,1.86-.39.39-.8.75-1.2,1.12l-2.89,2.68a10.33,10.33,0,0,1-1.14,1A17.82,17.82,0,0,0,28,53.71a.39.39,0,0,1-.54.12h0Z"></path>
  <path class="cls-9" d="M26.36,53.18c.39-.35.8-.71,1.19-1l3.59-3.41c1-1,2.07-1.87,3.11-2.81l.09-.15a.18.18,0,0,1,.25,0h0c.2.14.08.23,0,.33-.6.58-1.18,1.19-1.83,1.73S31.62,49,31,49.49s-1.36,1.35-2.08,2-1.28,1.3-2,1.85a.37.37,0,0,1-.24.1Z"></path>
  <path class="cls-46" d="M33.43,45.76V46c-1.33,1.21-2.62,2.43-3.94,3.68S27.11,51.85,25.91,53l-.26-.09A25.62,25.62,0,0,1,28,50.6c.54-.5,1-1,1.62-1.51,1-.88,1.91-1.81,2.9-2.7a2.06,2.06,0,0,0,.6-.8C33.25,45.52,33.34,45.65,33.43,45.76Z"></path>
  <path class="cls-47" d="M36.66,45.67l-.27-.26V45h.27a1.25,1.25,0,0,1,.66.09.11.11,0,0,1,0,.11c-.15.2-.41,0-.59.18.09.25.32.11.48.19s.1.07.09.14h0a.79.79,0,0,1-.48,0Z"></path>
  <path class="cls-48" d="M26.79,58.69a1.39,1.39,0,0,1-1.22.33A2.28,2.28,0,0,1,26.79,58.69Z"></path>
  <path class="cls-49" d="M36.8,45.68h.48l-.28.08Z"></path>
  <path class="cls-14" d="M75.6,26.58a2.74,2.74,0,0,1,1.58-2.65,2.57,2.57,0,0,1,3.37,1.19,3.25,3.25,0,0,1-.33,3.49,2.59,2.59,0,0,1-2.79.8A2.78,2.78,0,0,1,75.6,27Z"></path>
  <path class="cls-14" d="M71.61,28.28h2.63c.35,0,.44.11.43.45,0,.84.1.71-.72.72H70.06c-.29,0-.34-.07-.33-.35A2.36,2.36,0,0,1,71.17,27c.45-.24.91-.45,1.36-.7.29-.16.61-.35.5-.76a.84.84,0,0,0-.88-.57,1.61,1.61,0,0,0-1.29.52c-.16.16-.27.21-.39,0a.8.8,0,0,0-.13-.13c-.66-.67-.67-.68.22-1.11A3.79,3.79,0,0,1,73.4,24a1.53,1.53,0,0,1,1.17,1.26,1.56,1.56,0,0,1-.84,1.55c-.51.34-1.1.55-1.59.92A1.34,1.34,0,0,0,71.61,28.28Z"></path>
  <path class="cls-14" d="M83.68,28.28h2.55c.36,0,.56.07.49.48a.81.81,0,0,0,0,.31c0,.31-.1.39-.4.38H82.18c-.25,0-.36,0-.35-.34A2.37,2.37,0,0,1,83.3,27c.43-.24.89-.44,1.31-.68s.63-.35.53-.76a.83.83,0,0,0-.87-.58,1.65,1.65,0,0,0-1.29.51c-.18.18-.29.19-.44,0a2.91,2.91,0,0,0-.3-.31c-.42-.44-.42-.45.11-.74a3.92,3.92,0,0,1,3.1-.43,1.51,1.51,0,0,1,1.21,1.33,1.59,1.59,0,0,1-.91,1.56c-.49.32-1,.53-1.54.9C84,27.92,83.77,28,83.68,28.28Z"></path>
  <path class="cls-14" d="M89.33,25.44a5.32,5.32,0,0,1-1.21.56c-.3.08-.51,0-.46-.35a1,1,0,0,0,0-.34c0-.29,0-.45.36-.53a2.13,2.13,0,0,0,1-.54c.46-.49,1-.26,1.55-.29.25,0,.17.24.17.38v3.44c0,.4.1.58.5.51h0c.78,0,.94.21.77,1,0,.19-.16.19-.28.19H88.2c-.21,0-.28-.06-.29-.27-.06-.89-.08-.89.81-.89.71,0,.62.07.62-.63Z"></path>
  <path class="cls-14" d="M30.1,39.19a2.42,2.42,0,0,1,1.83-.09,1.82,1.82,0,0,1,.27.15c.18.14.5.34.39.54s-.49.28-.76.38c-.09,0-.14-.13-.22-.19a.75.75,0,0,0-1,.05.76.76,0,0,0,0,1,.68.68,0,0,0,1,0l0,0c.19-.14,1,0,1,.21s-.07.21-.15.3a2.07,2.07,0,0,1-2.41.26,1.48,1.48,0,0,1-.61-2v-.13A4,4,0,0,1,30.1,39.19Z"></path>
  <path class="cls-6" d="M34.17,31.21s.09,0,.1.07a.1.1,0,0,1-.05.11h0s-.08-.06-.08-.09S34.17,31.25,34.17,31.21Z"></path>
  <path class="cls-7" d="M88.35,45.67a.5.5,0,0,1,.09-.44C88.43,45.38,88.5,45.52,88.35,45.67Z"></path>
  <path class="cls-14" d="M23.89,47.44c-.14-.12-.08-.3-.08-.46V42.19a1,1,0,0,1,.24-.67A17.78,17.78,0,0,1,25.41,40v6.22A6,6,0,0,1,23.89,47.44Z"></path>
  <path class="cls-14" d="M35,42.1a2.59,2.59,0,0,1-1.25-.27A1.5,1.5,0,0,1,33,40.5a1.4,1.4,0,0,1,.81-1.29,2,2,0,0,1,2.68.7,2.1,2.1,0,0,1,.13.26c.1,1.14-.21,1.67-1.14,1.94C35.29,42.15,35.15,42.21,35,42.1Z"></path>
  <path class="cls-5" d="M35,42.1a2.89,2.89,0,0,0,.9-.3,1.55,1.55,0,0,0,.7-1.63c.13.13,0,.31.09.45s.25-.22.42-.27a1.84,1.84,0,0,1,.1,1.09,2.12,2.12,0,0,1-.66,1c-.81.68-1.52,1.48-2.34,2.13-.19.1-.1.33-.25.44a2.2,2.2,0,0,1-.63.44c-.29-.18-.17-.45-.15-.7s.21-.12.06-.24-.17.08-.17.2A.2.2,0,0,1,33,45h0l-.33.26c-.18-.17-.11-.41-.12-.62v-.06c0-.36,0-.49.36-.52H33c0-.53.67-.39.9-.79s.62-.49.89-.78C34.87,42.35,35,42.26,35,42.1Z"></path>
  <path class="cls-14" d="M37.1,41.57a6.22,6.22,0,0,0,0-1.22v-1c0-.2,0-.33.26-.27s.65-.22.86.21c0,.08.23-.11.35-.17h0c.63-.13.82.06.65.72,0,.2-.2.12-.3.13-.34,0-.63.11-.67.52a1.83,1.83,0,0,0,0,.93c.11.59,0,.78-.62.78a1.09,1.09,0,0,1-.59-.1A.38.38,0,0,1,37.1,41.57Z"></path>
  <path class="cls-50" d="M31.14,44.29a1.62,1.62,0,0,1-.62,0c-.23,0-.3.07-.3.3s.11.28.32.28.36-.06.51.17a2.73,2.73,0,0,0-.7,0c-.31.09,0,.46-.32.7V44.29c0-.11.12-.11.2-.11h.91Z"></path>
  <path class="cls-31" d="M32.38,45.65a.81.81,0,0,1-.87-.07,1.84,1.84,0,0,1,0-1.09c.17.22.1.41.11.58s0,.35.18.46.34-.05.5-.12A.2.2,0,0,1,32.38,45.65Z"></path>
  <path class="cls-14" d="M32.38,45.65l-.09-.24a.86.86,0,0,0,.11-.52c0-.13-.08-.31.14-.34h0a2.26,2.26,0,0,1,0,1.21Z"></path>
  <path class="cls-16" d="M84.66,41.92a8.64,8.64,0,0,0,.91-1c.08-.14.18-.07.25,0s0,.17-.09.2a1.23,1.23,0,0,0-.48.48A.65.65,0,0,1,84.66,41.92Z"></path>
  <path class="cls-16" d="M81,45.52c.15-.47.61-.65.89-1a.12.12,0,0,1,.17,0h0c.07.07,0,.13,0,.18Z"></path>
  <path class="cls-16" d="M80.22,46.05a.08.08,0,0,1,.1.07.08.08,0,0,1,0,.09,4.9,4.9,0,0,0-.72.72s-.13,0-.16-.07A3.12,3.12,0,0,1,80.22,46.05Z"></path>
  <path class="cls-16" d="M83,43.65a.32.32,0,0,1-.15.21,1.24,1.24,0,0,0-.22.18c-.09.09-.07.38-.24.25s0-.3.1-.43l.31-.28C82.92,43.45,83,43.56,83,43.65Z"></path>
  <path class="cls-16" d="M78.25,48.11c0-.53.54-.64.78-1C78.93,47.6,78.5,47.77,78.25,48.11Z"></path>
  <path class="cls-16" d="M84.14,42.18c.18.49-.17.55-.3.73C83.83,42.63,84.09,42.52,84.14,42.18Z"></path>
  <path class="cls-16" d="M77.52,48.51c0,.19.06.45-.28.46C77.24,48.74,77.41,48.63,77.52,48.51Z"></path>
  <path class="cls-7" d="M85.57,39.1c.12.18.21.31,0,.45s-.23,0-.15-.2a.36.36,0,0,0,.07-.1A.44.44,0,0,0,85.57,39.1Z"></path>
  <path class="cls-16" d="M84.74,42c0,.1,0,.14-.11.14s-.08,0-.08-.07a.13.13,0,0,1,.09-.16h0C84.74,41.9,84.7,42,84.74,42Z"></path>
  <path class="cls-16" d="M86.75,40.16c-.06,0-.12,0-.12-.09s0-.12.12-.11a.3.3,0,0,1,.08.08C86.85,40.11,86.82,40.15,86.75,40.16Z"></path>
  <path class="cls-16" d="M76.77,49.18c0,.08.09.12.09.17a.17.17,0,0,1,0,.1c-.07,0-.12,0-.12-.07A.64.64,0,0,1,76.77,49.18Z"></path>
  <path class="cls-7" d="M86.92,37.7c.12.21.22.28.13.39s-.09,0-.11,0A.86.86,0,0,0,86.92,37.7Z"></path>
  <path class="cls-16" d="M75.94,50.28l-.07.07s-.05-.06-.05-.09,0,0,.05-.07S75.93,50.22,75.94,50.28Z"></path>
  <path class="cls-1" d="M67.21,57.48a1.28,1.28,0,0,1-1.1,1.42H65.9a1.52,1.52,0,0,1-.11-3h0a1.41,1.41,0,0,1,1.43,1.39v0A1,1,0,0,1,67.21,57.48Z"></path>
  <path class="cls-1" d="M57,74.33a1.27,1.27,0,0,1-1.11,1.41h-.22a1.52,1.52,0,0,1-.1-3A1.45,1.45,0,0,1,57,74.15Z"></path>
  <path class="cls-1" d="M63.71,39.21l-.17.4-1,2.07-.74-1.61A.84.84,0,0,0,63,39.81h0A1.5,1.5,0,0,1,63.71,39.21Z"></path>
  <path class="cls-51" d="M31,54.85v-.1l4.28-4c.52-.47,1-1,1.53-1.44,1.23-1.12,2.41-2.3,3.63-3.43a2.74,2.74,0,0,1,.91-.71c.06.2-.09.43.13.6h.06a21.79,21.79,0,0,1-1.63,1.56c-.59.48-1.27,1.22-1.93,1.81-1.21,1-2.34,2.2-3.51,3.31l-2.17,2c-.1.1-.19.21-.28.32Z"></path>
  <path class="cls-5" d="M35.21,55.8a2.52,2.52,0,0,1-.89.25,3,3,0,0,0-.77-.85,2.7,2.7,0,0,1,.9-1,8.85,8.85,0,0,0,.76-.74Z"></path>
  <path class="cls-1" d="M58.2,57.41a1.41,1.41,0,0,1,2.8-.24,1,1,0,0,1,0,.24,1.45,1.45,0,0,1-1.38,1.51,1.43,1.43,0,0,1-1.43-1.41Z"></path>
  <path class="cls-1" d="M48.67,57.42a1.41,1.41,0,1,1,2.81-.24h0a1,1,0,0,1,0,.24,1.45,1.45,0,0,1-1.38,1.51,1.41,1.41,0,0,1-1.43-1.39h0Z"></path>
  <path class="cls-1" d="M52.43,65.9a2.17,2.17,0,0,1,.51,0c.18.06.47,0,.49.24a.87.87,0,0,1-.22.84,1.72,1.72,0,0,1-1.25.39.81.81,0,0,1-.8-.67.76.76,0,0,1,.58-.76A2,2,0,0,1,52.43,65.9Z"></path>
  <path class="cls-52" d="M37.11,42c1.12.2,1.15.19,1.15-.9a1.27,1.27,0,0,1,.06-.64v.87A9.27,9.27,0,0,0,39.72,40a12.35,12.35,0,0,1,0,1.49c-.21-.11-.35,0-.46.16l-3,2.85-.07.11c-.1.08-.24.08-.34.19s-.17-.13-.26-.2c-.18.18-.09.43-.17.63s0,.22-.19.19-.06-.13-.08-.22.09-.42-.1-.6H35a3,3,0,0,1,1-1c.37-.31.68-.68,1-1S37.06,42.15,37.11,42Z"></path>
  <path class="cls-53" d="M37.28,45.52c-.29,0-.58.07-.66-.33.27-.1.56,0,.84-.07s0-.15,0-.22-.27-.2-.26-.4c.28,0,.42-.25.6-.41.67-.6,1.3-1.24,2-1.87.06.85.06.85.93.86H41l-.74.79c.11.15.3,0,.39.15s-.19,0-.28.07a.35.35,0,0,1-.24.06c-.36-.09-.45.23-.62.42a.25.25,0,0,1-.17,0c-.35-.15-.57.18-.86.24-.17-.18-.22,0-.28.1a1.69,1.69,0,0,1-.64.48A.72.72,0,0,1,37.28,45.52Z"></path>
  <path class="cls-54" d="M41.55,41.22a.61.61,0,0,1-.68-.55.48.48,0,0,1,0-.17c0-.43.26-.66.76-.66A1,1,0,0,1,41.55,41.22Z"></path>
  <path class="cls-55" d="M41.55,41.22a1.56,1.56,0,0,0,.08-1.38c.46,0,.59.35.58.73a.6.6,0,0,1-.52.65h-.14Z"></path>
  <path class="cls-1" d="M45.57,39.82a.7.7,0,0,1,.7.7h0a.7.7,0,0,1-.69.71h0a.71.71,0,0,1-.71-.71.7.7,0,0,1,.7-.7Z"></path>
  <path class="cls-56" d="M58.54,40.24h-.3c-.11,0-.26.07-.31-.07s.09-.23.19-.31a.7.7,0,0,1,.62-.12.41.41,0,0,1,.41.39c0,.2-.28.06-.44.11Z"></path>
  <path class="cls-57" d="M51.87,41.38c-.3,0-.52-.05-.51-.29s.33-.31.57-.31.39-.11.37.19a.41.41,0,0,1-.41.41Z"></path>
  <path class="cls-58" d="M40.07,44.21l.17-.09a.12.12,0,0,1,.12.09.27.27,0,0,0-.12.32.14.14,0,0,1,0,.19v.61c-.08.12.12.36-.17.41a2,2,0,0,0,0-.77C39.89,44.67,40.05,44.49,40.07,44.21Z"></path>
  <path class="cls-59" d="M40.24,44.72v-.23c.11,0,.25-.05.34.09C40.49,44.77,40.39,44.68,40.24,44.72Z"></path>
  <path class="cls-60" d="M40.39,44.21l-.11-.09h.34C40.66,44.24,40.66,44.24,40.39,44.21Z"></path>
  <path class="cls-1" d="M73.35,40.6a1.24,1.24,0,1,1-1.22-1.26h0A1.24,1.24,0,0,1,73.35,40.6Z"></path>
  <path class="cls-61" d="M41.62,45.17a.41.41,0,0,1,.35-.46h.08a.42.42,0,0,1,.44.4v0a.44.44,0,0,1-.5.37.45.45,0,0,1-.37-.37Z"></path>
  <path class="cls-62" d="M46.7,44.7h.17a.3.3,0,0,1,.28.32h-.76C46.38,44.82,46.53,44.76,46.7,44.7Z"></path>
  <path class="cls-1" d="M43.73,44.7c0,.1.11.14.17.19-.19.33-.49.15-.72.14s0-.15,0-.23A1,1,0,0,1,43.73,44.7Z"></path>
  <path class="cls-63" d="M55.92,45.06c0-.39.28-.34.53-.35s.27.14.24.28-.23.06-.34.07Z"></path>
  <path class="cls-13" d="M32.23,74.11H30.16l1-2.65Z"></path>
  <path class="cls-1" d="M25.7,56.92h-1c-.24,0-.32,0-.24-.3a1.39,1.39,0,0,1,1.27-.95,1.43,1.43,0,0,1,1.39.86c.09.26.08.41-.26.39s-.72,0-1,0Z"></path>
  <path class="cls-2" d="M39.78,65.78a1.32,1.32,0,1,1,0,.11Z"></path>
  <path class="cls-2" d="M45.76,74.37a3.38,3.38,0,0,1,.45,0c.18,0,.47,0,.5.25a.81.81,0,0,1-.18.8,1.65,1.65,0,0,1-1.5.39.7.7,0,0,1-.59-.62.68.68,0,0,1,.44-.72A1.76,1.76,0,0,1,45.76,74.37Z"></path>
  <path class="cls-2" d="M61,65.78a1.41,1.41,0,1,1,1.41,1.49A1.39,1.39,0,0,1,61,65.9h0Z"></path>
  <path class="cls-14" d="M19.56,38.36v6.21a.56.56,0,0,1-.1.33l-1.39,1.72c-.16-.1-.09-.23-.09-.33v-6a.75.75,0,0,1,.26-.61C18.64,39.31,19.06,38.86,19.56,38.36Z"></path>
  <path class="cls-64" d="M15.9,41.59h1.35c.13,0,.28,0,.28.17s-.15.15-.26.15H14.5c-.12,0-.24,0-.25-.16s.12-.15.24-.15Z"></path>
  <path class="cls-65" d="M21.75,46.62H20.4c-.13,0-.32.05-.32-.17s.17-.16.29-.16H23.1c.13,0,.29,0,.28.17s-.16.16-.29.16Z"></path>
  <path class="cls-66" d="M15.9,45.2H14.5c-.14,0-.29,0-.28-.18s.16-.13.28-.13h2.74c.1,0,.25,0,.27.14s-.14.17-.27.17Z"></path>
  <path class="cls-67" d="M21.75,45H20.4c-.13,0-.32.06-.31-.18s.18-.16.29-.16h2.7c.13,0,.33-.07.31.18s-.2.16-.34.16Z"></path>
  <path class="cls-68" d="M15.87,43.57H14.5c-.13,0-.29,0-.29-.17s.17-.15.3-.15H17.2c.11,0,.28-.06.3.14s-.2.18-.31.18Z"></path>
  <path class="cls-67" d="M21.68,43H23c.14,0,.33-.06.32.17s-.17.16-.3.16h-2.7c-.12,0-.29.05-.29-.16s.18-.17.31-.17Z"></path>
  <path class="cls-69" d="M23.37,47.1a1.21,1.21,0,0,1-.77.3H20.29c-.11,0-.22,0-.23-.15s0-.17.14-.17Z"></path>
  <path class="cls-14" d="M21.75,45.76H20.3c-.1,0-.22,0-.23-.11s.11-.17.23-.17h2.82c.12,0,.25,0,.24.17s-.14.11-.24.11Z"></path>
  <path class="cls-14" d="M15.88,42.72H14.5c-.12,0-.26,0-.25-.16s.13-.14.25-.14h2.82c.1,0,.22,0,.22.12s-.14.16-.25.16Z"></path>
  <path class="cls-14" d="M21.68,42.47H20.3c-.1,0-.22,0-.23-.14s.12-.15.24-.15h2.81c.1,0,.22,0,.24.11s-.12.18-.24.18Z"></path>
  <path class="cls-14" d="M21.75,43.83H23c.13,0,.38-.11.37.15s-.26.12-.39.12H20.46c-.13,0-.37.12-.37-.14s.23-.13.35-.13Z"></path>
  <path class="cls-14" d="M15.92,44.36H14.5c-.12,0-.26,0-.26-.14s.15-.14.26-.14h2.74c.1,0,.26,0,.26.15s-.16.12-.26.13Z"></path>
  <path class="cls-21" d="M15.92,46H14.5c-.12,0-.26,0-.27-.14s.16-.14.27-.14h2.74c.1,0,.25,0,.26.14s-.15.13-.25.14Z"></path>
  <path class="cls-14" d="M15.89,41.06H14.5c-.13,0-.26,0-.25-.17s.14-.11.24-.11h2.78c.11,0,.25,0,.24.16s-.14.12-.24.12Z"></path>
  <path class="cls-70" d="M38.42,44.92c.23-.3.49-.5.88-.31a.35.35,0,0,1-.18.16c-.2.08-.46.13-.38.43s.31.29.56.2a.25.25,0,0,1,.17,0,.11.11,0,0,1,0,.11l-.17.17a.72.72,0,0,1-.46,0c-.16,0-.22-.13-.34-.19A1,1,0,0,1,38.42,44.92Z"></path>
  <path class="cls-71" d="M39.1,44.7l.2-.09h.15c.16.29.39.58,0,.88v-.12A2.15,2.15,0,0,0,39.1,44.7Z"></path>
  <path class="cls-33" d="M38.83,45.68h.46A.39.39,0,0,1,38.83,45.68Z"></path>
  <path class="cls-72" d="M34,45.06c.09-.16-.15-.44.17-.52a.27.27,0,0,1,.19.3c0,.44.18.61.55.68v.12l-.27.12h-.26A.7.7,0,0,1,34,45.06Z"></path>
  <path class="cls-73" d="M35.61,44.54l.24.12a.12.12,0,0,1,0,.14h0c-.19.28,0,.63-.2.92A3.13,3.13,0,0,1,35.61,44.54Z"></path>
  <path class="cls-35" d="M34.83,45.64v-.12c0-.33-.19-.69.17-1a.08.08,0,0,0,.09,0,7.53,7.53,0,0,1,0,.95C35.15,45.82,34.94,45.62,34.83,45.64Z"></path>
  <path class="cls-74" d="M37.17,44.54c.12.11.32.16.35.35a.13.13,0,0,1-.11.12,2.38,2.38,0,0,0-.51-.24.23.23,0,0,1-.17-.15C36.86,44.49,37,44.55,37.17,44.54Z"></path>
  <path class="cls-49" d="M36.73,44.62l.19.08c-.06.16-.24.22-.34.36L36.4,45A.4.4,0,0,1,36.73,44.62Z"></path>
  <path class="cls-75" d="M35.87,44.8v-.14a.46.46,0,0,1,.37-.11C36.25,44.81,36,44.68,35.87,44.8Z"></path>
  <path class="cls-76" d="M33,44.73l-.12-.1c.15-.06.18-.28.31-.32s.07.14.08.22a.15.15,0,0,1,0,.2,1.45,1.45,0,0,0,.07.77c.13.25.24,0,.35.11s-.16.11-.24.15l-.29-.17v-.1C33,45.24,33.14,45,33,44.73Z"></path>
  <path class="cls-46" d="M32.52,45.75a4.9,4.9,0,0,0,0-1.21c.2.21,0,.47.11.69S32.75,45.63,32.52,45.75Z"></path>
  <path class="cls-46" d="M33,44.73c.18.23,0,.5.09.76-.15-.15,0-.35-.09-.52Z"></path>
  <path class="cls-49" d="M37.28,45.52a.14.14,0,0,1,.26-.12.13.13,0,0,1,0,.18h-.09Z"></path>
  <path class="cls-77" d="M36.58,45.06c0-.24.16-.3.34-.36a.55.55,0,0,1,.51.3c0,.07,0,.09-.08.07Z"></path>
  <path class="cls-49" d="M37.53,45.15c-.31.14-.64,0-1,.08.25-.17.54,0,.81-.1a.1.1,0,0,1,.14,0Z"></path>
  <path class="cls-78" d="M37.53,45.15h-.15a.06.06,0,0,1,0-.06l.07-.07.09-.11C37.54,45,37.63,45.06,37.53,45.15Z"></path>
  <path class="cls-4" d="M79.52,26.64a2.1,2.1,0,0,1-.44,1.3,1,1,0,0,1-1.38.33.1.1,0,0,0,0,0,1.14,1.14,0,0,1-.39-.48,2.29,2.29,0,0,1-.09-2.07,1.1,1.1,0,0,1,1.09-.77,1.21,1.21,0,0,1,1.1.86A2.17,2.17,0,0,1,79.52,26.64Z"></path>
  <path class="cls-79" d="M35.45,40.5a.67.67,0,0,1-.75.58.66.66,0,0,1-.58-.58h0a.65.65,0,0,1,.58-.7h.09a.61.61,0,0,1,.66.56h0Z"></path>
  <path class="cls-46" d="M35,44.49c-.16.3.07.67-.17,1-.51.16-.62.07-.65-.44a.89.89,0,0,0,0-.51c.92-.76,1.74-1.61,2.63-2.39.18-.17.15-.45.35-.58V42c.24.2.17.32,0,.54A26.18,26.18,0,0,0,35,44.49Z"></path>
  <path class="cls-59" d="M33.25,44.73v-.24c.12,0,.26-.05.36.09C33.51,44.78,33.37,44.68,33.25,44.73Z"></path>
  <path class="cls-80" d="M39.1,44.7c.4.09.36.39.35.69a.51.51,0,0,1-.64.12.39.39,0,0,1-.21-.43.42.42,0,0,1,.47-.38Z"></path>
</svg>
