<?xml version="1.0" encoding="UTF-8"?>
<!-- Generator: Adobe Illustrator 26.1.0, SVG Export Plug-In . SVG Version: 6.00 Build 0)  -->
<svg xmlns="http://www.w3.org/2000/svg" xmlns:xlink="http://www.w3.org/1999/xlink" version="1.1" id="Layer_1" x="0px" y="0px" viewBox="0 0 96.8 102.7" style="enable-background:new 0 0 96.8 102.7;" xml:space="preserve">
<style type="text/css">
	.st0{fill:#EB6127;}
	.st1{fill:#EB5628;}
	.st2{fill:#064368;}
	.st3{fill:#0A3859;}
	.st4{fill:#F37527;}
	.st5{fill:#0D2E4E;}
	.st6{fill:#EF7E22;}
	.st7{fill:#092439;}
	.st8{fill:#EB6325;}
	.st9{fill:#ED6825;}
	.st10{fill:#ED7B22;}
	.st11{fill:#EB4924;}
	.st12{fill:#F05928;}
	.st13{fill:#EF7125;}
	.st14{fill:#EC5227;}
	.st15{fill:#F0592A;}
	.st16{fill:#FFFFFF;}
	.st17{fill:#F68E22;}
</style>
<path class="st0" d="M42.6,37c-0.9,0.1-1.9,0.1-2.8,0c-3.4-0.2-6.8-0.4-10.2-0.4c-0.3,0-0.6,0-0.9-0.1v-3.2c0-1.1,0.1-1.1,1.1-1.4  s1.9-0.5,2.9-0.7c0.6-0.3,1.3-0.4,1.9-0.4c0.6,0.1,1.1,0.7,1.5,1.1l5.7,4.4L42.6,37z"></path>
<path class="st1" d="M35.4,51.1c-1.2,0-2.4-0.1-3.6-0.2c-1.7,0-3.3-0.2-5-0.3c-0.1-0.4-0.1-0.8-0.1-1.3c-0.1-0.6,0-0.7,0.4-0.9  c1.1-0.4,2.2-0.7,3.3-1c0.3-0.1,0.6,0,0.8,0.2c0.9,0.8,1.8,1.5,2.7,2.3L35.4,51.1z"></path>
<path class="st2" d="M79.8,32.4c0.6-0.5,0.9-1.2,1.1-2c0.2-1.4-0.2-2.7,0.1-4.1c0.2-0.1,0.3,0.1,0.3,0.2c0.3,1,0.7,1.9,1,2.9  c0.6,2,0.9,4,0.9,6.1c-0.1,1.2-0.2,2.4-0.5,3.5c-0.2,2.3-1.8,3.7-3.3,5.1c-0.7,0.5-1.5,1-2.3,1.5c-3.2,1.4-6.7,2.3-10.2,2.6  c-0.4,0-0.8,0.1-1.3,0.2c-2.4,0.1-4.9,0.4-7.3,0.4C53,49,47.8,48.5,42.5,48.2c-0.9,0-1.8-0.2-2.6-0.5c-0.7-0.1-1.4-0.2-2-0.2  c-4.2-0.3-8.3-0.7-12.5-0.6c-2.3,0-4.6,0.2-6.8,0.7c-0.8,0.2-1.7,0.5-2.4,0.8c-2.5,0.9-3.9,3.6-3.2,6.2l0.2,0.9v0.1  c0,0-0.1,0-0.1-0.1c-1.4-2.8-2.1-5.8-2.2-8.9c0-0.9,0-1.7,0.2-2.6c0.5-2.2,1.9-4,3.8-5.1c1.5-0.8,3.1-1.4,4.7-1.7  c2.5-0.5,5-0.7,7.6-0.7c0.5,0,1.1-0.1,1.5-0.1c1.4-0.5,2.9-0.6,4.3-0.3c2.6,0.2,5.1,0.1,7.7,0.4c0.7,0,1.4,0.1,2,0.4  c0.2,0.1,0.5,0.1,0.8,0.2l8.6,0.6c0.3,0,0.5,0,0.8,0c1.3-0.6,2.6-0.3,3.9-0.3c4,0.1,8,0,11.9-0.6c0.5-0.1,1.1-0.1,1.7,0.1  c1.2-0.1,2.4-0.4,3.5-0.9c0.3-0.4,0.7-0.6,1.2-0.7c1.6-0.5,3-1.4,4.1-2.6C79.2,32.6,79.5,32.4,79.8,32.4z"></path>
<path class="st3" d="M17,62.8c-0.2-0.4-0.4-0.9-0.8-1.2c-0.9-1.3-1.5-2.8-1.9-4.3c-0.1-0.5-0.2-1-0.2-1.5c0-1.2,0.6-2.4,1.6-3.1  c0.7-0.5,1.5-0.9,2.4-1.2c1.6-0.4,3.3-0.7,4.9-0.8c1.2,0,2.5-0.1,3.7-0.1c0.3-0.2,0.6-0.3,1-0.3c2.5,0.1,5.1,0,7.6,0.8  c0.5,0.1,1.1,0.2,1.7,0.2l7.5,0.7h1.2c1.2-0.3,2.5-0.3,3.7,0c3.5,0.3,7,0.1,10.6,0.2h2.8c2,0,4.1-0.2,6.1-0.5  c3.4-0.3,6.6-1.4,9.5-3.1c0.6-0.4,1.2-0.9,1.7-1.4c1.1-1.2,2-2.6,2.4-4.2c0.2-0.5,0.2-1.1,0.6-1.4s0.3-1,0.4-1.7  c0.2,3.6-0.2,7.1-1.1,10.6c-0.4,1.7-1.2,3.3-2.3,4.7l-0.8,1C78,58.2,75.9,59,74,60c-0.4,0.2-0.8,0.3-1.2,0.5  c-0.8,0.3-1.6,0.5-2.3,0.7c-3.6,0.9-7.4,1.4-11.2,1.3c-2.9,0.1-5.8-0.2-8.6-0.3c-5-0.4-10-1.1-15-1.6c-3.9-0.7-7.8-1.1-11.8-1.2  c-1.4-0.1-2.9,0.1-4.2,0.5c-1.5,0.4-2,1.2-1.7,2.8c0.1,0.4,0.5,0.9-0.2,1.1c0-0.2,0-0.2-0.2-0.3C17.4,63.4,17.2,63.1,17,62.8z"></path>
<path class="st4" d="M70.2,37c-2,0.5-4.1,0.7-6.2,0.8c-3.5,0.2-7.1,0.2-10.7,0.1c-0.2,0-0.4,0-0.6-0.1c-0.6-0.6-1.3-1.1-2-1.6  c-4.5-3.2-9-6.3-13.4-9.6c-2-1.4-3.8-2.9-5.8-4.3c-0.4-0.2-0.6-0.6-0.5-1c0-1.8,0.2-3.5,0.4-5.3c0-0.6,0.1-0.7,0.8-0.8  c1.6-0.4,3.2-0.7,4.8-1c0.5-0.2,1.1,0,1.5,0.3c3,2.2,6.2,4.3,9.4,6.3c3.8,2.5,7.7,5,11.5,7.6c3.4,2.2,6.6,4.7,9.6,7.4  C69.4,36.1,69.8,36.5,70.2,37z"></path>
<path class="st5" d="M79.2,58.2c0,0.4-0.1,0.7-0.3,1c-0.5,0.9-1,1.8-1.6,2.6c-0.9,1.2-1.8,2.5-2.8,3.7c-1.2,1.4-2.6,2.6-4.2,3.6  c-0.4,0.3-0.9,0.5-1.3,0.8c-1.4,1-3.1,1.7-4.9,2c-1.3,0.3-2.6,0.5-3.9,0.5c-2.6,0.5-5.2,0.4-7.7-0.3l-4.1-0.5c-4-0.5-7.9-1.2-11.8-2  l-11.3-2.3c-0.5-0.1-1.1-0.2-1.7-0.2c-0.8,0-1.6-0.4-2.2,0.5c-0.1,0-0.2,0-0.3-0.1c-0.5-0.4-0.8-1.1-1.3-1.4  c-0.2-0.2-0.4-0.5-0.6-0.7c-0.8-0.8-0.8-2.1,0-2.8c0,0,0,0,0,0c0.3-0.3,0.7-0.5,1.1-0.5c1.8-0.5,3.7-0.6,5.5-0.3  c4.9,0.4,9.7,1.1,14.5,1.8c4.3,0.7,8.6,1.2,13,1.5c0.5,0,1.1,0.2,1.5,0.2c2.3,0.1,4.5,0,6.8,0c3.2-0.2,6.3-0.7,9.3-1.6  c0.5-0.1,1-0.3,1.4-0.5c2-0.8,3.8-1.9,5.3-3.5c0.1-0.1,0.2-0.1,0.3-0.2h0.2C78.7,59,78.9,58.5,79.2,58.2L79.2,58.2z"></path>
<path class="st6" d="M79.8,32.4c-0.4,0.7-1,1.3-1.7,1.7c-1.3,0.9-2.8,1.6-4.4,2c-1.5-1.7-3.1-3.3-4.9-4.8c-3-2.6-6.2-5-9.5-7.2  c-3.8-2.6-7.7-5.1-11.3-7.9c-1.7-1.2-1.4-0.7-1.5-2.8v-2.3c0-0.3,0.2-0.5,0.4-0.5l3.2-0.7c0.3,0,0.7,0.1,0.9,0.3l4.4,2.9  c4.8,3.2,9.6,6.5,14.5,9.6c3.7,2.5,6.9,5.6,9.4,9.2C79.5,32,79.7,32.2,79.8,32.4z"></path>
<path class="st7" d="M66.1,72.4c-0.2,0.4-0.7,0.6-1.1,0.8c-2.4,1.3-4.9,2.4-7.5,3.2c-2,0.6-4,0.8-6,0.8c-3.9,0.1-7.8-0.1-11.7-0.7  c-2.5-0.4-5-1-7.3-2c-2.9-1.2-5.6-2.7-8.1-4.4c-0.6-0.4-1.2-0.9-1.8-1.5c-0.1-0.2-0.4-0.3-0.2-0.5s0.4-0.1,0.6-0.1  c0.8,0.1,1.5,0.2,2.3,0.4c3.8,0.9,7.5,1.9,11.2,2.8c4.2,1.1,8.4,1.8,12.7,2.4c1.7,0.3,3.3,0.4,5,0.3c0.5-0.4,1.1-0.3,1.7-0.4  c1.3,0,2.7,0,4-0.1c1.1-0.1,2.3-0.3,3.4-0.6C64.1,72.8,65,71.9,66.1,72.4z"></path>
<path class="st8" d="M63.1,52.5c-0.7,0-1.4,0.1-2.1,0.1c-3.2,0-6.3,0-9.5-0.2c-1.5-0.1-2.9-0.2-4.4-0.3c-0.5,0-0.9-0.1-1.4-0.2  c-0.3-0.3-0.6-0.6-1-0.8l-4.1-2.9c-0.3-0.2-0.5-0.4-0.8-0.7c0.9,0,1.9,0,2.8,0.2c4.9,0.3,9.8,0.6,14.8,0.5c0.3,0,0.5,0,0.8,0.1  c1.6,0.9,3.1,2,4.5,3.3C62.9,51.9,63.1,52.2,63.1,52.5z"></path>
<path class="st9" d="M78,59.5c-0.2,0.3-0.4,0.6-0.8,0.8c-1.3,1.3-2.9,2.2-4.7,2.8c-0.4-1-0.3-2.1,0.2-3c0.7-0.3,1.5-0.7,2.2-1.1  c1.3-0.6,2.5-1.5,3.5-2.4c0.2-0.2,0.4-0.4,0.7-0.6c-0.1,0.7-0.3,1.4-0.7,2c-0.2,0.3-0.3,0.6-0.4,1l0,0L78,59.5z"></path>
<path class="st10" d="M83.1,41.7c-0.2,2.2-1.2,4.2-2.8,5.7c-0.8-0.9-1.2-2.1-1.1-3.4c0.3-0.3,0.5-0.5,0.8-0.8c1-1,1.9-2.1,2.4-3.4  c0.1-0.2,0.2-0.5,0.3-0.7C82.9,39.9,83,40.8,83.1,41.7z"></path>
<path class="st11" d="M60,73.7c-0.1,0.1-0.3,0.1-0.5,0.2c-1.8,0.1-3.6,0.1-5.4,0c-0.4-0.8-1.2-1.3-1.7-2h1.4  c2.1,0.2,4.2,0.2,6.3,0.1C60.7,72.6,60.5,73.2,60,73.7z"></path>
<path class="st12" d="M66.1,72.4c-0.3,0-0.7,0.1-1,0.2c-0.6,0.3-1.3,0.4-2,0.5c0.1-0.7,0.4-1.3,0.9-1.7c1.6-0.4,3.3-0.9,4.8-1.6  c-0.3,0.4-0.6,0.7-1.1,1l-1.2,1L66.6,72h-0.1C66.5,72.2,66.2,72.2,66.1,72.4L66.1,72.4z"></path>
<path class="st7" d="M66.1,72.4c0-0.2,0.3-0.2,0.4-0.3C66.4,72.3,66.3,72.4,66.1,72.4z"></path>
<path class="st7" d="M66.6,72C66.6,72,66.6,71.9,66.6,72L66.6,72L66.6,72L66.6,72z"></path>
<polygon class="st5" points="79.2,58.2 79.2,58.2 79.2,58.2 "></polygon>
<path class="st13" d="M78.8,48.6c-0.4,0.4-0.9,0.8-1.5,1c-2.5,1.3-5.2,2-8,2.3c-1.4-1.1-2.5-2.4-3.4-3.9l2.9-0.5  c2.1-0.3,4.2-0.8,6.2-1.6c0.7-0.3,1.4-0.6,2.1-0.8C78.2,46,78.9,47.3,78.8,48.6z"></path>
<path class="st14" d="M40.2,63.6c-1.2-1-2.5-1.7-3.8-2.6c-0.3-0.2-0.8-0.4-1-0.8c0.6-0.1,1.3,0,1.9,0.1l10,1.1c1,0,2.1,0.2,3.1,0.3  c1.5,0.8,2.8,1.8,4,3c0.1,0.1,0.2,0.3,0.1,0.5c-2,0-4-0.2-6-0.5c-2.4-0.3-4.8-0.6-7.1-0.9C41,63.8,40.6,63.8,40.2,63.6z"></path>
<path class="st15" d="M71.2,63.7c-1.6,0.6-3.2,1-4.9,1.2c-1.4,0.2-2.8,0.3-4.2,0.4c-1.1-1-2.2-1.8-2.7-3.2c0.2,0,0.4-0.1,0.7-0.1  c3.3,0,6.6-0.4,9.8-1.1l0.5-0.1C71.2,61.6,71.5,62.7,71.2,63.7z"></path>
<path class="st16" d="M78,59.5l0.2-0.2L78,59.5z"></path>
<path class="st2" d="M66,84.7c0.8-0.1,0.8-0.1,1.2,0.7c0.2,0,0.3-0.2,0.3-0.4c0.2-0.5,0.5-0.5,1-0.3c-0.1,0.4-0.3,0.9-0.5,1.2  c-0.3,0.5-0.3,1.1-0.1,1.6c0.1,0.2,0.2,0.3,0.3,0.6c0.3-0.4,0.6-0.9,0.7-1.4c0.2-0.5,0.4-1,0.7-1.5c0.3-0.7,0.3-0.7,1.2-0.5  l-1.1,2.2c-0.3,0.6-0.6,1.1-0.8,1.7c-0.1,0.3-0.4,0.4-0.7,0.4c-0.6,0-0.6,0-0.9-0.7c-0.1-0.1-0.2-0.2-0.3-0.4  c-0.1,0.2-0.2,0.4-0.3,0.6C66.7,89,66.3,89,65.9,89c-0.3,0-0.6-0.2-0.7-0.5c-0.4-1.2-0.9-2.4-1.3-3.5c0-0.1,0-0.2,0-0.3  c0.1,0,0.1-0.1,0.2-0.1c0.6,0,0.6,0,0.8,0.5c0.3,0.8,0.6,1.7,0.9,2.6c0,0.2,0.1,0.3,0.3,0.4c0.2-0.3,0.4-0.6,0.5-1  c0.1-0.2,0-0.4-0.1-0.6C66.4,85.7,66.2,85.2,66,84.7z"></path>
<path class="st2" d="M43.4,87.4c-0.4,0-0.7,0.1-1,0.3c-0.1,0.1-0.2,0.2-0.2,0.4c0,0.2,0.1,0.3,0.3,0.3l0.3,0.1c0.1,0,0.3,0,0.2,0.3  c0,0.1-0.1,0.2-0.2,0.2c-0.3,0.1-0.6,0.1-0.9,0c-0.3-0.1-0.6-0.3-0.6-0.6c-0.1-0.3,0-0.7,0.3-0.9c0.3-0.2,0.7-0.3,1-0.4  c0.2-0.1,0.5,0,0.6-0.2c0.1-0.1,0.1-0.2,0.1-0.3c0-0.1-0.1-0.2-0.2-0.2c0,0,0,0,0,0l0,0c-0.3,0-0.5,0-0.8,0c-0.2,0-0.3,0.1-0.5,0.1  c-0.1,0-0.1-0.1-0.2-0.2c0-0.1,0-0.3,0.1-0.3c0.7-0.3,1.5-0.3,2.3,0c0.3,0.1,0.4,0.4,0.4,0.7c0,0.7-0.1,1.5-0.1,2.2  c0,0.2-0.2,0.3-0.5,0.3c-0.2,0-0.4-0.1-0.4-0.3c0,0,0,0,0,0l0,0C43.4,88.2,43.6,87.9,43.4,87.4z"></path>
<path class="st2" d="M77,87.3h1.3c0.7,0,0.8-0.3,0.6-0.9c-0.1-0.3-0.4-0.6-0.7-0.7c-0.9-0.4-2,0-2.4,0.9c-0.1,0.3-0.2,0.7-0.1,1  c0.1,0.7,0.6,1.3,1.4,1.4c0.3,0,0.7,0,1,0c0.3,0,0.6-0.3,0.5-0.5s-0.4-0.2-0.8-0.2h-0.5c-0.2,0-0.5-0.2-0.6-0.4  c-0.1-0.1-0.1-0.3-0.1-0.4C76.7,87.3,76.9,87.3,77,87.3z M76.8,86.5c0.2-0.3,0.6-0.5,1-0.3c0,0,0,0,0,0c0.2,0.1,0.3,0.3,0.2,0.5  c0,0.2-0.2,0.2-0.4,0.2c-0.2,0-0.3,0-0.5,0h-0.3C76.8,86.8,76.7,86.7,76.8,86.5C76.8,86.5,76.8,86.5,76.8,86.5L76.8,86.5z"></path>
<path class="st2" d="M61.4,87.3h1.7c0.3,0,0.5-0.2,0.4-0.6c0-0.4-0.3-0.8-0.7-1c-0.6-0.3-1.4-0.2-1.9,0.2c-0.6,0.4-0.8,1.1-0.7,1.8  c0.1,0.7,0.7,1.3,1.4,1.3c0.3,0,0.6,0,0.9,0c0.4,0,0.7-0.3,0.6-0.5s-0.4-0.2-0.8-0.2c-0.2,0-0.3,0-0.5,0c-0.3,0-0.6-0.3-0.7-0.6  c-0.1-0.1-0.1-0.3,0-0.4C61.2,87.3,61.3,87.3,61.4,87.3z M61.3,86.5c0.2-0.3,0.7-0.4,1-0.2h0c0.1,0.1,0.2,0.2,0.2,0.4  c0,0.2-0.2,0.2-0.3,0.2c-0.2,0-0.3,0-0.5,0h-0.3C61.3,86.8,61.3,86.6,61.3,86.5z"></path>
<path class="st2" d="M48.9,87.3h1.3c0.6,0,0.8-0.3,0.5-0.9c-0.1-0.4-0.4-0.6-0.8-0.7c-0.9-0.4-1.9,0.1-2.2,0.9c0,0,0,0,0,0  c-0.1,0.3-0.2,0.6-0.1,0.9c0,0.8,0.6,1.4,1.4,1.5l0,0c0.3,0,0.6,0,0.9,0c0.5,0,0.7-0.2,0.6-0.5s-0.4-0.2-0.8-0.2c-0.1,0-0.3,0-0.4,0  c-0.2,0-0.4-0.2-0.6-0.4C48.4,87.6,48.6,87.3,48.9,87.3z M48.9,86.2c0.3-0.2,0.6-0.2,0.9,0c0.1,0.1,0.2,0.2,0.2,0.4  c0,0.2-0.2,0.2-0.3,0.2c-0.1,0-0.2,0-0.3,0l0,0c-0.1,0-0.2,0-0.2,0c-0.2,0-0.3,0-0.4-0.1C48.6,86.5,48.7,86.4,48.9,86.2L48.9,86.2z"></path>
<path class="st2" d="M51.5,86.8c0-0.7,0-1.3,0.1-2c0-0.3,0.3-0.3,0.5-0.3s0.5,0.1,0.5,0.4c0,0.8,0,1.6-0.1,2.3c0,0.2,0,0.4,0,0.6  c0,0.3,0.1,0.4,0.4,0.4h1.3c0.2,0,0.3,0.1,0.3,0.3l0,0c0,0.2-0.1,0.3-0.2,0.3c-0.2,0-0.5,0-0.7,0c-0.7,0.1-1.4,0-2.1-0.2  C51.4,88,51.4,87.4,51.5,86.8z"></path>
<path class="st2" d="M58,87.8c0.4-0.2,0.4-0.6,0.5-0.9c0.1-0.3,0.2-0.6,0.3-0.9c0.1-0.3,0.4-0.4,0.7-0.3s0.3,0.1,0.2,0.3  c-0.4,0.9-0.8,1.9-1.2,2.8c-0.3,0.3-0.7,0.3-1,0.1c-0.1-0.1-0.1-0.1-0.2-0.2c-0.3-0.9-0.6-1.8-0.9-2.7c-0.1-0.2,0-0.3,0.2-0.3  c0.4,0,0.6,0,0.7,0.4S57.9,87.2,58,87.8z"></path>
<path class="st2" d="M46.5,89c-0.8,0-1.1-0.2-1.1-1v-1.4c-0.8-0.5,0-0.9,0.1-1.3s0.3-0.3,0.6-0.3s0.3,0.2,0.3,0.4s0.3,0.3,0.5,0.3  c0.1,0,0.2,0.1,0.2,0.2c0,0,0,0,0,0l0,0c0,0.1,0,0.2-0.1,0.3c-0.1,0-0.1,0.1-0.2,0.1c-0.2,0-0.4,0.2-0.4,0.4l0,0l0,0  c0,0.3,0,0.6-0.1,0.9c-0.1,0.3,0.1,0.5,0.4,0.6c0.1,0,0.1,0,0.2,0c0.2,0,0.3,0.1,0.3,0.3c0,0.2-0.1,0.3-0.3,0.3  C46.8,89,46.6,89,46.5,89z"></path>
<path class="st2" d="M72.8,87.3c0-0.2,0-0.5,0-0.7s-0.2-0.7,0.2-0.9s0.5,0,0.8,0c0.2,0,0.5-0.1,0.7-0.2c0.2,0,0.4,0,0.4,0.2  s0,0.5-0.2,0.5c-0.7,0.1-0.9,0.5-0.9,1.2c0,0.4,0,0.8,0,1.2c-0.1,0.4-0.3,0.3-0.6,0.3s-0.3-0.2-0.3-0.4L72.8,87.3L72.8,87.3z"></path>
<path class="st2" d="M55.9,87.4v1.1c0,0.4-0.2,0.5-0.5,0.4s-0.5-0.1-0.4-0.4c0-0.8,0.1-1.7,0.2-2.6c0-0.3,0.2-0.4,0.5-0.3  s0.5,0.1,0.4,0.4C56,86.5,55.9,86.9,55.9,87.4z"></path>
<path class="st2" d="M71.1,87.2c0-0.4,0-0.9,0.1-1.3c0-0.2,0.3-0.2,0.5-0.2s0.4,0,0.4,0.3c0,0.2,0,0.3,0,0.5c0,0.7-0.1,1.4-0.1,2.1  c0,0.3-0.2,0.4-0.5,0.4S71,88.9,71,88.6C71,88.2,71.1,87.8,71.1,87.2z"></path>
<path class="st2" d="M56,84.8v0.1c0,0.1-0.1,0.1-0.2,0.2c-0.3,0.1-0.6,0.1-0.7-0.1c0-0.1,0-0.2,0-0.3c0.2-0.2,0.5-0.2,0.7,0  C55.9,84.7,56,84.7,56,84.8z"></path>
<path class="st2" d="M71.7,84.4c0.1,0,0.2,0.1,0.3,0.2c0.1,0.1,0.1,0.2,0,0.3l0,0c-0.2,0.2-0.6,0.3-0.8,0.1c0,0,0,0,0,0l-0.1-0.1  c0-0.1,0-0.2,0.1-0.3C71.4,84.5,71.5,84.5,71.7,84.4z"></path>
<path class="st2" d="M34.1,86.6c-0.1-0.5-0.5-0.9-1-1c-0.7-0.1-1.3-0.1-2,0.1c-0.2,0-0.3,0.2-0.3,0.4v2l0,0c0,0.6-0.1,1.2-0.1,1.8  c0,0.4,0,0.5,0.4,0.6s0.5-0.1,0.5-0.4s0-0.6,0-0.9s0.2-0.3,0.4-0.2c0.2,0.1,0.4,0.1,0.6,0.2c0.6,0.1,1.3-0.2,1.6-0.8  C34.2,87.7,34.2,87.1,34.1,86.6z M33.1,87.9c-0.2,0.4-0.7,0.5-1.1,0.3c-0.2-0.1-0.3-0.3-0.4-0.4c0-0.2-0.1-0.3-0.1-0.5v-0.3  c0-0.5,0.1-0.7,0.4-0.7c0.5-0.1,1,0.1,1.2,0.6C33.3,87.1,33.3,87.5,33.1,87.9L33.1,87.9z"></path>
<path class="st2" d="M36.5,85.6c-0.9-0.1-1.8,0.6-1.9,1.5c0,0.1,0,0.2,0,0.2c0,0.8,0.6,1.6,1.4,1.7h0.3c0.9,0.1,1.7-0.6,1.8-1.5  c0,0,0,0,0,0v-0.3c0-0.9-0.7-1.6-1.5-1.7L36.5,85.6z M37.1,88c-0.2,0.3-0.6,0.4-0.9,0.4c-0.3-0.1-0.6-0.3-0.6-0.6c0-0.2,0-0.4,0-0.6  c0-0.5,0.4-0.9,0.9-0.9c0.5,0,0.8,0.4,0.8,0.9c0,0,0,0,0,0v0.1C37.3,87.5,37.3,87.8,37.1,88z"></path>
<path class="st2" d="M27.4,87.2c0-0.9-0.7-1.6-1.6-1.6c0,0,0,0,0,0h-0.2c-1-0.1-1.8,0.7-1.8,1.6c0,0.1,0,0.1,0,0.2  c0,0.9,0.6,1.6,1.5,1.6c0.1,0,0.2,0,0.3,0c0.9,0.1,1.7-0.6,1.8-1.6C27.5,87.4,27.5,87.3,27.4,87.2z M26.4,87.9  c-0.2,0.4-0.7,0.6-1.1,0.3c-0.1,0-0.2-0.1-0.2-0.2c-0.4-0.5-0.3-1.2,0.2-1.7c0.3-0.2,0.6-0.2,0.9,0c0.4,0.2,0.4,0.5,0.4,1  C26.5,87.6,26.4,87.8,26.4,87.9L26.4,87.9z"></path>
<path class="st2" d="M22.6,85.2h-0.6c-0.8,0-1.5,0.7-1.5,1.5c-0.1,0.8,0.4,1.5,1.2,1.6c0,0,0,0,0,0h1.1c0.3,0,0.3,0,0.3,0.2  c0,0.2-0.1,0.3-0.2,0.4L22.8,89c-0.7,0.2-1.5,0.1-2.2-0.2c-0.7-0.3-1.1-0.9-1.1-1.7c-0.2-1.2,0.6-2.4,1.8-2.6c0,0,0,0,0,0  c0.1,0,0.3,0,0.4,0c0.4-0.1,0.9,0,1.3,0.1c0.2,0.1,0.2,0.2,0.2,0.4s-0.1,0.2-0.2,0.2h-0.2L22.6,85.2z"></path>
<path class="st2" d="M38.9,87.4v-0.7c0-0.3,0-0.6,0.1-0.9c0.1-0.2,0.6-0.1,0.9,0s0.4-0.1,0.7-0.2s0.4,0,0.4,0.2s0,0.4-0.2,0.5  l-0.3,0.1c-0.4,0.1-0.6,0.4-0.6,0.8c0,0.5,0,0.9-0.1,1.4c0,0.3-0.2,0.4-0.5,0.4s-0.5-0.1-0.5-0.4S38.8,87.8,38.9,87.4L38.9,87.4z"></path>
<path class="st2" d="M28.1,87.3v-0.6c0-0.3,0-0.6,0.1-0.9c0.2-0.2,0.5-0.1,0.9,0s0.4-0.1,0.7-0.2s0.4,0,0.4,0.2s0,0.5-0.3,0.5  c-0.7,0.1-0.9,0.5-0.9,1.2v0.9c0,0.3-0.2,0.5-0.5,0.5c0,0-0.1,0-0.1,0c-0.4,0-0.3-0.3-0.3-0.5L28.1,87.3L28.1,87.3z"></path>
<path class="st17" d="M80.5,25.1c0.4,1.3,0.4,2.8-0.1,4.1c-1.7-3.7-4.4-6.9-7.7-9.4c-1.3-1.1-2.8-2.1-4.2-3  c-0.8-0.6-1.4-1.4-1.6-2.4c-0.1-0.1,0-0.3,0.1-0.3c0.1-0.1,0.2-0.1,0.3-0.2c1-0.5,1-0.5,2,0c2.5,1.3,4.8,3,6.9,4.9  c1.4,1.4,2.7,3.1,3.6,4.9C80.1,24.2,80.3,24.6,80.5,25.1z"></path>
</svg>
