<?xml version="1.0" encoding="UTF-8"?>
<svg xmlns="http://www.w3.org/2000/svg" id="Layer_1" data-name="Layer 1" viewBox="0 0 96.75 102.71">
  <defs>
    <style>.cls-1{fill:#eda247;}.cls-2{fill:#142d44;}.cls-3{fill:#142d45;}.cls-4{fill:#ce544e;}.cls-5{fill:#7e4349;}.cls-6{fill:#d3b078;}.cls-7{fill:#132e44;}.cls-8{fill:#f9f9f9;}.cls-9{fill:#152d44;}.cls-10{fill:#152d45;}.cls-11{fill:#162d45;}.cls-12{fill:#132d44;}.cls-13{fill:#162c44;}.cls-14{fill:#162d44;}.cls-15{fill:#7e4249;}.cls-16{fill:#887858;}.cls-17{fill:#f6f8f9;}.cls-18{fill:#fcfdfc;}.cls-19{fill:#fcfcfb;}.cls-20{fill:#eca147;}.cls-21{fill:#e6a047;}.cls-22{fill:#3c2813;}.cls-23{fill:#88c2e5;}.cls-24{fill:#eba147;}.cls-25{fill:#284d7c;}.cls-26{fill:#fafbfa;}.cls-27{fill:#ce544f;}.cls-28{fill:#183046;}.cls-29{fill:#182f45;}.cls-30{fill:#182f46;}</style>
  </defs>
  <path class="cls-1" d="M18.17,59.34a1.67,1.67,0,0,0-.77,0H9.67c-.56,0-.58-.06-.41-.58.28-.82.54-1.65.81-2.48a.71.71,0,0,0,0-.29,3.93,3.93,0,0,1,.35-1.54c.73-2.4,1.6-4.75,2.29-7.16.2-.68.47-1.34.66-2A.8.8,0,0,1,14,44.6c1.29-.12,2.57,0,3.86-.06a1.86,1.86,0,0,1,.57.07l.17.08a1.84,1.84,0,0,0,.87.09h64c1.89,0,3.79.08,5.68,0,.18,0,.49-.11.44.28l-.85,3a1.24,1.24,0,0,1-.08.76c-.86,2.64-1.73,5.28-2.58,7.92-.22.67-.38,1.34-.6,2s-.27.63-.86.67c-1,.1-2.09,0-3.13,0a13.37,13.37,0,0,1-1.79,0,9.2,9.2,0,0,1-1.66,0,3.93,3.93,0,0,1-.84,0,10.46,10.46,0,0,1-1.12,0H21.64a6,6,0,0,1-.85,0h-2A1.2,1.2,0,0,1,18.17,59.34Z"></path>
  <path class="cls-2" d="M12.35,41.39a78.47,78.47,0,0,1-.57-11.87c.06-2.42.23-4.84.53-7.25.27-2.26.65-4.49,1.09-6.72.07-.38.21-.5.62-.5H84.76c.44,0,.58.13.67.56a75.79,75.79,0,0,1,1.22,7.78A76.87,76.87,0,0,1,87,34.54q-.16,4.1-.74,8.15c-.1.66-.21,1.31-.31,2-.08.2-.26.17-.41.18H84c-.28,0-.47-.08-.5-.38a5.31,5.31,0,0,1,.21-1.68c.29-1.89.49-3.79.64-5.69a67.91,67.91,0,0,0,.17-6.84c-.06-2.41-.14-4.82-.44-7.22-.19-1.57-.4-3.15-.67-4.71-.13-.72-.15-.72-.89-.72h-66c-1,0-1,0-1.13,1-.31,1.87-.59,3.75-.74,5.63-.09,1.15-.18,2.29-.24,3.44-.11,1.81-.07,3.63-.08,5.44a66.6,66.6,0,0,0,.52,7.6,1.27,1.27,0,0,1,0,.67.11.11,0,0,1,0,.08A3.11,3.11,0,0,1,12.35,41.39Z"></path>
  <path class="cls-3" d="M18.17,59.34h2.62a.84.84,0,0,1,.42.45,62.35,62.35,0,0,0,6.63,9.11,78.62,78.62,0,0,0,5.83,6c1.88,1.77,3.86,3.42,5.9,5A77.76,77.76,0,0,0,48.84,86,1.06,1.06,0,0,0,50,86a80,80,0,0,0,10.58-7.08A79.79,79.79,0,0,0,69.18,71a63.66,63.66,0,0,0,8.4-11,1.35,1.35,0,0,1,.44-.51h1.65a.71.71,0,0,1,.06.82c-.24.63-.4,1.29-.63,1.93a1,1,0,0,1-.38.54,62.82,62.82,0,0,1-4.07,5.66A79,79,0,0,1,66.5,77,81.07,81.07,0,0,1,51,88.15c-.1,0-.2.09-.3.15-.45.22-.89.63-1.33.63s-.84-.41-1.26-.64a80.43,80.43,0,0,1-8.78-5.59,81.67,81.67,0,0,1-10.92-9.6,68.62,68.62,0,0,1-8.88-11.41C19,60.92,18.61,60.12,18.17,59.34Z"></path>
  <path class="cls-4" d="M84.74,59.33a.5.5,0,0,0,.54-.43c.76-2.5,1.52-5,2.39-7.47.38-1.09.68-2.22,1.06-3.31h4.81c.37,0,.49,0,.36.46-.67,2.08-1.33,4.17-2,6.27-.77,2.45-1.53,4.9-2.3,7.35-.07.24-.16.41-.49.41H78.94c0-.31.28-.31.46-.41C81.16,61.22,83,60.31,84.74,59.33Z"></path>
  <path class="cls-4" d="M12.35,41.39a10.09,10.09,0,0,0,2.33,0c.22-.18.45-.11.69-.07a1.62,1.62,0,0,0,.62.07h3.3c.19,0,.43,0,.47.23s-.19.28-.34.36c-1.61.79-3.2,1.63-4.77,2.49-.25.13-.54.11-.76.28a.85.85,0,0,0-.34.45c-.64,2.06-1.24,4.14-2,6.18C11,52.9,10.62,54.46,10,56q-2.24-.06-4.47,0c-.89,0-.88,0-.61-.78.87-2.72,1.79-5.42,2.61-8.15.52-1.72,1.09-3.41,1.62-5.13a.55.55,0,0,1,.61-.45A15.64,15.64,0,0,0,12.35,41.39Z"></path>
  <path class="cls-5" d="M84.74,59.33c0,.32-.27.35-.47.45L78.92,62.6h-.2a15.23,15.23,0,0,0,1-3.29Z"></path>
  <path class="cls-6" d="M83.62,44.5c0,.09,0,.24.12.24A7.14,7.14,0,0,0,86,44.65c.16.15.37.1.56.1H89.3c.21,0,.52,0,.29.36-.09-.31-.35-.18-.53-.19H20a3.33,3.33,0,0,1-1.47-.1.53.53,0,0,1,.45-.13h62.8a1.68,1.68,0,0,0,.86-.09.93.93,0,0,1,.26-.18A1.37,1.37,0,0,0,83.62,44.5Z"></path>
  <path class="cls-7" d="M21.58,59.34H77.23c.1.25-.07.43-.18.62a62.86,62.86,0,0,1-7,9.38c-1.67,1.89-3.47,3.64-5.3,5.35S61,78,59.05,79.52a76.18,76.18,0,0,1-9.18,6,.91.91,0,0,1-1,0A76,76,0,0,1,41,80.43a81.66,81.66,0,0,1-6.75-5.56c-1.5-1.37-2.95-2.79-4.33-4.27A63,63,0,0,1,21.78,60C21.67,59.77,21.48,59.6,21.58,59.34Z"></path>
  <path class="cls-8" d="M21.58,59.34a59.34,59.34,0,0,0,5.73,8.08A78.13,78.13,0,0,0,45.45,83.3c1.23.79,2.5,1.5,3.74,2.25.23.14.37,0,.53-.11a74.6,74.6,0,0,0,7.75-4.93A78.54,78.54,0,0,0,70.83,68.24,61.82,61.82,0,0,0,77,59.76c.09-.14.16-.28.24-.42H78a58.43,58.43,0,0,1-5.49,7.94,77,77,0,0,1-11.6,11.45,75.33,75.33,0,0,1-11,7.36,1,1,0,0,1-1.16,0c-1.4-.84-2.82-1.64-4.2-2.52A79.17,79.17,0,0,1,30,71.57a65,65,0,0,1-9-11.89c-.07-.12-.12-.23-.18-.35Z"></path>
  <path class="cls-9" d="M37.9,56c-2,0-3-1-2.78-2.79a5.56,5.56,0,0,1,2.77-4.6,3.6,3.6,0,0,1,3.83-.09,1.82,1.82,0,0,1,.83,1.27,5.78,5.78,0,0,1-3.2,5.94A4.44,4.44,0,0,1,37.9,56Z"></path>
  <path class="cls-9" d="M31.78,55.93c-1.07,0-1.07,0-.72-1l.59-1.74c.1-.28.06-.41-.28-.43C30,52.64,30,52.63,29.53,54c-.19.54-.38,1.07-.54,1.62a.44.44,0,0,1-.52.36h0a8.15,8.15,0,0,0-1.21,0c-.39,0-.49-.1-.36-.48.35-1,.67-2,1-3,.45-1.3.92-2.59,1.34-3.9.1-.29.23-.38.51-.37s.85,0,1.27,0,.45.1.33.45c-.25.67-.44,1.36-.68,2-.11.3-.05.39.28.41,1.44.06,1.44.06,1.87-1.32.16-.51.23-1.15.58-1.46s1-.06,1.55-.11.48.14.35.51C34.52,51,33.75,53.27,33,55.55c-.09.28-.21.41-.51.38A5.57,5.57,0,0,0,31.78,55.93Z"></path>
  <path class="cls-10" d="M47.57,55.93c-1.07,0-1.07,0-1.35-1-.14-.5-.27-1-.41-1.5,0-.13-.05-.3-.25-.31s-.27.13-.32.29c-.23.68-.47,1.35-.67,2-.11.38-.28.58-.71.53a5.62,5.62,0,0,0-1.16,0c-.35,0-.42-.09-.31-.42.6-1.71,1.18-3.43,1.77-5.14.21-.61.42-1.23.62-1.84a.4.4,0,0,1,.44-.35c.83,0,1.66,0,2.48.06,1.18.14,1.65.52,1.7,1.85a4.61,4.61,0,0,1-.4,1.55c-.13.43-.56.6-.94.78s-.39.29-.27.63c.25.78.44,1.59.69,2.38.13.4,0,.54-.37.5A4.87,4.87,0,0,0,47.57,55.93Z"></path>
  <path class="cls-11" d="M23.16,56a4.37,4.37,0,0,1-1.75-.31.45.45,0,0,1-.3-.56h0c.11-.43-.08-1,.21-1.26s.74.26,1.15.33a3.74,3.74,0,0,0,1,.1.71.71,0,0,0,.65-.43.63.63,0,0,0-.15-.72,4.91,4.91,0,0,0-.74-.7A2.21,2.21,0,0,1,23,49.36a3.34,3.34,0,0,1,3.51-1.2,4,4,0,0,1,1.06.33c.23.1.31.22.16.44a2.39,2.39,0,0,0-.13.21c-.2.33-.32.79-.61,1s-.71-.18-1.07-.27h-.48a.66.66,0,0,0-.69.37.7.7,0,0,0,.14.81,10.65,10.65,0,0,0,.91.87A1.9,1.9,0,0,1,26.24,54a2.69,2.69,0,0,1-2.3,2Z"></path>
  <path class="cls-10" d="M66.51,56a4.1,4.1,0,0,1-1.66-.33.4.4,0,0,1-.3-.44l.15-1.35c0-.28.18-.21.34-.12a3.63,3.63,0,0,0,1.76.48.75.75,0,0,0,.78-.45.73.73,0,0,0-.26-.83,4.1,4.1,0,0,0-.53-.49A2,2,0,0,1,66,50.22a2.62,2.62,0,0,1,1.9-2,4.37,4.37,0,0,1,3,.2c.3.13.37.28.19.55l-.14.25c-.19.3-.31.71-.58.88s-.61-.2-.94-.26a5.58,5.58,0,0,0-.57-.08.67.67,0,0,0-.72.39.7.7,0,0,0,.16.8c.33.39.72.7,1.07,1.06a1.67,1.67,0,0,1,.41,1.52A2.74,2.74,0,0,1,67.38,56Z"></path>
  <path class="cls-12" d="M76.24,49.92c-.79,0-.79,0-1,.77-.55,1.63-1.11,3.25-1.65,4.87-.09.27-.21.4-.51.38a8.83,8.83,0,0,0-1.26,0c-.47,0-.42-.2-.31-.51l1.59-4.64c.35-1,.24-.9-.63-.85h-.29c-.44,0-.48-.14-.35-.51.42-1.23.41-1.23,1.69-1.23h3.75c.46,0,.54.15.35.53a1.49,1.49,0,0,1-.13.37C77.14,49.92,77.14,49.92,76.24,49.92Z"></path>
  <path class="cls-10" d="M53.61,48.2H56c.28,0,.41.08.28.37l-.06.18c-.39,1.22-.39,1.23-1.69,1.17-.36,0-.47.15-.57.44-.55,1.66-1.14,3.31-1.67,5-.14.46-.36.66-.85.6a5.57,5.57,0,0,0-1,0c-.41,0-.41-.15-.31-.46.55-1.57,1.08-3.15,1.62-4.73l.15-.46c.08-.25,0-.39-.27-.35h0c-.39,0-1.06.16-1.13-.11-.13-.48.24-1,.41-1.51.06-.16.26-.11.4-.11h2.33Z"></path>
  <path class="cls-13" d="M57.29,55.93H55.44c-.3,0-.45,0-.33-.41.81-2.32,1.61-4.65,2.38-7,.09-.25.21-.37.49-.35h1.36c.28,0,.37.07.26.37-.59,1.7-1.15,3.4-1.74,5.09-.15.41-.09.56.37.53s1,0,1.5,0,.43.14.31.44v.1c-.41,1.21-.41,1.21-1.7,1.21Z"></path>
  <path class="cls-14" d="M61.84,55.93h-.25c-.91,0-.94.14-.61-.83.72-2.13,1.46-4.25,2.16-6.39.13-.38.3-.55.71-.51s.84,0,1.26,0c.25,0,.36,0,.26.34-.81,2.35-1.61,4.7-2.4,7.07a.39.39,0,0,1-.45.32h-.68Z"></path>
  <path class="cls-15" d="M13.89,44.74A4.58,4.58,0,0,1,15.13,44c1.31-.72,2.65-1.39,4-2.1.19-.09.43,0,.57-.25-.1-.2-.28-.11-.42-.11H15.9a1.11,1.11,0,0,1-.57-.07.36.36,0,0,1,0-.4,14.19,14.19,0,0,0,3.85.13,1.62,1.62,0,0,1,.44,0c.45.09.62.32.48.76-.27.86-.5,1.74-.81,2.58a.37.37,0,0,1-.23.23,1.32,1.32,0,0,1-.56,0Z"></path>
  <path class="cls-16" d="M18.48,44.75h.58a1.63,1.63,0,0,1,.9-.12H82.7a.28.28,0,0,1,.18.06c0,.12-.09.16-.2.17H18.49a.06.06,0,0,1,0-.08Z"></path>
  <path class="cls-17" d="M15.36,41.08v.37a2.06,2.06,0,0,1-.65-.07,79,79,0,0,1-.41-15.53,77,77,0,0,1,1-8c.06-.31.1-.52.53-.51h67.3a.38.38,0,0,1,.37.33,70.47,70.47,0,0,1,1,7.8,78.33,78.33,0,0,1,.11,10.39,52.46,52.46,0,0,1-1,8,5.7,5.7,0,0,0-.06.58c-.27.35-.47.34-.68,0a.71.71,0,0,1-.09-.6c.3-1.63.48-3.27.67-4.91.12-1,.15-2,.23-3a55.89,55.89,0,0,0,.09-6.07,75.37,75.37,0,0,0-.6-8.22c-.13-1-.3-1.92-.44-2.88a.48.48,0,0,0-.46-.5H17.1c-1,0-1,0-1.18,1-.38,2.3-.61,4.62-.79,6.94A79.61,79.61,0,0,0,15,34.67a49.58,49.58,0,0,0,.42,5.17A2.18,2.18,0,0,1,15.36,41.08Z"></path>
  <path class="cls-7" d="M15.36,41.08c-.11-.88-.24-1.76-.32-2.64a77.58,77.58,0,0,1-.16-11.51,74.72,74.72,0,0,1,1-8.44c.07-.37.21-.45.57-.45H82.33c.46,0,.58.16.66.59a78.49,78.49,0,0,1,1.07,11.85,75.63,75.63,0,0,1-.53,10.09c-.16,1.31-.37,2.62-.59,3.93l-.06.16h-.06a1.57,1.57,0,0,1-.53,0H19.83a1.21,1.21,0,0,1-.7-.14c.26-.85.51-1.7.77-2.54.17-.54.1-.66-.48-.66a13.33,13.33,0,0,0-1.68.07,13.35,13.35,0,0,0-2,0C15.48,41.46,15.46,41.23,15.36,41.08Z"></path>
  <path class="cls-18" d="M49.53,68.44a6.39,6.39,0,0,1-.44,2.33.78.78,0,0,1-.24.3,2.28,2.28,0,0,1-3.22-.2,2.26,2.26,0,0,1-.48-.87,6.52,6.52,0,0,1,0-3.56A2.26,2.26,0,0,1,48,65a2,2,0,0,1,.51.23c.62.36.69,1,.88,1.55A5.49,5.49,0,0,1,49.53,68.44Z"></path>
  <path class="cls-18" d="M42,70.06h1.94c.32,0,.41.09.41.41,0,1.06,0,1.06-1.07,1.06H39.93c-.27,0-.35-.06-.37-.34a1.58,1.58,0,0,1,.55-1.41c.68-.62,1.3-1.31,1.93-2,.41-.46.5-1,.27-1.22a1.12,1.12,0,0,0-1.3.09c-.54.34-.57.36-1-.15s-.56-.65.17-1.12A3.24,3.24,0,0,1,42.92,65a1.82,1.82,0,0,1,1.26,2.24,2,2,0,0,1-.13.34,4.62,4.62,0,0,1-1.22,1.55L42,70Z"></path>
  <path class="cls-18" d="M57.67,70.06h1.89c.33,0,.48.06.48.45,0,1,0,1-1,1H55.68c-.3,0-.36-.09-.38-.39a1.52,1.52,0,0,1,.54-1.35,21,21,0,0,0,2-2c.43-.52.51-.94.25-1.22s-.75-.23-1.26.09-.62.38-1.09-.18-.49-.58.14-1A3.15,3.15,0,0,1,58.65,65a1.84,1.84,0,0,1,1.22,2.3,1.82,1.82,0,0,1-.22.47,5.61,5.61,0,0,1-1.29,1.5l-.71.65Z"></path>
  <path class="cls-19" d="M52.2,70.06h2.07c.3,0,.43.06.43.4,0,1.07,0,1.07-1.06,1.07H50.38c-.34,0-.47-.07-.48-.45a1.48,1.48,0,0,1,.51-1.23c.69-.66,1.34-1.37,2-2.07.44-.48.53-.93.29-1.22s-.76-.25-1.29.08a1.39,1.39,0,0,0-.31.23c-.17.18-.3.14-.44,0l-.35-.4c-.47-.55-.47-.56.14-1A3.2,3.2,0,0,1,53.26,65a1.81,1.81,0,0,1,1.28,2.22c0,.07,0,.15-.08.22a3.5,3.5,0,0,1-.92,1.35C53.14,69.19,52.72,69.57,52.2,70.06Z"></path>
  <path class="cls-20" d="M37.24,53.27a4.9,4.9,0,0,1,1.43-3.05,1.51,1.51,0,0,1,.87-.41.81.81,0,0,1,.9.69,4.28,4.28,0,0,1-1.54,3.55,1.16,1.16,0,0,1-1.24.1A.91.91,0,0,1,37.24,53.27Z"></path>
  <path class="cls-21" d="M47.39,50.41a1.21,1.21,0,0,1-1.15,1.17c-.32,0-.35-.11-.24-.38a6.89,6.89,0,0,0,.33-1c.08-.3.22-.46.55-.39A.59.59,0,0,1,47.39,50.41Z"></path>
  <path class="cls-22" d="M19.13,44.54a3.77,3.77,0,0,0,1.06.09H82.82c-.16.14-.34.09-.52.09H19.06Z"></path>
  <path class="cls-18" d="M48.72,35.23v2.63c0,.34-.09.44-.44.44C47,38.31,47,38.32,47,37V29.9c0-.42.14-.55.52-.52s.82,0,1.08.43c.13.22.24,0,.34,0a2.12,2.12,0,0,1,3,.18,2.31,2.31,0,0,1,.37.6,4.55,4.55,0,0,1,0,3.82A2.33,2.33,0,0,1,48.72,35.23Z"></path>
  <path class="cls-23" d="M27,26a28.65,28.65,0,0,1,2.82-1.14c.39-.17.79-.3,1.18-.45.1,0,.21-.15.31-.05s0,.22,0,.32c-.59,1.93-1.18,3.86-1.79,5.79l-2.28,7.25a.67.67,0,0,0,0,.2c-.2,0-.19-.2-.21-.33a3.73,3.73,0,0,1-.07-.82V29.4A32.14,32.14,0,0,1,27,26Z"></path>
  <path class="cls-18" d="M36.82,26.75a3.57,3.57,0,0,1,2.07.69.92.92,0,0,1,.2,1.29.94.94,0,0,1-.3.26c-.17.1-.24,0-.32-.11a2.6,2.6,0,0,0-1.34-.65,2,2,0,0,0-2.35,1.27,4.55,4.55,0,0,0-.13,3.15,2.25,2.25,0,0,0,2.76,1.59,2.41,2.41,0,0,0,.77-.38c.18-.12.34-.59.69-.16s.48,1,.1,1.33a2.38,2.38,0,0,1-1,.51,4.24,4.24,0,0,1-3.92-.64,3.16,3.16,0,0,1-1-1.54,6.23,6.23,0,0,1,0-4A3.68,3.68,0,0,1,36.82,26.75Z"></path>
  <path class="cls-19" d="M80,32.92a7.63,7.63,0,0,0,.21,2.43c.07.16,0,.22-.17.27a1.29,1.29,0,0,1-1.51-.41c-.19-.23-.28,0-.39,0a2.56,2.56,0,0,1-1.94.41,1.67,1.67,0,0,1-1.5-1.42,1.82,1.82,0,0,1,1-2.07,5.72,5.72,0,0,1,2.11-.5c.18,0,.5.19.52-.21a.71.71,0,0,0-.42-.8,2.35,2.35,0,0,0-1.57,0c-.13.05-.26.13-.4.17s-.47.42-.71,0-.27-.8.17-1a4.14,4.14,0,0,1,3.6-.25,1.78,1.78,0,0,1,1,1.85Z"></path>
  <path class="cls-19" d="M45.5,33.06a6.88,6.88,0,0,0,.19,2.26c.06.15,0,.23-.14.29A1.3,1.3,0,0,1,44,35.22c-.18-.23-.26-.06-.38,0a2.54,2.54,0,0,1-2,.42,1.67,1.67,0,0,1-1.5-1.49,1.86,1.86,0,0,1,1-2,5.17,5.17,0,0,1,2.15-.53c.19,0,.52.16.55-.18a.72.72,0,0,0-.49-.85,2.33,2.33,0,0,0-1.52.07c-.13,0-.24.12-.36.15s-.5.48-.74,0-.25-.82.22-1.06a4.3,4.3,0,0,1,3.44-.24c.88.31,1.08,1.1,1.12,1.93A10.37,10.37,0,0,1,45.5,33.06Z"></path>
  <path class="cls-18" d="M61.88,32.79H60.42c-.46,0-.39.15-.31.43a1.74,1.74,0,0,0,2.74.9c.15-.1.27-.52.57-.18a.91.91,0,0,1,.2,1.15,1.11,1.11,0,0,1-.46.34,3.81,3.81,0,0,1-3.17,0,2.77,2.77,0,0,1-1.65-2.59,3.09,3.09,0,0,1,1.44-3.26,2.63,2.63,0,0,1,3.65.73,2.34,2.34,0,0,1,.35.77,5.05,5.05,0,0,1,.08,1.45c0,.25-.17.23-.33.23Z"></path>
  <path class="cls-19" d="M55.54,32.3v1.12c0,.85.51,1.15,1.29.79.15-.08.31-.46.54-.09s.43.69.09,1a2.42,2.42,0,0,1-2.4.5,1.56,1.56,0,0,1-1.22-1.46c-.12-1.37,0-2.75-.05-4.13V27.85c0-.28.09-.36.35-.39,1-.11,1.4.26,1.4,1.24,0,.7,0,.7.69.7h.53c.43,0,.6.07.58.54-.05.94.08.76-.78.77s-1,0-1,1v.58Z"></path>
  <path class="cls-24" d="M27,26c.14.18.08.4.08.6v2.74a.29.29,0,0,1-.14.13.81.81,0,0,1-.38,0c-2.38,0-4.76.09-7.14.06H18.5c-.13,0-.26,0-.24-.21l4.87-1.88,3.22-1.22A4.13,4.13,0,0,1,27,26Z"></path>
  <path class="cls-25" d="M26.83,29.39l.22-.05a4.44,4.44,0,0,1,.05,1.15v6.78c0,.22-.07.45.1.65,0,.06,0,.14-.05.17S27,38,27,38c-.28-.65-.56-1.3-.82-2-.47-1.17-.9-2.35-1.38-3.5-.13-.31-.05-.74-.46-.91-.08-.06-.07-.16-.08-.24a.86.86,0,0,0-.35-.73A2.59,2.59,0,0,1,23.6,30c-.15-.44-.07-.55.39-.56C24.93,29.4,25.88,29.44,26.83,29.39Z"></path>
  <path class="cls-19" d="M66.85,30a1.76,1.76,0,0,1,1.66-.7c.58.08.79.37.66.93,0,.18-.13.34-.18.51-.09.35-.22.4-.57.2a1,1,0,0,0-1.37.35,1,1,0,0,0-.14.58v3.49c0,.33-.1.41-.42.41-1.32,0-1.32,0-1.32-1.29V29.87c0-.37.12-.48.46-.47A1.18,1.18,0,0,1,66.85,30Z"></path>
  <path class="cls-26" d="M70.1,32.59V29.78c0-.27.09-.39.36-.39a1.33,1.33,0,0,1,1.18.39c.16.22.25.08.37,0a1.67,1.67,0,0,1,1.47-.46c.54.09.73.35.62.89a4.16,4.16,0,0,1-.16.5c-.11.3-.18.52-.59.25a1,1,0,0,0-1.37.35,1,1,0,0,0-.14.58c.07,1.16,0,2.32,0,3.49,0,.32-.09.44-.41.41a8.34,8.34,0,0,0-1,0c-.32,0-.38-.11-.38-.39V32.63Z"></path>
  <path class="cls-27" d="M24.37,31.4v.19L20,30.1l-1.59-.55c-.13,0-.31-.07-.11-.25a.25.25,0,0,0,.24.11c2.76-.1,5.52,0,8.27,0h.1a23.43,23.43,0,0,1-2.65,0c-.6,0-.62,0-.4.6.08.2.18.4.28.61S24.28,31.14,24.37,31.4Z"></path>
  <path class="cls-28" d="M47.91,68.24a5.92,5.92,0,0,1-.1,1.35c-.1.43-.17.62-.53.6s-.45-.32-.5-.63a8.41,8.41,0,0,1,0-2.65.54.54,0,0,1,.53-.59c.36,0,.45.3.49.57C47.86,67.35,47.88,67.82,47.91,68.24Z"></path>
  <path class="cls-10" d="M48.73,32.45v-.92a.76.76,0,0,1,.44-.88,1.12,1.12,0,0,1,1.1.15,1.32,1.32,0,0,1,.49.92,4.08,4.08,0,0,1-.1,1.77,1.08,1.08,0,0,1-1.29.82,1.13,1.13,0,0,1-.39-.17.5.5,0,0,1-.25-.48Z"></path>
  <path class="cls-29" d="M78.37,33.32c0,.85-.36,1.22-1.17,1.21a.76.76,0,0,1-.82-.47.87.87,0,0,1,.19-1,2.28,2.28,0,0,1,1.63-.47c.15,0,.17.11.17.23Z"></path>
  <path class="cls-11" d="M43.85,33.29c0,.86-.28,1.2-1.09,1.24-.42,0-.78-.08-.92-.53a.9.9,0,0,1,.33-1.08,2.93,2.93,0,0,1,1.48-.37c.15,0,.2.07.2.2Z"></path>
  <path class="cls-30" d="M61.12,31.81h-.53c-.6,0-.65-.08-.44-.63a1.08,1.08,0,0,1,1.27-.72,1,1,0,0,1,.83,1.05c0,.25-.08.32-.3.31s-.55,0-.83,0Z"></path>
  <path class="cls-7" d="M24.37,31.4a3.34,3.34,0,0,1-.3-.76C24.4,30.8,24.37,31.11,24.37,31.4Z"></path>
</svg>
